<svg id="_1-1" data-name="1-1" xmlns="http://www.w3.org/2000/svg" viewBox="0 0 201 424">
  <g id="legs">
    <path id="l-leg" d="M94.8,230.5s5.1,41.8.6,67c0,0,7.4,86.7,1.8,108.4H81.3L72.5,232.9Z" fill="#eecb9b" stroke="#eac179" stroke-miterlimit="10"/>
  </g>
  <path id="r-leg" d="M125.3,230.5s5.3,41.9.5,67.1c0,0,7.8,86.6,1.9,108.4H110.9L101.6,233Z" fill="#eecb9b" stroke="#eac179" stroke-miterlimit="10"/>
  <path id="skirt" d="M51.2,272.5h96.7V259.9s-.7-11.3-3.2-16.3l-9-22.7s-7.5-8.5-7.7-14.7l-1.3-9.9H71.3l-.3,12S58.2,228,53.9,248.7C53.9,248.7,50.7,263.9,51.2,272.5Z" fill="#3a342a"/>
  <path id="neck" d="M89.5,92.8,75.8,115.6l48.3-1.3s-15.3-5.1-14.3-22.6C103.5,94.9,95.8,95.7,89.5,92.8Z" fill="#eecb9b" stroke="#eac179" stroke-miterlimit="10"/>
  <g id="top">
    <path id="shirt" d="M35.3,102.8S54.7,120,66.4,113l29.3,2.6,28.4-1.3s15.9-4.3,27.7,11.5c0,0,31.2,37.8,35.3,58.1v9.9s-1.6-20.5-18.7-4.6c0,0-3.8-11.3-29-34.9,0,0-8.5,11.3-9.9,21.1-.3,1.9-2.8,21-2.8,21H72.2s1.3-12.9-3.9-22.1c0,0-9.5-4.1-6.4-21.4,0,0-.1-4.3-7-8.7L11.5,114.6h4.3l8.4-3.5Z" fill="#d0ecec"/>
    <polygon id="cross" points="129.1 138.6 129.1 140.6 123 140.6 123 146.6 121 146.6 121 140.6 115 140.6 115 138.6 121 138.6 121 132.6 123 132.6 123 138.6 129.1 138.6" fill="#ed1c24"/>
  </g>
  <path id="hair-back" d="M81.3,131.6c-.4.6-4.7,7.2-1.4,12.8a8.8,8.8,0,0,0,7.1.6l.8-.3.5-.3s-.7,6.6-9.5,8.7H69.4s-10.3-5.6-12-15.2c-.4-2.1,0-13.6,0-13.6a20.2,20.2,0,0,1,10.9-15.9s9.5-3.6,10.8-8.2v-19l1.8,1.5v-.6c0-.4,2.4,2.1,4.5,4.5s3.6,4,3.6,4,5.3,19.3.9,28.7a40.4,40.4,0,0,1-8.5,12.3Z" fill="#533814"/>
  <path id="face-skin" d="M132.9,57.9,129,64.5c-4,17.1-19.2,27-19.2,27h-.1c-6.3,3.2-12.9,4.1-19.2,1.2l-.8-.4c-8.6-3.2-24.4-22.1-24.4-22.1L61,51.7,94.4,19.3l35.7,21.8Z" fill="#eecb9b" stroke="#eac179" stroke-miterlimit="10"/>
  <path id="hair-top" d="M119.9,19.8C100.8-.8,89.2,13.5,89.2,13.5,67,4.1,59.5,38.4,59.5,38.4l-.3.7c3.6,2.5,4.8,7.3,6.2,11.3,3.1-4.1,30.1-26.8,30.1-26.8S103,34.8,112.1,38a46.5,46.5,0,0,1,8.6,4.4c3.9.5,11.3,3.3,11.3,3.3C129.3,28.5,119.9,19.8,119.9,19.8Z" fill="#533814" stroke="#4b3014" stroke-miterlimit="10"/>
  <path id="hair-l" d="M60.1,36.2c-6.7,16.4-.6,39.6-.6,39.6,1.1,11.6,10.7,17.1,10.7,17.1,7.1,6.7-2.8,8.8-2.8,8.8l5.8-1.1c6-3.4,3.2-9.8,3.2-9.8-8.3-2.3-11.3-14.7-11.3-14.7s1.2-24.2,0-25.1,2.2-2.6,2.4-2.9" fill="#533814" stroke="#4b3014" stroke-linecap="square" stroke-miterlimit="10"/>
  <path id="hair-r" d="M119.1,41.3a116.7,116.7,0,0,1,11,8.6c3.3,4.9-1.2,14.6-1.2,14.6-4.7,15.4,1.2,17.6,1.2,17.6-1.9-9,1.9-12.7,1.9-12.7a26.3,26.3,0,0,0-.1-24.9" fill="#533814" stroke="#4b3014" stroke-linecap="square" stroke-miterlimit="10"/>
  <g id="lip">
    <path id="lip-bottom" d="M91.1,81.2c1.1,0,9.7,5,19.1-2Z" fill="#e4273a" stroke="#c42127" stroke-miterlimit="10"/>
    <path id="lip-top" d="M91.1,81.2c1.7-.2,8.1-9.3,19.1-2Z" fill="#e4273a" stroke="#c42127" stroke-miterlimit="10"/>
  </g>
  <g id="eye-r">
    <path id="pupil-r" d="M115.5,59.4a4.7,4.7,0,0,1-6.6,0,4.3,4.3,0,0,1,0-3.7l6.6-.2A4.3,4.3,0,0,1,115.5,59.4Z"/>
    <g id="lid-r">
      <path d="M120.5,56.8s-11-1-15.4.5a10.8,10.8,0,0,1,7.7-2.7,6.4,6.4,0,0,0,.2-2.1,5.2,5.2,0,0,1,.1,2.1h.9a9.3,9.3,0,0,0,.1-2.2,4.2,4.2,0,0,1,.1,2.2h.6a7.1,7.1,0,0,0,.3-2.5,4.1,4.1,0,0,1,0,2.5l.8.2a6.2,6.2,0,0,0,.1-2.3,4,4,0,0,1,.1,2.4h.6a8.3,8.3,0,0,0,.3-2.7,4.2,4.2,0,0,1-.1,2.8l.8.2a6,6,0,0,0,.3-2.7,3.6,3.6,0,0,1-.1,2.8l.6.3a5.7,5.7,0,0,0,.5-3,4,4,0,0,1-.3,3.1l.6.2c.9-1.1.7-3.3.7-3.3.7,2.3-.5,3.4-.5,3.4Z"/>
    </g>
  </g>
  <g id="eye-l">
    <path id="pupil-l" d="M80.8,60.1a4.5,4.5,0,0,0,6.5,0,4.3,4.3,0,0,0,0-3.7H80.8A3.8,3.8,0,0,0,80.8,60.1Z"/>
    <path id="lid-l" d="M91.1,58c-4.4-1.5-15.4-.5-15.4-.5l1.1-.5a3.4,3.4,0,0,1-.6-3.4,5.9,5.9,0,0,0,.7,3.4l.6-.3a3.8,3.8,0,0,1-.3-3,6.7,6.7,0,0,0,.5,2.9l.7-.2a3.8,3.8,0,0,1-.2-2.9,7.4,7.4,0,0,0,.4,2.8l.7-.3a4.8,4.8,0,0,1-.1-2.8,6.8,6.8,0,0,0,.4,2.7h.5a4.6,4.6,0,0,1,.1-2.3,6.9,6.9,0,0,0,.2,2.2h.7a4.5,4.5,0,0,1,0-2.6,7.1,7.1,0,0,0,.3,2.5H82a4.2,4.2,0,0,1,.1-2.2,7,7,0,0,0,.2,2.2h.9a3.1,3.1,0,0,1,.1-2.1,8.5,8.5,0,0,0,.1,2.1A10.8,10.8,0,0,1,91.1,58Z"/>
  </g>
  <path id="brow-r" d="M101.6,46.5s14.6-3.2,20.4,2.3H101.6A2.1,2.1,0,0,1,101.6,46.5Z"/>
  <path id="brow-l" d="M90.9,46.2S76,46.1,71.4,52.6l20-4.2A2.1,2.1,0,0,0,90.9,46.2Z"/>
  <path id="arm-r" d="M168.9,188.4s15.1-12.9,18.1,4.9c0,0,1.8,2.2-7.5,16.5,0,0-23.5,30-24.1,30.4s-5,10.7-15.9-.9l-14.5.4s-25.1-8.5,10.7-18.8c0,0,6.8,5.6,9.4,11.2,0,0,3.4,3.4,5.4-1.5C150.5,230.6,164.8,192.9,168.9,188.4Z" fill="#eecb9b" stroke="#eac179" stroke-miterlimit="10"/>
  <path id="arm-l" d="M12.2,94.7S-1.1,130.6,31.7,106A243.7,243.7,0,0,0,59.6,76.7l8-10.5,5.2-13.7S89.6,42,97,32.4c0,0,6.1-11-6.9-12.2,0,0-12.7.8-22.9,13.7a25.7,25.7,0,0,0-1.8,16.5S16.9,85,12.2,94.7Z" fill="#eecb9b" stroke="#eac179" stroke-miterlimit="10"/>
</svg>
