<?xml version="1.0" encoding="utf-8"?>
<!-- Generator: Adobe Illustrator 24.3.0, SVG Export Plug-In . SVG Version: 6.00 Build 0)  -->
<svg version="1.1" xmlns="http://www.w3.org/2000/svg" xmlns:xlink="http://www.w3.org/1999/xlink" x="0px" y="0px"
	 viewBox="0 0 201.03 424.03" style="enable-background:new 0 0 201.03 424.03;" xml:space="preserve">
<style type="text/css">
	.st0{fill:#EECB9B;stroke:#EAC179;stroke-miterlimit:10;}
	.st1{fill:#3A342A;}
	.st2{fill:#D0ECEC;}
	.st3{fill:#533814;}
	.st4{fill:#533814;stroke:#4B3014;stroke-miterlimit:10;}
	.st5{stroke:#FFFFFF;stroke-miterlimit:10;}
	.st6{fill:#E4273A;stroke:#C42127;stroke-miterlimit:10;}
	.st7{fill:#EECB9B;}
	.st8{fill:#ED1C24;}
</style>
<g id="skirt">
	<path class="st0" d="M125.28,230.54c0,0,5.29,41.86,0.51,67.01c0,0,7.84,86.68,1.92,108.41l-16.79,0.13l-9.27-173.14L125.28,230.54
		z"/>
	<path class="st0" d="M94.85,230.45c0,0,5.02,41.87,0.51,67.01c0,0,7.45,86.69,1.86,108.41l-15.87,0.12l-8.83-173.14L94.85,230.45z"
		/>
	<path class="st1" d="M51.24,272.49h96.67v-12.58c0,0-0.68-11.33-3.25-16.36l-8.95-22.68c0,0-7.51-8.45-7.7-14.64l-1.31-9.9H71.33
		l-0.38,11.97c0,0-12.76,19.71-17.08,40.36C53.87,248.66,50.68,263.86,51.24,272.49z"/>
</g>
<g id="top">
	<path class="st2" d="M35.3,102.77c0,0,19.37,17.19,31.06,10.25l29.37,2.55l28.34-1.31c0,0,15.89-4.22,27.7,11.54
		c0,0,31.27,37.84,35.34,58.06v9.94c0,0-1.59-20.55-18.75-4.64c0,0-3.78-11.26-28.98-34.91c0,0-8.46,11.33-9.85,21.12
		c-0.28,1.97-2.82,20.98-2.82,20.98H72.22c0,0,1.27-12.81-3.94-22.1c0,0-9.43-4.08-6.34-21.4c0,0-0.14-4.26-7.04-8.68l-43.36-29.54
		h4.22l8.41-3.52L35.3,102.77z"/>
</g>
<g id="face">
	<path class="st0" d="M109.81,91.55c0,0,15.17-9.93,19.15-27.03l3.94-6.57l-2.82-16.89L94.42,19.28L61,51.75l4.34,18.58
		c0,0,15.74,18.83,24.38,22.09l-13.97,23.16l48.32-1.31C124.07,114.26,108.68,109.19,109.81,91.55z"/>
</g>
<g id="hair_1_">
	<g id="hair">
		<g id="Layer_10">
			<g>
				<path class="st3" d="M80.83,82.11c-0.04-0.68,8.07,8.45,8.07,8.45s5.26,19.33,0.94,28.72c-4.32,9.39-9.95,13.51-9.95,13.51
					s-5.82,6.76,0,11.64c0,0,0.19,3.94,8.45,0c0,0-0.75,6.57-9.57,8.63h-9.39c0,0-10.27-5.59-12.01-15.2c-0.38-2.06,0-13.51,0-13.51
					s0.38-10.32,10.89-15.96c0,0,9.57-3.57,10.89-8.26C79.14,100.13,81.95,103.14,80.83,82.11z"/>
				<polygon class="st3" points="79.14,81.17 79.14,106.33 85.33,95.25 85.33,86.61 				"/>
				<path class="st3" d="M81.29,131.58c0,0-4.88,6.94-1.4,12.85c0,0,4.04,2.44,8.45,0l-14.55,7.32l-3.85-13.51L81.29,131.58z"/>
			</g>
		</g>
		<path class="st4" d="M89.16,13.46c0,0,11.64-14.27,30.78,6.38c0,0,9.39,8.63,12.01,25.9c0,0,7.13,9.76,0,23.65
			c0,0-3.75,3.75-1.88,12.76c0,0-5.85-2.26-1.13-17.64c0,0,4.5-9.76,1.13-14.64c0,0-8.84-8.63-17.94-11.83S95.54,23.6,95.54,23.6
			S64.01,50.06,65.13,51c1.13,0.94-0.03,25.15-0.03,25.15s3.03,12.39,11.29,14.64c0,0,2.82,6.38-3.19,9.76l-5.82,1.13
			c0,0,9.95-2.06,2.82-8.82c0,0-9.57-5.44-10.7-17.08c0,0-7.13-20.84,0-37.35C59.5,38.42,67.01,4.07,89.16,13.46z"/>
	</g>
</g>
<g id="face_1_">
	<path d="M101.55,46.5c0,0,14.64-3.19,20.46,2.25h-20.46C101.55,48.75,100.8,47.62,101.55,46.5z"/>
	<path class="st5" d="M110.23,79.2"/>
	<path class="st6" d="M91.08,81.17c1.13,0,9.71,5.07,19.15-1.97L91.08,81.17z"/>
	<path class="st6" d="M91.08,81.17c1.74-0.18,8.17-9.29,19.15-1.97L91.08,81.17z"/>
	<path d="M90.94,46.16c0,0-14.98-0.09-19.55,6.45l20.02-4.24C91.41,48.37,91.91,47.11,90.94,46.16z"/>
	<g>
		<path d="M120.48,56.81c0,0-10.98-1.03-15.39,0.47C105.09,57.28,110.63,51.55,120.48,56.81z"/>
		<path d="M115.46,59.41c0,0-2.91,3.1-6.57,0c0,0-1.02-2.03,0-3.75l6.57-0.12C115.46,55.54,116.58,57.53,115.46,59.41z"/>
		<path d="M119.47,56.3c0,0,1.2-1.12,0.55-3.44c0,0,0.21,2.34-0.75,3.44"/>
		<path d="M117.47,56.22c0,0,1.2-1.12,0.55-3.44c0,0,0.21,2.34-0.75,3.44"/>
		<path d="M118.44,56.36c0,0,1.2-1.12,0.55-3.44c0,0,0.21,2.34-0.75,3.44"/>
		<path d="M116.44,55.93c0,0,1.2-1.12,0.55-3.44c0,0,0.21,2.34-0.75,3.44"/>
		<path d="M115.5,56.19c0,0,1.2-1.12,0.55-3.44c0,0,0.21,2.34-0.75,3.44"/>
		<path d="M113.56,55.93c0,0,1.2-1.12,0.55-3.44c0,0,0.21,2.34-0.75,3.44"/>
		<path d="M114.55,55.74c0,0,1.2-1.12,0.55-3.44c0,0,0.21,2.34-0.75,3.44"/>
		<path d="M112.41,55.93c0,0,1.2-1.12,0.55-3.44c0,0,0.21,2.34-0.75,3.44"/>
	</g>
	<g>
		<path d="M75.74,57.54c0,0,10.98-1.03,15.39,0.47C91.13,58.01,85.6,52.28,75.74,57.54z"/>
		<path d="M80.76,60.14c0,0,2.91,3.1,6.57,0c0,0,1.02-2.03,0-3.75l-6.57-0.12C80.76,56.27,79.64,58.27,80.76,60.14z"/>
		<path d="M76.76,57.03c0,0-1.2-1.12-0.55-3.44c0,0-0.21,2.34,0.75,3.44"/>
		<path d="M78.76,56.95c0,0-1.2-1.12-0.55-3.44c0,0-0.21,2.34,0.75,3.44"/>
		<path d="M77.78,57.1c0,0-1.2-1.12-0.55-3.44c0,0-0.21,2.34,0.75,3.44"/>
		<path d="M79.78,56.66c0,0-1.2-1.12-0.55-3.44c0,0-0.21,2.34,0.75,3.44"/>
		<path d="M80.73,56.92c0,0-1.2-1.12-0.55-3.44c0,0-0.21,2.34,0.75,3.44"/>
		<path d="M82.66,56.66c0,0-1.2-1.12-0.55-3.44c0,0-0.21,2.34,0.75,3.44"/>
		<path d="M81.67,56.47c0,0-1.2-1.12-0.55-3.44c0,0-0.21,2.34,0.75,3.44"/>
		<path d="M83.81,56.66c0,0-1.2-1.12-0.55-3.44c0,0-0.21,2.34,0.75,3.44"/>
	</g>
	<path class="st7" d="M110.32,78.68c0.02,0.05,0.26,0.39,0.26,0.39l-0.26,0.67c0,0,1.37,1.21,1.43,1.16
		c0.05-0.05,3.11-3.31,3.11-3.31l-0.97-1.22l-3.13-0.47L110.32,78.68z"/>
</g>
<g id="arms">
	<path class="st0" d="M12.2,94.74c0,0-13.33,35.85,19.52,11.26c0,0,13.73-11.76,27.89-29.34l7.97-10.45l5.26-13.7
		c0,0,16.71-10.51,24.12-20.08c0,0,6.1-11.07-6.85-12.2c0,0-12.75,0.81-22.9,13.7c0,0-3.79,6.86-1.8,16.47
		C65.4,50.39,16.89,84.98,12.2,94.74z"/>
	<path class="st0" d="M168.94,188.4c0,0,15.02-12.95,18.02,4.88c0,0,1.88,2.25-7.51,16.52c0,0-23.46,30.03-24.03,30.41
		s-5.07,10.7-15.96-0.94l-14.45,0.38c0,0-25.15-8.45,10.7-18.77c0,0,6.76,5.63,9.39,11.26c0,0,3.38,3.38,5.44-1.5
		C150.54,230.64,164.81,192.91,168.94,188.4z"/>
</g>
<g id="Layer_9">
	<g>
		<rect x="114.97" y="138.62" class="st8" width="14.08" height="1.95"/>
		
			<rect x="114.97" y="138.62" transform="matrix(-1.836970e-16 1 -1 -1.836970e-16 261.6072 17.5888)" class="st8" width="14.08" height="1.95"/>
	</g>
</g>
<g id="Layer_11">
	<polyline class="st7" points="78.09,83.85 78.09,73.62 93.01,87.57 90.19,92.2 77.11,82.94 	"/>
</g>
<g id="Layer_12">
	<line class="st0" x1="76.68" y1="82.53" x2="90.19" y2="92.2"/>
</g>
</svg>
