<?xml version="1.0" encoding="utf-8"?>
<!-- Generator: Adobe Illustrator 24.3.0, SVG Export Plug-In . SVG Version: 6.00 Build 0)  -->
<svg version="1.1" xmlns="http://www.w3.org/2000/svg" xmlns:xlink="http://www.w3.org/1999/xlink" x="0px" y="0px"
	 viewBox="0 0 841.89 595.28" style="enable-background:new 0 0 841.89 595.28;" xml:space="preserve">
<style type="text/css">
	.st0{fill:#EECB9B;stroke:#EAC179;stroke-miterlimit:10;}
	.st1{fill:#3A342A;}
	.st2{fill:#D0ECEC;}
	.st3{fill:#533814;}
	.st4{fill:#533814;stroke:#4B3014;stroke-miterlimit:10;}
	.st5{stroke:#FFFFFF;stroke-miterlimit:10;}
	.st6{fill:#E4273A;stroke:#C42127;stroke-miterlimit:10;}
	.st7{fill:#EECB9B;}
	.st8{fill:#ED1C24;}
</style>
<g id="skirt">
	<path class="st0" d="M335.81,313c0,0,5.29,41.86,0.51,67.01c0,0,7.84,86.68,1.92,108.41l-16.79,0.13l-9.27-173.14L335.81,313z"/>
	<path class="st0" d="M305.38,312.91c0,0,5.02,41.87,0.51,67.01c0,0,7.45,86.69,1.86,108.41l-15.87,0.12l-8.83-173.14L305.38,312.91
		z"/>
	<path class="st1" d="M261.77,354.95h96.67v-12.58c0,0-0.68-11.33-3.25-16.36l-8.95-22.68c0,0-7.51-8.45-7.7-14.64l-1.31-9.9h-55.37
		l-0.38,11.97c0,0-12.76,19.71-17.08,40.36C264.4,331.12,261.21,346.32,261.77,354.95z"/>
</g>
<g id="top">
	<path class="st2" d="M245.83,185.23c0,0,19.37,17.19,31.06,10.25l29.37,2.55l28.34-1.31c0,0,15.89-4.22,27.7,11.54
		c0,0,31.27,37.84,35.34,58.06v9.94c0,0-1.59-20.55-18.75-4.64c0,0-3.78-11.26-28.98-34.91c0,0-8.46,11.33-9.85,21.12
		c-0.28,1.97-2.82,20.98-2.82,20.98h-54.48c0,0,1.27-12.81-3.94-22.1c0,0-9.43-4.08-6.34-21.4c0,0-0.14-4.26-7.04-8.68l-43.36-29.54
		h4.22l8.41-3.52L245.83,185.23z"/>
</g>
<g id="face">
	<path class="st0" d="M320.34,174c0,0,15.17-9.93,19.15-27.03l3.94-6.57l-2.82-16.89l-35.66-21.77l-33.41,32.47l4.34,18.58
		c0,0,15.74,18.83,24.38,22.09l-13.97,23.16l48.32-1.31C334.6,196.72,319.21,191.65,320.34,174z"/>
</g>
<g id="hair_1_">
	<g id="hair">
		<g id="Layer_10">
			<g>
				<path class="st3" d="M291.35,164.57c-0.04-0.68,8.07,8.45,8.07,8.45s5.26,19.33,0.94,28.72c-4.32,9.39-9.95,13.51-9.95,13.51
					s-5.82,6.76,0,11.64c0,0,0.19,3.94,8.45,0c0,0-0.75,6.57-9.57,8.63h-9.39c0,0-10.27-5.59-12.01-15.2c-0.38-2.06,0-13.51,0-13.51
					s0.38-10.32,10.89-15.96c0,0,9.57-3.57,10.89-8.26C289.66,182.59,292.48,185.6,291.35,164.57z"/>
				<polygon class="st3" points="289.66,163.63 289.66,188.79 295.86,177.71 295.86,169.07 				"/>
				<path class="st3" d="M291.82,214.04c0,0-4.88,6.94-1.4,12.85c0,0,4.04,2.44,8.45,0l-14.55,7.32l-3.85-13.51L291.82,214.04z"/>
			</g>
		</g>
		<path class="st4" d="M299.69,95.92c0,0,11.64-14.27,30.78,6.38c0,0,9.39,8.63,12.01,25.9c0,0,7.13,9.76,0,23.65
			c0,0-3.75,3.75-1.88,12.76c0,0-5.85-2.26-1.13-17.64c0,0,4.5-9.76,1.13-14.64c0,0-8.84-8.63-17.94-11.83
			c-9.09-3.19-16.6-14.45-16.6-14.45s-31.53,26.47-30.41,27.41c1.13,0.94-0.03,25.15-0.03,25.15s3.03,12.39,11.29,14.64
			c0,0,2.82,6.38-3.19,9.76l-5.82,1.13c0,0,9.95-2.06,2.82-8.82c0,0-9.57-5.44-10.7-17.08c0,0-7.13-20.84,0-37.35
			C270.03,120.88,277.54,86.53,299.69,95.92z"/>
	</g>
</g>
<g id="face_1_">
	<path d="M312.08,128.96c0,0,14.64-3.19,20.46,2.25h-20.46C312.08,131.21,311.33,130.08,312.08,128.96z"/>
	<path class="st5" d="M320.76,161.66"/>
	<path class="st6" d="M301.61,163.63c1.13,0,9.71,5.07,19.15-1.97L301.61,163.63z"/>
	<path class="st6" d="M301.61,163.63c1.74-0.18,8.17-9.29,19.15-1.97L301.61,163.63z"/>
	<path d="M301.47,128.62c0,0-14.98-0.09-19.55,6.45l20.02-4.24C301.94,130.82,302.44,129.57,301.47,128.62z"/>
	<g>
		<path d="M331.01,139.27c0,0-10.98-1.03-15.39,0.47C315.62,139.74,321.15,134.01,331.01,139.27z"/>
		<path d="M325.99,141.87c0,0-2.91,3.1-6.57,0c0,0-1.02-2.03,0-3.75l6.57-0.12C325.99,138,327.11,139.99,325.99,141.87z"/>
		<path d="M329.99,138.76c0,0,1.2-1.12,0.55-3.44c0,0,0.21,2.34-0.75,3.44"/>
		<path d="M327.99,138.68c0,0,1.2-1.12,0.55-3.44c0,0,0.21,2.34-0.75,3.44"/>
		<path d="M328.97,138.82c0,0,1.2-1.12,0.55-3.44c0,0,0.21,2.34-0.75,3.44"/>
		<path d="M326.97,138.39c0,0,1.2-1.12,0.55-3.44c0,0,0.21,2.34-0.75,3.44"/>
		<path d="M326.02,138.65c0,0,1.2-1.12,0.55-3.44c0,0,0.21,2.34-0.75,3.44"/>
		<path d="M324.09,138.39c0,0,1.2-1.12,0.55-3.44c0,0,0.21,2.34-0.75,3.44"/>
		<path d="M325.08,138.2c0,0,1.2-1.12,0.55-3.44c0,0,0.21,2.34-0.75,3.44"/>
		<path d="M322.94,138.39c0,0,1.2-1.12,0.55-3.44c0,0,0.21,2.34-0.75,3.44"/>
	</g>
	<g>
		<path d="M286.27,140c0,0,10.98-1.03,15.39,0.47C301.66,140.47,296.12,134.74,286.27,140z"/>
		<path d="M291.29,142.6c0,0,2.91,3.1,6.57,0c0,0,1.02-2.03,0-3.75l-6.57-0.12C291.29,138.73,290.17,140.73,291.29,142.6z"/>
		<path d="M287.28,139.49c0,0-1.2-1.12-0.55-3.44c0,0-0.21,2.34,0.75,3.44"/>
		<path d="M289.28,139.41c0,0-1.2-1.12-0.55-3.44c0,0-0.21,2.34,0.75,3.44"/>
		<path d="M288.31,139.55c0,0-1.2-1.12-0.55-3.44c0,0-0.21,2.34,0.75,3.44"/>
		<path d="M290.31,139.12c0,0-1.2-1.12-0.55-3.44c0,0-0.21,2.34,0.75,3.44"/>
		<path d="M291.25,139.38c0,0-1.2-1.12-0.55-3.44c0,0-0.21,2.34,0.75,3.44"/>
		<path d="M293.19,139.12c0,0-1.2-1.12-0.55-3.44c0,0-0.21,2.34,0.75,3.44"/>
		<path d="M292.2,138.93c0,0-1.2-1.12-0.55-3.44c0,0-0.21,2.34,0.75,3.44"/>
		<path d="M294.34,139.12c0,0-1.2-1.12-0.55-3.44c0,0-0.21,2.34,0.75,3.44"/>
	</g>
	<path class="st7" d="M320.85,161.14c0.02,0.05,0.26,0.39,0.26,0.39l-0.26,0.67c0,0,1.37,1.21,1.43,1.16
		c0.05-0.05,3.11-3.31,3.11-3.31l-0.97-1.22l-3.13-0.47L320.85,161.14z"/>
</g>
<g id="arms">
	<path class="st0" d="M222.73,177.2c0,0-13.33,35.85,19.52,11.26c0,0,13.73-11.76,27.89-29.34l7.97-10.45l5.26-13.7
		c0,0,16.71-10.51,24.12-20.08c0,0,6.1-11.07-6.85-12.2c0,0-12.75,0.81-22.9,13.7c0,0-3.79,6.86-1.8,16.47
		C275.92,132.85,227.42,167.44,222.73,177.2z"/>
	<path class="st0" d="M379.46,270.86c0,0,15.02-12.95,18.02,4.88c0,0,1.88,2.25-7.51,16.52c0,0-23.46,30.03-24.03,30.41
		c-0.56,0.38-5.07,10.7-15.96-0.94l-14.45,0.38c0,0-25.15-8.45,10.7-18.77c0,0,6.76,5.63,9.39,11.26c0,0,3.38,3.38,5.44-1.5
		C361.07,313.1,375.33,275.37,379.46,270.86z"/>
</g>
<g id="Layer_9">
	<g>
		<rect x="325.5" y="221.08" class="st8" width="14.08" height="1.95"/>
		
			<rect x="325.5" y="221.08" transform="matrix(-1.836970e-16 1 -1 -1.836970e-16 554.5945 -110.4792)" class="st8" width="14.08" height="1.95"/>
	</g>
</g>
<g id="Layer_11">
	<polyline class="st7" points="288.61,166.31 288.61,156.08 303.54,170.03 300.72,174.66 287.64,165.4 	"/>
</g>
<g id="Layer_12">
	<line class="st0" x1="287.21" y1="164.99" x2="300.72" y2="174.66"/>
</g>
</svg>
