<?xml version="1.0" encoding="utf-8"?>
<!-- Generator: Adobe Illustrator 24.3.0, SVG Export Plug-In . SVG Version: 6.00 Build 0)  -->
<svg version="1.1" xmlns="http://www.w3.org/2000/svg" xmlns:xlink="http://www.w3.org/1999/xlink" x="0px" y="0px"
	 viewBox="0 0 841.89 595.28" style="enable-background:new 0 0 841.89 595.28;" xml:space="preserve">
<style type="text/css">
	.st0{fill:#EECB9B;stroke:#EAC179;stroke-miterlimit:10;}
	.st1{fill:#D0ECEC;}
	.st2{fill:#ED1C24;}
	.st3{fill:#533814;stroke:#4B3014;stroke-miterlimit:10;}
	.st4{fill:#E4273A;stroke:#C42127;stroke-miterlimit:10;}
	.st5{fill:#3A342A;}
	.st6{fill:#3A2411;}
	.st7{fill:#756C60;}
	.st8{fill:#D57728;}
	.st9{fill:none;stroke:#000000;stroke-miterlimit:10;}
</style>
<g id="arm">
	<path class="st0" d="M248.91,323.03c0,0,7.73-20.44,13.98-0.17l-9.62,60.01c0,0,1.81,5.06,1.14,11.81l-1.38,11.16
		c0,0-2.84,20.56-9.67,3.78c0,0-1.29-4.15,3.79-21.48L248.91,323.03z"/>
	<path class="st0" d="M400.18,284.87c0,0-21.9,0.65-5.74-14.52l59.08-15.55c0,0,3.93-4.04,10.41-6.22l10.82-3.31
		c0,0,20.06-5.8,7.35,8.48c0,0-3.3,3.12-21.29,5.2L400.18,284.87z"/>
</g>
<g id="neck">
	<path class="st0" d="M296.15,210.68c0,0,2.37,17.06-6.37,23.82s34.42,0,34.42,0s-12.3-7.38-14.08-23.82
		C310.12,210.68,304.04,214.81,296.15,210.68z"/>
</g>
<g id="top">
	<path class="st1" d="M278.52,313.43h56.88c0,0-1.13-10.98,1.13-18.86c0,0,12.12-6.36,9.01-27.31l26.33,15.43l-4.94-28.38
		c0,0-32.94-27.87-34.91-28.16s-59.8,5.71-59.8,5.71s-17.35,3.02-19.04,25.83c0,0-6.19,65.6-4.5,65.6s14.92,0,14.92,0l6.76-37.3
		c0,0-2.53-10.85-0.28-15.35c0,0-3.1,15.77,7.32,22.24C277.39,292.88,281.05,303.01,278.52,313.43z"/>
	<g>
		<rect x="322.7" y="250.16" class="st2" width="14.08" height="1.95"/>
		
			<rect x="322.7" y="250.16" transform="matrix(-1.836970e-16 1 -1 -1.836970e-16 580.8795 -78.5993)" class="st2" width="14.08" height="1.95"/>
	</g>
	<polyline class="st1" points="366.93,254.3 397.04,269.6 397.04,285.75 371.86,282.68 	"/>
</g>
<g id="hair2">
	<path class="st3" d="M283.94,201.84l10.86,8.75c0,0,5.51,25.97,0,35.58c0,0-22.32,25.83,2.45,22.81c0,0-0.21,5.02-8.14,8.18
		c0,0-6.72,2.15-12.06,0c0,0-14.33-0.91-16.37-16.21c-0.17-1.29-1.72-5.74,1.9-19.23c0,0,9.65-11.62,19.64-15.64
		C282.22,226.09,286.36,224.94,283.94,201.84z"/>
</g>
<g id="face">
	<path d="M281.48,169.6c0,0,13.11-3.72,18.63,0.77L281.48,169.6z"/>
	<path d="M327.96,170.28c0,0-12.89-4.42-18.64-0.24L327.96,170.28z"/>
	<path d="M284.1,176.67c0,0,9.38-0.88,13.15,0.4C297.25,177.07,292.52,172.18,284.1,176.67z"/>
	<path d="M288.39,178.89c0,0,2.49,2.65,5.61,0c0,0,0.88-1.73,0-3.21l-5.61-0.1C288.39,175.58,287.43,177.29,288.39,178.89z"/>
	<path d="M284.96,176.23c0,0-1.03-0.96-0.47-2.94c0,0-0.18,2,0.64,2.94"/>
	<path d="M286.67,176.17c0,0-1.03-0.96-0.47-2.94c0,0-0.18,2,0.64,2.94"/>
	<path d="M285.84,176.29c0,0-1.03-0.96-0.47-2.94c0,0-0.18,2,0.64,2.94"/>
	<path d="M287.55,175.92c0,0-1.03-0.96-0.47-2.94c0,0-0.18,2,0.64,2.94"/>
	<path d="M288.36,176.14c0,0-1.03-0.96-0.47-2.94c0,0-0.18,2,0.64,2.94"/>
	<path d="M290.01,175.92c0,0-1.03-0.96-0.47-2.94c0,0-0.18,2,0.64,2.94"/>
	<path d="M289.16,175.76c0,0-1.03-0.96-0.47-2.94c0,0-0.18,2,0.64,2.94"/>
	<path d="M290.99,175.92c0,0-1.03-0.96-0.47-2.94c0,0-0.18,2,0.64,2.94"/>
	<g>
		<path d="M325.71,178.05c0,0-9.38-0.88-13.15,0.4C312.56,178.45,317.29,173.56,325.71,178.05z"/>
		<path d="M321.42,180.28c0,0-2.49,2.65-5.61,0c0,0-0.88-1.73,0-3.21l5.61-0.1C321.42,176.97,322.38,178.67,321.42,180.28z"/>
		<path d="M324.85,177.62c0,0,1.03-0.96,0.47-2.94c0,0,0.18,2-0.64,2.94"/>
		<path d="M323.14,177.55c0,0,1.03-0.96,0.47-2.94c0,0,0.18,2-0.64,2.94"/>
		<path d="M323.97,177.67c0,0,1.03-0.96,0.47-2.94c0,0,0.18,2-0.64,2.94"/>
		<path d="M322.26,177.3c0,0,1.03-0.96,0.47-2.94c0,0,0.18,2-0.64,2.94"/>
		<path d="M321.45,177.52c0,0,1.03-0.96,0.47-2.94c0,0,0.18,2-0.64,2.94"/>
		<path d="M319.8,177.3c0,0,1.03-0.96,0.47-2.94c0,0,0.18,2-0.64,2.94"/>
		<path d="M320.65,177.14c0,0,1.03-0.96,0.47-2.94c0,0,0.18,2-0.64,2.94"/>
		<path d="M318.82,177.3c0,0,1.03-0.96,0.47-2.94c0,0,0.18,2-0.64,2.94"/>
	</g>
	<path class="st0" d="M273.5,161.2c0,0,1.99,38.81,14.75,45.35c12.77,6.54,15.63,10.32,32.08,0.63c0,0,11.4-6.6,13.91-20.06
		c0,0,0.52-30.53-2.27-36.91c-2.79-6.38-25.6-11.4-25.6-11.4s-21.47,5.58-22.28,6.98C283.29,147.22,273.5,161.2,273.5,161.2z"/>
	<path d="M283.3,170.41c0,0,13.76-0.47,17.9,5.58L283.3,170.41z"/>
	<path d="M328.64,169.33c0,0-13.7,1.68-16.82,8.28L328.64,169.33z"/>
	<path d="M285.13,180.51c0,0,9.44-0.94,13.23,0.43C298.35,180.94,293.6,175.72,285.13,180.51z"/>
	<path d="M289.44,182.89c0,0,2.5,2.82,5.65,0c0,0,0.88-1.85,0-3.42l-5.65-0.11C289.44,179.36,288.48,181.18,289.44,182.89z"/>
	<path d="M286,180.05c0,0-1.03-1.03-0.47-3.14c0,0-0.18,2.14,0.65,3.14"/>
	<path d="M287.72,179.98c0,0-1.03-1.03-0.47-3.14c0,0-0.18,2.14,0.65,3.14"/>
	<path d="M286.88,180.11c0,0-1.03-1.03-0.47-3.14c0,0-0.18,2.14,0.65,3.14"/>
	<path d="M288.6,179.71c0,0-1.03-1.03-0.47-3.14c0,0-0.18,2.14,0.65,3.14"/>
	<path d="M289.41,179.95c0,0-1.03-1.03-0.47-3.14c0,0-0.18,2.14,0.65,3.14"/>
	<path d="M291.07,179.71c0,0-1.03-1.03-0.47-3.14c0,0-0.18,2.14,0.65,3.14"/>
	<path d="M290.22,179.54c0,0-1.03-1.03-0.47-3.14c0,0-0.18,2.14,0.65,3.14"/>
	<path d="M292.06,179.71c0,0-1.03-1.03-0.47-3.14c0,0-0.18,2.14,0.65,3.14"/>
	<g>
		<path d="M326.98,181.99c0,0-9.44-0.94-13.23,0.43C313.75,182.42,318.51,177.2,326.98,181.99z"/>
		<path d="M322.67,184.36c0,0-2.5,2.82-5.65,0c0,0-0.88-1.85,0-3.42l5.65-0.11C322.67,180.83,323.63,182.65,322.67,184.36z"/>
		<path d="M326.11,181.52c0,0,1.03-1.03,0.47-3.14c0,0,0.18,2.14-0.65,3.14"/>
		<path d="M324.39,181.45c0,0,1.03-1.03,0.47-3.14c0,0,0.18,2.14-0.65,3.14"/>
		<path d="M325.23,181.58c0,0,1.03-1.03,0.47-3.14c0,0,0.18,2.14-0.65,3.14"/>
		<path d="M323.51,181.19c0,0,1.03-1.03,0.47-3.14c0,0,0.18,2.14-0.65,3.14"/>
		<path d="M322.7,181.42c0,0,1.03-1.03,0.47-3.14c0,0,0.18,2.14-0.65,3.14"/>
		<path d="M321.04,181.19c0,0,1.03-1.03,0.47-3.14c0,0,0.18,2.14-0.65,3.14"/>
		<path d="M321.88,181.02c0,0,1.03-1.03,0.47-3.14c0,0,0.18,2.14-0.65,3.14"/>
		<path d="M320.05,181.19c0,0,1.03-1.03,0.47-3.14c0,0,0.18,2.14-0.65,3.14"/>
	</g>
	<path d="M409.62,197.71"/>
	<path class="st4" d="M313.92,200.51h-13.82C300.11,200.51,307.73,187.93,313.92,200.51"/>
</g>
<g id="hair">
	<path class="st3" d="M303.61,132.91c0,0,16.9-10.35,31.92,16.07c0,0,4.83,9.8,5.37,24.24c0,0,0.86,9.98-4.02,18.25
		c-1.61,2.72-3.49,8.71-3.22,13.34c0,0-5.41-5.32,0.94-17.02c0,0,4.16-7.49,1.88-14.71c0,0-29.78-23.01-30.45-27.91
		c0,0-13.82,13.62-21.86,17.16c0,0-8.45,6.81-10.19,18.25c0,0-1.88,6.4-0.54,11.44c0,0,2.41,9.26,8.45,13.89
		c0,0,3.06,13.89-8.93,9.12c0,0,4.64-2.04,2.9-7.35c0,0-7.24-8.44-8.45-14.3c0,0-1.88-6.81,1.21-17.16
		C268.6,176.21,269.81,122.84,303.61,132.91z"/>
</g>
<g id="skirt">
	<path class="st0" d="M334.19,355.18c0,0,5.29,41.86,0.51,67.01c0,0,7.84,86.68,1.92,108.41l-16.79,0.13l-9.27-173.14L334.19,355.18
		z"/>
	<path class="st0" d="M303.76,355.09c0,0,5.02,41.87,0.51,67.01c0,0,7.45,86.69,1.86,108.41l-15.87,0.12l-8.83-173.14L303.76,355.09
		z"/>
	<path class="st5" d="M278.52,313.43h56.88v8.45c0,0,14.92,28.16,16.05,38.29c0,0,4.22,18.58,2.82,28.72h-95.45
		c0,0-0.28-26.75,8.17-37.73c0,0,13.23-24.5,11.83-26.47L278.52,313.43z"/>
</g>
<g id="food">
	<g>
		<g>
			<path class="st6" d="M424.54,366.2c0,0-1.3-7.79,8.12-7.14s264.56-0.04,264.56-0.04s3.9,0.69,4.22,4.91v11.36
				c0,0,0,2.27-5.52,2.27h-8.76c0,0-3.57-0.97-3.57,3.57c0,4.54,0,16.88,0,16.88s1.3,4.22-5.52,4.22s-229.82,0-229.82,0
				s-2.27,0.65-2.6-3.9c-0.32-4.54,0.32-16.23,0.32-16.23s0-4.22-3.57-4.54c-3.57-0.32-12.5-0.16-12.5-0.16s-5.15,0.65-5.42-2.6
				C424.21,371.56,424.54,366.2,424.54,366.2z"/>
			<path class="st6" d="M452.21,406.05c0,0,0.49-9.25,4.14-9.25c3.65,0,16.31,0,16.31,0s3.9-1.95,4.14,9.25
				c0.24,11.2,0,115.64,0,115.64s1.22,3.65-2.68,3.9s-18.02,0-18.02,0s-3.41,0.49-3.9-3.65
				C451.72,517.79,452.21,406.05,452.21,406.05z"/>
			<path class="st6" d="M651.21,406.05c0,0,0.49-9.25,4.14-9.25c3.65,0,16.31,0,16.31,0s3.9-1.95,4.14,9.25
				c0.24,11.2,0,115.64,0,115.64s1.22,3.65-2.68,3.9c-3.9,0.24-18.02,0-18.02,0s-3.41,0.49-3.9-3.65
				C650.73,517.79,651.21,406.05,651.21,406.05z"/>
		</g>
		<g>
			<path class="st7" d="M581.89,333.05c0,0-3.85-8.05,6.6-2.83c1.57,0.79,7.85,2.83,13.35,9.74c0,0,0.94,3.93-2.2,3.61
				C596.5,343.26,585.5,337.92,581.89,333.05z"/>
			<path class="st7" d="M622.11,354.57c0.63-1.1,2.36-2.67,2.36-2.67l-22.62-11.94v2.27L622.11,354.57z"/>
		</g>
		<g>
			<path class="st7" d="M521.72,346.74c0.94,0,69.12,0,69.12,0v1.89h-11l0.16,2.2l-10.84,0.63c0,0,0.31,4.4-0.47,4.56
				c-0.79,0.16-24.35,1.1-24.35,0c0-1.1,0-4.37,0-4.37h-8.95c0,0,0.47-2.54-0.79-2.54c-1.26,0-12.88-0.16-12.88-0.16V346.74z"/>
			<path class="st8" d="M531.37,346.74h49.82c0,0-1.23-6.89-8.1-6.61c0,0,0-7.43-7.39-2.86c0,0-7.22-10.01-12.5,1.72
				c0,0-4.93-1.43-6.87,1.14c0,0-3.17-10.81-7.04-0.12C539.3,340.02,531.55,338.48,531.37,346.74z"/>
		</g>
	</g>
	<path class="st9" d="M498.09,237.51c0,0,9.76,7,3.38,20.67"/>
	<path class="st9" d="M503.64,226.14c0,0,17.56,18.69,0,40.46"/>
</g>
</svg>
