<?xml version="1.0" encoding="utf-8"?>
<!-- Generator: Adobe Illustrator 24.3.0, SVG Export Plug-In . SVG Version: 6.00 Build 0)  -->
<svg version="1.1" xmlns="http://www.w3.org/2000/svg" xmlns:xlink="http://www.w3.org/1999/xlink" x="0px" y="0px"
	 viewBox="0 0 476.4 420.09" style="enable-background:new 0 0 476.4 420.09;" xml:space="preserve">
<style type="text/css">
	.st0{fill:#EECB9B;stroke:#EAC179;stroke-miterlimit:10;}
	.st1{fill:#D0ECEC;}
	.st2{fill:#ED1C24;}
	.st3{fill:#533814;stroke:#4B3014;stroke-miterlimit:10;}
	.st4{fill:#E4273A;stroke:#C42127;stroke-miterlimit:10;}
	.st5{fill:#3A342A;}
	.st6{fill:#3A2411;}
	.st7{fill:#756C60;}
	.st8{fill:#D57728;}
	.st9{fill:none;stroke:#000000;stroke-miterlimit:10;}
</style>
<g id="arm">
	<path class="st0" d="M14.73,200.59c0,0,7.73-20.44,13.98-0.17l-9.62,60.01c0,0,1.81,5.06,1.14,11.8l-1.38,11.16
		c0,0-2.84,20.56-9.67,3.78c0,0-1.29-4.15,3.79-21.48L14.73,200.59z"/>
	<path class="st0" d="M166,162.43c0,0-21.9,0.65-5.74-14.52l59.08-15.55c0,0,3.93-4.04,10.41-6.22l10.82-3.31
		c0,0,20.06-5.8,7.35,8.48c0,0-3.3,3.12-21.29,5.2L166,162.43z"/>
</g>
<g id="neck">
	<path class="st0" d="M61.97,88.24c0,0,2.37,17.06-6.37,23.82s34.42,0,34.42,0s-12.3-7.38-14.08-23.82
		C75.94,88.24,69.86,92.37,61.97,88.24z"/>
</g>
<g id="top">
	<path class="st1" d="M44.34,190.99h56.88c0,0-1.13-10.98,1.13-18.86c0,0,12.12-6.36,9.01-27.31l26.33,15.43l-4.94-28.38
		c0,0-32.94-27.87-34.91-28.16c-1.97-0.28-59.8,5.71-59.8,5.71S20.69,112.44,19,135.24c0,0-6.19,65.6-4.5,65.6s14.92,0,14.92,0
		l6.76-37.3c0,0-2.53-10.85-0.28-15.35c0,0-3.1,15.77,7.32,22.24C43.21,170.44,46.87,180.57,44.34,190.99z"/>
	<g>
		<rect x="88.52" y="127.72" class="st2" width="14.08" height="1.95"/>
		
			<rect x="88.52" y="127.72" transform="matrix(-1.836970e-16 1 -1 -1.836970e-16 224.2597 33.1383)" class="st2" width="14.08" height="1.95"/>
	</g>
	<polyline class="st1" points="132.75,131.86 162.86,147.16 162.86,163.3 137.69,160.24 	"/>
</g>
<g id="hair2">
	<path class="st3" d="M49.76,79.4l10.86,8.75c0,0,5.51,25.97,0,35.58c0,0-22.32,25.83,2.45,22.81c0,0-0.21,5.02-8.14,8.18
		c0,0-6.72,2.15-12.06,0c0,0-14.33-0.91-16.37-16.21c-0.17-1.29-1.72-5.74,1.9-19.23c0,0,9.65-11.62,19.64-15.64
		C48.04,103.65,52.18,102.5,49.76,79.4z"/>
</g>
<g id="face">
	<path d="M47.3,47.16c0,0,13.11-3.72,18.63,0.77L47.3,47.16z"/>
	<path d="M93.78,47.84c0,0-12.89-4.42-18.64-0.24L93.78,47.84z"/>
	<path d="M49.92,54.23c0,0,9.38-0.88,13.15,0.4C63.07,54.63,58.34,49.74,49.92,54.23z"/>
	<path d="M54.21,56.45c0,0,2.49,2.65,5.61,0c0,0,0.88-1.73,0-3.21l-5.61-0.1C54.21,53.14,53.25,54.85,54.21,56.45z"/>
	<path d="M50.79,53.79c0,0-1.03-0.96-0.47-2.94c0,0-0.18,2,0.64,2.94"/>
	<path d="M52.49,53.72c0,0-1.03-0.96-0.47-2.94c0,0-0.18,2,0.64,2.94"/>
	<path d="M51.66,53.85c0,0-1.03-0.96-0.47-2.94c0,0-0.18,2,0.64,2.94"/>
	<path d="M53.37,53.48c0,0-1.03-0.96-0.47-2.94c0,0-0.18,2,0.64,2.94"/>
	<path d="M54.18,53.7c0,0-1.03-0.96-0.47-2.94c0,0-0.18,2,0.64,2.94"/>
	<path d="M55.83,53.48c0,0-1.03-0.96-0.47-2.94c0,0-0.18,2,0.64,2.94"/>
	<path d="M54.99,53.31c0,0-1.03-0.96-0.47-2.94c0,0-0.18,2,0.64,2.94"/>
	<path d="M56.81,53.48c0,0-1.03-0.96-0.47-2.94c0,0-0.18,2,0.64,2.94"/>
	<g>
		<path d="M91.53,55.61c0,0-9.38-0.88-13.15,0.4C78.38,56.01,83.11,51.12,91.53,55.61z"/>
		<path d="M87.24,57.84c0,0-2.49,2.65-5.61,0c0,0-0.88-1.73,0-3.21l5.61-0.1C87.24,54.53,88.21,56.23,87.24,57.84z"/>
		<path d="M90.67,55.17c0,0,1.03-0.96,0.47-2.94c0,0,0.18,2-0.64,2.94"/>
		<path d="M88.96,55.11c0,0,1.03-0.96,0.47-2.94c0,0,0.18,2-0.64,2.94"/>
		<path d="M89.79,55.23c0,0,1.03-0.96,0.47-2.94c0,0,0.18,2-0.64,2.94"/>
		<path d="M88.09,54.86c0,0,1.03-0.96,0.47-2.94c0,0,0.18,2-0.64,2.94"/>
		<path d="M87.28,55.08c0,0,1.03-0.96,0.47-2.94c0,0,0.18,2-0.64,2.94"/>
		<path d="M85.63,54.86c0,0,1.03-0.96,0.47-2.94c0,0,0.18,2-0.64,2.94"/>
		<path d="M86.47,54.7c0,0,1.03-0.96,0.47-2.94c0,0,0.18,2-0.64,2.94"/>
		<path d="M84.64,54.86c0,0,1.03-0.96,0.47-2.94c0,0,0.18,2-0.64,2.94"/>
	</g>
	<path class="st0" d="M39.33,38.76c0,0,1.99,38.81,14.75,45.35s15.63,10.32,32.08,0.63c0,0,11.4-6.6,13.91-20.06
		c0,0,0.52-30.53-2.27-36.91s-25.6-11.4-25.6-11.4s-21.47,5.58-22.28,6.98C49.11,24.78,39.33,38.76,39.33,38.76z"/>
	<path d="M49.12,47.97c0,0,13.76-0.47,17.9,5.58L49.12,47.97z"/>
	<path d="M94.46,46.89c0,0-13.7,1.68-16.82,8.28L94.46,46.89z"/>
	<path d="M50.95,58.07c0,0,9.44-0.94,13.23,0.43C64.18,58.5,59.42,53.28,50.95,58.07z"/>
	<path d="M55.26,60.45c0,0,2.5,2.82,5.65,0c0,0,0.88-1.85,0-3.42l-5.65-0.11C55.26,56.92,54.3,58.73,55.26,60.45z"/>
	<path d="M51.82,57.61c0,0-1.03-1.03-0.47-3.14c0,0-0.18,2.14,0.65,3.14"/>
	<path d="M53.54,57.54c0,0-1.03-1.03-0.47-3.14c0,0-0.18,2.14,0.65,3.14"/>
	<path d="M52.7,57.67c0,0-1.03-1.03-0.47-3.14c0,0-0.18,2.14,0.65,3.14"/>
	<path d="M54.42,57.27c0,0-1.03-1.03-0.47-3.14c0,0-0.18,2.14,0.65,3.14"/>
	<path d="M55.23,57.51c0,0-1.03-1.03-0.47-3.14c0,0-0.18,2.14,0.65,3.14"/>
	<path d="M56.89,57.27c0,0-1.03-1.03-0.47-3.14c0,0-0.18,2.14,0.65,3.14"/>
	<path d="M56.05,57.1c0,0-1.03-1.03-0.47-3.14c0,0-0.18,2.14,0.65,3.14"/>
	<path d="M57.88,57.27c0,0-1.03-1.03-0.47-3.14c0,0-0.18,2.14,0.65,3.14"/>
	<g>
		<path d="M92.8,59.55c0,0-9.44-0.94-13.23,0.43C79.58,59.98,84.33,54.76,92.8,59.55z"/>
		<path d="M88.49,61.92c0,0-2.5,2.82-5.65,0c0,0-0.88-1.85,0-3.42l5.65-0.11C88.49,58.39,89.45,60.21,88.49,61.92z"/>
		<path d="M91.93,59.08c0,0,1.03-1.03,0.47-3.14c0,0,0.18,2.14-0.65,3.14"/>
		<path d="M90.21,59.01c0,0,1.03-1.03,0.47-3.14c0,0,0.18,2.14-0.65,3.14"/>
		<path d="M91.05,59.14c0,0,1.03-1.03,0.47-3.14c0,0,0.18,2.14-0.65,3.14"/>
		<path d="M89.33,58.75c0,0,1.03-1.03,0.47-3.14c0,0,0.18,2.14-0.65,3.14"/>
		<path d="M88.52,58.98c0,0,1.03-1.03,0.47-3.14c0,0,0.18,2.14-0.65,3.14"/>
		<path d="M86.86,58.75c0,0,1.03-1.03,0.47-3.14c0,0,0.18,2.14-0.65,3.14"/>
		<path d="M87.71,58.58c0,0,1.03-1.03,0.47-3.14c0,0,0.18,2.14-0.65,3.14"/>
		<path d="M85.87,58.75c0,0,1.03-1.03,0.47-3.14c0,0,0.18,2.14-0.65,3.14"/>
	</g>
	<path d="M175.44,75.27"/>
	<path class="st4" d="M79.75,78.06H65.93C65.93,78.06,73.55,65.49,79.75,78.06"/>
</g>
<g id="hair">
	<path class="st3" d="M69.43,10.47c0,0,16.9-10.35,31.92,16.07c0,0,4.83,9.8,5.37,24.24c0,0,0.86,9.98-4.02,18.25
		c-1.61,2.72-3.49,8.71-3.22,13.34c0,0-5.41-5.32,0.94-17.02c0,0,4.16-7.49,1.88-14.71c0,0-29.78-23.01-30.45-27.91
		c0,0-13.82,13.62-21.86,17.16c0,0-8.45,6.81-10.19,18.25c0,0-1.88,6.4-0.54,11.44c0,0,2.41,9.26,8.45,13.89
		c0,0,3.06,13.89-8.93,9.12c0,0,4.64-2.04,2.9-7.35c0,0-7.24-8.44-8.45-14.3c0,0-1.88-6.81,1.21-17.16
		C34.43,53.77,35.63,0.39,69.43,10.47z"/>
</g>
<g id="skirt">
	<path class="st0" d="M100.01,232.74c0,0,5.29,41.86,0.51,67.01c0,0,7.84,86.68,1.92,108.41l-16.79,0.13l-9.27-173.14L100.01,232.74
		z"/>
	<path class="st0" d="M69.58,232.65c0,0,5.02,41.87,0.51,67.01c0,0,7.45,86.69,1.86,108.41l-15.87,0.12l-8.83-173.14L69.58,232.65z"
		/>
	<path class="st5" d="M44.34,190.99h56.88v8.45c0,0,14.92,28.16,16.05,38.29c0,0,4.22,18.58,2.82,28.72H24.63
		c0,0-0.28-26.75,8.17-37.73c0,0,13.23-24.5,11.83-26.47L44.34,190.99z"/>
</g>
<g id="food">
	<g>
		<g>
			<path class="st6" d="M190.36,243.76c0,0-1.3-7.79,8.12-7.14s264.56-0.04,264.56-0.04s3.9,0.69,4.22,4.91v11.36
				c0,0,0,2.27-5.52,2.27h-8.76c0,0-3.57-0.97-3.57,3.57c0,4.54,0,16.88,0,16.88s1.3,4.22-5.52,4.22s-229.82,0-229.82,0
				s-2.27,0.65-2.6-3.9c-0.32-4.54,0.32-16.23,0.32-16.23s0-4.22-3.57-4.54c-3.57-0.32-12.5-0.16-12.5-0.16s-5.15,0.65-5.42-2.6
				C190.03,249.12,190.36,243.76,190.36,243.76z"/>
			<path class="st6" d="M218.03,283.61c0,0,0.49-9.25,4.14-9.25s16.31,0,16.31,0s3.9-1.95,4.14,9.25s0,115.64,0,115.64
				s1.22,3.65-2.68,3.9c-3.9,0.24-18.02,0-18.02,0s-3.41,0.49-3.9-3.65C217.54,395.35,218.03,283.61,218.03,283.61z"/>
			<path class="st6" d="M417.04,283.61c0,0,0.49-9.25,4.14-9.25c3.65,0,16.31,0,16.31,0s3.9-1.95,4.14,9.25
				c0.24,11.2,0,115.64,0,115.64s1.22,3.65-2.68,3.9c-3.9,0.24-18.02,0-18.02,0s-3.41,0.49-3.9-3.65
				C416.55,395.35,417.04,283.61,417.04,283.61z"/>
		</g>
		<g>
			<path class="st7" d="M347.71,210.6c0,0-3.85-8.05,6.6-2.83c1.57,0.79,7.85,2.83,13.35,9.74c0,0,0.94,3.93-2.2,3.61
				C362.32,220.82,351.32,215.47,347.71,210.6z"/>
			<path class="st7" d="M387.93,232.13c0.63-1.1,2.36-2.67,2.36-2.67l-22.62-11.94v2.27L387.93,232.13z"/>
		</g>
		<g>
			<path class="st7" d="M287.54,224.3c0.94,0,69.12,0,69.12,0v1.89h-11l0.16,2.2l-10.84,0.63c0,0,0.31,4.4-0.47,4.56
				c-0.79,0.16-24.35,1.1-24.35,0s0-4.37,0-4.37h-8.95c0,0,0.47-2.54-0.79-2.54c-1.26,0-12.88-0.16-12.88-0.16V224.3z"/>
			<path class="st8" d="M297.19,224.3h49.82c0,0-1.23-6.89-8.1-6.61c0,0,0-7.43-7.39-2.86c0,0-7.22-10.01-12.5,1.72
				c0,0-4.93-1.43-6.87,1.14c0,0-3.17-10.81-7.04-0.12C305.12,217.58,297.37,216.04,297.19,224.3z"/>
		</g>
	</g>
	<path class="st9" d="M263.92,115.06c0,0,9.76,7,3.38,20.67"/>
	<path class="st9" d="M269.46,103.7c0,0,17.56,18.69,0,40.46"/>
</g>
</svg>
