<?xml version="1.0" encoding="utf-8"?>
<!-- Generator: Adobe Illustrator 24.3.0, SVG Export Plug-In . SVG Version: 6.00 Build 0)  -->
<svg version="1.1" xmlns="http://www.w3.org/2000/svg" xmlns:xlink="http://www.w3.org/1999/xlink" x="0px" y="0px"
	 viewBox="0 0 841.89 595.28" style="enable-background:new 0 0 841.89 595.28;" xml:space="preserve">
<style type="text/css">
	.st0{fill:#EECB9B;stroke:#EAC179;stroke-miterlimit:10;}
	.st1{fill:#E4273A;stroke:#C42127;stroke-miterlimit:10;}
	.st2{fill:#1A100A;}
	.st3{fill:#312210;}
	.st4{fill:#125D2F;}
	.st5{fill:#304C23;}
	.st6{fill:#533814;stroke:#4B3014;stroke-miterlimit:10;}
	.st7{fill:#3A342A;}
	.st8{fill:#D0ECEC;}
	.st9{fill:#533814;}
	.st10{fill:#ED1C24;}
</style>
<g id="husband">
	<path class="st0" d="M390.9,114.11c0,0,8.98-12.21,42.94-7.37c0,0,3.18-1.75,3.72,4.31c0.21,2.32,1.56,17.28,1.56,17.28l7.71,25.91
		c0,0-36.19,40.25-50.51,3.41C395.36,155.15,385.93,137.07,390.9,114.11z"/>
	<path class="st1" d="M410.76,151.05c0.07-0.58,2.4-7.08,9.43-1.86c0,0,2.21,3.55-0.19,3.77c-1.57,0.14-4.05-2.31-7.63,1.52
		C412.37,154.48,410.22,155.38,410.76,151.05z"/>
	<path d="M419.53,121.6c0,0,12.99-2.19,16.96,5.3l-17.36-2.49C419.12,124.4,418.69,122.91,419.53,121.6z"/>
	<path d="M407.96,121.29c0,0-13.19-0.54-15.9,7.82l16.75-4.95C408.81,124.17,409,122.55,407.96,121.29z"/>
	<path class="st2" d="M411.21,74.37c0,0,24.74,2.89,39.61,16.28l1.65,38.6l-5.33,24.66l-7.83-24.99l-2.01-20.28
		c0,0-32.56-6.38-46.09,6.31c0,0-3.82,10.28-1.06,20.7c0,0-3.15-9.87-2.38-23.45c0,0-18.45-2.77-14.75-24.9c0,0,3.72,5.29,7.47,4.99
		c0,0-4.73-7.02-3.56-13.99c0,0,9.33-0.62,19.23,4.15c0,0-1.75-2.78-1.43-6.47c0,0,10.69-0.39,19.82,3.94L411.21,74.37z"/>
	<path class="st0" d="M406.43,171.08c0,0,8.14,13.47-1.58,20.17l30.83,1.55c0,0-8.31-6.77-3.96-24.45
		C431.71,168.35,413.67,178.6,406.43,171.08z"/>
	<path class="st0" d="M354.11,190.77c0,0,21.48-5.64,15.55,15.74l-48.64,31.38c0,0-1.21,5.62-6.22,9.61l-8.6,6.29
		c0,0-16.16,11.26-13.08-8.3c0,0,1.2-4.39,17.8-10.83L354.11,190.77z"/>
	<path d="M411.03,133.01l-2.32-0.13c0,0-4.95,2.83-10.8-0.95l-2.24-0.12C395.66,131.81,402.34,139.72,411.03,133.01z"/>
	<path d="M418.74,133.02l2.32-0.01c0,0,4.8,3.07,10.84-0.4l2.24-0.01C434.14,132.59,427.08,140.16,418.74,133.02z"/>
	<path class="st3" d="M452.67,278.01c0,0-1.18,151.52-6.84,151.52s-17.34,0.75-17.34,0s-6.8-126.14-6.8-126.14
		s-4.53,126.43-6.3,126.47c-1.77,0.04-24.67,2.21-25.08,0c-0.41-2.21-3.49-150.96,0-151.86S452.67,278.01,452.67,278.01z"/>
	<g id="Layer_4">
		<g>
			<path class="st4" d="M420.24,188.43c0,0,39.78-5.17,39.62,27.42s-6.55,100.61-6.55,100.61s1.61,8.75-3.12,8.4
				c-4.73-0.36-58.74,2.91-58.74,2.91s-4.66,1.08-3.84-6.32c0.62-5.67,1.09-63.91,1.28-90.8c0.06-8.2,0.09-13.48,0.09-13.48
				s-0.01-0.61-0.01-1.57c0-0.38,0-0.82,0.01-1.3c0.02-2.69,0.13-6.58,0.52-8.54c0,0-0.2-12.06-0.02-12.41
				c0.18-0.35,0-2.92,4.5-3.72C398.47,188.83,420.24,188.43,420.24,188.43z"/>
			<path class="st0" d="M428.68,271.26c0,0,17.38-15.47-9.31-20.25l-59.92,26.54c0,0-6.83-1.55-13.85,0.84l-11.41,4.35
				c0,0-20.84,8.44,2.38,14.77c0,0,5.47,0.99,21.21-10L428.68,271.26z"/>
			<path class="st5" d="M427.85,188.42c0,0,17.64,1.36,25.57,9.06c0,0,2.71,2.92,3.77,5.45s-0.54,6.89-0.54,6.89
				s-7.42,65.02-10.42,66.53c-3,1.51-31.21,1.19-33.7,1.65c-2.49,0.46-1.3-26.48-1.38-28.13s5.15-1.82,14.73-0.76
				s2.88-41.48,2.88-41.48"/>
			<path class="st4" d="M389.14,190.32c0,0-1.17,0.01-3.07,0.03c-7.87,0.08-28.18,0.4-28.13,1.5c0.07,1.37-0.92,26.83,1.3,26.44
				c2.21-0.39,35.78,0.77,35.78,0.77l1.29-29.71"/>
		</g>
	</g>
</g>
<g id="wife">
	<g>
		<path class="st0" d="M382.79,169.13c-0.12-0.49-24.53-27.11-24.53-27.11l-32.4,26.16c0,0,7.21,26.24,21.2,33.9
			c0,0,6.77,5.42,14.76,0.64c0,0,15.73-8.58,25.36-26.68L382.79,169.13z"/>
		<path class="st0" d="M375.3,223.56c0,0-11.2-4.52-11.73-9.56l-1.75-11.27l-2.2,1.08l-1.6,0.51l-1.68,0.3l-1.61,0.07l-2.74-0.35
			l-1.91-0.6l-1.57-0.73l-1.45-0.92l-2.39,8.97c0,0-4.62,10.03-22.43,7.87L375.3,223.56z"/>
	</g>
	<path class="st6" d="M388.68,170.98c0,0-3.95-43.35-28.24-36.29c0,0-21.31-10.56-30.84,15.67c0,0-2.57,1.71-5.18,15.01
		c0,0-6.7,15.84-2.14,24.46c0,0,11.38,13.56,1.31,12.68c0,0,6.73,5.9,9.09-4.52c0,0-8.91-16.89-4.67-24.97
		c0,0,2.42-10.18,12.39-15.59c0,0,8.14-1.86,15.76-12.64c0,0,15.57,15.37,26.88,24.25c0,0,3.94,8.4-0.21,15.28
		c0,0-6.54,8.45-4.45,14.11c0,0,4.41-9.92,9.17-14.66C387.56,183.77,389.47,176.5,388.68,170.98z"/>
	<path class="st0" d="M367.73,315.11c0,0,3.45,27.29,0.33,43.68c0,0,5.11,56.5,1.25,70.66l-10.94,0.08l-6.04-112.85L367.73,315.11z"
		/>
	<path class="st0" d="M347.89,315.05c0,0,3.27,27.29,0.33,43.68c0,0,4.86,56.5,1.21,70.66l-10.35,0.08l-5.76-112.85L347.89,315.05z"
		/>
	<path class="st7" d="M313.68,344.31c0,0,75,1.34,76.14,0c1.15-1.34,1.1-17.35-4.82-31.49c-5.92-14.14-10.68-14.89-11.17-26.63
		l-44.18-1c0,0,2.25,8.31-10.98,27.62C318.67,312.81,313.93,319.29,313.68,344.31z"/>
	<path class="st8" d="M330.06,285.19h43.68c0,0,1.75-12.48,5.49-17.73s3.99-17.97,3.99-17.97l-1.5,15.48l16.23,16.48
		c-1.75-35.95-4.24-44.94-4.24-44.94c-2.25-18.47-24.22-18.47-25.21-18.97h-33.1c-1,0.5-22.97,0.5-25.21,18.97
		c0,0-2.5,8.99-4.24,44.94l16.23-16.48l-1.5-15.48c0,0,0.25,12.73,3.99,17.97s5.49,17.73,5.49,17.73h43.68"/>
	<path class="st0" d="M309.62,278.38c0,0-6.18-14.93,10.8-13.73l28.33,31.06c0,0,4.43,0.06,7.94,3.14l5.58,5.38
		c0,0,10.06,10.2-5.28,10.82c0,0-3.48-0.23-9.87-11.46L309.62,278.38z"/>
	<path class="st0" d="M384.16,265.33c0,0,15.86-3.1,11.32,13.3l-36.05,21.62c0,0-0.93,4.33-4.65,7.16l-6.38,4.41
		c0,0-11.99,7.84-9.56-7.32c0,0,0.92-3.37,13.19-7.4L384.16,265.33z"/>
	<path class="st6" d="M343.8,199.82c0,0-3.75-1.29-5.96-5.51l-1.23,14.07c0,0-13.7,9.27-16.77,14.97c0,0-5.9,10.44-1.73,19.82
		c0,0,5.46,18.68,25.18,4.94c0,0-14.76,1.13-6.29-11.02c0,0,5.38-4.42,8.33-12.35c0,0,2.4-3.47,1.09-12.44
		C345.11,203.32,343.26,204.12,343.8,199.82z"/>
	<path class="st9" d="M337.91,193.45c0,0-0.39,13.37-3.34,15.55c-2.95,2.18,8.36,4.38,8.36,4.38L337.91,193.45z"/>
	<path d="M349.26,174.51l-1.98-0.17c0,0-4.31,2.28-9.21-1.11l-1.91-0.17C336.17,173.06,341.66,180,349.26,174.51z"/>
	<path d="M363.36,175.81l1.98,0.05c0,0,4.02,2.76,9.27-0.05l1.92,0.05C376.54,175.87,370.29,182.14,363.36,175.81z"/>
	<path d="M351.4,163.08c0,0-12.81,0.35-16.52,6.06l16.98-4.19C351.86,164.95,352.25,163.86,351.4,163.08z"/>
	<path d="M364.29,164.19c0,0,12.55,2.58,15.21,8.85l-15.99-7.09C363.51,165.95,363.31,164.81,364.29,164.19z"/>
	<path class="st1" d="M350.22,193.36c0.52,0,4.08-13.03,9.12,0c0,0-4.26-7.97-8.6,0"/>
	<g>
		<rect x="364.27" y="238.34" class="st10" width="12.78" height="1.77"/>
		
			<rect x="364.27" y="238.34" transform="matrix(-1.836970e-16 1 -1 -1.836970e-16 609.8764 -131.4331)" class="st10" width="12.78" height="1.77"/>
	</g>
</g>
<g id="Layer_5">
</g>
</svg>
