<?xml version="1.0" encoding="utf-8"?>
<!-- Generator: Adobe Illustrator 24.3.0, SVG Export Plug-In . SVG Version: 6.00 Build 0)  -->
<svg version="1.1" xmlns="http://www.w3.org/2000/svg" xmlns:xlink="http://www.w3.org/1999/xlink" x="0px" y="0px"
	 viewBox="0 0 841.89 595.28" style="enable-background:new 0 0 841.89 595.28;" xml:space="preserve">
<style type="text/css">
	.st0{fill:#EECB9B;stroke:#EAC179;stroke-miterlimit:10;}
	.st1{fill:#E4273A;stroke:#C42127;stroke-miterlimit:10;}
	.st2{fill:#D0ECEC;}
	.st3{fill:#3A342A;}
	.st4{fill:#ED1C24;}
	.st5{fill:#533814;stroke:#4B3014;stroke-miterlimit:10;}
	.st6{fill:#533814;}
	.st7{fill:none;stroke:#000000;stroke-miterlimit:10;}
</style>
<g id="head">
	<g>
		<path class="st0" d="M526.53,178.75c-0.16-0.56-29.37-29.55-29.37-29.55l-35.49,31.51c0,0,9.61,29.48,25.94,37.46
			c0,0,8,5.81,16.84-0.05c0,0,17.45-10.6,27.45-31.72L526.53,178.75z"/>
		<path class="st0" d="M520.9,241.11c0,0-12.99-4.55-13.86-10.26l-2.6-12.73l-2.44,1.35l-1.79,0.66l-1.9,0.43l-1.83,0.17l-3.14-0.25
			l-2.21-0.58l-1.83-0.75l-1.7-0.97l-2.25,10.34c0,0-4.73,11.66-25.11,10.15L520.9,241.11z"/>
	</g>
	<g id="eyes">
		<path d="M471.82,174.81c0,0,15.87,1.63,19.92,8.9L471.82,174.81z"/>
		<path d="M520.25,176.05c0,0-15.95-0.37-20.88,6.33L520.25,176.05z"/>
		<path d="M474.26,187.18c0,0,10.98-1.03,15.39,0.47C489.65,187.65,484.11,181.92,474.26,187.18z"/>
		<path d="M479.28,189.78c0,0,2.91,3.1,6.57,0c0,0,1.02-2.03,0-3.75l-6.57-0.12C479.28,185.91,478.15,187.9,479.28,189.78z"/>
		<path d="M475.27,186.67c0,0-1.2-1.12-0.55-3.44c0,0-0.21,2.34,0.75,3.44"/>
		<path d="M477.27,186.59c0,0-1.2-1.12-0.55-3.44c0,0-0.21,2.34,0.75,3.44"/>
		<path d="M476.29,186.73c0,0-1.2-1.12-0.55-3.44c0,0-0.21,2.34,0.75,3.44"/>
		<path d="M478.29,186.3c0,0-1.2-1.12-0.55-3.44c0,0-0.21,2.34,0.75,3.44"/>
		<path d="M479.24,186.56c0,0-1.2-1.12-0.55-3.44c0,0-0.21,2.34,0.75,3.44"/>
		<path d="M481.17,186.3c0,0-1.2-1.12-0.55-3.44c0,0-0.21,2.34,0.75,3.44"/>
		<path d="M480.19,186.11c0,0-1.2-1.12-0.55-3.44c0,0-0.21,2.34,0.75,3.44"/>
		<path d="M482.33,186.3c0,0-1.2-1.12-0.55-3.44c0,0-0.21,2.34,0.75,3.44"/>
		<g>
			<path d="M517.83,188.5c0,0-10.98-1.03-15.39,0.47C502.44,188.97,507.98,183.24,517.83,188.5z"/>
			<path d="M512.81,191.1c0,0-2.91,3.1-6.57,0c0,0-1.02-2.03,0-3.75l6.57-0.12C512.81,187.23,513.93,189.23,512.81,191.1z"/>
			<path d="M516.82,187.99c0,0,1.2-1.12,0.55-3.44c0,0,0.21,2.34-0.75,3.44"/>
			<path d="M514.82,187.91c0,0,1.2-1.12,0.55-3.44c0,0,0.21,2.34-0.75,3.44"/>
			<path d="M515.79,188.06c0,0,1.2-1.12,0.55-3.44c0,0,0.21,2.34-0.75,3.44"/>
			<path d="M513.79,187.62c0,0,1.2-1.12,0.55-3.44c0,0,0.21,2.34-0.75,3.44"/>
			<path d="M512.85,187.88c0,0,1.2-1.12,0.55-3.44c0,0,0.21,2.34-0.75,3.44"/>
			<path d="M510.91,187.62c0,0,1.2-1.12,0.55-3.44c0,0,0.21,2.34-0.75,3.44"/>
			<path d="M511.9,187.43c0,0,1.2-1.12,0.55-3.44c0,0,0.21,2.34-0.75,3.44"/>
			<path d="M509.76,187.62c0,0,1.2-1.12,0.55-3.44c0,0,0.21,2.34-0.75,3.44"/>
		</g>
		<path class="st0" d="M497.86,179.26c0,0-1.83,1.77,0,4.92"/>
		<path class="st0" d="M493.07,179.26c0,0,2.82,2.75,0,4.92"/>
	</g>
	<path class="st1" d="M488.05,209.23c0.37,0.07,6.99-20.9,14.17,0H488.05z"/>
</g>
<g id="legs">
	<path class="st0" d="M521.47,329.57c0,0,5.29,41.86,0.51,67.01c0,0,7.84,86.68,1.92,108.41l-16.79,0.13l-9.27-173.14L521.47,329.57
		z"/>
	<path class="st0" d="M491.04,329.47c0,0,5.02,41.87,0.51,67.01c0,0,7.45,86.69,1.86,108.41l-15.87,0.12l-8.83-173.14L491.04,329.47
		z"/>
</g>
<g id="body">
	<path class="st2" d="M470.16,309.55h53.68c-1.88-12.39,1.88-18.77,1.88-18.77s0,1.88,5.63-6.76c5.63-8.63,20.27-3.75,20.27-3.75
		c4.5-22.15-5.26-39.42-5.26-39.42c-6.01-18.4-31.53-11.26-32.66-11.26c0,0-18.84,9.01-33.86,0c-0.97-0.58-26.65-7.13-32.66,11.26
		c0,0-9.76,17.27-5.26,39.42c0,0,14.64-4.88,20.27,3.75s5.63,6.76,5.63,6.76s3.75,6.38,1.88,18.77h53.68"/>
	<path class="st3" d="M450.57,378.63h93.1c0,0,3.38-19.9-6.38-37.17s-11.26-13.51-13.14-31.91h-54.06c0,0,1.5,9.01-13.51,34.54
		C456.58,344.09,450.57,354.23,450.57,378.63z"/>
	<g>
		<rect x="509.95" y="251.59" class="st4" width="12.78" height="1.77"/>
		
			<rect x="509.95" y="251.59" transform="matrix(-1.836970e-16 1 -1 -1.836970e-16 768.8138 -263.8686)" class="st4" width="12.78" height="1.77"/>
	</g>
</g>
<g id="hair">
	<path class="st5" d="M533.33,180.55c0,0-6.8-49.13-34.08-39.8c0,0-24.81-10.88-34.27,19.48c0,0-2.83,2.08-5.09,17.36
		c0,0-6.78,18.39-1.13,27.95c0,0,13.67,14.83,2.16,14.36c0,0,7.98,6.36,10.11-5.63c0,0-11.05-18.75-6.64-28.17
		c0,0,2.21-11.71,13.28-18.4c0,0,9.17-2.55,17.27-15.22c0,0,18.54,16.67,31.88,26.17c0,0,4.93,9.35,0.58,17.41
		c0,0-6.99,9.97-4.32,16.29c0,0,4.49-11.53,9.66-17.18C532.74,195.17,534.52,186.79,533.33,180.55z"/>
	<path class="st5" d="M483.79,215.76c0,0-4.34-1.27-7.08-5.96l-0.65,16.08c0,0-15.1,11.28-18.29,17.93c0,0-6.17,12.19-0.92,22.65
		c0,0,7.2,20.97,28.92,4.28c0,0-16.74,2.07-7.74-12.21c0,0,5.89-5.31,8.82-14.5c0,0,2.54-4.08,0.57-14.22
		C485.46,219.67,483.4,220.69,483.79,215.76z"/>
	<path class="st6" d="M476.75,208.83c0,0,0.27,15.24-2.97,17.87c-3.24,2.63,9.75,4.54,9.75,4.54L476.75,208.83z"/>
</g>
<g id="arms">
	<path class="st0" d="M441.4,279.76c0,0,21.02-29.66,34.91-41.3c0,0,6.76-14.64,14.64-9.39c0,0,10.14,1.13,17.64-4.88s8.63,0,8.63,0
		s-1.88,7.13-11.26,14.27c0,0-1.5,3.28-11.26,6.52c0,0-4.5,1.26-9.76,0c0,0-17.64,39.28-25.9,45.29
		C459.05,290.27,432.39,317.68,441.4,279.76z"/>
	<path class="st0" d="M552.44,279.76c0,0-21.02-29.66-34.91-41.3c0,0-6.76-14.64-14.64-9.39c0,0-10.14,1.13-17.64-4.88
		c-7.51-6.01-8.63,0-8.63,0s1.88,7.13,11.26,14.27c0,0,1.5,3.28,11.26,6.52c0,0,4.5,1.26,9.76,0c0,0,17.64,39.28,25.9,45.29
		C534.8,290.27,561.45,317.68,552.44,279.76z"/>
</g>
<g id="Layer_7">
	<g>
		<path class="st7" d="M447.19,136.45c0.25,0.13,7.6,2.13,7.72-7.49"/>
		<path class="st7" d="M464.63,136.45c-0.25,0.13-7.6,2.13-7.72-7.49"/>
		<path class="st7" d="M447.19,138.62c0.25-0.13,7.6-2.13,7.72,7.49"/>
		<path class="st7" d="M464.63,138.62c-0.25-0.13-7.6-2.13-7.72,7.49"/>
	</g>
	<g>
		<path d="M538.96,221.7c0,0,7.81,6.26,5.27-3.8c0,0-4.55-5.44-8.61-8.69C535.61,209.21,536.34,217.41,538.96,221.7z"/>
		<path d="M547.15,216.67c0,0,9.83,1.6,2.68-5.93c0,0-6.61-2.5-11.73-3.32C538.11,207.42,542.77,214.22,547.15,216.67z"/>
		<path d="M551.44,208.16c0,0,9.46-2.98-0.26-6.53c0,0-7,0.73-11.92,2.29C539.26,203.92,546.45,207.93,551.44,208.16z"/>
	</g>
	<g>
		<path class="st7" d="M565.69,196.46c0.25,0.13,7.6,2.13,7.72-7.49"/>
		<path class="st7" d="M583.13,196.46c-0.25,0.13-7.6,2.13-7.72-7.49"/>
		<path class="st7" d="M565.69,198.62c0.25-0.13,7.6-2.13,7.72,7.49"/>
		<path class="st7" d="M583.13,198.62c-0.25-0.13-7.6-2.13-7.72,7.49"/>
	</g>
	<path class="st7" d="M431.55,290.61c0,0-4.42,4.34,0,9.5"/>
	<path class="st7" d="M426.76,288.43c0,0-6.39,7.99,0,14.26"/>
	<path class="st7" d="M560.14,253.91c0,0,4.42,4.34,0,9.5"/>
	<path class="st7" d="M564.93,251.73c0,0,6.39,7.99,0,14.26"/>
</g>
</svg>
