<?xml version="1.0" encoding="utf-8"?>
<!-- Generator: Adobe Illustrator 24.3.0, SVG Export Plug-In . SVG Version: 6.00 Build 0)  -->
<svg version="1.1" xmlns="http://www.w3.org/2000/svg" xmlns:xlink="http://www.w3.org/1999/xlink" x="0px" y="0px"
	 viewBox="0 0 841.89 595.28" style="enable-background:new 0 0 841.89 595.28;" xml:space="preserve">
<style type="text/css">
	.st0{fill:#EECB9B;stroke:#EAC179;stroke-miterlimit:10;}
	.st1{fill:#EECB9B;}
	.st2{fill:#3A342A;}
	.st3{fill:#D0ECEC;}
	.st4{fill:#ED1C24;}
	.st5{fill:#533814;stroke:#4B3014;stroke-miterlimit:10;}
	.st6{fill:#533814;}
</style>
<g id="wife">
	<g>
		<path class="st0" d="M468.54,113.76c-0.29-0.95-51.36-50.1-51.36-50.1l-60.27,55.2c0,0,17.33,50.51,45.67,63.82
			c0,0,13.93,9.8,28.99-0.54c0,0,29.76-18.72,46.42-55.35L468.54,113.76z"/>
		<path class="st0" d="M460.52,221.29c0,0-22.49-7.49-24.14-17.29l-4.81-21.85l-4.17,2.39l-3.07,1.19l-3.25,0.79l-3.14,0.34
			l-5.41-0.35l-3.82-0.95l-3.17-1.24l-2.96-1.63l-3.59,17.87c0,0-7.82,20.2-42.97,18.15L460.52,221.29z"/>
	</g>
	<path d="M403.53,128.4l-3.9-0.1c0,0-8.16,5-18.16-1.04l-3.76-0.09C377.71,127.16,389.3,140.09,403.53,128.4z"/>
	<path d="M431.31,129.22l3.89-0.14c0,0,8.21,4.91,18.15-1.23l3.76-0.13C457.11,127.72,445.65,140.77,431.31,129.22z"/>
	<path d="M406.31,105.75c0,0-25.04,2.25-31.61,13.89l32.75-10.28C407.45,109.35,408.08,107.17,406.31,105.75z"/>
	<path d="M431.7,106.36c0,0,24.89,3.52,30.87,15.48l-32.18-11.93C430.39,109.9,429.87,107.69,431.7,106.36z"/>
	<path class="st1" d="M436.28,323.24h-21.41c-19.37,0-35.08-15.71-35.08-35.08v-38.44c0-19.37,15.71-35.08,35.08-35.08h21.41
		c19.37,0,35.08,15.71,35.08,35.08v38.44C471.36,307.54,455.65,323.24,436.28,323.24z"/>
</g>
<g id="foot">
	<path class="st0" d="M348.58,531.61c0,0,28.53-1.88,37.17-1.31c8.63,0.56,17.64,3.57,30.97,3.57c0,0,36.6,2.52,46.18-1.84
		c0,0,5.44-2.13,15.02-1.84s26.09-4.02,17.64-13.78c0,0-3.38-3-16.89-1.5c0,0-1.69,0.38-4.88-4.13c0,0,0.17-3.6-29.67-2.36
		c0,0-10.63-0.33-25.11-17.01c0,0-12.36-13.57-39.04,7.4c0,0-6.6,5.95-30.63,4.83C325.31,502.51,348.58,531.61,348.58,531.61z"/>
</g>
<g id="pants">
	<path class="st2" d="M348.21,418.61l57.25-31.16l79.96,28.53c0,0,48.8,13.51,62.32,14.64c0,0,47.68,11.64,67.95,27.41
		c20.27,15.77,8.26,35.66,8.26,35.66s-12.67,18.3-55.47,23.09c0,0-25.57,10.9-74.16,9.81c0,0,7.72-4.09,1.24-10.19
		c0,0-2.82-3.38-16.89-1.5l-2.02-0.91l-1.74-1.75l-1.12-1.47l-2.89-1.48l-2.62-0.59l-4.13-0.3l-3.78-0.18l-4.64-0.07
		c0,0-1.78-11.37,0.8-19.53c0,0-14.59,4.18-26.28-11.07c0,0-19.22-15.75-39.03-1.14c-19.81,14.61-35.27,12.43-36.86,11.97
		c-1.59-0.46-6.34-5.13-14.99,0.09c0,0-5.88,2.78-10.29,8.23c0,0,9.24,5.44,21.35,3.47c0,0,6.48,13.51-0.42,33.79
		c0,0-40.54-0.42-56.17-3.1c-15.63-2.67-29.42-3.94-54.2-11.54c-24.78-7.6-37.35-15.3-38.39-21.87
		c-1.03-6.57-21.7-43.75,34.25-52.47c0,0,40.74-12.1,56.51-12.67C307.76,431.75,355.72,422.08,348.21,418.61z"/>
</g>
<g id="top">
	<path class="st3" d="M357.4,223.02c0,0,17.41-8.45,19.5,0c0,0,4.16,15.02,2.28,45.99c0,0,1.42,17.52,23.33,21.24
		c0,0,20.03,5.79,34.48-4.35c0,0,10.51-6.19,12.01-15.2c0,0,0.94-37.92,0.75-41.11c-0.19-3.19,1.02-14.27,10.89-10.32
		c1.88,0.75,8.63,2.63,8.63,2.63s2.25,0.56,1.88,4.88c-0.38,4.32,0.04,28.39,0.04,28.39s-0.04,32.99,12.35,47.07
		c0,0,3,21.21-17.83,32.29c0,0-9.57,17.27-1.5,38.1c0,0,14.75,34.54,19.48,43.36c0,0-54.4,25.34-135.49,2.63
		c0,0,16.52-47.49,17.64-52.18c0,0,4.88-17.46-3.38-30.6c0,0-17.08-6.95-18.02-32.29C344.45,303.54,359.75,287.12,357.4,223.02z"/>
	<path class="st0" d="M456.51,488.62c0,0-13.7,5.07-26.28-11.07c0,0-21.02-15.58-40.54,0c0,0-14.27,9.01-21.96,9.95
		c0,0-7.51,3.75-17.08-0.38c0,0-7.88-4.88-21.59,9.57c0,0,1.31,10.32,39.04,5.82c0,0,8.26,0.56,17.64-8.07
		c9.39-8.63,26.65-7.3,26.65-7.3s2.63-0.02,9.95,7.49s14.45,13.7,23.46,13.89c9.01,0.19,9.01,0.19,9.01,0.19
		S483.92,502.7,456.51,488.62z"/>
	<g>
		<rect x="446.12" y="300.69" class="st4" width="22.16" height="3.07"/>
		
			<rect x="446.12" y="300.69" transform="matrix(-1.836970e-16 1 -1 -1.836970e-16 759.4236 -154.9626)" class="st4" width="22.16" height="3.07"/>
	</g>
</g>
<g id="arms">
	<path class="st0" d="M217,424.99c2.25-2.63,16.14-7.51,28.16-29.28c0,0,27.78-47.3,41.67-55.94c0,0,16.91-29.09,24.25-55.48
		c0,0,12.91-59.02,46.32-61.27v8.26l-0.45,24.8l-1.72,15.38l-2.77,13.49l-5.39,14.54l-8.12,20.77c0,0-16.45,26.65-21,40.17
		c-4.55,13.52-82.56,76.96-82.56,76.96s4.14,57.81-34.15,60.07C162.94,499.7,217,424.99,217,424.99z"/>
	<path class="st0" d="M609.7,424.51c-2.25-2.63-16.14-7.51-28.16-29.28c0,0-27.78-47.3-41.67-55.94c0,0-16.91-29.09-24.25-55.48
		c0,0-12.91-59.02-46.32-61.27v8.26l0.45,24.8l1.72,15.38l2.77,13.49l5.39,14.54l8.12,20.77c0,0,16.45,26.65,21,40.17
		c4.55,13.52,82.56,76.96,82.56,76.96s-4.14,57.81,34.15,60.07S609.7,424.51,609.7,424.51z"/>
</g>
<g id="hair">
	<path class="st5" d="M480.3,116.68c0,0-13.03-84.43-59.75-67.63c0,0-43.02-18.08-58.5,34.46c0,0-4.82,3.66-8.3,30.03
		c0,0-11.18,31.85-1.19,48.16c0,0,23.95,25.16,4.11,24.67c0,0,13.91,10.74,17.26-9.97c0,0-19.52-31.98-12.19-48.34
		c0,0,3.49-20.23,22.37-32.05c0,0,15.72-4.64,29.33-26.68c0,0,32.37,28.21,55.6,44.22c0,0,8.74,15.97,1.46,29.96
		c0,0-11.77,17.35-7,28.18c0,0,7.43-19.98,16.17-29.84C479.68,141.86,482.52,127.39,480.3,116.68z"/>
	<path class="st5" d="M395.92,178.64c0,0-7.51-2.08-12.35-10.07l-0.69,27.7c0,0-25.69,19.84-31.02,31.36c0,0-10.29,21.16-0.97,39.03
		c0,0,12.97,35.92,49.92,6.59c0,0-28.76,4.01-13.66-20.81c0,0,10-9.31,14.8-25.2c0,0,4.27-7.09,0.61-24.5
		S395.4,187.13,395.92,178.64z"/>
	<path class="st6" d="M383.62,166.89c0,0,0.87,26.24-4.64,30.86c-5.51,4.62,16.91,7.56,16.91,7.56L383.62,166.89z"/>
</g>
</svg>
