<?xml version="1.0" encoding="utf-8"?>
<!-- Generator: Adobe Illustrator 24.3.0, SVG Export Plug-In . SVG Version: 6.00 Build 0)  -->
<svg version="1.1" xmlns="http://www.w3.org/2000/svg" xmlns:xlink="http://www.w3.org/1999/xlink" x="0px" y="0px"
	 viewBox="0 0 575.51 424.59" style="enable-background:new 0 0 575.51 424.59;" xml:space="preserve">
<style type="text/css">
	.st0{fill:#312210;}
	.st1{fill:#FCF7D3;}
	.st2{fill:#483B15;}
	.st3{fill:none;stroke:#37160D;stroke-miterlimit:10;}
	.st4{fill:#EECB9B;stroke:#EAC179;stroke-miterlimit:10;}
	.st5{fill:#1A100A;}
	.st6{fill:#FFFFFF;stroke:#1A100A;stroke-miterlimit:10;}
	.st7{fill:#304C23;}
	.st8{fill:#125D2F;}
	.st9{fill:#E4273A;stroke:#C42127;stroke-miterlimit:10;}
	.st10{fill:#533814;stroke:#4B3014;stroke-miterlimit:10;}
	.st11{fill:#D0ECEC;}
	.st12{fill:#ED1C24;}
	.st13{fill:#533814;}
	.st14{fill:#A0D9D5;}
	.st15{fill:#FCF6AC;}
	.st16{fill:#304C85;}
	.st17{fill:#3E5DA0;}
</style>
<g id="bed">
	<path class="st0" d="M555.3,215.41c0,0-1.18,151.52-6.84,151.52s-17.34,0.75-17.34,0s-6.8-126.14-6.8-126.14
		s-4.53,126.43-6.3,126.47s-24.67,2.21-25.08,0c-0.41-2.21-3.49-150.96,0-151.86S555.3,215.41,555.3,215.41z"/>
	<rect x="69.52" y="102.32" class="st1" width="404.65" height="133.51"/>
	<path class="st2" d="M57.22,220.47V111.17c0,0-3.27-20.29,27.49-20.29c0,0,83.77-7.2,104.71-9.16
		c20.94-1.96,156.41-3.93,192.19,2.18c0,0,75.04,5.67,81.59,6.11c6.54,0.44,21.38-1.31,21.81,17.89c0.44,19.2,0,110.82,0,110.82
		s-14.83-5.67-22.69-6.98l-1.31-97.73c0,0-142.01-17.23-202.22-10.03c0,0-105.37-1.31-174.74,8.51l-1.31,96.2L57.22,220.47z"/>
	<rect x="27.12" y="311.43" class="st2" width="30" height="99.48"/>
	<line class="st3" x1="42.12" y1="403.71" x2="42.12" y2="311.43"/>
	<path class="st3" d="M474.01,214.86v-94.53c0,0,0.09-18.32-14.96-19.63c-15.05-1.31-97.51-7.85-106.67-8.51
		c0,0-91.62-6.54-140.05,0c0,0-107.33,5.24-126.31,7.2c0,0-15.05-1.96-15.05,14.4s-0.59,105.28-1.6,101.07"/>
	<rect x="485.21" y="311.43" class="st2" width="30" height="99.48"/>
	<line class="st3" x1="500.21" y1="403.71" x2="500.21" y2="311.43"/>
	<path class="st2" d="M57.12,311.43c0,0,413.08,0,428.08,0v57.59H57.12V311.43z"/>
	<path class="st1" d="M12.72,295.73v-49.66c0,0,0.55-14.48,29.4-8.59s54.37,8.59,54.37,8.59s8.51,6.62,32.72,0
		c0,0,35.99-4,46.47-7.28l28.14,7.28c0,0,5.24-9.44,9.16-9.99c3.93-0.55,31.41,0,31.41,0s11.78,4.84,35.99,9.99
		c24.21,5.16,94.89,9.74,113.87-3.35c0,0,26.83-5.89,45.16-1.96c0,0,28.14-1.96,39.27,1.96l6.52,3.35c0,0,9.19-4,22.28-3.35
		c0,0,21.97,15.14,22.91,20.29c1.31,7.2,0,32.72,0,32.72s-0.18,15.71-15.18,15.71c-15,0-458.09,0-458.09,0h-30
		C27.12,311.43,12.72,312.09,12.72,295.73z"/>
</g>
<g id="husband">
	<path class="st4" d="M506.12,107.53c0,0,5.75,16.43,0,20.54c-5.75,4.11-17.25,9.86-17.25,9.86l47.64-7.39l-14.79-7.8
		c0,0-2.29-11.99-1.14-22.63"/>
	<path class="st4" d="M474.55,53.34c0,0,6.85-13.52,41.14-14.35c0,0,2.84-2.25,4.38,3.63c0.59,2.25,4.39,16.79,4.39,16.79
		l11.88,24.28c0,0-29.06,45.67-49.25,11.7C485.72,93.08,473.44,76.8,474.55,53.34z"/>
	<g>
		<path class="st5" d="M504.97,69.63c-0.64-1.28,0-4.27,0-4.27s4.11-3.63,10.59-3.32c0,0,3.16,0.47,4.42,1.9l0.71,0.95
			c0,0-3.32-2.45-5.22-1.9c0,0-5.69-0.02-9.01,2.83C506.47,65.83,505.36,70.42,504.97,69.63z"/>
		<path class="st6" d="M504.97,69.63c0,0-0.63,1.19,0,1.03c0,0,6.01-0.32,16.51-4.78l-0.79-0.98l-2.84-1.58L515.48,63l-2.79,0.26
			l-3.76,1.07l-2.46,1.5L504.97,69.63z"/>
		<path class="st5" d="M508.24,65.06c0,0-0.6,3.84,2.14,4.03c0,0,2.21,0.47,3.18-1.13c0,0,1.82-3.11-1.2-4.44
			C509.34,62.21,508.24,65.06,508.24,65.06z"/>
	</g>
	<path class="st5" d="M495.82,70.2c-0.07-1.43-2.1-3.72-2.1-3.72s-5.36-1.15-10.85,2.31c0,0-2.52,1.97-2.92,3.83l-0.15,1.18
		c0,0,1.69-3.76,3.61-4.21c0,0,4.94-2.81,9.24-1.96C492.64,67.63,495.86,71.08,495.82,70.2z"/>
	<path class="st6" d="M495.82,70.2c0,0,1.13,0.72,0.5,0.89c0,0-5.39,2.67-16.73,3.95l0.2-1.25l1.7-2.78l1.91-1.44l2.56-1.14
		l3.8-0.91l2.88,0.1L495.82,70.2z"/>
	<path class="st5" d="M488.26,68.92c0,0,2.41,3.05,0.12,4.56c0,0-1.69,1.5-3.33,0.58c0,0-3.12-1.82-1.14-4.45
		C485.89,66.97,488.26,68.92,488.26,68.92z"/>
	<path d="M504.38,55.81c0,0,11.27-5.05,16.74,0.19l-16.41,2.24C504.72,58.25,503.95,57.11,504.38,55.81z"/>
	<path d="M492.56,57.94c0,0-12.84,1.3-15.6,8.18l16.39-6.04C493.35,60.07,493.56,58.78,492.56,57.94z"/>
	<path class="st5" d="M488.03,10.8c0,0,24.87-1.23,41.75,9.53l8,37.79l-1.18,25.2l-11.84-23.35l-5.33-19.67
		c0,0-33.16-0.92-44.42,13.83c0,0-2.08,10.77,2.37,20.59c0,0-4.74-9.22-6.22-22.74c0,0-18.66,0.31-18.66-22.12
		c0,0,4.54,4.61,8.19,3.69c0,0-5.82-6.15-5.82-13.21c0,0,9.1-2.15,19.65,0.92c0,0-2.18-2.46-2.48-6.15c0,0,10.48-2.15,20.2,0.61
		L488.03,10.8z"/>
	<path class="st4" d="M499.26,106.97c0,0,10.25,11.94,1.76,20.16l30.67-3.56c0,0-9.31-5.3-7.94-23.46
		C523.75,100.1,507.64,113.19,499.26,106.97z"/>
	<path class="st4" d="M478.46,158.28c0,0,18.52,12.27-1.38,22.09L421.28,165c0,0-4.99,2.84-11.31,1.77l-10.42-2.22
		c0,0-19.17-4.55-2.52-15.28c0,0,4.07-2.03,19.94,6.05L478.46,158.28z"/>
	<path class="st7" d="M499.54,122.34c0,0-5.78,5.15-14.27,5.45c0,0-3.68-0.3-7.1,5.45l-16.53,27.95l18.95,8.33l-2.42,57.25
		c0,0,29.53,11.81,76.75,0c0,0-1.36-60.24,8.83-90.81c0,0,0-9.08-10.19-10.29c0,0-17.33-3.03-18.34-6.66L499.54,122.34z"/>
	<path class="st8" d="M485.27,127.79c0,0,3.1,25.96-3.58,43.58c0,0-0.92,14.05-3.53,55.4c0,0,34.52,11.49,76.75,0
		c0,0-22.09-43.09,8.83-90.81c0,0,0.41-7.81-10.19-10.29c0,0-16.2-1.08-18.34-6.66l-35.67,3.33
		C499.54,122.34,490.87,128.74,485.27,127.79z"/>
	<path class="st9" d="M513.73,86.87c0,0-9.51-2.71-16.64,4.3C497.09,91.17,509.61,106.95,513.73,86.87z"/>
</g>
<g id="girl">
	<g>
		<path class="st4" d="M416.23,79.79C416.02,79.23,383.73,52,383.73,52l-33.7,35.19c0,0,12.28,29.37,29.65,36.18
			c0,0,8.67,5.28,17.22-1.45c0,0,16.97-12.3,25.45-34.74L416.23,79.79z"/>
		<path class="st4" d="M415.66,144.06c0,0-13.67-3.58-15.03-9.34l-3.72-12.81l-2.39,1.58l-1.78,0.83l-1.9,0.6l-1.86,0.32l-3.23,0
			l-2.31-0.41l-1.93-0.61l-1.82-0.85l-1.44,10.77c0,0-3.87,12.32-24.85,12.47L415.66,144.06z"/>
	</g>
	<path class="st10" d="M423.35,81.06c0,0-11.04-49.71-38.18-37.9c0,0-26.29-9.07-33.45,22.78c0,0-2.72,2.37-3.77,18.19
		c0,0-5.41,19.38,1.17,28.7c0,0,15.23,14.03,3.41,14.51c0,0,8.69,5.85,9.88-6.6c0,0-12.86-18.26-9.14-28.28
		c0,0,1.29-12.17,12.06-19.93c0,0,9.17-3.38,16.4-17.01c0,0,20.36,15.51,34.8,24.13c0,0,5.82,9.16,2.04,17.76
		c0,0-6.32,10.78-3.06,17.03c0,0,3.64-12.17,8.46-18.38C423.96,96.07,425.08,87.35,423.35,81.06z"/>
	<g>
		<path class="st11" d="M360.28,206.33c0,0,12.55,3.11,18.93,8.68l23.56-23.99l16.04,4.55c0,0,7.78-5.81,6-20.6
			c0,0,2.51,6.48-0.48,14.71l3.15,22.61c0,0,1.56,14.14,17.35,3.97c0,0,1.07-1.23,0.69-5.38s-5.14-55.46-5.14-55.46
			s-3.04-18.35-19.99-20.07c0,0-38.74-5.45-51.98-1.28c0,0-11.79-1.21-18.39,3.28c-6.6,4.49-13.2,6.81-14.32,18.93
			s-5.28,56.97-5.28,56.97s-0.94,2.24,2.26,3.87c3.2,1.62,13.9,7.04,15.89-4.3c0.41-2.31,3.26-23.13,3.26-23.13
			s-3.34-9.09-0.28-15.35c0,0-2.64,15.83,7.32,22.24C358.88,196.57,360.87,202.63,360.28,206.33z"/>
		<g>
			<rect x="401.82" y="160.25" class="st12" width="14.08" height="1.95"/>
			
				<rect x="401.82" y="160.25" transform="matrix(-1.836970e-16 1 -1 -1.836970e-16 570.0894 -247.6383)" class="st12" width="14.08" height="1.95"/>
		</g>
	</g>
	<path class="st10" d="M375.57,121.21c0,0-4.55-0.94-7.74-5.51l0.67,16.5c0,0-14.51,12.8-17.23,19.86c0,0-5.29,12.99,0.95,23.26
		c0,0,9.12,20.86,29.95,1.97c0,0-16.95,3.51-8.94-11.85c0,0,5.58-5.93,7.82-15.57c0,0,2.26-4.38-0.59-14.6
		S375.59,126.28,375.57,121.21z"/>
	<path class="st13" d="M367.8,114.7c0,0,1.54,15.57-1.55,18.54s10.35,3.84,10.35,3.84L367.8,114.7z"/>
	<path d="M378.11,79.98c0,0-14.8,2.32-18.26,9.49l19.08-7.39C378.93,82.08,379.22,80.76,378.11,79.98z"/>
	<path d="M393.44,79.52c0,0,14.69-2.97,20.42,2.55l-20.46-0.3C393.41,81.77,392.67,80.63,393.44,79.52z"/>
	<path class="st9" d="M379.2,109.38c0,0,7.5-6.44,16.91-3.06C396.11,106.33,391.35,125.9,379.2,109.38z"/>
	<g>
		<path d="M364.99,95.74c0,0,10.37-3.75,15.02-3.41C380.01,92.33,373.21,88.18,364.99,95.74z"/>
		<path d="M370.51,97c0,0,3.59,2.27,6.36-1.65c0,0,0.48-2.22-0.94-3.63l-6.39,1.54C369.53,93.26,368.94,95.47,370.51,97z"/>
		<path d="M365.85,94.99c0,0-1.45-0.79-1.39-3.19c0,0,0.38,2.32,1.59,3.14"/>
		<path d="M367.76,94.42c0,0-1.45-0.79-1.39-3.19c0,0,0.38,2.32,1.59,3.14"/>
		<path d="M366.85,94.8c0,0-1.45-0.79-1.39-3.19c0,0,0.38,2.32,1.59,3.14"/>
		<path d="M368.68,93.88c0,0-1.45-0.79-1.39-3.19c0,0,0.38,2.32,1.59,3.14"/>
		<path d="M369.66,93.89c0,0-1.45-0.79-1.39-3.19c0,0,0.38,2.32,1.59,3.14"/>
		<path d="M371.47,93.16c0,0-1.45-0.79-1.39-3.19c0,0,0.38,2.32,1.59,3.14"/>
		<path d="M370.46,93.22c0,0-1.45-0.79-1.39-3.19c0,0,0.38,2.32,1.59,3.14"/>
		<path d="M372.58,92.87c0,0-1.45-0.79-1.39-3.19c0,0,0.38,2.32,1.59,3.14"/>
	</g>
	<g>
		<path d="M409.61,87.04c0,0-10.89,1.75-14.78,4.31C394.83,91.36,398.75,84.43,409.61,87.04z"/>
		<path d="M405.4,90.82c0,0-2.04,3.73-6.36,1.65c0,0-1.5-1.71-0.94-3.63l6.33-1.76C404.43,87.08,406.02,88.72,405.4,90.82z"/>
		<path d="M408.5,86.8c0,0,0.88-1.39-0.34-3.47c0,0,0.79,2.22,0.14,3.52"/>
		<path d="M406.54,87.23c0,0,0.88-1.39-0.34-3.47c0,0,0.79,2.22,0.14,3.52"/>
		<path d="M407.53,87.13c0,0,0.88-1.39-0.34-3.47c0,0,0.79,2.22,0.14,3.52"/>
		<path d="M405.48,87.21c0,0,0.88-1.39-0.34-3.47c0,0,0.79,2.22,0.14,3.52"/>
		<path d="M404.63,87.69c0,0,0.88-1.39-0.34-3.47c0,0,0.79,2.22,0.14,3.52"/>
		<path d="M402.69,87.93c0,0,0.88-1.39-0.34-3.47c0,0,0.79,2.22,0.14,3.52"/>
		<path d="M403.6,87.5c0,0,0.88-1.39-0.34-3.47c0,0,0.79,2.22,0.14,3.52"/>
		<path d="M401.58,88.22c0,0,0.88-1.39-0.34-3.47c0,0,0.79,2.22,0.14,3.52"/>
	</g>
	<g id="Layer_8">
	</g>
</g>
<g id="blanket">
	<g>
		<path class="st14" d="M220.83,209.99c9.82-5.89,30.76-5.98,30.76-5.98l16.36,11c10.47-2.19,32.07,5.46,32.07,5.46
			c9.16,5.24,27.49-10.47,27.49-10.47c4.58-2.19,8.68-3.59,12.16-4.49c7.96-2.04,12.71-1.4,12.71-1.4s13.74,2.83,26.83,10.9
			l23.56-23.99c0,0,21.6,4.8,59.55,20.72l45.81,13.96c0,0,41.23,9.82,22.25,37.3H12.72c0,0-13.74-15.05,0-30.1
			c0,0,32.36-6.83,44.5-12.43s32.07-16.36,32.07-16.36s9.82-1.31,24.87,5.89c0,0,18.32,15.71,27.49,10.47c0,0,21.6-7.65,32.07-5.46
			l16.36-11C190.08,204.01,211.02,204.1,220.83,209.99"/>
	</g>
</g>
<g id="arms_1_">
	<path class="st4" d="M330.23,207.49c0,0,1.7-15.85,18.35-3.17l12.23,43.69c0,0,4.48,3.11,6.4,7.93l2.8,8.03
		c0,0,4.79,14.87-11.17,4.73c0,0-3.42-2.59-3.92-15.71L330.23,207.49z"/>
	<path class="st4" d="M444.65,200.68c0,0-1.7-15.85-18.35-3.17l-12.23,43.69c0,0-4.48,3.11-6.4,7.93l-2.8,8.03
		c0,0-4.79,14.87,11.17,4.73c0,0,3.42-2.59,3.92-15.71L444.65,200.68z"/>
	<g id="arms">
		<path class="st4" d="M549.72,164.86c0,0,5.51-22.61-19.16-11.37l-34.23,55.88c0,0-6.5,2.61-10.92,8.56L478.49,228
			c0,0-12.35,18.78,10.35,10.8c0,0,5.06-2.29,11.77-20.28L549.72,164.86z"/>
	</g>
	<path class="st7" d="M541.98,123.58l-17.68,31.13c0,0,25.26,14.38,25.52,13.35c0.25-1.03,3.43-11.3,3.43-11.3l4.11-9.57l6.39-11.23
		l-1.11-4.46c0,0-3.93-4.58-4.27-4.38s-4.81-1.45-4.81-1.45l-6.46-0.85L541.98,123.58z"/>
</g>
<g id="vaseline">
	<g>
		<path class="st15" d="M460.88,241.51c0,0,0.74,7.64,3.41,7.72h12.68c0,0,2.64,0.11,3.67-5.96l0.11-12.88h-19.89L460.88,241.51z"/>
		<path class="st16" d="M460.88,231.27c0,0-0.53,2.71,5.52,2.71c0.34,0,9.55,0,9.55,0s4.66-0.61,4.81-2.25v-5.55h-19.88
			L460.88,231.27z"/>
		<path class="st17" d="M460.88,224.66v1.52c0,0-0.3,1.93,5.82,2.11s9.52-0.12,9.52-0.12s4.35-0.55,4.54-1.99v-1.52
			c0,0-0.09-0.69-1.13-1.11c-1.05-0.42-3.46-1.03-3.46-1.03s-7.76-0.23-10.37,0C465.79,222.52,460.88,223.14,460.88,224.66z"/>
		<rect x="464.9" y="236.47" class="st16" width="11.81" height="5.2"/>
	</g>
</g>
</svg>
