<?xml version="1.0" encoding="utf-8"?>
<!-- Generator: Adobe Illustrator 24.3.0, SVG Export Plug-In . SVG Version: 6.00 Build 0)  -->
<svg version="1.1" xmlns="http://www.w3.org/2000/svg" xmlns:xlink="http://www.w3.org/1999/xlink" x="0px" y="0px"
	 viewBox="0 0 841.89 595.28" style="enable-background:new 0 0 841.89 595.28;" xml:space="preserve">
<style type="text/css">
	.st0{fill:#312210;}
	.st1{fill:#FDF7BA;}
	.st2{fill:#483B15;}
	.st3{fill:none;stroke:#37160D;stroke-miterlimit:10;}
	.st4{fill:#EECB9B;stroke:#EAC179;stroke-miterlimit:10;}
	.st5{fill:#1A100A;}
	.st6{fill:#FFFFFF;stroke:#1A100A;stroke-miterlimit:10;}
	.st7{fill:#304C23;}
	.st8{fill:#125D2F;}
	.st9{fill:#E4273A;stroke:#C42127;stroke-miterlimit:10;}
	.st10{fill:#533814;stroke:#4B3014;stroke-miterlimit:10;}
	.st11{fill:#D0ECEC;}
	.st12{fill:#ED1C24;}
	.st13{fill:#533814;}
	.st14{fill:#A0D9D5;}
	.st15{fill:#FCF6AC;}
	.st16{fill:#304C85;}
	.st17{fill:#3E5DA0;}
</style>
<g id="bed">
	<path class="st0" d="M688.83,281.7c0,0-1.18,151.52-6.84,151.52c-5.66,0-17.34,0.75-17.34,0s-6.8-126.14-6.8-126.14
		s-4.53,126.43-6.3,126.47s-24.67,2.21-25.08,0s-3.49-150.96,0-151.86S688.83,281.7,688.83,281.7z"/>
	<rect x="203.05" y="168.61" class="st1" width="404.65" height="133.51"/>
	<path class="st2" d="M190.75,286.76V177.47c0,0-3.27-20.29,27.49-20.29c0,0,83.77-7.2,104.71-9.16
		c20.94-1.96,156.41-3.93,192.19,2.18c0,0,75.04,5.67,81.59,6.11s21.38-1.31,21.81,17.89c0.44,19.2,0,110.82,0,110.82
		s-14.83-5.67-22.69-6.98l-1.31-97.73c0,0-142.01-17.23-202.22-10.03c0,0-105.37-1.31-174.74,8.51l-1.31,96.2L190.75,286.76z"/>
	<rect x="160.64" y="377.73" class="st2" width="30" height="99.48"/>
	<line class="st3" x1="175.65" y1="470" x2="175.65" y2="377.73"/>
	<path class="st3" d="M607.54,281.15v-94.53c0,0,0.09-18.32-14.96-19.63c-15.05-1.31-97.51-7.85-106.67-8.51
		c0,0-91.62-6.54-140.05,0c0,0-107.33,5.24-126.31,7.2c0,0-15.05-1.96-15.05,14.4s-0.59,105.28-1.6,101.07"/>
	<rect x="618.73" y="377.73" class="st2" width="30" height="99.48"/>
	<line class="st3" x1="633.73" y1="470" x2="633.73" y2="377.73"/>
	<path class="st2" d="M190.65,377.73c0,0,413.08,0,428.08,0v57.59H190.65V377.73z"/>
	<path class="st1" d="M146.25,362.02v-49.66c0,0,0.55-14.48,29.4-8.59s54.37,8.59,54.37,8.59s8.51,6.62,32.72,0
		c0,0,35.99-4,46.47-7.28l28.14,7.28c0,0,5.24-9.44,9.16-9.99c3.93-0.55,31.41,0,31.41,0s11.78,4.84,35.99,9.99
		c24.21,5.16,94.89,9.74,113.87-3.35c0,0,26.83-5.89,45.16-1.96c0,0,28.14-1.96,39.27,1.96l6.52,3.35c0,0,9.19-4,22.28-3.35
		c0,0,21.97,15.14,22.91,20.29c1.31,7.2,0,32.72,0,32.72s-0.18,15.71-15.18,15.71s-458.09,0-458.09,0h-30
		C160.64,377.73,146.25,378.38,146.25,362.02z"/>
</g>
<g id="husband">
	<path class="st4" d="M639.64,173.83c0,0,5.75,16.43,0,20.54c-5.75,4.11-17.25,9.86-17.25,9.86l47.64-7.39l-14.79-7.8
		c0,0-2.29-11.99-1.14-22.63"/>
	<path class="st4" d="M608.08,119.63c0,0,6.85-13.52,41.14-14.35c0,0,2.84-2.25,4.38,3.63c0.59,2.25,4.39,16.79,4.39,16.79
		l11.88,24.28c0,0-29.06,45.67-49.25,11.7C619.24,159.37,606.96,143.09,608.08,119.63z"/>
	<g>
		<path class="st5" d="M638.49,135.93c-0.64-1.28,0-4.27,0-4.27s4.11-3.63,10.59-3.32c0,0,3.16,0.47,4.42,1.9l0.71,0.95
			c0,0-3.32-2.45-5.22-1.9c0,0-5.69-0.02-9.01,2.83C639.99,132.12,638.89,136.72,638.49,135.93z"/>
		<path class="st6" d="M638.49,135.93c0,0-0.63,1.19,0,1.03c0,0,6.01-0.32,16.51-4.78l-0.79-0.98l-2.84-1.58l-2.37-0.31l-2.79,0.26
			l-3.76,1.07l-2.46,1.5L638.49,135.93z"/>
		<path class="st5" d="M641.77,131.36c0,0-0.6,3.84,2.14,4.03c0,0,2.21,0.47,3.18-1.13c0,0,1.82-3.11-1.2-4.44
			C642.87,128.5,641.77,131.36,641.77,131.36z"/>
	</g>
	<path class="st5" d="M629.34,136.49c-0.07-1.43-2.1-3.72-2.1-3.72s-5.36-1.15-10.85,2.31c0,0-2.52,1.97-2.92,3.83l-0.15,1.18
		c0,0,1.69-3.76,3.61-4.21c0,0,4.94-2.81,9.24-1.96C626.17,133.92,629.39,137.38,629.34,136.49z"/>
	<path class="st6" d="M629.34,136.49c0,0,1.13,0.72,0.5,0.89c0,0-5.39,2.67-16.73,3.95l0.2-1.25l1.7-2.78l1.91-1.44l2.56-1.14
		l3.8-0.91l2.88,0.1L629.34,136.49z"/>
	<path class="st5" d="M621.78,135.21c0,0,2.41,3.05,0.12,4.56c0,0-1.69,1.5-3.33,0.58c0,0-3.12-1.82-1.14-4.45
		S621.78,135.21,621.78,135.21z"/>
	<path d="M637.91,122.11c0,0,11.27-5.05,16.74,0.19l-16.41,2.24C638.24,124.54,637.47,123.41,637.91,122.11z"/>
	<path d="M626.09,124.23c0,0-12.84,1.3-15.6,8.18l16.39-6.04C626.88,126.36,627.08,125.08,626.09,124.23z"/>
	<path class="st5" d="M621.55,77.09c0,0,24.87-1.23,41.75,9.53l8,37.79l-1.18,25.2l-11.84-23.35l-5.33-19.67
		c0,0-33.16-0.92-44.42,13.83c0,0-2.08,10.77,2.37,20.59c0,0-4.74-9.22-6.22-22.74c0,0-18.66,0.31-18.66-22.12
		c0,0,4.54,4.61,8.19,3.69c0,0-5.82-6.15-5.82-13.21c0,0,9.1-2.15,19.65,0.92c0,0-2.18-2.46-2.48-6.15c0,0,10.48-2.15,20.2,0.61
		L621.55,77.09z"/>
	<path class="st4" d="M632.79,173.26c0,0,10.25,11.94,1.76,20.16l30.67-3.56c0,0-9.31-5.3-7.94-23.46
		C657.28,166.39,641.17,179.48,632.79,173.26z"/>
	<path class="st4" d="M611.99,224.58c0,0,18.52,12.27-1.38,22.09l-55.8-15.37c0,0-4.99,2.84-11.31,1.77l-10.42-2.22
		c0,0-19.17-4.55-2.52-15.28c0,0,4.07-2.03,19.94,6.05L611.99,224.58z"/>
	<path class="st7" d="M633.06,188.64c0,0-5.78,5.15-14.27,5.45c0,0-3.68-0.3-7.1,5.45l-16.53,27.95l18.95,8.33l-2.42,57.25
		c0,0,29.53,11.81,76.75,0c0,0-1.36-60.24,8.83-90.81c0,0,0-9.08-10.19-10.29c0,0-17.33-3.03-18.34-6.66L633.06,188.64z"/>
	<path class="st8" d="M618.79,194.09c0,0,3.1,25.96-3.58,43.58c0,0-0.92,14.05-3.53,55.4c0,0,34.52,11.49,76.75,0
		c0,0-22.09-43.09,8.83-90.81c0,0,0.41-7.81-10.19-10.29c0,0-16.2-1.08-18.34-6.66l-35.67,3.33
		C633.06,188.64,624.39,195.03,618.79,194.09z"/>
	<path class="st9" d="M647.26,153.16c0,0-9.51-2.71-16.64,4.3C630.62,157.46,643.13,173.24,647.26,153.16z"/>
</g>
<g id="girl">
	<g>
		<path class="st4" d="M549.76,146.08c-0.21-0.56-32.51-27.79-32.51-27.79l-33.7,35.19c0,0,12.28,29.37,29.65,36.18
			c0,0,8.67,5.28,17.22-1.45c0,0,16.97-12.3,25.45-34.74L549.76,146.08z"/>
		<path class="st4" d="M549.18,210.35c0,0-13.67-3.58-15.03-9.34l-3.72-12.81l-2.39,1.58l-1.78,0.83l-1.9,0.6l-1.86,0.32l-3.23,0
			l-2.31-0.41l-1.93-0.61l-1.82-0.85l-1.44,10.77c0,0-3.87,12.32-24.85,12.47L549.18,210.35z"/>
	</g>
	<path class="st10" d="M556.87,147.36c0,0-11.04-49.71-38.18-37.9c0,0-26.29-9.07-33.45,22.78c0,0-2.72,2.37-3.77,18.19
		c0,0-5.41,19.38,1.17,28.7c0,0,15.23,14.03,3.41,14.51c0,0,8.69,5.85,9.88-6.6c0,0-12.86-18.26-9.14-28.28
		c0,0,1.29-12.17,12.06-19.93c0,0,9.17-3.38,16.4-17.01c0,0,20.36,15.51,34.8,24.13c0,0,5.82,9.16,2.04,17.76
		c0,0-6.32,10.78-3.06,17.03c0,0,3.64-12.17,8.46-18.38C557.48,162.36,558.61,153.64,556.87,147.36z"/>
	<g>
		<path class="st11" d="M493.8,272.62c0,0,12.55,3.11,18.93,8.68l23.56-23.99l16.04,4.55c0,0,7.78-5.81,6-20.6
			c0,0,2.51,6.48-0.48,14.71l3.15,22.61c0,0,1.56,14.14,17.35,3.97c0,0,1.07-1.23,0.69-5.38c-0.39-4.16-5.14-55.46-5.14-55.46
			s-3.04-18.35-19.99-20.07c0,0-38.74-5.45-51.98-1.28c0,0-11.79-1.21-18.39,3.28c-6.6,4.49-13.2,6.81-14.32,18.93
			c-1.12,12.12-5.28,56.97-5.28,56.97s-0.94,2.24,2.26,3.87c3.2,1.62,13.9,7.04,15.89-4.3c0.41-2.31,3.26-23.13,3.26-23.13
			s-3.34-9.09-0.28-15.35c0,0-2.64,15.83,7.32,22.24C492.41,262.86,494.4,268.92,493.8,272.62z"/>
		<g>
			<rect x="535.35" y="226.54" class="st12" width="14.08" height="1.95"/>
			
				<rect x="535.35" y="226.54" transform="matrix(-1.836970e-16 1 -1 -1.836970e-16 769.9067 -314.8714)" class="st12" width="14.08" height="1.95"/>
		</g>
	</g>
	<path class="st10" d="M509.1,187.5c0,0-4.55-0.94-7.74-5.51l0.67,16.5c0,0-14.51,12.8-17.23,19.86c0,0-5.29,12.99,0.95,23.26
		c0,0,9.12,20.86,29.95,1.97c0,0-16.95,3.51-8.94-11.85c0,0,5.58-5.93,7.82-15.57c0,0,2.26-4.38-0.59-14.6
		S509.12,192.58,509.1,187.5z"/>
	<path class="st13" d="M501.32,181c0,0,1.54,15.57-1.55,18.54c-3.09,2.97,10.35,3.84,10.35,3.84L501.32,181z"/>
	<path d="M511.64,146.27c0,0-14.8,2.32-18.26,9.49l19.08-7.39C512.45,148.37,512.75,147.05,511.64,146.27z"/>
	<path d="M526.96,145.81c0,0,14.69-2.97,20.42,2.55l-20.46-0.3C526.93,148.06,526.2,146.93,526.96,145.81z"/>
	<path class="st9" d="M512.72,175.68c0,0,7.5-6.44,16.91-3.06C529.63,172.62,524.87,192.19,512.72,175.68z"/>
	<g>
		<path d="M498.52,162.03c0,0,10.37-3.75,15.02-3.41C513.53,158.63,506.74,154.47,498.52,162.03z"/>
		<path d="M504.03,163.29c0,0,3.59,2.27,6.36-1.65c0,0,0.48-2.22-0.94-3.63l-6.39,1.54C503.06,159.55,502.47,161.76,504.03,163.29z"
			/>
		<path d="M499.37,161.28c0,0-1.45-0.79-1.39-3.19c0,0,0.38,2.32,1.59,3.14"/>
		<path d="M501.29,160.71c0,0-1.45-0.79-1.39-3.19c0,0,0.38,2.32,1.59,3.14"/>
		<path d="M500.38,161.09c0,0-1.45-0.79-1.39-3.19c0,0,0.38,2.32,1.59,3.14"/>
		<path d="M502.2,160.17c0,0-1.45-0.79-1.39-3.19c0,0,0.38,2.32,1.59,3.14"/>
		<path d="M503.19,160.18c0,0-1.45-0.79-1.39-3.19c0,0,0.38,2.32,1.59,3.14"/>
		<path d="M504.99,159.45c0,0-1.45-0.79-1.39-3.19c0,0,0.38,2.32,1.59,3.14"/>
		<path d="M503.99,159.51c0,0-1.45-0.79-1.39-3.19c0,0,0.38,2.32,1.59,3.14"/>
		<path d="M506.11,159.16c0,0-1.45-0.79-1.39-3.19c0,0,0.38,2.32,1.59,3.14"/>
	</g>
	<g>
		<path d="M543.13,153.34c0,0-10.89,1.75-14.78,4.31C528.35,157.65,532.28,150.72,543.13,153.34z"/>
		<path d="M538.93,157.12c0,0-2.04,3.73-6.36,1.65c0,0-1.5-1.71-0.94-3.63l6.33-1.76C537.95,153.37,539.54,155.02,538.93,157.12z"/>
		<path d="M542.02,153.1c0,0,0.88-1.39-0.34-3.47c0,0,0.79,2.22,0.14,3.52"/>
		<path d="M540.07,153.52c0,0,0.88-1.39-0.34-3.47c0,0,0.79,2.22,0.14,3.52"/>
		<path d="M541.05,153.42c0,0,0.88-1.39-0.34-3.47c0,0,0.79,2.22,0.14,3.52"/>
		<path d="M539.01,153.5c0,0,0.88-1.39-0.34-3.47c0,0,0.79,2.22,0.14,3.52"/>
		<path d="M538.15,153.98c0,0,0.88-1.39-0.34-3.47c0,0,0.79,2.22,0.14,3.52"/>
		<path d="M536.22,154.22c0,0,0.88-1.39-0.34-3.47c0,0,0.79,2.22,0.14,3.52"/>
		<path d="M537.12,153.79c0,0,0.88-1.39-0.34-3.47c0,0,0.79,2.22,0.14,3.52"/>
		<path d="M535.1,154.51c0,0,0.88-1.39-0.34-3.47c0,0,0.79,2.22,0.14,3.52"/>
	</g>
	<g id="Layer_8">
	</g>
</g>
<g id="blanket">
	<g>
		<path class="st14" d="M354.36,276.29c9.82-5.89,30.76-5.98,30.76-5.98l16.36,11c10.47-2.19,32.07,5.46,32.07,5.46
			c9.16,5.24,27.49-10.47,27.49-10.47c4.58-2.19,8.68-3.59,12.16-4.49c7.96-2.04,12.71-1.4,12.71-1.4s13.74,2.83,26.83,10.9
			l23.56-23.99c0,0,21.6,4.8,59.55,20.72l45.81,13.96c0,0,41.23,9.82,22.25,37.3H146.25c0,0-13.74-15.05,0-30.1
			c0,0,32.36-6.83,44.5-12.43c12.14-5.6,32.07-16.36,32.07-16.36s9.82-1.31,24.87,5.89c0,0,18.32,15.71,27.49,10.47
			c0,0,21.6-7.65,32.07-5.46l16.36-11C323.6,270.3,344.54,270.4,354.36,276.29"/>
	</g>
</g>
<g id="arms_1_">
	<path class="st4" d="M463.75,273.78c0,0,1.7-15.85,18.35-3.17l12.23,43.69c0,0,4.48,3.11,6.4,7.93l2.8,8.03
		c0,0,4.79,14.87-11.17,4.73c0,0-3.42-2.59-3.92-15.71L463.75,273.78z"/>
	<path class="st4" d="M578.18,266.97c0,0-1.7-15.85-18.35-3.17l-12.23,43.69c0,0-4.48,3.11-6.4,7.93l-2.8,8.03
		c0,0-4.79,14.87,11.17,4.73c0,0,3.42-2.59,3.92-15.71L578.18,266.97z"/>
	<g id="arms">
		<path class="st4" d="M683.24,231.15c0,0,5.51-22.61-19.16-11.37l-34.23,55.88c0,0-6.5,2.61-10.92,8.56l-6.92,10.07
			c0,0-12.35,18.78,10.35,10.8c0,0,5.06-2.29,11.77-20.28L683.24,231.15z"/>
	</g>
	<path class="st7" d="M675.51,189.88l-17.68,31.13c0,0,25.26,14.38,25.52,13.35c0.25-1.03,3.43-11.3,3.43-11.3l4.11-9.57l6.39-11.23
		l-1.11-4.46c0,0-3.93-4.58-4.27-4.38c-0.34,0.2-4.81-1.45-4.81-1.45l-6.46-0.85L675.51,189.88z"/>
</g>
<g id="vaseline">
	<g>
		<path class="st15" d="M594.4,307.8c0,0,0.74,7.64,3.41,7.72h12.68c0,0,2.64,0.11,3.67-5.96l0.11-12.88h-19.89L594.4,307.8z"/>
		<path class="st16" d="M594.4,297.57c0,0-0.53,2.71,5.52,2.71c0.34,0,9.55,0,9.55,0s4.66-0.61,4.81-2.25v-5.55H594.4L594.4,297.57z
			"/>
		<path class="st17" d="M594.4,290.96v1.52c0,0-0.3,1.93,5.82,2.11c6.11,0.19,9.52-0.12,9.52-0.12s4.35-0.55,4.54-1.99v-1.52
			c0,0-0.09-0.69-1.13-1.11s-3.46-1.03-3.46-1.03s-7.76-0.23-10.37,0C599.32,288.82,594.4,289.44,594.4,290.96z"/>
		<rect x="598.43" y="302.76" class="st16" width="11.81" height="5.2"/>
	</g>
</g>
</svg>
