<?xml version="1.0" encoding="utf-8"?>
<!-- Generator: Adobe Illustrator 24.3.0, SVG Export Plug-In . SVG Version: 6.00 Build 0)  -->
<svg version="1.1" xmlns="http://www.w3.org/2000/svg" xmlns:xlink="http://www.w3.org/1999/xlink" x="0px" y="0px"
	 viewBox="0 0 841.89 595.28" style="enable-background:new 0 0 841.89 595.28;" xml:space="preserve">
<style type="text/css">
	.st0{fill:#EFE906;}
	.st1{fill:#EECB9B;stroke:#EAC179;stroke-miterlimit:10;}
	.st2{fill:#3A342A;}
	.st3{fill:#ED1C24;}
	.st4{fill:#D0ECEC;}
	.st5{fill:#533814;stroke:#4B3014;stroke-miterlimit:10;}
	.st6{fill:#533814;}
	.st7{fill:#E4273A;stroke:#C42127;stroke-miterlimit:10;}
</style>
<g id="Layer_11">
	<path class="st0" d="M117.58,370.75c0,0,18.05-9.08,81.99,13.05c0,0-8.25-15.32-35.06-32.9c0,0,86.11-23.82,95.39-21.55
		c0,0-43.83-51.05-58.78-65.23h41.77c0,0-24.75-14.75-36.09-40.84c0,0-24.23-36.87-58.78-66.93c0,0,9.28-4.9,60.84,27.04
		c0,0,56.72,32.52,75.28,36.49c0,0-25.78-56.16-36.61-99.27c0,0-22.69-72.61-24.75-94.16c0,0,31.45,17.58,58.78,40.27
		c0,0,28.88,26.09,44.86,34.6c0,0,14.95,13.05,27.84,27.79c0,0-0.52-48.78,2.06-69.77c0,0,23.2,25.53,57.24,66.93
		c0,0,13.92-70.9,24.23-79.41c0,0,7.73,10.78,10.31,41.41c0,0,8.25,43.68,7.22,49.35c0,0,37.64-22.69,51.56-36.3
		c0,0,52.08-51.62,71.67-44.81c0,0-26.3,30.63-26.3,49.35c0,0,64.45-41.41,79.41-51.62c0,0,74.25-46.51,79.92-43.11
		c0,0-11.86,20.42-49.5,79.41c0,0-76.83,113.45-76.83,165.07c0,0,56.2-15.88,69.09-11.34c0,0-30.42,29.5-48.47,60.13
		c0,0,73.22-32.33,91.27-44.24c0,0,80.95-39.14,92.3-34.6c0,0-10.31,10.78-52.59,45.95c0,0-72.7,50.48-102.61,95.3
		c0,0,139.22-3.97,160.36,23.26l4.64,5.67c0,0-119.11,34.19-162.42,65.8c0,0,3.61,2.53,30.94,31.61H189.25
		c0,0-31.45-46.36-44.86-69.62C144.39,423.5,135.11,399.11,117.58,370.75z"/>
</g>
<g id="face">
	<g>
		<path class="st1" d="M403.8,187.61c0.19-0.56,31.35-29.09,31.35-29.09l35.1,33.79c0,0-11.07,29.85-28.16,37.35
			c0,0-8.45,5.63-17.27-0.75c0,0-17.46-11.6-26.84-33.67L403.8,187.61z"/>
		<path class="st1" d="M406.99,251.81c0,0,13.51-4.13,14.64-9.95l3.19-12.95l2.45,1.48l1.81,0.76l1.93,0.52l1.87,0.25l3.23-0.13
			l2.29-0.51l1.91-0.69l1.79-0.93l1.88,10.7c0,0,4.36,12.15,25.34,11.45H406.99z"/>
	</g>
</g>
<g id="legs">
	<path class="st1" d="M433.42,381.47c0,0,5.51,32.67,0.39,52.31c0,0,8.11,67.65,1.81,84.62l-17.74,0.13l-9.43-135.13L433.42,381.47z
		"/>
	<path class="st1" d="M466.93,381.47c0,0,5.51,32.67,0.39,52.31c0,0,8.11,67.65,1.81,84.62l-17.74,0.13l-9.43-135.13L466.93,381.47z
		"/>
</g>
<g id="skirt">
	<path class="st2" d="M391.92,394.47h94.66c0,0,0.28-22.36-4.18-32.68c-4.45-10.32-15.78-28.67-16.24-37.55l-15.78-8.89l-39.53,6.31
		c0,0,3.34,6.59-13.09,35.26C397.76,356.92,393.03,360.65,391.92,394.47z"/>
</g>
<g id="top">
	<g>
		<rect x="407.98" y="269.26" class="st3" width="14.08" height="1.95"/>
		
			<rect x="407.98" y="269.26" transform="matrix(-1.836970e-16 1 -1 -1.836970e-16 685.2554 -144.7897)" class="st3" width="14.08" height="1.95"/>
	</g>
	<path class="st4" d="M467.51,327.11h-56.88c1.4-10.26-1.13-20.55-1.13-20.55c-9.86-5.47-7.32-22.24-7.32-22.24
		c-2.54,7.76,0.28,15.35,0.28,15.35s-2.53,13.97-2.61,17.43c-0.54,22.76-19,8.35-19,8.35l5.71-61.6
		c1.67-11.9,17.77-18.31,17.77-18.31l27.26-2.77h14.24l27.26,2.77c0,0,16.1,6.41,17.77,18.31l5.71,61.6c0,0-18.47,14.41-19-8.35
		c-0.08-3.46-2.61-17.43-2.61-17.43s2.82-7.59,0.28-15.35c0,0,2.54,16.77-7.32,22.24c0,0-2.53,10.3-1.13,20.55h-56.88"/>
	<g>
		<rect x="408.96" y="274.34" class="st3" width="14.08" height="1.95"/>
		
			<rect x="408.96" y="274.34" transform="matrix(-1.836970e-16 1 -1 -1.836970e-16 691.3182 -140.6794)" class="st3" width="14.08" height="1.95"/>
	</g>
</g>
<g id="hair">
	<path class="st5" d="M396.74,189.18c0,0,9.01-50.12,36.6-39.42c0,0,25.9-10.14,34.35,21.4c0,0,2.82,2.25,4.5,18.02
		c0,0,6.19,19.15,0,28.72c0,0-14.64,14.64-2.82,14.64c0,0-8.45,6.19-10.14-6.19c0,0,12.11-18.77,7.98-28.63
		c0,0-1.78-12.11-12.86-19.43c0,0-9.3-3-17.08-16.33c0,0-19.71,16.33-33.79,25.53c0,0-5.44,9.39-1.31,17.83
		c0,0,6.76,10.51,3.75,16.89c0,0-4.13-12.01-9.2-18.02C396.74,204.19,395.26,195.53,396.74,189.18z"/>
	<path class="st5" d="M446.11,227.34c0,0,4.5-1.13,7.51-5.82v16.52c0,0,15.02,12.2,18.02,19.15c0,0,5.82,12.76,0,23.28
		c0,0-8.26,21.21-29.85,3.19c0,0,17.08,2.82,8.45-12.2c0,0-5.82-5.69-8.45-15.24c0,0-2.44-4.29,0-14.61
		C444.23,231.29,446.3,232.41,446.11,227.34z"/>
	<path class="st6" d="M453.62,220.53c0,0-0.91,15.62,2.31,18.46s-10.19,4.25-10.19,4.25L453.62,220.53z"/>
</g>
<g id="face_1_">
	<g id="eyes">
		<path d="M442.32,199.2h2.32c0,0,4.79-3.1,10.84,0.35h2.24C457.73,199.55,450.63,192.02,442.32,199.2z"/>
		<path d="M425.76,199.12l-2.32,0.14c0,0-4.96-2.81-10.8,1l-2.24,0.13C410.4,200.39,417.04,192.45,425.76,199.12z"/>
		<path class="st7" d="M422.47,209.64h23.28C445.75,209.64,433.99,238.23,422.47,209.64z"/>
	</g>
	<g id="eyebrows">
		<path d="M440.24,186.97c0,0,14.64-3.19,20.46,2.25h-20.46C440.24,189.22,439.49,188.1,440.24,186.97z"/>
		<path d="M426.62,186.97c0,0-14.64-3.19-20.46,2.25l20.46,0C426.62,189.22,427.37,188.1,426.62,186.97z"/>
	</g>
</g>
<g id="Layer_9">
	<g>
		<path class="st1" d="M382.97,317.94c0,0,7.51-8.3,12.95-11.79s11.35-10.16,11.8-11.51c0.45-1.35,1.53-3.43,3.17-5.74
			c1.64-2.31,0.11-0.92,0.32-0.95c0.21-0.04,2.49-5.73,4.33-6.6c0,0,1.05-2.3,3.96-1.38c0,0,3.58,0.65,6.05,2.29
			c0,0,4.45,2.41,4.67,5.87c0,0-0.34,3.67-2.92,2.35c0,0,5.26,4.37-1.58,6.22c0,0,3.29,1.82-2.23,3.8c0,0,1.8,3.67-3.48,4.03
			c0,0-3.32-0.27-6.57-1.61c0,0-1.09-0.51-2.02,1.4c-0.93,1.91-0.64,0.74-4.76,11.12c0,0-4.86,13.78-15.02,16.52
			c0,0-3.52,2.09-9.03-1.22C382.61,330.73,378.22,326.42,382.97,317.94z"/>
		<path class="st1" d="M418.61,285.86c0,0,4.95,1.51,8.68,4.62"/>
		<path class="st1" d="M416.65,291.77c0,0,0.6,1.7,9.07,4.92"/>
		<path class="st1" d="M414.72,297.58c0,0,5.66,3.47,8.77,2.91"/>
		<path class="st1" d="M418.67,279.78c0,0,1.49,0.43,2.99-6.35c0.2-0.89-2.07-3.43,1.01-7.44c0,0,3.67-2.86,4.59,3.47
			c0,0,0.46,1.84-1.22,5.73c0,0-1.66,3.69,0.04,7.37C426.08,282.57,423.45,280.29,418.67,279.78z"/>
	</g>
	<g>
		<path class="st1" d="M494.06,316.55c0,0-7.51-8.3-12.95-11.79c-5.44-3.49-11.35-10.16-11.8-11.51c-0.45-1.35-1.53-3.43-3.17-5.74
			c-1.64-2.31-0.11-0.92-0.32-0.95c-0.21-0.04-2.49-5.73-4.33-6.6c0,0-1.05-2.3-3.96-1.38c0,0-3.58,0.65-6.05,2.29
			c0,0-4.45,2.41-4.67,5.87c0,0,0.34,3.67,2.92,2.35c0,0-5.26,4.37,1.58,6.22c0,0-3.29,1.82,2.23,3.8c0,0-1.8,3.67,3.48,4.03
			c0,0,3.32-0.27,6.57-1.61c0,0,1.09-0.51,2.02,1.4c0.93,1.91,0.64,0.74,4.76,11.12c0,0,4.86,13.78,15.02,16.52
			c0,0,3.52,2.09,9.03-1.22C494.42,329.34,498.81,325.02,494.06,316.55z"/>
		<path class="st1" d="M458.41,284.46c0,0-4.95,1.51-8.68,4.62"/>
		<path class="st1" d="M460.37,290.37c0,0-0.6,1.7-9.07,4.92"/>
		<path class="st1" d="M462.3,296.19c0,0-5.66,3.47-8.77,2.91"/>
		<path class="st1" d="M458.35,278.38c0,0-1.49,0.43-2.99-6.35c-0.2-0.89,2.07-3.43-1.01-7.44c0,0-3.67-2.86-4.59,3.47
			c0,0-0.46,1.84,1.22,5.73c0,0,1.66,3.69-0.04,7.37C450.95,281.18,453.57,278.9,458.35,278.38z"/>
	</g>
</g>
</svg>
