<?xml version="1.0" encoding="utf-8"?>
<!-- Generator: Adobe Illustrator 24.3.0, SVG Export Plug-In . SVG Version: 6.00 Build 0)  -->
<svg version="1.1" xmlns="http://www.w3.org/2000/svg" xmlns:xlink="http://www.w3.org/1999/xlink" x="0px" y="0px"
	 viewBox="0 0 540.59 386.3" style="enable-background:new 0 0 540.59 386.3;" xml:space="preserve">
<style type="text/css">
	.st0{fill:#45413D;}
	.st1{fill:none;stroke:#45413D;stroke-width:13;stroke-miterlimit:10;}
	.st2{fill:#EECB9B;stroke:#EAC179;stroke-miterlimit:10;}
	.st3{fill:#D0ECEC;}
	.st4{fill:#ED1C24;}
	.st5{fill:#533814;stroke:#4B3014;stroke-miterlimit:10;}
	.st6{fill:none;stroke:#EAC179;stroke-miterlimit:10;}
	.st7{fill:none;stroke:#C42127;stroke-miterlimit:10;}
	.st8{fill:none;stroke:#C42228;stroke-miterlimit:10;}
	.st9{fill:#3A342A;}
</style>
<g id="car">
	<path class="st0" d="M357.51,209.98c-5.11-14.77-18.17-25.56-18.17-25.56c-15.33-19.31-57.36-27.64-57.36-27.64h-48.27
		c-11.93-1.51-23.28-5.87-23.28-5.87L107.63,60.06c-8.52-8.52-14.77-5.68-14.77-5.68s-230-2.27-260.67-0.45
		s-51.68,28.28-51.68,28.28l-42.59,72.12c-18.74,26.69-23.85,76.1-23.85,76.1v44.86c6.25,21.58,23.28,17.61,23.28,17.61
		c-5.68-36.35,18.17-61.33,18.17-61.33c51.68-42.02,95.98-4.54,95.98-4.54c35.21,31.23,23.85,65.88,23.85,65.88h306.67
		c-8.52-41.46,21.01-65.88,21.01-65.88c57.93-36.35,93.7,2.84,93.7,2.84c29.53,26.12,22.15,63.04,22.15,63.04h34.07
		c11.36-1.14,13.06-18.17,13.06-18.17v-38.05C365.46,226.45,357.51,209.98,357.51,209.98z M-88.48,143.92l-99.95-5.68
		c0,0-9.84,1.89-4.92-11.74l19.68-30.1c0,0,2.47-10.22,23.48-11.36h68.15c0,0,5.68-1.33,6.06,5.87v45.05
		C-75.99,135.97-72.58,147.33-88.48,143.92z M132.24,156.79l-176.81-10.6c0,0-7.61,0.38-8.54-7.19l0.21-47.33
		c0,0-1.89-6.25,5.68-6.72c7.57-0.47,99.95,0,99.95,0s10.22-1.61,25.74,9.37c0,0,54.14,46.57,53.76,47.7
		S151.93,155.65,132.24,156.79z"/>
	<circle class="st0" cx="-194.74" cy="281.61" r="30.15"/>
	<circle class="st0" cx="250.17" cy="281.61" r="23.57"/>
	<circle class="st1" cx="250.17" cy="281.61" r="59.61"/>
	<circle class="st1" cx="-194.74" cy="281.61" r="59.61"/>
	<circle class="st0" cx="250.17" cy="281.61" r="30.15"/>
</g>
<g id="face">
	<g>
		<path class="st2" d="M420.47,44.66c0.19-0.56,31.35-29.09,31.35-29.09l35.1,33.79c0,0-11.07,29.85-28.16,37.35
			c0,0-8.45,5.63-17.27-0.75c0,0-17.46-11.6-26.84-33.67L420.47,44.66z"/>
		<path class="st2" d="M423.66,108.86c0,0,13.51-4.13,14.64-9.95l3.19-12.95l2.45,1.48l1.81,0.76l1.93,0.52l1.87,0.25l3.23-0.13
			l2.29-0.51l1.91-0.69l1.79-0.93l1.88,10.7c0,0,4.36,12.15,25.34,11.45H423.66z"/>
	</g>
</g>
<g id="top">
	<path class="st3" d="M425.43,181.49h56.88c0,0-1.13-10.98,1.13-18.86c0,0,12.12-6.36,9.01-27.31l26.33,15.43l-4.94-28.38
		c0,0-32.94-27.87-34.91-28.16c-1.97-0.28-59.8,5.71-59.8,5.71s-17.35,3.02-19.04,25.83c0,0-6.19,65.6-4.5,65.6s14.92,0,14.92,0
		l6.76-37.3c0,0-2.53-10.85-0.28-15.35c0,0-3.1,15.77,7.32,22.24C424.3,160.93,427.96,171.07,425.43,181.49z"/>
	<g>
		<rect x="469.61" y="118.22" class="st4" width="14.08" height="1.95"/>
		
			<rect x="469.61" y="118.22" transform="matrix(-1.836970e-16 1 -1 -1.836970e-16 595.8438 -357.4565)" class="st4" width="14.08" height="1.95"/>
	</g>
</g>
<g id="hair">
	<path class="st5" d="M450.49,11.22c0,0,17.74-10.7,33.51,16.61c0,0,5.07,10.14,5.63,25.06c0,0,0.9,10.32-4.22,18.86
		c-1.69,2.82-3.66,9.01-3.38,13.8c0,0-5.68-5.5,0.99-17.6c0,0,4.36-7.74,1.97-15.2c0,0-31.25-23.79-31.96-28.86
		c0,0-14.5,14.08-22.95,17.74c0,0-8.87,7.04-10.7,18.86c0,0-1.97,6.62-0.56,11.83c0,0,2.53,9.57,8.87,14.36
		c0,0,3.21,14.36-9.38,9.43c0,0,4.87-2.11,3.04-7.6c0,0-7.6-8.73-8.87-14.78c0,0-1.97-7.04,1.27-17.74
		C413.75,55.99,415.01,0.8,450.49,11.22z"/>
	<path class="st5" d="M432.19,78.33l8.87,8.59c0,0,4.5,25.48,0,34.91c0,0-18.24,25.34,2,22.38c0,0-0.17,4.93-6.65,8.02
		c0,0-5.49,2.11-9.85,0c0,0-11.71-0.9-13.37-15.91c-0.14-1.27-1.41-5.63,1.55-18.86c0,0,7.88-11.4,16.05-15.35
		C430.78,102.12,434.16,100.99,432.19,78.33z"/>
</g>
<g id="face_1_">
	<path d="M460.34,56.54h2.32c0,0,4.79,3.1,10.84-0.35h2.24C475.75,56.18,468.65,63.72,460.34,56.54z"/>
	<path d="M458.02,50.86c0,0-0.66,1.6,2.09,0.79c0,0,6.29-3.4,14.56-3.75c0,0,1.87-0.74-0.11-1.22
		C474.55,46.68,467.04,46.43,458.02,50.86z"/>
	<path d="M443.78,56.62l-2.32-0.14c0,0-4.96,2.81-10.8-1l-2.24-0.13C428.42,55.34,435.06,63.29,443.78,56.62z"/>
	<path d="M445.24,52.01c0,0,0.58,1.64-2.12,0.65c0,0-6.11-3.84-14.34-4.76c0,0-1.82-0.87,0.17-1.21
		C428.95,46.68,436.46,46.95,445.24,52.01z"/>
	<path class="st6" d="M455.04,47.87c0,0-0.99,2.33,0,3.91"/>
	<path class="st6" d="M447.93,47.87c0,0,0.99,2.33,0,3.91"/>
	<path class="st7" d="M443.06,75.67c0,0,6.69-6.21,14.89,0"/>
	<path class="st8" d="M441.96,70.34c0,0,2.96,3.82,0,8.7"/>
	<path class="st8" d="M459.12,70.34c0,0-2.96,3.82,0,8.7"/>
</g>
<g id="arms">
	<path class="st2" d="M464.29,80.03c0,0-25.51-12-7.31,7.61c0,0,5.06,3.47,8.44,2.72l6.38,7.07c0,0,30.89,43.89,31.3,44.12
		c0.4,0.24,37.27,35.32,10.75-19.19c0,0-20.65-20.93-34.91-28.16l-9.32-6.29C469.61,87.91,468.98,83.6,464.29,80.03z"/>
	<path class="st2" d="M350.65,196.98c0,0-17.39,21.07,8.57,16.78c0,0,4.93-0.66,6.81-8.1l44.48-14.32c0,0,1.62-6.64-14.86-11.52
		C395.65,179.82,358.93,191.61,350.65,196.98z"/>
</g>
<g id="legs">
	<path class="st2" d="M479.8,236.65c0,0,5.51,32.67,0.39,52.31c0,0,8.11,67.65,1.81,84.62l-17.74,0.13l-9.43-135.13L479.8,236.65z"
		/>
	<path class="st2" d="M446.29,236.65c0,0,5.51,32.67,0.39,52.31c0,0,8.11,67.65,1.81,84.62l-17.74,0.13l-9.43-135.13L446.29,236.65z
		"/>
</g>
<g id="skirt">
	<path class="st9" d="M425.43,181.49h56.88v8.45c0,0,14.92,28.16,16.05,38.29c0,0,4.22,18.58,2.82,28.72h-95.45
		c0,0-0.28-26.75,8.17-37.73c0,0,13.23-24.5,11.83-26.47L425.43,181.49z"/>
</g>
</svg>
