<svg id="_2-1" data-name="2-1" xmlns="http://www.w3.org/2000/svg" viewBox="0 0 540.6 386.3">
  <g id="car">
    <path id="car-body" d="M357.5,210c-5.1-14.8-18.2-25.6-18.2-25.6C324,165.1,282,156.8,282,156.8H233.7a113.5,113.5,0,0,1-23.3-5.9L107.6,60.1c-8.5-8.6-14.7-5.7-14.7-5.7s-230-2.3-260.7-.5-51.7,28.3-51.7,28.3l-42.6,72.1c-18.7,26.7-23.8,76.1-23.8,76.1v44.9c6.2,21.6,23.2,17.6,23.2,17.6-5.6-36.4,18.2-61.3,18.2-61.3,51.7-42.1,96-4.6,96-4.6,35.2,31.3,23.8,65.9,23.8,65.9H182c-8.5-41.5,21-65.9,21-65.9,58-36.3,93.7,2.9,93.7,2.9,29.6,26.1,22.2,63,22.2,63h34c11.4-1.1,13.1-18.2,13.1-18.2v-38C365.5,226.5,357.5,210,357.5,210Zm-446-66.1-99.9-5.7s-9.9,1.9-4.9-11.7l19.6-30.1s2.5-10.2,23.5-11.4H-82s5.6-1.3,6,5.9V136S-72.6,147.3-88.5,143.9Zm220.7,12.9L-44.6,146.2s-7.6.4-8.5-7.2l.2-47.3s-1.9-6.3,5.7-6.8,99.9,0,99.9,0S63,83.3,78.5,94.3c0,0,54.1,46.6,53.7,47.7S151.9,155.7,132.2,156.8Z" fill="#45413d"/>
    <circle id="tyre-r" cx="250.2" cy="281.6" r="59.6" fill="none" stroke="#45413d" stroke-miterlimit="10" stroke-width="13"/>
    <circle id="rim-r" cx="250.2" cy="281.6" r="30.1" transform="translate(-67.9 483.4) rotate(-80.8)" fill="#45413d"/>
  </g>
  <g id="girl">
    <polygon id="star-r-back" points="338.9 43.4 336.2 42.5 333.9 44.2 333.9 41.4 331.6 39.7 334.3 38.9 335.1 36.1 336.8 38.4 339.6 38.4 337.9 40.7 338.9 43.4" fill="#ffce00" stroke="#ffce00" stroke-miterlimit="10"/>
    <polygon id="star-l-back" points="232.7 44.2 230 42.2 226.7 43.2 227.8 40 225.8 37.2 229.2 37.3 231.2 34.5 232.2 37.8 235.5 38.8 232.7 40.8 232.7 44.2" fill="#ffce00" stroke="#ffce00" stroke-miterlimit="10"/>
    <path id="leg-r" d="M314.1,236.7s5.5,32.6.4,52.3c0,0,8.1,67.6,1.8,84.6H298.5l-9.4-135.1Z" fill="#eecb9b" stroke="#eac179" stroke-miterlimit="10"/>
    <path id="leg-l" d="M280.6,236.7s5.5,32.6.3,52.3c0,0,8.2,67.6,1.9,84.6H265l-9.4-135.1Z" fill="#eecb9b" stroke="#eac179" stroke-miterlimit="10"/>
    <path id="neck" d="M257.9,108.9s13.5-4.2,14.7-10L275.8,86l2.4,1.4,1.8.8,1.9.5,1.9.3,3.2-.2,2.3-.5,1.9-.7,1.8-.9,1.9,10.7s4.4,12.2,25.4,11.5Z" fill="#eecb9b" stroke="#eac179" stroke-miterlimit="10"/>
    <g id="top">
      <path id="top-2" data-name="top" d="M311.1,94.2c-8.6.6-58.5,5.7-58.5,5.7s-17.4,3-19.1,25.9c0,0-6.2,65.6-4.5,65.6h14.9l6.8-37.3s-2.5-10.9-.3-15.4c0,0-3.1,15.8,7.3,22.2,0,0,3.7,10.2,1.2,20.6h56.8s-5.1-7.3-2.5-26.4c0,0,8-20.1,1.2-37.6A122.1,122.1,0,0,1,311.1,94.2Z" fill="#d0ecec"/>
      <path id="top-arm-r" d="M359.4,108.9,343.1,93.4l-36.8,1.2c-3.1,12.5-1.5,10.5,3.5,24.6Z" fill="#d0ecec"/>
      <polygon id="cross" points="304.6 110.4 302.6 110.4 302.6 116.4 296.6 116.4 296.6 118.4 302.6 118.4 302.6 124.5 304.6 124.5 304.6 118.4 310.7 118.4 310.7 116.4 304.6 116.4 304.6 110.4" fill="#ed1c24"/>
    </g>
    <path id="hair-back" d="M266.5,78.3l8.8,8.6s4.5,25.5,0,34.9c0,0-18.2,25.4,2,22.4,0,0-.1,4.9-6.6,8,0,0-5.5,2.1-9.9,0,0,0-11.7-.9-13.3-15.9-.2-1.2-1.5-5.6,1.5-18.8,0,0,7.9-11.4,16.1-15.4C265,102.1,268.4,101,266.5,78.3Z" fill="#533814" stroke="#4b3014" stroke-miterlimit="10"/>
    <path id="head" d="M254.7,44.7c.2-.6,31.4-29.1,31.4-29.1l35.1,33.8S310.1,79.2,293,86.7a15.5,15.5,0,0,1-17.2-.7,82.3,82.3,0,0,1-26.9-33.7Z" fill="#eecb9b" stroke="#eac179" stroke-miterlimit="10"/>
    <path id="skirt" d="M259.7,181.5h56.9v8.4s14.9,28.2,16,38.3c0,0,4.2,18.6,2.8,28.8H240s-.3-26.8,8.2-37.8c0,0,13.2-24.5,11.8-26.4Z" fill="#3a342a"/>
    <path id="hair-front" d="M284.8,11.2S302.5.5,318.3,27.8a68.4,68.4,0,0,1,5.6,25.1s.9,10.3-4.2,18.9a28.1,28.1,0,0,0-3.4,13.8s-5.7-5.5,1-17.6c0,0,4.3-7.8,2-15.2,0,0-31.3-23.8-32-28.9,0,0-14.5,14.1-23,17.7a33.2,33.2,0,0,0-10.7,18.9s-1.9,6.6-.5,11.8c0,0,2.5,9.6,8.9,14.4,0,0,3.2,14.3-9.4,9.4a5.9,5.9,0,0,0,3-7.6s-7.6-8.7-8.9-14.8c0,0-1.9-7,1.3-17.7C248,56,249.3.8,284.8,11.2Z" fill="#533814" stroke="#4b3014" stroke-miterlimit="10"/>
    <path id="mouth" d="M275.1,76.5a3.5,3.5,0,0,1,2.5-1.8c1.3,0,1.6,1.5,2.9,1.6s2.3-1.8,4-1.6,1.7,1.7,3.1,1.8,2-1.4,3.5-1.5a3.9,3.9,0,0,1,3,1.6" fill="none" stroke="#c42127" stroke-miterlimit="10" stroke-width="2"/>
    <path id="eye-r" d="M291.7,57H294a10.6,10.6,0,0,0,10.8-.4h2.3S300,64.1,291.7,57Z"/>
    <path id="eye-l" d="M279.1,56.5h-2.4s-4.9,2.8-10.8-1h-2.2S270.3,63.2,279.1,56.5Z"/>
    <path id="brow-l" d="M293.1,46.1s-1.4,1,1.4,1.7a36.5,36.5,0,0,1,14.4,4.5s2,.3.5-1.1A37.1,37.1,0,0,0,293.1,46.1Z"/>
    <path id="brow-r" d="M278.7,46.4s1.4,1-1.4,1.7A36.6,36.6,0,0,0,262.7,52s-2,.3-.5-1.1A38.6,38.6,0,0,1,278.7,46.4Z"/>
    <path id="arm-r" d="M314.7,27.6s-23.1-16.1-8.5,6.3c0,0,4.4,4.3,7.9,4.1l5,8.1s23,48.5,23.3,48.8,30.7,41.2,13.9-17.1c0,0-16.8-24.1-29.6-33.7l-8.1-7.8S318.7,32,314.7,27.6Z" fill="#eecb9b" stroke="#eac179" stroke-miterlimit="10"/>
    <path id="arm-l" d="M184.9,197s-17.4,21.1,8.6,16.8c0,0,4.9-.7,6.8-8.1l44.5-14.4s1.6-6.6-14.9-11.5C229.9,179.8,193.2,191.6,184.9,197Z" fill="#eecb9b" stroke="#eac179" stroke-miterlimit="10"/>
    <polygon id="star-r-front" points="338.9 43.4 336.2 42.5 333.9 44.2 333.9 41.4 331.6 39.7 334.3 38.9 335.1 36.1 336.8 38.4 339.6 38.4 337.9 40.7 338.9 43.4" fill="#ffce00" stroke="#ffce00" stroke-miterlimit="10"/>
    <polygon id="star-l-front" points="232.7 44.2 230 42.2 226.7 43.2 227.8 40 225.8 37.2 229.2 37.3 231.2 34.5 232.2 37.8 235.5 38.8 232.7 40.8 232.7 44.2" fill="#ffce00" stroke="#ffce00" stroke-miterlimit="10"/>
    <path id="path-r" d="M284.2,26.1c29.5,5.4,53,11.9,52.5,14.3s-24.7-.1-54.1-5.6-53-11.8-52.5-14.3,24.7.1,54.1,5.6" fill="none"/>
    <path id="path-l" d="M282.6,26c29.6-5,53.9-7,54.3-4.6s-23.2,8.5-52.8,13.5-53.8,7-54.2,4.6S253.1,31,282.6,26" fill="none"/>
  </g>
</svg>
