<svg id="_2-4" data-name="2-4" xmlns="http://www.w3.org/2000/svg" viewBox="0 0 327.7 443.3">
  <g id="chair">
    <g>
      <polygon points="24.5 310.7 123 310.7 121.6 333.8 131.5 433.1 109.5 433.1 104.6 374.9 101.1 332.6 45.9 332.4 42 375.7 36.9 433.1 14.4 433.1 25.9 332.4 24.5 310.7" fill="#533814"/>
      <polygon points="73.8 374.8 79 374.8 104.6 374.9 105.5 385.2 41.2 384.7 42.1 374.8 71 374.8 73.8 374.8" fill="#533814"/>
    </g>
  </g>
  <g id="legs">
    <path d="M67.1,298s5.5,32.6.4,52.3c0,0,8.1,67.6,1.8,84.6H51.6L42.1,299.9Z" fill="#eecb9b" stroke="#eac179" stroke-miterlimit="10"/>
    <path d="M100.6,298s5.5,32.6.4,52.3c0,0,8.1,67.6,1.8,84.6H85.1L75.6,299.9Z" fill="#eecb9b" stroke="#eac179" stroke-miterlimit="10"/>
  </g>
  <g id="skirt">
    <path d="M25.6,311h94.7s.2-22.4-4.2-32.7-15.8-28.7-16.3-37.6l-15.7-8.9-39.6,6.3s3.4,6.6-13.1,35.3C31.5,273.4,26.7,277.1,25.6,311Z" fill="#3a342a"/>
  </g>
  <path id="neck" d="M40.7,168.3s13.5-4.1,14.6-10l3.2-12.9,2.4,1.5,1.9.7,1.9.6,1.9.2h3.2l2.3-.5,1.9-.7,1.8-1,1.9,10.7S82,169,103,168.3Z" fill="#eecb9b" stroke="#eac179" stroke-miterlimit="10"/>
  <g id="top">
    <g>
      <rect x="41.7" y="185.7" width="14.1" height="1.95" fill="#ed1c24"/>
      <rect x="47.7" y="179.7" width="1.9" height="14.08" fill="#ed1c24"/>
    </g>
    <path d="M101.2,243.6H44.3A63.3,63.3,0,0,0,43.2,223c-9.9-5.4-7.3-22.2-7.3-22.2a25.8,25.8,0,0,0,.2,15.4s-2.5,13.9-2.6,17.4c-.5,22.7-19,8.3-19,8.3l5.7-61.6C21.9,168.4,38,162,38,162l27.3-2.7H79.5l27.3,2.7s16.1,6.4,17.7,18.3l5.7,61.6s-18.4,14.4-19-8.3c0-3.5-2.6-17.4-2.6-17.4s2.9-7.6.3-15.4c0,0,2.6,16.8-7.3,22.2a63.3,63.3,0,0,0-1.1,20.6H43.6" fill="#d0ecec"/>
    <g>
      <rect x="42.6" y="190.8" width="14.1" height="1.95" fill="#ed1c24"/>
      <rect x="48.7" y="184.8" width="1.9" height="14.08" fill="#ed1c24"/>
    </g>
  </g>
  <path id="hair-back" d="M105.3,173.7c-2.2-5.1-15.2-17.8-15.7-18.2s-2.1-5.3-2.3-9.3V138h0c0-.7-1.2-6.9-1.2-6.9l-6.8,5.1c.3,6.3.5,7.5.5,7.5.2,5.1-1.9,4-4.3,14.3s0,14.6,0,14.6A36.5,36.5,0,0,0,83.9,188c8.6,15-8.4,12.1-8.4,12.1,21.6,18.1,29.8-3.1,29.8-3.1C111.1,186.4,105.3,173.7,105.3,173.7Z" fill="#533814"/>
  <path id="head" d="M37.5,104.1c.2-.6,31.3-29.1,31.3-29.1l35.1,33.8s-11,29.8-28.1,37.3c0,0-8.5,5.7-17.3-.7a81.7,81.7,0,0,1-26.8-33.7Z" fill="#eecb9b" stroke="#eac179" stroke-miterlimit="10"/>
  <path id="hair-front" d="M30.4,105.7s9-50.2,36.6-39.5c0,0,25.9-10.1,34.4,21.4,0,0,2.8,2.3,4.5,18.1,0,0,6.2,19.1,0,28.7,0,0-14.7,14.6-2.9,14.6,0,0-8.4,6.2-10.1-6.2,0,0,12.1-18.7,8-28.6A30.7,30.7,0,0,0,88,94.8s-9.3-3-17.1-16.4c0,0-19.7,16.4-33.7,25.6,0,0-5.5,9.4-1.4,17.8,0,0,6.8,10.5,3.8,16.9,0,0-4.1-12-9.2-18C30.4,120.7,28.9,112,30.4,105.7Z" fill="#533814" stroke="#4b3014" stroke-miterlimit="10"/>
  <g id="face">
    <g id="eyes">
      <path d="M76,113.8h2.3s4.8,3.1,10.9-.4h2.2S84.3,121,76,113.8Z"/>
      <path d="M59.4,113.9l-2.3-.2s-4.9,2.8-10.8-1H44.1S50.7,120.5,59.4,113.9Z"/>
      <path d="M59.4,133.6s6.8-6.9,18.3,0C77.7,133.6,68.6,137.9,59.4,133.6Z" fill="#e4273a" stroke="#c42127" stroke-miterlimit="10"/>
      <line x1="59.4" y1="133.6" x2="77.7" y2="133.6" fill="none" stroke="#c42127" stroke-miterlimit="10"/>
    </g>
  </g>
  <path id="brow-r" d="M74.3,101.5s14.9-.2,19.6,6.3l-20.1-4.1A2.1,2.1,0,0,1,74.3,101.5Z"/>
  <path id="brow-l" d="M59.9,101.4s-14.9-.1-19.5,6.4l20-4.2A2.1,2.1,0,0,0,59.9,101.4Z"/>
  <g id="arms">
    <path d="M14.5,241.9s1.7-13.2,18.4-2.6l12.2,36.4s4.5,2.6,6.4,6.6l2.8,6.7s4.8,12.4-11.2,3.9c0,0-3.4-2.1-3.9-13.1Z" fill="#eecb9b" stroke="#eac179" stroke-miterlimit="10"/>
    <path d="M130.3,241.9s-1.7-13.2-18.4-2.6L99.7,275.7s-4.5,2.6-6.4,6.6L90.5,289s-4.8,12.4,11.1,3.9c0,0,3.5-2.1,4-13.1Z" fill="#eecb9b" stroke="#eac179" stroke-miterlimit="10"/>
  </g>
  <g id="doctor2">
    <path id="leg-r" d="M252.2,252.5s5.3,41.8.5,67c0,0,7.8,86.6,1.9,108.4H237.8l-9.3-173.1Z" fill="#eecb9b" stroke="#eac179" stroke-miterlimit="10"/>
    <path id="leg-l" d="M221.7,252.4s5.1,41.8.5,67c0,0,7.5,86.7,1.9,108.4H208.2l-8.8-173.1Z" fill="#eecb9b" stroke="#eac179" stroke-miterlimit="10"/>
    <path id="hair-back-2" data-name="hair-back" d="M208,25s-10.9-8.8,0-13.9,18.8-2.3,18.8-2.3,9.7,8.1,2.3,12.1S208,25,208,25Z" fill="#d9d943"/>
    <path id="neck-2" data-name="neck" d="M215.1,95.9c1.8,15.3-14.6,25.4-14.6,25.4l48.4-1.3c-14.5-6.1-14-23.1-13.8-25.7" fill="#eecb9b" stroke="#eac179" stroke-miterlimit="10"/>
    <path id="head-2" data-name="head" d="M224.4,101.3a25,25,0,0,0,12.3-4.8l.3-.2-.3.2c11.5-5.1,17.1-20.6,17.1-20.6l2.6-20.1-7.5-12.7L221.7,25,190.2,43.8s-2.9,12.2,0,29.4,23.5,24.6,23.5,24.6S221.3,101.6,224.4,101.3Z" fill="#eecb9b" stroke="#eac179" stroke-miterlimit="10"/>
    <path id="lip" d="M215.1,86.4c1.7-.2,8.2-9.3,19.1-2Z" fill="#e4273a" stroke="#c42127" stroke-miterlimit="10"/>
    <g id="eye-r">
      <path id="pupil-r" d="M240,65a4.7,4.7,0,0,1-6.6,0,4.3,4.3,0,0,1,0-3.7l6.6-.2A4.3,4.3,0,0,1,240,65Z"/>
      <path id="lid-r" d="M243.5,61.5h0s1.2-1.1.5-3.4c0,0,.2,2.2-.7,3.3l-.6-.2a3.6,3.6,0,0,0,.3-3.1,6.4,6.4,0,0,1-.4,3l-.7-.3A3.6,3.6,0,0,0,242,58a6.5,6.5,0,0,1-.3,2.8l-.8-.3a4.2,4.2,0,0,0,.1-2.8,8.1,8.1,0,0,1-.3,2.7h-.6a4.4,4.4,0,0,0,0-2.3,7,7,0,0,1-.2,2.2h-.8a4.5,4.5,0,0,0,0-2.6,8.9,8.9,0,0,1-.2,2.5h-.7a4.2,4.2,0,0,0-.1-2.2,9.3,9.3,0,0,1-.1,2.2h-.9a5.2,5.2,0,0,0-.1-2.1,6.4,6.4,0,0,1-.2,2.1,10.8,10.8,0,0,0-7.7,2.7c4.4-1.5,15.4-.5,15.4-.5Z"/>
    </g>
    <g id="eye-l">
      <path id="pupil-l" d="M204.2,65.7s2.9,3.1,6.6,0a4.3,4.3,0,0,0,0-3.7h-6.6A4.1,4.1,0,0,0,204.2,65.7Z"/>
      <path id="lid-l" d="M207.4,60.5a8.5,8.5,0,0,1-.1-2.1,3.1,3.1,0,0,0-.1,2.1h-.9a6.9,6.9,0,0,1-.2-2.2,5.7,5.7,0,0,0-.1,2.2h-.6a7.1,7.1,0,0,1-.3-2.5,4.5,4.5,0,0,0,0,2.6h-.7a6.9,6.9,0,0,1-.2-2.2,4.6,4.6,0,0,0-.1,2.3l-.5.2a7.4,7.4,0,0,1-.4-2.8,4,4,0,0,0,.2,2.8l-.8.3a7.4,7.4,0,0,1-.4-2.8,3.8,3.8,0,0,0,.2,2.9l-.7.2a6.6,6.6,0,0,1-.5-2.9,3.8,3.8,0,0,0,.3,3l-.6.3a5.9,5.9,0,0,1-.7-3.4,3.4,3.4,0,0,0,.6,3.4l-1,.6s10.9-1.1,15.3.4A10.8,10.8,0,0,0,207.4,60.5Z"/>
    </g>
    <path id="brow-r-2" data-name="brow-r" d="M225.6,51.7S240.2,48.5,246,54H225.6A2.1,2.1,0,0,1,225.6,51.7Z"/>
    <path id="brow-l-2" data-name="brow-l" d="M214.9,51.4s-14.9-.1-19.5,6.4l20-4.2A2.1,2.1,0,0,0,214.9,51.4Z"/>
    <path id="hair-front-2" data-name="hair-front" d="M214.7,22s26.7-19,40.7,31.6c0,0,11,11.8-.8,25.8a18.9,18.9,0,0,0-1.8,13s-4.5-4.9-1-21.9c0,0,5.3-11.1-1.8-13.9,0,0-3.2-.7-11-7.9,0,0-9.4.1-18.4-16.3l-4.3-5.3-2.8,7.4c-4.1,18.9-12.9,21.4-12.9,21.4-5.2,9.5-8,11-8,11-5.9,4.9,1.8,14.6,1.8,14.6,7.6,15.9,4.7,22.1,4.7,22.1a21.3,21.3,0,0,0-5-12.6c-14.5-10.5-7.3-25.5-7.3-25.5,0-54.5,29.5-43.1,29.5-43.1" fill="#d9d943"/>
    <path id="shirt" d="M166.3,107.6s19.4,17.2,31.1,10.2l29.4,2.6,28.3-1.3s15.9-4.2,27.7,11.5c0,0,31.3,37.9,35.3,58.1v9.9s-1.6-20.5-18.7-4.6c0,0-3.8-11.3-29-34.9,0,0-8.5,11.3-9.8,21.1-.3,2-2.9,21-2.9,21H203.3s1.2-12.8-4-22.1c0,0-9.4-4.1-6.3-21.4,0,0-.2-4.3-7.1-8.7l-43.3-29.6h4.2l8.4-3.5Z" fill="#d0ecec"/>
    <polygon id="cross" points="260.1 143.4 254 143.4 254 137.4 252.1 137.4 252.1 143.4 246 143.4 246 145.4 252.1 145.4 252.1 151.4 254 151.4 254 145.4 260.1 145.4 260.1 143.4" fill="#ed1c24"/>
    <path id="skirt-2" data-name="skirt" d="M182.3,277.3h96.6V264.7s-.6-11.3-3.2-16.3l-9-22.7s-7.5-8.5-7.7-14.6l-1.3-9.9H202.4l-.4,11.9s-12.8,19.7-17.1,40.4C184.9,253.5,181.7,268.7,182.3,277.3Z" fill="#3a342a"/>
    <path id="arm-r" d="M300,193.2s15-12.9,18,4.9c0,0,1.9,2.2-7.5,16.5,0,0-23.5,30-24.1,30.4s-5,10.7-15.9-.9l-14.5.4s-25.1-8.5,10.7-18.8c0,0,6.8,5.6,9.4,11.3,0,0,3.4,3.3,5.5-1.5C281.6,235.5,295.8,197.7,300,193.2Z" fill="#eecb9b" stroke="#eac179" stroke-miterlimit="10"/>
    <path id="arm-l" d="M142.6,119.4s29.8-3.4,23.7-11.8l-2.5-3.6c-.9-1.1,2.5,3.6,2.5,3.6h0l-4.9-6.9L93.8,68l-9,1s-24,4.5-3,11a11.8,11.8,0,0,0,9.3-1.7l2.7-2,9.2,6.2s14.2,19.6,39.6,36.9" fill="#eecb9b" stroke="#eac179" stroke-miterlimit="10"/>
  </g>
</svg>
