<svg id="_2-5" data-name="2-5" xmlns="http://www.w3.org/2000/svg" viewBox="0 0 214 447.1">
  <path id="leg-r" d="M138.3,255.9s5.3,41.8.5,67c0,0,7.8,86.6,1.9,108.4H123.9l-9.3-173.1Z" fill="#eecb9b" stroke="#eac179" stroke-miterlimit="10"/>
  <path id="leg-l" d="M107.8,255.8s5.1,41.8.5,67c0,0,7.5,86.7,1.9,108.4H94.3L85.5,258.2Z" fill="#eecb9b" stroke="#eac179" stroke-miterlimit="10"/>
  <path id="skirt" d="M65.3,288.3h95.8s.3-22-4.2-32.1-16-28.2-16.5-36.9l-15.9-8.7-40,6.1s3.4,6.5-13.2,34.7C71.2,251.4,66.5,255,65.3,288.3Z" fill="#3a342a"/>
  <path id="neck" d="M93.1,141.7s13.5-4.1,14.6-10l3.2-12.9,2.5,1.5,1.8.7,1.9.6,1.9.2h3.2l2.3-.5,1.9-.7,1.8-1,1.9,10.7s1,6,14.7,13.4Z" fill="#eecb9b" stroke="#eac179" stroke-miterlimit="10"/>
  <g id="top">
    <path id="shirt" d="M104.4,137.4l27.9-1.4s21.7-1.2,32.9,16.3c0,0,3.7,26.2,3.7,69.8,0,0,.8,5.9,0,6.2s-14.9,0-14.9,0-6.5-37.4-4-47.3c0,0-1.1,15.5-6.7,16.9a50.6,50.6,0,0,0-3.1,21.1h-56s2.8-16.6-1.7-21.1c0,0-8.2-1.4-8.2-17.7v-7.1a42.6,42.6,0,0,1-22.5,16.4s-7.1,1.9-12.1-.6c0,0-5.1-3.9-4.5-12.7,0,0,5.3,20.6,24.5.6,0,0,10.1-14.7,24.2-33Z" fill="#d0ecec"/>
    <polygon id="cross" points="142.5 160.6 136.5 160.6 136.5 154.5 134.5 154.5 134.5 160.6 128.4 160.6 128.4 162.5 134.5 162.5 134.5 168.6 136.5 168.6 136.5 162.5 142.5 162.5 142.5 160.6" fill="#ed1c24"/>
  </g>
  <path id="hair-back" d="M156.4,144.1c-2.2-5.1-15.2-17.7-15.7-18.2s-2.1-5.3-2.3-9.2v-8.3h-.1c.1-.7-1.1-6.8-1.1-6.8l-6.8,5a55.7,55.7,0,0,0,.5,7.6c.2,5-1.9,3.9-4.3,14.2s0,14.6,0,14.6a36.5,36.5,0,0,0,8.4,15.3c8.6,15-8.4,12.2-8.4,12.2,21.5,18,29.8-3.2,29.8-3.2C162.2,156.9,156.4,144.1,156.4,144.1Z" fill="#533814"/>
  <path id="head" d="M89.9,77.5c.2-.6,31.3-29.1,31.3-29.1l35.2,33.8s-11.1,29.9-28.2,37.4a15.6,15.6,0,0,1-17.3-.8A82.5,82.5,0,0,1,84.1,85.1Z" fill="#eecb9b" stroke="#eac179" stroke-miterlimit="10"/>
  <path id="hair-front" d="M82.8,79.1s9-50.2,36.6-39.5c0,0,25.9-10.1,34.4,21.4,0,0,2.8,2.3,4.5,18.1,0,0,6.2,19.1,0,28.7,0,0-14.7,14.6-2.8,14.6,0,0-8.5,6.2-10.2-6.2,0,0,12.1-18.7,8-28.6a30.7,30.7,0,0,0-12.9-19.4s-9.3-3-17-16.4c0,0-19.7,16.4-33.8,25.6,0,0-5.5,9.4-1.3,17.8,0,0,6.7,10.5,3.7,16.9,0,0-4.1-12-9.2-18C82.8,94.1,81.4,85.4,82.8,79.1Z" fill="#533814" stroke="#4b3014" stroke-miterlimit="10"/>
  <path id="arm-r" d="M169.3,290.8c-1.3.6-5.2,6.5-4.9,7.3s-1.4.9,0,2.9,15.3,27.4,13.8,0c-.3-5.1.1-13.5.1-13.5s-4.6-50.2-9.4-59.2H154s9.2,37.8,15.3,57.7C169.3,286,171.9,289.7,169.3,290.8Z" fill="#eecb9b" stroke="#eac179" stroke-miterlimit="10"/>
  <path id="arm-l" d="M101.1,120.8c0-1.2,1.1-12.4,1.1-12.4s-3.4-11.6-13-17.5c0,0-21.1-26.7-14.3,10.7,0,0,0,7.6,9,11.8,0,0,2.5.9.8,4.8,0,0-2,3.4-4.5,4.8s-52.1,46.2-45,53.2c0,0,4.6,14.4,17.3,6.7,0,0,5-3.5,13.4-15C66,167.9,100.9,123.3,101.1,120.8Z" fill="#eecb9b" stroke="#eac179" stroke-miterlimit="10"/>
  <g id="lip">
    <path id="lip-bottom" d="M109.7,106.8c1.1,0,9.7,5.1,19.2-1.8Z" fill="#e4273a" stroke="#c42127" stroke-linejoin="bevel"/>
    <path id="lip-top" d="M109.7,106.8c1.8-.2,8.2-9.2,19.2-1.8Z" fill="#e4273a" stroke="#c42127" stroke-miterlimit="10"/>
  </g>
  <g id="eye-r">
    <path id="pupil-r" d="M139.4,89.8a4.5,4.5,0,0,1-6.5,0,4.1,4.1,0,0,1,0-3.8h6.5A4,4,0,0,1,139.4,89.8Z"/>
    <path id="lid-r" d="M143.4,86.7h.1a3.5,3.5,0,0,0,.5-3.5s.2,2.3-.7,3.4l-.6-.3a3.8,3.8,0,0,0,.3-3,6.6,6.6,0,0,1-.5,2.9l-.6-.2a4.4,4.4,0,0,0,.1-2.9,7.4,7.4,0,0,1-.4,2.8l-.7-.3a4.8,4.8,0,0,0,.1-2.8,7.4,7.4,0,0,1-.4,2.8l-.5-.2a4.6,4.6,0,0,0-.1-2.3,7.6,7.6,0,0,1-.2,2.3l-.7-.2a4.2,4.2,0,0,0,0-2.5,6.6,6.6,0,0,1-.3,2.4h-.6a4.6,4.6,0,0,0-.1-2.3,6.9,6.9,0,0,1-.2,2.2H137a3.4,3.4,0,0,0-.1-2.2,8.5,8.5,0,0,1-.1,2.1,10.8,10.8,0,0,0-7.7,2.7c4.4-1.5,15.4-.4,15.4-.4Z"/>
  </g>
  <g id="eye-l">
    <path id="pupil-l" d="M100.8,88.1a4.5,4.5,0,0,0,6.5,0,3.9,3.9,0,0,0,0-3.7h-6.5A4.1,4.1,0,0,0,100.8,88.1Z"/>
    <path id="lid-l" d="M103.4,83.3a8.5,8.5,0,0,1-.1-2.1,3.9,3.9,0,0,0-.1,2.1h-.9a7,7,0,0,1-.2-2.2,5.7,5.7,0,0,0-.1,2.2h-.6a7.1,7.1,0,0,1-.3-2.5,3.6,3.6,0,0,0,.1,2.6h-.8a6.9,6.9,0,0,1-.2-2.2,4.6,4.6,0,0,0-.1,2.3h-.5a6.8,6.8,0,0,1-.4-2.7,4,4,0,0,0,.2,2.8l-.8.3a7.4,7.4,0,0,1-.4-2.8,3.8,3.8,0,0,0,.2,2.9l-.7.2a6.7,6.7,0,0,1-.5-2.9,3.8,3.8,0,0,0,.3,3l-.6.3a5.9,5.9,0,0,1-.7-3.4,3.4,3.4,0,0,0,.6,3.4h0l-1,.5s10.9-1,15.4.5A11.2,11.2,0,0,0,103.4,83.3Z"/>
  </g>
  <path id="brow-r" d="M146.7,80.2s-13.8-8-21.4-4.5Z"/>
  <path id="brow-l" d="M93,79.5s14.2-7.4,21.5-3.5Z"/>
  <g id="wave-r">
    <path id="wave-r2" d="M193.7,200.8s14,19.9,0,30.7" fill="none" stroke="#000" stroke-miterlimit="10" stroke-width="2"/>
    <path id="wave-r1" d="M189,204.6s8.1,14.9,0,23" fill="none" stroke="#000" stroke-miterlimit="10" stroke-width="2"/>
  </g>
  <g id="wave-l">
    <path id="wave-l2" d="M27.8,161.7s-8.1,14.9,0,23" fill="none" stroke="#000" stroke-miterlimit="10" stroke-width="2"/>
    <path id="wave-l1" d="M23,157.9s-14,19.9,0,30.7" fill="none" stroke="#000" stroke-miterlimit="10" stroke-width="2"/>
  </g>
  <path id="ball-1" d="M23.2,16.4c3.1,6,30.3,58,45.7,53.3,13.4-4,13.9-50.2,5.9-52.5-9.6-2.9-27.1,59.1-45.6,56.3-3.3-.4-5.7-2.8-8-5.1-7.9-7.8-10.5-21.3-5.9-32.6C19,26.7,28.7,16,36.1,17.9c15.8,4,10.8,59.5,16,59.7s19.2-50.3,5-58.1S7,46.5,11.5,55.9a5.4,5.4,0,0,0,3.2,2.4c18.8,7.2,61.9-4.9,60.8-13.4-.7-6.1-23.9-11.6-42.2-3.9-5.1,2.2-14.9,6.3-15.1,12.5-.5,11.9,34.5,31.7,50.4,19.3,11.1-8.6,8.2-29.2,4.6-39.7-1.9-5.5-6.3-18.3-14.4-19.5C41.9,11,15.8,60,23.2,66.9S79.4,42.7,75.3,29.1,17.5,16.2,14.4,27.2,55,58.8,68.6,65.2" fill="none" stroke="#000" stroke-miterlimit="10" stroke-width="2"/>
  <path id="ball-2" d="M19,36.5S35.7-2.3,67.1,14.3c0,0,27.1,36.3,0,36.3s-18-20.2-18-20.2S73.5,15.3,63.2,45.1s-37.9-4-37.9-4S54.5-2.8,49.1,22.7,21.2,28,26.5,57.3c.8,4.4,27.1,28.6,37,8.4,0,0-46.9-1.5,6-27.7,0,0-3.2-35.3-31.8-5,0,0-50.8,12.6-18.7,21.6,0,0-4,32.8,39,6.6,0,0,23.1-40.8,11.1,3l-35-4.5S28.9,80.3,20.9,48.6s22.9-2.5,22.9-2.5" fill="none" stroke="#000" stroke-miterlimit="10" stroke-width="2"/>
  <path id="ball-3" d="M21.3,14.8S11.5,73.2,36.6,73.6,74.8,38.1,74.8,38.1,47,5.2,35.1,11.7s-21,60.4-21,60.4S70.8,42.2,72,29.6s-57.9,1.9-57.9,1.9S51.2,78.9,58.8,77.2s8.4-35.4-3.3-44.8-42.8-9-42.8-9S57.5,85.7,68.3,69s9.9-48.5,9.9-48.5-25.6-8.1-40.4-1.4S8.8,63.7,23,73.6,75.4,63,79.2,53s-56-33.5-65.5-6,73.4-8.6,70.4-16.5" fill="none" stroke="#000" stroke-miterlimit="10" stroke-width="2"/>
</svg>
