<?xml version="1.0" encoding="utf-8"?>
<!-- Generator: Adobe Illustrator 24.3.0, SVG Export Plug-In . SVG Version: 6.00 Build 0)  -->
<svg version="1.1" xmlns="http://www.w3.org/2000/svg" xmlns:xlink="http://www.w3.org/1999/xlink" x="0px" y="0px"
	 viewBox="0 0 213.99 447.12" style="enable-background:new 0 0 213.99 447.12;" xml:space="preserve">
<style type="text/css">
	.st0{fill:#EECB9B;stroke:#EAC179;stroke-miterlimit:10;}
	.st1{fill:#3A342A;}
	.st2{fill:#D0ECEC;}
	.st3{fill:#ED1C24;}
	.st4{fill:#533814;stroke:#4B3014;stroke-miterlimit:10;}
	.st5{fill:#533814;}
	.st6{fill:none;stroke:#000000;stroke-width:2;stroke-miterlimit:10;}
	.st7{fill:#E4273A;stroke:#C42127;stroke-miterlimit:10;}
	.st8{fill:#EECB9B;}
</style>
<g id="face">
	<g>
		<path class="st0" d="M89.9,77.5c0.19-0.56,31.35-29.09,31.35-29.09l35.1,33.79c0,0-11.07,29.85-28.16,37.35
			c0,0-8.45,5.63-17.27-0.75c0,0-17.46-11.6-26.84-33.67L89.9,77.5z"/>
		<path class="st0" d="M93.09,141.69c0,0,13.51-4.13,14.64-9.95l3.19-12.95l2.45,1.48l1.81,0.76l1.93,0.52l1.87,0.25l3.23-0.13
			l2.29-0.51l1.91-0.69l1.79-0.93l1.88,10.7c0,0,4.36,12.15,25.34,11.45H93.09z"/>
	</g>
</g>
<g id="skirt">
	<path class="st0" d="M138.27,255.85c0,0,5.29,41.86,0.51,67.01c0,0,7.84,86.68,1.92,108.41l-16.79,0.13l-9.27-173.14L138.27,255.85
		z"/>
	<path class="st0" d="M107.84,255.76c0,0,5.02,41.87,0.51,67.01c0,0,7.45,86.69,1.86,108.41l-15.87,0.12L85.5,258.16L107.84,255.76z
		"/>
	<path class="st1" d="M65.34,288.26h95.73c0,0,0.28-21.96-4.22-32.1c-4.5-10.14-15.96-28.16-16.42-36.88l-15.96-8.73l-39.98,6.19
		c0,0,3.38,6.48-13.23,34.63C71.25,251.37,66.47,255.03,65.34,288.26z"/>
</g>
<g id="top_1_">
	<path class="st2" d="M104.43,137.37l27.87-1.41c0,0,21.68-1.13,32.94,16.33c0,0,3.66,26.19,3.66,69.83c0,0,0.84,5.91,0,6.19
		c-0.84,0.28-14.92,0-14.92,0s-6.48-37.45-3.94-47.3c0,0-1.13,15.49-6.76,16.89c0,0-3.94,9.57-3.1,21.12H84.16
		c0,0,2.82-16.61-1.69-21.12c0,0-8.17-1.41-8.17-17.74v-7.04c0,0-7.6,12.11-22.52,16.33c0,0-7.04,1.97-12.11-0.56
		c0,0-5.07-3.94-4.5-12.67c0,0,5.35,20.55,24.5,0.56c0,0,10.14-14.64,24.21-32.94L104.43,137.37z"/>
	<g>
		<rect x="86.05" y="163.96" class="st3" width="14.08" height="1.95"/>
		
			<rect x="86.05" y="163.96" transform="matrix(-1.836970e-16 1 -1 -1.836970e-16 258.0217 71.8494)" class="st3" width="14.08" height="1.95"/>
	</g>
</g>
<g id="hair">
	<path class="st4" d="M82.84,79.06c0,0,9.01-50.12,36.6-39.42c0,0,25.9-10.14,34.35,21.4c0,0,2.82,2.25,4.5,18.02
		c0,0,6.19,19.15,0,28.72c0,0-14.64,14.64-2.82,14.64c0,0-8.45,6.19-10.14-6.19c0,0,12.11-18.77,7.98-28.63
		c0,0-1.78-12.11-12.86-19.43c0,0-9.3-3-17.08-16.33c0,0-19.71,16.33-33.79,25.53c0,0-5.44,9.39-1.31,17.83
		c0,0,6.76,10.51,3.75,16.89c0,0-4.13-12.01-9.2-18.02C82.84,94.08,81.36,85.41,82.84,79.06z"/>
	<path class="st4" d="M132.21,116.23c0,0,4.5-1.13,7.51-5.82v16.52c0,0,15.02,12.2,18.02,19.15c0,0,5.82,12.76,0,23.28
		c0,0-8.26,21.21-29.85,3.19c0,0,17.08,2.82,8.45-12.2c0,0-5.82-5.69-8.45-15.24c0,0-2.44-4.29,0-14.61
		C130.33,120.17,132.4,121.3,132.21,116.23z"/>
	<path class="st5" d="M139.72,110.41c0,0-0.91,15.62,2.31,18.46s-10.19,4.25-10.19,4.25L139.72,110.41z"/>
</g>
<g id="eyebrows">
	<path d="M93.01,79.47c0,0,14.15-7.36,21.53-3.52L93.01,79.47z"/>
	<path d="M146.69,80.16c0,0-13.8-8-21.35-4.5L146.69,80.16z"/>
	<path class="st6" d="M18.96,36.5c0,0,16.72-38.8,48.17-22.17c0,0,27.07,36.28,0,36.28S49.06,30.39,49.06,30.39
		S73.5,15.33,63.15,45.06S25.33,41.1,25.33,41.1S54.48-2.79,49.06,22.65s-27.87,5.39-22.54,34.67c0.8,4.37,27.07,28.55,37.02,8.4
		c0,0-46.97-1.51,5.97-27.71c0,0-3.18-35.27-31.85-5.04c0,0-50.73,12.6-18.71,21.67c0,0-3.98,32.75,39.01,6.55
		c0,0,23.09-40.81,11.15,3.02l-35.03-4.53c0,0-5.18,20.66-13.14-11.08s22.81-2.52,22.81-2.52"/>
	<path class="st6" d="M27.8,161.68c0,0-8.11,14.91,0,23.01"/>
	<path class="st6" d="M23.05,157.9c0,0-14.01,19.86,0,30.65"/>
	<path class="st6" d="M188.98,204.63c0,0,8.11,14.91,0,23.01"/>
	<path class="st6" d="M193.73,200.84c0,0,14.01,19.86,0,30.65"/>
</g>
<g id="arms">
	<path class="st0" d="M101.05,120.75c0.08-1.12,1.15-12.39,1.15-12.39s-3.4-11.54-12.98-17.46c0,0-21.12-26.75-14.36,10.7
		c0,0,0,7.6,9.01,11.83c0,0,2.53,0.84,0.84,4.79c0,0-1.97,3.38-4.5,4.79s-52.09,46.18-45.05,53.21c0,0,4.64,14.42,17.38,6.65
		c0,0,4.98-3.44,13.4-14.95C65.96,167.92,100.86,123.32,101.05,120.75z"/>
	<path class="st0" d="M169.29,290.82c-1.31,0.56-5.16,6.48-4.88,7.32c0.28,0.84-1.43,0.84-0.01,2.82s15.33,27.41,13.81,0
		c-0.28-5.07,0.12-13.51,0.12-13.51s-4.62-50.12-9.41-59.13h-14.92c0,0,9.2,37.73,15.3,57.72
		C169.29,286.03,171.91,289.69,169.29,290.82z"/>
</g>
<g id="face_1_">
	<path class="st7" d="M109.72,106.8c1.13,0.01,9.68,5.13,19.16-1.85L109.72,106.8z"/>
	<path class="st7" d="M109.72,106.8c1.74-0.17,8.23-9.24,19.16-1.85L109.72,106.8z"/>
	<path class="st8" d="M128.97,104.43c0.02,0.05,0.26,0.39,0.26,0.39l-0.27,0.67c0,0,1.36,1.22,1.42,1.17
		c0.05-0.05,3.14-3.29,3.14-3.29l-0.96-1.23l-3.13-0.49L128.97,104.43z"/>
	<g id="eyes">
		<path d="M95.76,85.54c0,0,10.98-1.03,15.39,0.47C111.15,86.01,105.61,80.28,95.76,85.54z"/>
		<path d="M100.78,88.14c0,0,2.91,3.1,6.57,0c0,0,1.02-2.03,0-3.75l-6.57-0.12C100.78,84.27,99.65,86.26,100.78,88.14z"/>
		<path d="M96.77,85.03c0,0-1.2-1.12-0.55-3.44c0,0-0.21,2.34,0.75,3.44"/>
		<path d="M98.77,84.95c0,0-1.2-1.12-0.55-3.44c0,0-0.21,2.34,0.75,3.44"/>
		<path d="M97.8,85.09c0,0-1.2-1.12-0.55-3.44c0,0-0.21,2.34,0.75,3.44"/>
		<path d="M99.8,84.66c0,0-1.2-1.12-0.55-3.44c0,0-0.21,2.34,0.75,3.44"/>
		<path d="M100.74,84.92c0,0-1.2-1.12-0.55-3.44c0,0-0.21,2.34,0.75,3.44"/>
		<path d="M102.68,84.66c0,0-1.2-1.12-0.55-3.44c0,0-0.21,2.34,0.75,3.44"/>
		<path d="M101.69,84.47c0,0-1.2-1.12-0.55-3.44c0,0-0.21,2.34,0.75,3.44"/>
		<path d="M103.83,84.66c0,0-1.2-1.12-0.55-3.44c0,0-0.21,2.34,0.75,3.44"/>
		<g>
			<path d="M144.46,87.16c0,0-10.98-1.03-15.39,0.47C129.07,87.63,134.61,81.9,144.46,87.16z"/>
			<path d="M139.44,89.76c0,0-2.91,3.1-6.57,0c0,0-1.02-2.03,0-3.75l6.57-0.12C139.44,85.89,140.57,87.88,139.44,89.76z"/>
			<path d="M143.45,86.65c0,0,1.2-1.12,0.55-3.44c0,0,0.21,2.34-0.75,3.44"/>
			<path d="M141.45,86.57c0,0,1.2-1.12,0.55-3.44c0,0,0.21,2.34-0.75,3.44"/>
			<path d="M142.43,86.71c0,0,1.2-1.12,0.55-3.44c0,0,0.21,2.34-0.75,3.44"/>
			<path d="M140.43,86.28c0,0,1.2-1.12,0.55-3.44c0,0,0.21,2.34-0.75,3.44"/>
			<path d="M139.48,86.54c0,0,1.2-1.12,0.55-3.44c0,0,0.21,2.34-0.75,3.44"/>
			<path d="M137.55,86.28c0,0,1.2-1.12,0.55-3.44c0,0,0.21,2.34-0.75,3.44"/>
			<path d="M138.53,86.09c0,0,1.2-1.12,0.55-3.44c0,0,0.21,2.34-0.75,3.44"/>
			<path d="M136.39,86.28c0,0,1.2-1.12,0.55-3.44c0,0,0.21,2.34-0.75,3.44"/>
		</g>
	</g>
</g>
</svg>
