<?xml version="1.0" encoding="utf-8"?>
<!-- Generator: Adobe Illustrator 24.3.0, SVG Export Plug-In . SVG Version: 6.00 Build 0)  -->
<svg version="1.1" xmlns="http://www.w3.org/2000/svg" xmlns:xlink="http://www.w3.org/1999/xlink" x="0px" y="0px"
	 viewBox="0 0 841.89 595.28" style="enable-background:new 0 0 841.89 595.28;" xml:space="preserve">
<style type="text/css">
	.st0{fill:#EECB9B;stroke:#EAC179;stroke-miterlimit:10;}
	.st1{fill:#D0ECEC;}
	.st2{fill:#ED1C24;}
	.st3{fill:#C5DFEA;stroke:#9CBED3;stroke-miterlimit:10;}
	.st4{fill:#533814;stroke:#4B3014;stroke-miterlimit:10;}
	.st5{fill:#3A342A;}
	.st6{fill:#E4273A;stroke:#C42127;stroke-miterlimit:10;}
	.st7{fill:#EECB9B;}
</style>
<g id="Layer_6">
</g>
<g id="face">
	<g>
		<path class="st0" d="M359.6,169.61c0.19-0.56,31.35-29.09,31.35-29.09l35.1,33.79c0,0-11.07,29.85-28.16,37.35
			c0,0-8.45,5.63-17.27-0.75c0,0-17.46-11.6-26.84-33.67L359.6,169.61z"/>
		<path class="st0" d="M362.79,233.81c0,0,13.51-4.13,14.64-9.95l3.19-12.95l2.45,1.48l1.81,0.76l1.93,0.52l1.87,0.25l3.23-0.13
			l2.29-0.51l1.91-0.69l1.79-0.93l1.88,10.7c0,0,4.36,12.15,25.34,11.45H362.79z"/>
	</g>
</g>
<g id="top">
	<path class="st1" d="M364.56,313.43h56.88c0,0-1.13-10.98,1.13-18.86c0,0,12.12-6.36,9.01-27.31l26.33,15.43l-4.94-28.38
		c0,0-32.94-27.87-34.91-28.16s-59.8,5.71-59.8,5.71s-17.35,3.02-19.04,25.83c0,0-6.19,65.6-4.5,65.6c1.69,0,14.92,0,14.92,0
		l6.76-37.3c0,0-2.53-10.85-0.28-15.35c0,0-3.1,15.77,7.32,22.24C363.43,292.88,367.09,303.01,364.56,313.43z"/>
	<g>
		<rect x="408.74" y="250.16" class="st2" width="14.08" height="1.95"/>
		
			<rect x="408.74" y="250.16" transform="matrix(-1.836970e-16 1 -1 -1.836970e-16 666.9161 -164.6359)" class="st2" width="14.08" height="1.95"/>
	</g>
</g>
<g id="Layer_9">
	<path class="st3" d="M382.06,213.48l23.48,0.61l-1.28,21.61c0,0-0.42,19.12-6.05,0c0,0,9.71,25.5-7.18,10.02
		c0,0-8.25,7.44-1.11-8.73c0,0-6.39,12.45-7.01-4.9L382.06,213.48z"/>
</g>
<g id="hair">
	<path class="st4" d="M389.61,133.17c0,0,17.74-10.7,33.51,16.61c0,0,5.07,10.14,5.63,25.06c0,0,0.9,10.32-4.22,18.86
		c-1.69,2.82-3.66,9.01-3.38,13.8c0,0-5.68-5.5,0.99-17.6c0,0,4.36-7.74,1.97-15.2c0,0-31.25-23.79-31.96-28.86
		c0,0-14.5,14.08-22.95,17.74c0,0-8.87,7.04-10.7,18.86c0,0-1.97,6.62-0.56,11.83c0,0,2.53,9.57,8.87,14.36
		c0,0,3.21,14.36-9.38,9.43c0,0,4.87-2.11,3.04-7.6c0,0-7.6-8.73-8.87-14.78c0,0-1.97-7.04,1.27-17.74
		C352.87,177.93,354.14,122.75,389.61,133.17z"/>
	<path class="st4" d="M371.31,203.27l8.87,8.59c0,0,4.5,25.48,0,34.91c0,0-18.24,25.34,2,22.38c0,0-0.17,4.93-6.65,8.02
		c0,0-5.49,2.11-9.85,0c0,0-11.71-0.9-13.37-15.91c-0.14-1.27-1.41-5.63,1.55-18.86c0,0,7.88-11.4,16.05-15.35
		C369.91,227.07,373.28,225.94,371.31,203.27z"/>
</g>
<g id="arms">
	<path class="st0" d="M403.13,221.64c0,0,7.32,8.73,14.64,9.85l33.51,46.46c0,0,25.9,22.81,24.5-8.45c0,0-7.32-16.33-29.85-30.13
		l-21.12-17.74l-17.46-19.43C407.35,202.22,341.47,214.04,403.13,221.64z"/>
</g>
<g id="Layer_10">
	<path class="st0" d="M333.72,322.42c0,0,7.9-20.44,15.61,0.34l-8.58,60.49c0,0,2.2,5.19,1.7,12.01l-1.14,11.26
		c0,0-2.43,20.74-10.66,3.48c0,0-1.59-4.25,3.46-21.64L333.72,322.42z"/>
</g>
<g id="skirt">
	<path class="st0" d="M420.22,355.18c0,0,5.29,41.86,0.51,67.01c0,0,7.84,86.68,1.92,108.41l-16.79,0.13l-9.27-173.14L420.22,355.18
		z"/>
	<path class="st0" d="M389.79,355.09c0,0,5.02,41.87,0.51,67.01c0,0,7.45,86.69,1.86,108.41l-15.87,0.12l-8.83-173.14L389.79,355.09
		z"/>
	<path class="st5" d="M364.56,313.43h56.88v8.45c0,0,14.92,28.16,16.05,38.29c0,0,4.22,18.58,2.82,28.72h-95.45
		c0,0-0.28-26.75,8.17-37.73c0,0,13.23-24.5,11.83-26.47L364.56,313.43z"/>
</g>
<g id="face_1_">
	<path d="M399.47,179.48h2.32c0,0,4.79,3.1,10.84-0.35h2.24C414.88,179.13,407.78,186.66,399.47,179.48z"/>
	<path d="M395.38,174.62c0,0-0.77,1.6,2.44,0.79c0,0,7.36-3.4,17.02-3.75c0,0,2.18-0.74-0.13-1.22
		C414.71,170.44,405.93,170.19,395.38,174.62z"/>
	<path d="M382.91,179.56l-2.32-0.14c0,0-4.96,2.81-10.8-1l-2.24-0.13C367.55,178.29,374.19,186.23,382.91,179.56z"/>
	<path d="M387.28,174.95c0,0,0.67,1.64-2.48,0.65c0,0-7.14-3.84-16.77-4.76c0,0-2.13-0.87,0.2-1.21
		C368.23,169.63,377.01,169.9,387.28,174.95z"/>
	<g>
		<g>
			<path class="st6" d="M382.06,200.83c1.13,0,9.71,5.07,19.15-1.97L382.06,200.83z"/>
			<path class="st6" d="M382.06,200.83c1.74-0.18,8.17-9.29,19.15-1.97L382.06,200.83z"/>
		</g>
		<path class="st7" d="M401.29,198.33c0.02,0.05,0.26,0.39,0.26,0.39l-0.26,0.67c0,0,1.37,1.21,1.43,1.16s3.11-3.31,3.11-3.31
			l-0.97-1.22l-3.13-0.47L401.29,198.33z"/>
	</g>
</g>
</svg>
