<?xml version="1.0" encoding="utf-8"?>
<!-- Generator: Adobe Illustrator 24.3.0, SVG Export Plug-In . SVG Version: 6.00 Build 0)  -->
<svg version="1.1" xmlns="http://www.w3.org/2000/svg" xmlns:xlink="http://www.w3.org/1999/xlink" x="0px" y="0px"
	 viewBox="0 0 639.7 433.6" style="enable-background:new 0 0 639.7 433.6;" xml:space="preserve">
<style type="text/css">
	.st0{fill:#EECB9B;stroke:#EAC179;stroke-miterlimit:10;}
	.st1{fill:#3A342A;}
	.st2{fill:#ED1C24;}
	.st3{fill:#D0ECEC;}
	.st4{fill:#533814;stroke:#4B3014;stroke-miterlimit:10;}
	.st5{fill:#533814;}
	.st6{fill:#E4273A;stroke:#C42127;stroke-miterlimit:10;}
	.st7{stroke:#000000;stroke-miterlimit:10;}
	.st8{fill:none;stroke:#000000;stroke-width:8;stroke-miterlimit:10;}
	.st9{fill:#EECDE2;}
	.st10{fill:#211C5A;}
	.st11{fill:#B9E4EF;}
	.st12{fill:#99258F;}
	.st13{fill:#E4273A;stroke:#C42127;stroke-width:0.25;stroke-miterlimit:10;}
	.st14{fill:#FFFFFF;stroke:#000000;stroke-miterlimit:10;}
	.st15{fill:#F69DAC;}
</style>
<g id="face">
	<g>
		<path class="st0" d="M35.68,71.26c0.19-0.56,31.35-29.09,31.35-29.09l35.1,33.79c0,0-11.07,29.85-28.16,37.35
			c0,0-8.45,5.63-17.27-0.75c0,0-17.46-11.6-26.84-33.67L35.68,71.26z"/>
		<path class="st0" d="M38.87,135.46c0,0,13.51-4.13,14.64-9.95l3.19-12.95l2.45,1.48l1.81,0.76l1.93,0.52l1.87,0.25l3.23-0.13
			l2.29-0.51l1.91-0.69l1.79-0.93l1.88,10.7c0,0,4.36,12.15,25.34,11.45H38.87z"/>
	</g>
</g>
<g id="skirt">
	<path class="st0" d="M48.53,242.25c0,0-5.29,41.86-0.51,67.01c0,0-7.84,86.68-1.92,108.41l16.79,0.13l9.27-173.14L48.53,242.25z"/>
	<path class="st0" d="M78.96,242.16c0,0-5.02,41.87-0.51,67.01c0,0-7.45,86.69-1.86,108.41l15.87,0.12l8.83-173.14L78.96,242.16z"/>
	<path class="st1" d="M23.8,278.12h94.66c0,0,0.28-22.36-4.18-32.68s-15.78-28.67-16.24-37.55L82.27,199l-39.53,6.31
		c0,0,3.34,6.59-13.09,35.26C29.65,240.57,24.91,244.3,23.8,278.12z"/>
</g>
<g id="top">
	<g>
		<rect x="39.86" y="152.91" class="st2" width="14.08" height="1.95"/>
		
			<rect x="39.86" y="152.91" transform="matrix(-1.836970e-16 1 -1 -1.836970e-16 200.7886 106.981)" class="st2" width="14.08" height="1.95"/>
	</g>
	<path class="st3" d="M99.39,210.76H42.51c1.4-10.26-1.13-20.55-1.13-20.55c-9.86-5.47-7.32-22.24-7.32-22.24
		c-2.54,7.76,0.28,15.35,0.28,15.35s-2.53,13.97-2.61,17.43c-0.54,22.76-19,8.35-19,8.35l5.71-61.6
		c1.67-11.9,17.77-18.31,17.77-18.31l27.26-2.77h14.24l27.26,2.77c0,0,16.1,6.41,17.77,18.31l5.71,61.6c0,0-18.47,14.41-19-8.35
		c-0.08-3.46-2.61-17.43-2.61-17.43s2.82-7.59,0.28-15.35c0,0,2.54,16.77-7.32,22.24c0,0-2.53,10.3-1.13,20.55H41.8"/>
	<g>
		<rect x="40.84" y="158" class="st2" width="14.08" height="1.95"/>
		
			<rect x="40.84" y="158" transform="matrix(-1.836970e-16 1 -1 -1.836970e-16 206.8513 111.0914)" class="st2" width="14.08" height="1.95"/>
	</g>
</g>
<g id="hair">
	<path class="st4" d="M28.62,72.83c0,0,9.01-50.12,36.6-39.42c0,0,25.9-10.14,34.35,21.4c0,0,2.82,2.25,4.5,18.02
		c0,0,6.19,19.15,0,28.72c0,0-14.64,14.64-2.82,14.64c0,0-8.45,6.19-10.14-6.19c0,0,12.11-18.77,7.98-28.63
		c0,0-1.78-12.11-12.86-19.43c0,0-9.3-3-17.08-16.33c0,0-19.71,16.33-33.79,25.53c0,0-5.44,9.39-1.31,17.83
		c0,0,6.76,10.51,3.75,16.89c0,0-4.13-12.01-9.2-18.02C28.62,87.84,27.15,79.18,28.62,72.83z"/>
	<path class="st4" d="M77.99,111c0,0,4.5-1.13,7.51-5.82v16.52c0,0,15.02,12.2,18.02,19.15c0,0,5.82,12.76,0,23.28
		c0,0-8.26,21.21-29.85,3.19c0,0,17.08,2.82,8.45-12.2c0,0-5.82-5.69-8.45-15.24c0,0-2.44-4.29,0-14.61
		C76.11,114.94,78.18,116.06,77.99,111z"/>
	<path class="st5" d="M85.5,104.18c0,0-0.91,15.62,2.31,18.46c3.21,2.84-10.19,4.25-10.19,4.25L85.5,104.18z"/>
</g>
<g id="face_1_">
	<g id="eyes">
		<path d="M74.2,80.94h2.32c0,0,4.79,3.1,10.84-0.35h2.24C89.61,80.59,82.51,88.12,74.2,80.94z"/>
		<path d="M57.64,81.02l-2.32-0.14c0,0-4.96,2.81-10.8-1l-2.24-0.13C42.28,79.75,48.92,87.7,57.64,81.02z"/>
		<path class="st6" d="M61.4,101.79c0,0,4.45-20.03,9.2,0.37L61.4,101.79z"/>
	</g>
	<g id="eyebrows">
		<path d="M72.33,73.43c0,0,13.19-7.12,20.28-3.5L72.96,75.6C72.96,75.6,71.92,74.72,72.33,73.43z"/>
		<path d="M58.33,73.2c0,0-13.35-6.81-20.36-3.03l19.79,5.2C57.76,75.38,58.77,74.48,58.33,73.2z"/>
	</g>
	<path class="st0" d="M21.05,133.63c0,0-1.87,1.94,0,4.13"/>
	<path class="st0" d="M13.72,133.63c0,0,1.87,1.94,0,4.13"/>
</g>
<g id="arms">
	<path class="st0" d="M127.74,203.59c0,0,1.14,23.39-20.7,7.5l-22.8-61.83c0,0-5.82-3.84-9-10.57l-4.84-11.28
		c0,0-8.49-20.95,12.05-8.65c0,0,4.49,3.25,7.64,22.32L127.74,203.59z"/>
	<path class="st0" d="M13.57,204.11c0,0-4.28,17.99,22.53,12.44l33.76-41.28c0,0,7.09-1.17,11.56-5.44l6.93-7.32
		c0,0,12.3-13.74-12.57-10.61c0,0-5.5,1.13-11.52,15.09L13.57,204.11z"/>
	<g>
		<ellipse class="st7" cx="36.49" cy="109.93" rx="1.05" ry="1.45"/>
		<ellipse class="st7" cx="41.23" cy="115.46" rx="1.05" ry="1.45"/>
		<ellipse class="st7" cx="38.64" cy="121.85" rx="1.05" ry="1.45"/>
		<line class="st7" x1="21.33" y1="105.03" x2="32.19" y2="108.48"/>
		<line class="st7" x1="22.72" y1="116.92" x2="34.82" y2="116.92"/>
		<path class="st7" d="M23.65,130.02c0.47-0.72,11.79-5.44,11.79-5.44"/>
	</g>
</g>
<g id="door">
	<polygon class="st8" points="243.02,17.3 347.69,47.66 347.69,390.12 243.02,420.48 	"/>
	<rect x="174.33" y="42.6" width="50.15" height="350.89"/>
	<ellipse cx="266.46" cy="223.95" rx="6" ry="21.09"/>
</g>
<g id="kids">
	<path class="st0" d="M550.08,344.11l6.22,0.58l-3.11,50.83c0,0-4.21,0.56-4.21,0C548.98,394.96,550.08,344.11,550.08,344.11z"/>
	<polygon class="st0" points="573.05,344.11 579.39,344.11 577.98,395.77 573.05,395.77 	"/>
	<path class="st9" d="M555.09,271.8c0,0-8.5-2.12-27.15,25.49l5.67,5.9l10.15-9.68c0,0,5.6,3.51,6.13,14.65
		c0.41,8.66-2.24,21.94-12.98,41.77c0,0-4.72,5.43,2.12,2.36c0,0,7.08-5.67,19.36,0.94c0,0,3.05,3.41,6.85,0
		c2.36-2.12,5.43-10.85,19.12-3.54c0,0,9.44,1.37,6.61-3.68c0,0-18.41-24.41-18.65-39.04c0,0-1.18-19.83,13.93-27.38
		c0,0,10.15-5.9,10.39-8.97l-4.01-6.37c0,0-12.04,10.39-19.83,8.03C572.8,272.27,564.3,269.44,555.09,271.8z"/>
	<path class="st0" d="M441.31,355.28l6.22,0.58l-3.11,50.83c0,0-4.21,0.56-4.21,0C440.21,406.12,441.31,355.28,441.31,355.28z"/>
	<polygon class="st0" points="464.28,355.28 470.62,355.28 469.21,406.94 464.28,406.94 	"/>
	<path class="st10" d="M437.77,354.95l14.64,1.36c0,0,5.67-41.02,6.61-0.68l14.87-0.68l-2.6-26.44l-15.46-12.8l-17.1,16.51
		L437.77,354.95z"/>
	<path class="st11" d="M419.36,272.04c0,0,13.93,9.21,25.73,2.12c0,0,19.83-7.32,36.59,21.48l-5.67,4.96l-6.37-6.61l3.78,34.76
		c0,0-18.65-1.48-20.77,2.06c-2.12,3.54-15.34,1.18-15.34,1.18l-0.24-38.24c0,0-19.83-12.75-19.36-13.46
		S419.36,272.04,419.36,272.04z"/>
	<path class="st0" d="M378.76,251.97c0,0-7.55-0.47-10.39-5.67c0,0-3.07-9.44,6.61-4.96l4.96,4.71l-3.74-7.29
		c0,0-0.75-5.19,6.57,6.6c0,0,3.78,5.66,11.09,10.85l25.49,15.82l-1.65,8.26C417.71,280.3,384.24,253.39,378.76,251.97z"/>
	<path class="st0" d="M511.19,321.73l16.76-24.43l5.67,5.9c0,0-19.12,18.06-19.95,23.25c0,0-2.48,4.84-8.38,4.96
		c0,0-11.67-0.82-1.06-7.91C504.22,323.5,506.47,321.21,511.19,321.73z"/>
	<path class="st0" d="M479.2,304.61l15.82,16.41c0,0,3.3,1.18,2.36,5.9c0,0,1.84,5.25,8.38,3.3l2.48-3.54l-4.01-3.19
		c0,0-2.83-0.24-5.9-5.19l-16.64-22.66l-5.67,4.96L479.2,304.61z"/>
	<path class="st0" d="M444.5,265.78c0,0,4.25,0.71,7.08-0.44v8l4.24,0.47c0,0-5.84,9.85-13.05,1.53c0,0,2.38-0.41,2.32-1.18
		C445.03,273.39,444.5,265.78,444.5,265.78z"/>
	<path class="st0" d="M553.8,271.84c0,0,7.2,5.81,10.38-0.95l-1.89-0.5l-0.94-8.85c0,0-2.24,2.12-5.9,0l0.69,10.02L553.8,271.84z"/>
	<path class="st0" d="M624.37,245.59c0,0,5.79-0.45,7.96-5.41c0,0,2.35-9.02-5.06-4.73l-3.8,4.49l2.86-6.96c0,0,0.57-4.96-5.03,6.3
		c0,0-2.89,5.4-8.5,10.36l-19.53,15.1l1.27,7.89C594.53,272.64,620.17,246.95,624.37,245.59z"/>
	<path class="st12" d="M549.9,308.17c0,0,14.5,2.52,22.43-1.19l0.1,1.67l0.26,1.88l0.44,2.08l0.72,2.53c0,0-15.5,2.78-24.24,0
		C549.61,315.14,549.98,309.46,549.9,308.17z"/>
	<path class="st0" d="M469.9,233.58c-0.13-0.4-22.54-20.92-22.54-20.92l-25.23,24.29c0,0,7.96,21.46,20.24,26.85
		c0,0,6.07,4.05,12.41-0.54c0,0,12.55-8.34,19.3-24.21L469.9,233.58z"/>
	<path d="M443.69,233.04c0,0-10.55-2.18-14.69,1.78l14.71-0.16C443.71,234.66,444.24,233.84,443.69,233.04z"/>
	<path d="M453.48,233.26c0,0,10.48-2.5,14.74,1.33l-14.71,0.29C453.52,234.87,452.96,234.08,453.48,233.26z"/>
	<g>
		<path class="st13" d="M456.37,252.88c0,0-4.66-5.36-9.51-0.91c0,0-0.12,0.19-0.32-0.02c0,0-2.92-3.49-6.7,0.93H456.37z"/>
		<path class="st13" d="M456.37,252.88c0,0-13.73,13.33-16.53,0H456.37z"/>
	</g>
	<path d="M422.13,236.95c0,0,2.32-27.26,25.23-24.29c0,0,25.47-0.79,26.72,26.4l-14.44-15.11l-9,5.46l-7.69-6.68l-7.88,6.68
		l-3.43-1.6L422.13,236.95z"/>
	<g id="Layer_11">
		<circle class="st14" cx="459.64" cy="241.53" r="4.28"/>
		<path d="M455.98,241.53c0,1.71,1.38,3.09,3.09,3.09c1.71,0,3.09-1.38,3.09-3.09c0-1.71-1.38-3.09-3.09-3.09
			C457.36,238.44,455.98,239.82,455.98,241.53z M457.16,240.63c0-0.5,0.4-0.9,0.9-0.9s0.9,0.4,0.9,0.9s-0.4,0.9-0.9,0.9
			S457.16,241.13,457.16,240.63z"/>
		<circle class="st14" cx="437.54" cy="241.53" r="4.28"/>
		<path d="M433.88,241.53c0,1.71,1.38,3.09,3.09,3.09c1.71,0,3.09-1.38,3.09-3.09c0-1.71-1.38-3.09-3.09-3.09
			C435.26,238.44,433.88,239.82,433.88,241.53z M435.06,240.63c0-0.5,0.4-0.9,0.9-0.9c0.5,0,0.9,0.4,0.9,0.9s-0.4,0.9-0.9,0.9
			C435.46,241.53,435.06,241.13,435.06,240.63z"/>
		<path class="st0" d="M579.91,233.68c-0.13-0.4-22.54-20.92-22.54-20.92l-25.23,24.29c0,0,7.96,21.46,20.24,26.85
			c0,0,6.07,4.05,12.41-0.54c0,0,12.55-8.34,19.3-24.21L579.91,233.68z"/>
		<path d="M553.71,233.14c0,0-10.55-2.18-14.69,1.78l14.71-0.16C553.73,234.76,554.26,233.95,553.71,233.14z"/>
		<path d="M563.5,233.36c0,0,10.48-2.5,14.74,1.33l-14.71,0.29C563.53,234.98,562.98,234.18,563.5,233.36z"/>
		<path class="st6" d="M564.99,252.86c0,0-3.7-3.96-7.57-0.67c0,0-0.09,0.14-0.26-0.01c0,0-2.32-2.58-5.33,0.69H564.99z"/>
		<path d="M532.15,237.06c0,0,2.32-27.26,25.23-24.29c0,0,25.47-0.79,26.72,26.4l-14.44-15.11l-9,5.46l-7.69-6.68l-7.88,6.68
			l-3.43-1.6L532.15,237.06z"/>
		<circle class="st14" cx="569.66" cy="241.64" r="4.28"/>
		<path d="M565.99,241.64c0,1.71,1.38,3.09,3.09,3.09c1.71,0,3.09-1.38,3.09-3.09s-1.38-3.09-3.09-3.09
			C567.38,238.54,565.99,239.93,565.99,241.64z M567.18,240.73c0-0.5,0.4-0.9,0.9-0.9s0.9,0.4,0.9,0.9c0,0.5-0.4,0.9-0.9,0.9
			S567.18,241.23,567.18,240.73z"/>
		<circle class="st14" cx="547.56" cy="241.64" r="4.28"/>
		<path d="M543.9,241.64c0,1.71,1.38,3.09,3.09,3.09s3.09-1.38,3.09-3.09s-1.38-3.09-3.09-3.09S543.9,239.93,543.9,241.64z
			 M545.08,240.73c0-0.5,0.4-0.9,0.9-0.9s0.9,0.4,0.9,0.9c0,0.5-0.4,0.9-0.9,0.9S545.08,241.23,545.08,240.73z"/>
		<ellipse transform="matrix(0.3673 -0.9301 0.9301 0.3673 134.1117 635.7772)" cx="534.38" cy="219.31" rx="10.01" ry="6.46"/>
		<ellipse transform="matrix(0.9168 -0.3994 0.3994 0.9168 -40.0269 251.272)" cx="582.86" cy="221.67" rx="7.06" ry="10.89"/>
		<path d="M532.15,237.06c0,0,9.4-10.62,12.93-7.55c0,0,7.14-9.04,15.58,0c0,0,8.36-6.12,15.9,1.77l6.3-7.14l-21.14-4.82H543.9
			l-6.47,7.04L532.15,237.06z"/>
		<path class="st15" d="M551.84,252.86h13.15C564.99,252.86,556.2,265.47,551.84,252.86z"/>
		<path class="st13" d="M551.84,252.86c0,0,1.56,7.87,5.43,6.78c0,0,5.1,0.13,7.72-6.78C564.99,252.86,555.98,265.58,551.84,252.86z
			"/>
	</g>
</g>
</svg>
