<svg id="_3-1" data-name="3-1" xmlns="http://www.w3.org/2000/svg" viewBox="0 0 639.7 433.6">
  <g id="door">
    <polygon id="door-2" data-name="door" points="243 17.3 347.7 47.7 347.7 390.1 243 420.5 243 17.3" fill="none" stroke="#000" stroke-miterlimit="10" stroke-width="8"/>
    <rect id="wall" x="174.3" y="42.6" width="50.2" height="350.89"/>
    <ellipse id="doorknob" cx="266.5" cy="224" rx="6" ry="21.1"/>
  </g>
  <path id="leg-r" d="M79,242.2s-5.1,41.8-.6,67c0,0-7.4,86.7-1.8,108.4H92.5l8.8-173.1Z" fill="#eecb9b" stroke="#eac179" stroke-miterlimit="10"/>
  <path id="leg-l" d="M48.5,242.3s-5.3,41.8-.5,67c0,0-7.8,86.6-1.9,108.4H62.9l9.3-173.1Z" fill="#eecb9b" stroke="#eac179" stroke-miterlimit="10"/>
  <path id="skirt" d="M23.8,278.1h94.7s.2-22.3-4.2-32.7S98.5,216.8,98,207.9L82.3,199l-39.6,6.3s3.4,6.6-13.1,35.3C29.6,240.6,24.9,244.3,23.8,278.1Z" fill="#3a342a"/>
  <path id="neck" d="M38.9,135.5s13.5-4.2,14.6-10l3.2-12.9,2.4,1.4,1.9.8,1.9.5,1.9.3,3.2-.2,2.3-.5,1.9-.7,1.8-.9L75.9,124s4.3,12.2,25.3,11.5Z" fill="#eecb9b" stroke="#eac179" stroke-miterlimit="10"/>
  <g id="top">
    <path id="shirt" d="M99.4,210.8H42.5a63.3,63.3,0,0,0-1.1-20.6c-9.9-5.5-7.3-22.2-7.3-22.2-2.6,7.7.2,15.3.2,15.3s-2.5,14-2.6,17.5c-.5,22.7-19,8.3-19,8.3l5.7-61.6c1.7-11.9,17.8-18.3,17.8-18.3l27.3-2.8H77.7l27.3,2.8s16.1,6.4,17.7,18.3l5.7,61.6s-18.4,14.4-19-8.3c0-3.5-2.6-17.5-2.6-17.5s2.9-7.6.3-15.3c0,0,2.6,16.7-7.3,22.2a63.3,63.3,0,0,0-1.1,20.6H41.8" fill="#d0ecec"/>
    <polygon id="cross" points="96 154.6 89.9 154.6 89.9 148.5 88 148.5 88 154.6 81.9 154.6 81.9 156.5 88 156.5 88 162.6 89.9 162.6 89.9 156.5 96 156.5 96 154.6" fill="#ed1c24"/>
  </g>
  <g id="head">
    <path id="hair-back" d="M103.5,140.9c-2.2-5.2-10.9-13.1-15.3-17a3.4,3.4,0,0,1-.6-1.2,32.1,32.1,0,0,1-2.1-9.3v-8.2h0c0-.7-.6-4.5-.6-4.5l-3.4,1.4c-2.9,3.8-2.8,5.5-2.8,5.5.2,5.1-2.6,7.2-5,17.6s0,14.6,0,14.6a36.5,36.5,0,0,0,8.4,15.2c8.7,15-8.4,12.2-8.4,12.2,21.6,18,29.8-3.2,29.8-3.2C109.3,153.6,103.5,140.9,103.5,140.9Z" fill="#533814"/>
    <path id="head-2" data-name="head" d="M35.8,55.9c9.5-12,31.6-15.8,31.6-15.8s18.3,4.5,23,9.2C98.1,56.9,102.1,76,102.1,76s-11,29.8-28.1,37.3a15.7,15.7,0,0,1-17.3-.7A81.7,81.7,0,0,1,29.9,78.9S32.1,60.5,35.8,55.9Z" fill="#eecb9b" stroke="#eac179" stroke-miterlimit="10"/>
    <path id="lip" d="M61.4,101.8s4.4-20,9.2.4Z" fill="#e4273a" stroke="#c42127" stroke-miterlimit="10"/>
    <path id="eye-r" d="M74.2,80.9h2.3a10.9,10.9,0,0,0,10.9-.3h2.2S82.5,88.1,74.2,80.9Z"/>
    <path id="eye-l" d="M57.6,81H55.3s-4.9,2.8-10.8-1H42.3S48.9,87.7,57.6,81Z"/>
    <path id="brow-r" d="M72.3,73.4s13.2-7.1,20.3-3.5L73,75.6A2.2,2.2,0,0,1,72.3,73.4Z"/>
    <path id="brow-l" d="M58.3,73.2S45,66.4,38,70.2l19.8,5.2A2.1,2.1,0,0,0,58.3,73.2Z"/>
    <path id="hair-top" d="M104.1,72.8c-1.7-15.7-4.5-18-4.5-18C91.1,23.3,65.2,33.4,65.2,33.4,48.1,26.8,38.1,43.6,33,57.3c-1.8,9.5.2,11.3,2.8,13.5,14.1-9.2,33.4-25.2,33.4-25.2,6.4,11,13.8,14.9,16.2,16s2.9,3,8.7,7.4Z" fill="#533814" stroke="#4b3014" stroke-miterlimit="10"/>
    <path id="hair-r" d="M81.7,59.5l3.2,1.9c11.1,7.3,14.2,20,14.2,20,4.1,9.8-8,28.6-8,28.6,1.7,12.4,10.1,6.2,10.1,6.2-11.8,0,2.9-14.6,2.9-14.6,5.9-9.2-.4-37.7-2.1-38.3" fill="#533814" stroke="#4b3014" stroke-miterlimit="10"/>
    <path id="hair-l" d="M35.4,52.4c-4.9,6.7-6.8,20.4-6.8,20.4-1.4,6.4,0,15,0,15,5.1,6.1,9.2,18.1,9.2,18.1C40.8,99.5,34,89,34,89c-4.1-8.5,1.4-17.9,1.4-17.9l5.5-3.7" fill="#533814" stroke="#4b3014" stroke-miterlimit="10"/>
  </g>
  <path id="arm-r" d="M127.7,203.6s1.2,23.4-20.7,7.5L84.2,149.3a29.4,29.4,0,0,1-9-10.6l-4.8-11.3s-8.5-20.9,12-8.6c0,0,4.5,3.2,7.7,22.3Z" fill="#eecb9b" stroke="#eac179" stroke-miterlimit="10"/>
  <path id="arm-l" d="M13.6,204.1s-4.3,18,22.5,12.5l33.8-41.3s7-1.2,11.5-5.5l6.9-7.3s12.4-13.7-12.5-10.6c0,0-5.5,1.1-11.5,15.1Z" fill="#eecb9b" stroke="#eac179" stroke-miterlimit="10"/>
  <g id="girl">
    <polygon id="leg-r-2" data-name="leg-r" points="573 344.1 579.4 344.1 578 395.8 573 395.8 573 344.1" fill="#eecb9b" stroke="#eac179" stroke-miterlimit="10"/>
    <path id="leg-l-2" data-name="leg-l" d="M550.1,344.1l6.2.6-3.1,50.8s-4.2.6-4.2,0S550.1,344.1,550.1,344.1Z" fill="#eecb9b" stroke="#eac179" stroke-miterlimit="10"/>
    <path id="dress" d="M555.1,271.8s-8.5-2.1-27.2,25.5l5.7,5.9,10.2-9.7s5.6,3.5,6.1,14.7c.4,8.6-2.2,21.9-13,41.7,0,0-4.7,5.5,2.1,2.4,0,0,7.1-5.7,19.4.9,0,0,3,3.4,6.8,0s5.5-10.8,19.2-3.5c0,0,9.4,1.4,6.6-3.7,0,0-18.4-24.4-18.7-39,0,0-1.2-19.9,13.9-27.4,0,0,10.2-5.9,10.4-9l-4-6.4s-12,10.4-19.8,8.1A34.1,34.1,0,0,0,555.1,271.8Z" fill="#eecde2"/>
    <path id="arm-l-2" data-name="arm-l" d="M511.2,321.7,528,297.3l5.6,5.9s-19.1,18.1-19.9,23.3a9.9,9.9,0,0,1-8.4,4.9s-11.7-.8-1.1-7.9C504.2,323.5,506.5,321.2,511.2,321.7Z" fill="#eecb9b" stroke="#eac179" stroke-miterlimit="10"/>
    <path id="neck-2" data-name="neck" d="M553.8,271.8s7.2,5.9,10.4-.9l-1.9-.5-1-8.9s-2.2,2.2-5.9,0l.7,10.1Z" fill="#eecb9b" stroke="#eac179" stroke-miterlimit="10"/>
    <path id="arm-r-2" data-name="arm-r" d="M624.4,245.6s5.8-.5,7.9-5.4c0,0,2.4-9-5-4.7l-3.8,4.4,2.8-6.9s.6-5-5,6.3a41.4,41.4,0,0,1-8.5,10.3l-19.5,15.1,1.2,7.9S620.2,247,624.4,245.6Z" fill="#eecb9b" stroke="#eac179" stroke-miterlimit="10"/>
    <path id="belt" d="M549.9,308.2s14.5,2.5,22.4-1.2v1.7l.3,1.8.4,2.1.7,2.5s-15.5,2.8-24.2,0C549.6,315.1,550,309.5,549.9,308.2Z" fill="#99258f"/>
    <path id="head-3" data-name="head" d="M582.3,231.4c-1.4-11.6-25.9-14.6-25.9-14.6s-11.5,2.6-18.2,7c-3.3,2.1-6.1,13.3-6.1,13.3s8,21.4,20.3,26.8a11.3,11.3,0,0,0,12.4-.5,44.8,44.8,0,0,0,18.8-24.8Z" fill="#eecb9b" stroke="#eac179" stroke-miterlimit="10"/>
    <path id="hair" d="M589.3,218.9c-2.4-5.5-7.2-8.7-10.8-7.2s-3.5,3.8-3.4,7.2c-7.8-6.4-17.7-6.1-17.7-6.1-7.2-1-12.3,1.1-16,4.3.2-3.4-1-6.2-3.4-7.1s-7.6,1.8-9.6,6.9-1,10.4,2.3,11.7a5,5,0,0,0,3.4,0,37.6,37.6,0,0,0-1.9,8.5l5-4.9c2.3-1.9,4.9-3.5,6.8-3.2l1.1.5,3.2-2.7a8.8,8.8,0,0,1,9.7.4l2.7,2.3,1.2-.7c2.5-1.3,8.8-3.6,14.7,2.5l7.5,7.9a33.9,33.9,0,0,0-1.1-7.6,5.1,5.1,0,0,0,4.2.1C590.8,230.1,591.7,224.4,589.3,218.9Z"/>
    <path id="lip-2" data-name="lip" d="M549,249.6h18.2C565.7,255.9,555.1,266,549,249.6Z" fill="#f69dac" stroke="#c42127" stroke-miterlimit="10"/>
    <ellipse id="eye-r-2" data-name="eye-r" cx="569.9" cy="240.6" rx="0.9" ry="2.3" stroke="#000" stroke-miterlimit="10" stroke-width="2"/>
    <ellipse id="eye-l-2" data-name="eye-l" cx="548.1" cy="240.3" rx="0.9" ry="2.3" stroke="#000" stroke-miterlimit="10" stroke-width="2"/>
  </g>
  <g id="boy">
    <path id="leg-l-3" data-name="leg-l" d="M441.3,355.3l6.2.6-3.1,50.8s-4.2.6-4.2,0S441.3,355.3,441.3,355.3Z" fill="#eecb9b" stroke="#eac179" stroke-miterlimit="10"/>
    <polygon id="leg-r-3" data-name="leg-r" points="464.3 355.3 470.6 355.3 469.2 406.9 464.3 406.9 464.3 355.3" fill="#eecb9b" stroke="#eac179" stroke-miterlimit="10"/>
    <path id="pants" d="M437.8,355l14.6,1.3s5.7-41,6.6-.7l14.9-.6-2.6-26.5-15.5-12.8-17.1,16.5Z" fill="#211c5a"/>
    <path id="shirt-2" data-name="shirt" d="M419.4,272s13.9,9.3,25.7,2.2c0,0,19.8-7.4,36.6,21.4l-5.7,5-6.4-6.6,3.8,34.8s-18.6-1.5-20.8,2-15.3,1.2-15.3,1.2l-.2-38.2s-19.9-12.8-19.4-13.5S419.4,272,419.4,272Z" fill="#b9e4ef"/>
    <path id="arm-l-3" data-name="arm-l" d="M378.8,252s-7.6-.5-10.4-5.7c0,0-3.1-9.4,6.6-5l4.9,4.8-3.7-7.3s-.8-5.2,6.6,6.6a45.7,45.7,0,0,0,11.1,10.8L419.3,272l-1.6,8.3S384.2,253.4,378.8,252Z" fill="#eecb9b" stroke="#eac179" stroke-miterlimit="10"/>
    <path id="arm-r-3" data-name="arm-r" d="M479.2,304.6,495,321s3.3,1.2,2.4,5.9c0,0,1.8,5.3,8.4,3.3l2.4-3.5-4-3.2s-2.8-.3-5.9-5.2l-16.6-22.7-5.7,5Z" fill="#eecb9b" stroke="#eac179" stroke-miterlimit="10"/>
    <path id="neck-3" data-name="neck" d="M444.5,265.8s4.3.7,7.1-.5v8l4.2.5s-5.8,9.9-13,1.5c0,0,2.3-.4,2.3-1.1S444.5,265.8,444.5,265.8Z" fill="#eecb9b" stroke="#eac179" stroke-miterlimit="10"/>
    <path id="head-4" data-name="head" d="M472.1,232.3c-.1-.2-3.1-3-7.2-6.8-6.6-6.1-16.4-6.5-16.4-6.5s-13.5,2.3-20,8.4c-2.8,2.6-6.4,9.6-6.4,9.6s8,21.4,20.3,26.8a11.1,11.1,0,0,0,12.4-.5,60.2,60.2,0,0,0,19.3-24.2Z" fill="#eecb9b" stroke="#eac179" stroke-miterlimit="10"/>
    <path id="hair-2" data-name="hair" d="M422.1,237s2.4-27.3,25.3-24.3c0,0,25.4-.8,26.7,26.4L459.6,224l-9,5.4-7.6-6.7-7.9,6.7-3.5-1.6Z"/>
    <path id="lip-3" data-name="lip" d="M440.5,252.3a8.7,8.7,0,0,0,5.8,3.6c4.8.7,8.1-3.2,8.2-3.4" fill="none" stroke="#c42127" stroke-miterlimit="10"/>
    <ellipse id="eye-r-3" data-name="eye-r" cx="460.3" cy="240.6" rx="0.9" ry="2.3" stroke="#000" stroke-miterlimit="10" stroke-width="2"/>
    <ellipse id="eye-l-3" data-name="eye-l" cx="437.3" cy="239.9" rx="0.9" ry="2.3" stroke="#000" stroke-miterlimit="10" stroke-width="2"/>
  </g>
</svg>
