<svg id="_3-2" data-name="3-2" xmlns="http://www.w3.org/2000/svg" viewBox="0 0 544 415.6">
  <g id="man">
    <path id="neck" d="M242,101.1s11,18,2.5,26.2l30.7-3.5s-9.7-11.2-8.3-29.4C266.9,94.4,249.3,85.9,242,101.1Z" fill="#eecb9b" stroke="#eac179" stroke-miterlimit="10"/>
    <path id="shoulder-l" d="M228.7,128.2c-8.4,7.3-23.6,34-23.6,34s20.4,10.6,20.6,9.6,9.6-10.9,9.6-10.9L242,150s1.7-12.9,1.7-15.6-.2-11.9-.2-11.9S229.7,127.4,228.7,128.2Z" fill="#304c23"/>
    <path id="shirt" d="M233.8,126.1s-1.9,27.9-8.6,45.5c0,0-1,14-3.6,55.4,0,0,34.6,11.5,76.8,0,0,0-8.7-33.3,8.8-90.8,0,0,.4-7.8-10.2-10.3,0,0-16.2-1.1-18.3-6.7L243,122.5Z" fill="#125d2f"/>
    <path id="shoulder-r" d="M285.5,123.8,270,156.7s23,12.6,23.3,11.6,3.4-11.3,3.4-11.3l4.1-9.6,6.4-11.2-1.1-4.5s-3.9-4.6-4.2-4.4-4.9-1.4-4.9-1.4l-6.4-.9Z" fill="#304c23"/>
    <path id="arm-l" d="M205.1,162.2s18.3-12.7,20.1,9.4l-34.9,46.2a18.8,18.8,0,0,1-2.5,11.2l-5.9,8.8s-11.3,16.2-15.1-3.2c0,0-.4-4.6,13-16.3Z" fill="#eecb9b" stroke="#eac179" stroke-miterlimit="10"/>
    <path id="arm-r" d="M291,166.9s5.6-22.6-19.1-11.4l-34.2,55.9a29.1,29.1,0,0,0-11,8.5L219.8,230s-12.3,18.8,10.4,10.8c0,0,5-2.3,11.7-20.3Z" fill="#eecb9b" stroke="#eac179" stroke-miterlimit="10"/>
    <g id="head">
      <path id="head-2" data-name="head" d="M218,53.5s6.9-13.5,41.2-14.3c0,0,2.8-2.3,4.4,3.6.5,2.3,4.4,16.8,4.4,16.8l11.8,24.3s-29,45.7-49.2,11.7C229.2,93.3,216.9,77,218,53.5Z" fill="#eecb9b" stroke="#eac179" stroke-miterlimit="10"/>
      <path id="mouth" d="M238.2,92.5a13.1,13.1,0,0,1,6.5-6.3c5.6-2.5,10.9.2,11.6.5" fill="none" stroke="#c42127" stroke-miterlimit="10" stroke-width="2"/>
      <path id="eye-r" d="M251.7,65.3s-.6,3.8,2.2,4c0,0,2.2.5,3.1-1.1,0,0,1.9-3.1-1.2-4.5A2.9,2.9,0,0,0,251.7,65.3Z" fill="#1a100a"/>
      <path id="eye-l" d="M231.7,69.1s2.5,3.1.2,4.6c0,0-1.7,1.5-3.4.6,0,0-3.1-1.9-1.1-4.5A2.9,2.9,0,0,1,231.7,69.1Z" fill="#1a100a"/>
      <path id="brow-r" d="M247.8,54.6s10.3-2.8,13.9,3.4l-14-.9A3.4,3.4,0,0,1,247.8,54.6Z"/>
      <path id="brow-l" d="M232,58s-10.6,1.2-11.6,8.3l12.7-6.1A3.6,3.6,0,0,0,232,58Z"/>
      <path id="hair" d="M231.5,11s24.9-1.2,41.8,9.5l8,37.8-1.2,25.2L268.2,60.2l-5.3-19.7s-33.1-.9-44.4,13.8c0,0-2.1,10.8,2.4,20.6a70.5,70.5,0,0,1-6.3-22.7S196,52.5,196,30.1c0,0,4.5,4.6,8.2,3.6,0,0-5.8-6.1-5.8-13.2a42.5,42.5,0,0,1,19.6,1,11.6,11.6,0,0,1-2.5-6.2s10.5-2.1,20.2.6Z" fill="#1a100a"/>
    </g>
  </g>
  <g id="pillow">
    <path d="M77.2,286.5s-1.1-7.5,7.9-8.3l31.2-1.5s-.9,16.5,11.6,20.9l-13.1,4.3-6.5,3.5-5,4.5s4.7,1.8-19.7,1.8c0,0-5.4-1.2-6.4-6.1Z" fill="#fdf7ba" stroke="#ccc69a" stroke-miterlimit="10"/>
  </g>
  <path id="neck-2" data-name="neck" d="M171.6,300.3s.9-14.1-4.2-17.2l-11-7.6,2.3-1.7,1.3-1.5,1.2-1.6.9-1.7,1-3,.3-2.3v-2.1l-.2-2,10.7,2s3.5,3.7,19.3-.6Z" fill="#eecb9b" stroke="#eac179" stroke-miterlimit="10"/>
  <g id="head-3" data-name="head">
    <path id="hair-back" d="M221.1,249.8c-7.8-9.2-21.8-8.2-21.8-8.2-5.5.3-15.3,7.7-21.2,8.5a40,40,0,0,1-10.9-1.3l-7.6-2.8h0l-2.2-.4,1,1.3a23.1,23.1,0,0,1,3.2,7.9c4.8,1.6,3.9,3.4,12.7,9.3s13.7,5.1,13.7,5.1a36.2,36.2,0,0,0,17.2-2.6c17.1-2.8,8.5,12.2,8.5,12.2C238.1,264.9,221.1,249.8,221.1,249.8Z" fill="#533814"/>
    <path id="head-4" data-name="head" d="M110.4,280.7c-.5-.3-16.3-39.5-16.3-39.5l44-21s24,20.8,25.1,39.4a15.5,15.5,0,0,1-6.8,15.9,82.6,82.6,0,0,1-40.9,13.4Z" fill="#eecb9b" stroke="#eac179" stroke-miterlimit="10"/>
    <path id="hair-2" data-name="hair" d="M133.1,216.5c-13-3-15.7-1.4-15.7-1.4-32.5-3.1-32.1,24.7-32.1,24.7-19.7,22.1,24.1,48.1,24.1,48.1,5.4,3.6,14,5.2,14,5.3,7.4-2.7,20.1-2.3,20.1-2.3-4.9-5.1-17.1-2.4-17.1-2.4-9.4.9-16.2-7.5-16.2-7.5-3.7-16.4-12.1-40.6-12.1-40.6,15.2-2.6,21.3-10.3,21.3-10.3a31.3,31.3,0,0,1,3.4-2.1C126.4,224.1,129,219,133.1,216.5Z" fill="#533814" stroke="#4b3014" stroke-miterlimit="10"/>
    <path id="hair-r" d="M120.7,229.2c9.7-5.2,21.4-4.3,21.4-4.3,10.7-.4,24,17.5,24,17.5,12.2,2.7,9.4-7.3,9.4-7.3-4.2,11-12.8-7.8-12.8-7.8-6.8-9.2-26.9-10.1-26.9-10.1l-7.6-1.5" fill="#533814" stroke="#4b3014" stroke-miterlimit="10"/>
    <path id="eye-r-2" data-name="eye-r" d="M133,248.1l.8-2.2s4.6-3.4,3.4-10.3l.8-2.1S142.6,242.8,133,248.1Z"/>
    <path id="eye-l-2" data-name="eye-l" d="M127.2,263.6l-.9,2.1s.9,5.6-4.7,9.8l-.9,2S130.4,274.1,127.2,263.6Z"/>
    <path id="lip" d="M145,271.1s-1.5-7.9,6.4-17.1A38.1,38.1,0,0,1,145,271.1Z" fill="#e4273a" stroke="#c42127" stroke-miterlimit="10"/>
    <path id="brow-r-2" data-name="brow-r" d="M119.8,244.5s6.8-13.3,14.7-14.3L121.6,246A2.3,2.3,0,0,1,119.8,244.5Z"/>
    <path id="brow-l-2" data-name="brow-l" d="M114.5,258.7s-3.6,14.6,1.7,20.5l.6-20.4A2.3,2.3,0,0,0,114.5,258.7Z"/>
  </g>
  <path id="bed" d="M16.5,177.1s-1.3-9.3,9.7-10.2,32.1,0,32.1,0,6.7,1.7,6.7,10.2V305.5s-.8,5,7.6,5.9H482.3s5.3,1.4,5.3-6.5V279.5s-1.6-5,4.5-5.6l29.9-.5s6.5-1.2,6.5,6.7V388.8s1.4,9.1-5.9,9.1H486s-6.8,2.2-7.9-5.7l-.6-7.3s.6-3.4-4.2-2.9-404.6,0-404.6,0-2-.9-2,2.6V392s.1,5.9-5.8,5.9H21.7s-5.3-.7-5.3-5S16.5,177.1,16.5,177.1Z" fill="#483b15"/>
  <path id="blanket" d="M106.3,320.1c-2.5-1.7-27-8.7,0-21.4,0,0,59.3-14.5,147.2-88.4,0,0,55.2-45.3,106.6,5.8s125.4,46.5,125.4,46.5,28.5-5.2,18.4,23.7c0,0-17.7,48.4-63.5,57.4,0,0-21.4,12.8-76.9-9,0,0-73.2-22.9-116.4,0,0,0-21.4,11.3-63.1,5.3C184,340,128.1,334.7,106.3,320.1Z" fill="#a0d9d5"/>
</svg>
