<svg id="_3-5" data-name="3-5" xmlns="http://www.w3.org/2000/svg" viewBox="0 0 156.6 423.5">
  <g id="legs">
    <path d="M111.3,232.3s5.3,41.8.6,67c0,0,7.8,86.7,1.9,108.4H97L87.7,234.7Z" fill="#eecb9b" stroke="#eac179" stroke-miterlimit="10"/>
    <path d="M80.9,232.2s5,41.9.5,67c0,0,7.5,86.7,1.9,108.4H67.4L58.6,234.6Z" fill="#eecb9b" stroke="#eac179" stroke-miterlimit="10"/>
  </g>
  <g id="clothes">
    <path d="M109.4,110.4l15.6,1.4s11,1.7,13,16.6,5.7,71.2,5.7,71.2l-15.9.7s-5-29.2-3.6-46.9c0,0-.5,14.7-4.6,17.2a5.9,5.9,0,0,0-4.4,4.8s-2.9,7.3-2.3,18.9l-54.1.5s1.2-13.2-4.7-23.9c0,0-6.3-3.8-6.2-14.1v-5.3S31.5,161.9,25.1,163c0,0-5.7,1.7-9.6.3,0,0-7.1-2.2-6.1-11.3a8.9,8.9,0,0,1,.3-2.2l.7,4.2,2.1,2.9,5.1,1.8,4-.2,3.7-.9,3.5-2.7,6.8-7.5,7.7-9.7,26.4-33.9,9.1,8Z" fill="#d0ecec"/>
    <path d="M37.7,270s96.3.2,96.3,0,1-21.9-6.2-35.3c0,0-10.1-20.2-13.7-30-.7-2.1-1.2-10.4-1.2-10.4l-54,.5v9.7s-10.4,16.9-14.7,29.3C44.1,233.8,39.2,243.9,37.7,270Z" fill="#3a342a"/>
    <g>
      <rect x="102.4" y="138.7" width="14.1" height="1.95" fill="#ed1c24"/>
      <rect x="108.5" y="132.6" width="1.9" height="14.08" fill="#ed1c24"/>
    </g>
  </g>
  <path id="neck" d="M97.1,89.3c-6.6,6.8-17.1,7.2-24.9,2.4,1.1,3.3,2.2,11.4-8.5,20.1l44-1.9S92.5,103.8,97.1,89.3Z" fill="#eecb9b" stroke="#eac179" stroke-miterlimit="10"/>
  <g id="head">
    <path id="hair-back" d="M40.1,137.2c-.4-1.3,25.3-30.8,28.4-36.3S70.8,91,70.8,91s.4-1.6,1.5,0,2.4,9.9,2.4,9.9,1.7,12.7-1.4,19.1a34.7,34.7,0,0,1-11.1,13.8s-5.1,6.9.4,10.6c0,0,1.7,2.4,8.3.7s-5.1,7.3-5.1,7.3a16,16,0,0,1-11.5,0C48.1,150,43.7,149.6,40.1,137.2Z" fill="#533814" stroke="#4b3014" stroke-miterlimit="10"/>
    <path id="head-2" data-name="head" d="M97.1,89.3C90.5,96,80,96.5,72.2,91.7l-6.5-5C52.4,77.5,52.4,55.2,52.4,54.9L51,41.4,76.5,19l32.9,11.4s1.3,13.2,2.3,31.2C112.4,75.8,99.4,86.7,97.1,89.3Z" fill="#eecb9b" stroke="#eac179" stroke-miterlimit="10"/>
    <path id="lip" d="M75.6,83.3c.2-.1,3.1-10.7,6.5-12.7a5.6,5.6,0,0,1,6.1,0s3.1,3.9-.6,12.3S75.6,83.3,75.6,83.3Z" fill="#e4273a" stroke="#c42127" stroke-miterlimit="10"/>
    <polyline id="eye-r" points="103.3 57 91.7 61.5 106.9 63.7" fill="none" stroke="#000" stroke-miterlimit="10"/>
    <polyline id="eye-l" points="61.2 57 72.9 61.5 57.6 63.7" fill="none" stroke="#000" stroke-miterlimit="10"/>
    <path id="brow-r" d="M108.6,52.6s-13.8-8-21.3-4.5Z"/>
    <path id="brow-l" d="M55,51.9s14.1-7.4,21.5-3.5Z"/>
    <path id="hair" d="M74.2,12.8c-17.1-3.3-25,8.4-28.7,20.1C43.2,43,42.6,39.9,49,44c3.3,2.1,4,3.9,7.9-1.9A71.7,71.7,0,0,0,76.5,27.7c5,2.4,13.5,4.1,17.2,6.3,10.6,4.9,15.4,5.8,24,9.2C102-7.1,74.2,12.8,74.2,12.8Z" fill="#533814" stroke="#4b3014" stroke-miterlimit="10"/>
    <path id="hair-l" d="M45.5,32.9a73.7,73.7,0,0,0-3.2,20.3,83.3,83.3,0,0,0,1.8,15.3c.9,4.8,6,10.4,8.3,13.7C56.6,88,51,100.7,51,100.7l4-2.8C63.7,94.5,61.5,83,61.5,83c-4.2-3.9-6.2-11.3-6.2-11.3-4.5-9-2.9-21.6-2.8-22.1a50.4,50.4,0,0,1,4.2-7.4l9.1-5.5" fill="#533814" stroke="#4b3014" stroke-miterlimit="10"/>
    <path id="hair-r" d="M87.3,30.2c4.9,2.8,12.2,7.3,15.4,9.6,3.7,7.2,9.3,19,10.3,28.5-1.2,6.6,2.9,9.1,2.9,9.1-1.2-9,2.3-12.4,2.3-12.4,3.7-14-2-27-2-27s-2.6-5.9-2.8-6.4" fill="#533814" stroke="#4b3014" stroke-miterlimit="10"/>
  </g>
  <path id="arm-r" d="M89.5,201.8s14.5-5,19.6-6.2l22.5-5s24.6,7.5,2.8,10.6l-18.7,2.6L99,206.6l-9.8,1.6s-7.3.7-11.1-1.3c0,0-8.4-5.6-1.6-6.4,0,0,5.3,2.1,7.2,1S89.5,201.8,89.5,201.8Z" fill="#eecb9b" stroke="#eac179" stroke-miterlimit="10"/>
  <path id="arm-l" d="M86.9,107.7C97.1,104.3,96.6,85,96.6,85a83,83,0,0,1,.7-11.2c.7-6-9.7,3.2-9.7,3.2l-5.8,4.5c-5.9,4.5-6.5,18.1-6.5,18.1s2.7,2.1-4.4,6.3L29.8,130l-14.1,8.6s-17.9,22.3,9.7,18.9l56.2-40.8,4.1-8.2S85.3,108.1,86.9,107.7Z" fill="#eecb9b" stroke="#eac179" stroke-miterlimit="10"/>
  <g id="spark">
    <path d="M9.3,38.2c.4.2,12.6,3,12.8-10.5" fill="none" stroke="#000" stroke-miterlimit="10"/>
    <path d="M37.2,38.2c-.4.2-12.5,3-12.7-10.5" fill="none" stroke="#000" stroke-miterlimit="10"/>
    <path d="M9.3,43.3c.4-.2,12.6-3,12.8,10.5" fill="none" stroke="#000" stroke-miterlimit="10"/>
    <path d="M37.2,43.3c-.4-.2-12.5-3-12.7,10.5" fill="none" stroke="#000" stroke-miterlimit="10"/>
  </g>
  <g id="droplets">
    <path d="M124.6,100.7s7.8,6.3,5.3-3.8a80.3,80.3,0,0,0-8.7-8.7S122,96.4,124.6,100.7Z"/>
    <path d="M132.8,95.7s9.8,1.6,2.7-5.9a82.9,82.9,0,0,0-11.8-3.4S128.4,93.2,132.8,95.7Z"/>
    <path d="M137.1,87.2s9.4-3-.3-6.5a75.4,75.4,0,0,0-11.9,2.2S132.1,87,137.1,87.2Z"/>
  </g>
</svg>
