<svg id="_3-7" data-name="3-7" xmlns="http://www.w3.org/2000/svg" viewBox="0 0 476.4 420.1">
  <path id="arm-l" d="M14.7,200.6s7.8-20.4,14-.2l-9.6,60a29.6,29.6,0,0,1,1.1,11.8l-1.3,11.2s-2.9,20.5-9.7,3.8c0,0-1.3-4.2,3.8-21.5Z" fill="#eecb9b" stroke="#eac179" stroke-miterlimit="10"/>
  <path id="arm-r" d="M166,162.4s-21.9.7-5.7-14.5l59-15.5a28.9,28.9,0,0,1,10.5-6.3l10.8-3.3s20-5.8,7.3,8.5c0,0-3.3,3.1-21.3,5.2Z" fill="#eecb9b" stroke="#eac179" stroke-miterlimit="10"/>
  <g id="neck">
    <path d="M62,88.2s2.3,17.1-6.4,23.9,34.4,0,34.4,0A33.1,33.1,0,0,1,75.9,88.2S69.9,92.4,62,88.2Z" fill="#eecb9b" stroke="#eac179" stroke-miterlimit="10"/>
  </g>
  <g id="top">
    <path d="M44.3,191h56.9s-1.1-11,1.1-18.9c0,0,12.2-6.3,9.1-27.3l26.3,15.5-4.9-28.4s-33-27.9-35-28.2S38,109.4,38,109.4s-17.3,3-19,25.8c0,0-6.2,65.6-4.5,65.6H29.4l6.8-37.3s-2.5-10.8-.3-15.3c0,0-3.1,15.8,7.3,22.2C43.2,170.4,46.9,180.6,44.3,191Z" fill="#d0ecec"/>
    <polygon id="cross" points="102.6 127.7 96.5 127.7 96.5 121.7 94.6 121.7 94.6 127.7 88.5 127.7 88.5 129.7 94.6 129.7 94.6 135.7 96.5 135.7 96.5 129.7 102.6 129.7 102.6 127.7" fill="#ed1c24"/>
    <polyline points="132.8 131.9 162.9 147.2 162.9 163.3 137.7 160.2" fill="#d0ecec"/>
  </g>
  <g id="hair2">
    <path d="M49.8,79.4l10.8,8.8s5.5,25.9,0,35.5c0,0-22.3,25.9,2.5,22.8,0,0-.2,5.1-8.2,8.2,0,0-6.7,2.2-12,0,0,0-14.4-.9-16.4-16.2-.2-1.3-1.7-5.7,1.9-19.2,0,0,9.6-11.6,19.6-15.7C48,103.7,52.2,102.5,49.8,79.4Z" fill="#533814" stroke="#4b3014" stroke-miterlimit="10"/>
  </g>
  <g id="head">
    <path id="head-2" data-name="head" d="M39.3,38.8s2,38.8,14.8,45.3,15.6,10.3,32.1.6c0,0,11.4-6.6,13.9-20,0,0,.5-30.5-2.3-36.9S72.2,16.4,72.2,16.4s-21.5,5.6-22.3,7S39.3,38.8,39.3,38.8Z" fill="#eecb9b" stroke="#eac179" stroke-miterlimit="10"/>
    <g id="eye-l">
      <path id="pupil-l" d="M54.5,57.1a3.8,3.8,0,0,0,5.6,0,4,4,0,0,0,0-3.4H54.5A3.8,3.8,0,0,0,54.5,57.1Z"/>
      <path id="lid-l" d="M56.8,52.7a5.3,5.3,0,0,1-.2-1.9,4.2,4.2,0,0,0-.1,1.9h-.7a11.6,11.6,0,0,1-.2-2,3.4,3.4,0,0,0,0,2H55a7.6,7.6,0,0,1-.2-2.3,3.5,3.5,0,0,0,0,2.3l-.7.2A8.5,8.5,0,0,1,54,51a3.9,3.9,0,0,0-.1,2.1l-.4.2a7.1,7.1,0,0,1-.3-2.5,2.9,2.9,0,0,0,.1,2.5l-.7.3a7.6,7.6,0,0,1-.3-2.6,4.1,4.1,0,0,0,.1,2.6l-.6.3a6.8,6.8,0,0,1-.4-2.7,3.4,3.4,0,0,0,.3,2.7l-.5.3a5.4,5.4,0,0,1-.6-3.1,3.1,3.1,0,0,0,.4,3.1l-.8.5s9.4-.9,13.2.4A9,9,0,0,0,56.8,52.7Z"/>
    </g>
    <g id="eye-r">
      <path id="pupil-r" d="M88,58.3a3.9,3.9,0,0,1-5.7,0,4.7,4.7,0,0,1,0-3.5H88A4.4,4.4,0,0,1,88,58.3Z"/>
      <path id="lid-r" d="M91.4,55.4h0a3,3,0,0,0,.5-3.1,5.4,5.4,0,0,1-.6,3.1l-.5-.3a3.3,3.3,0,0,0,.2-2.8,5.6,5.6,0,0,1-.4,2.8l-.6-.3a3.4,3.4,0,0,0,.2-2.6,6.9,6.9,0,0,1-.3,2.5l-.7-.2a3.9,3.9,0,0,0,.1-2.5,6.5,6.5,0,0,1-.3,2.4h-.5a3.7,3.7,0,0,0,0-2.1,6.4,6.4,0,0,1-.2,2.1l-.6-.2a4.4,4.4,0,0,0,0-2.3,7.6,7.6,0,0,1-.2,2.3h-.6a3.5,3.5,0,0,0-.1-2,6.9,6.9,0,0,1-.1,1.9h-.8a4.2,4.2,0,0,0-.1-1.9,6.9,6.9,0,0,1-.1,1.9,9,9,0,0,0-6.6,2.4c3.8-1.3,13.2-.4,13.2-.4Z"/>
    </g>
    <path id="lip" d="M77.2,76.8H63.4s7.6-12.6,13.8,0" fill="#e4273a" stroke="#c42127" stroke-miterlimit="10"/>
    <path id="brow-r" d="M95.9,51.7s-12.1-8.5-18.5-4.9Z"/>
    <path id="brow-l" d="M46.7,49.6S59,43.2,65.3,46.9Z"/>
  </g>
  <g id="hair">
    <path d="M69.4,10.5S86.3.1,101.3,26.5a64.1,64.1,0,0,1,5.4,24.3s.9,10-4,18.2a27.9,27.9,0,0,0-3.2,13.4s-5.4-5.3.9-17c0,0,4.2-7.5,1.9-14.8,0,0-29.8-23-30.4-27.9,0,0-13.9,13.7-21.9,17.2A31.2,31.2,0,0,0,39.8,58.1s-1.9,6.4-.5,11.5c0,0,2.4,9.2,8.4,13.9,0,0,3.1,13.9-8.9,9.1a5.8,5.8,0,0,0,2.9-7.4s-7.3-8.4-8.5-14.3c0,0-1.8-6.8,1.2-17.1C34.4,53.8,35.6.4,69.4,10.5Z" fill="#533814" stroke="#4b3014" stroke-miterlimit="10"/>
  </g>
  <g id="skirt">
    <path d="M100,232.7s5.3,41.9.5,67.1c0,0,7.9,86.6,1.9,108.4H85.7L76.4,235.2Z" fill="#eecb9b" stroke="#eac179" stroke-miterlimit="10"/>
    <path d="M69.6,232.7s5,41.8.5,67c0,0,7.4,86.7,1.9,108.4H56.1L47.3,235.1Z" fill="#eecb9b" stroke="#eac179" stroke-miterlimit="10"/>
    <path d="M44.3,191h56.9v8.4s14.9,28.2,16.1,38.3c0,0,4.2,18.6,2.8,28.8H24.6s-.3-26.8,8.2-37.8c0,0,13.2-24.5,11.8-26.4Z" fill="#3a342a"/>
  </g>
  <g id="food">
    <path id="bowl" d="M287.5,224.3h69.2v1.9h-11v2.2L335,229s.3,4.4-.5,4.6-24.3,1.1-24.3,0v-4.4h-9s.5-2.5-.8-2.5l-12.9-.2v-2.2Z" fill="#756c60"/>
    <path id="food-2" data-name="food" d="M297.2,224.3H347s-1.2-6.9-8.1-6.6c0,0,0-7.4-7.4-2.9,0,0-7.2-10-12.5,1.8,0,0-4.9-1.5-6.9,1.1,0,0-3.1-10.8-7-.1C305.1,217.6,297.4,216,297.2,224.3Z" fill="#d57728"/>
  </g>
  <path id="table" d="M463,236.6s-255.1.7-264.5,0-8.1,7.2-8.1,7.2a66.9,66.9,0,0,0-.1,8.6c.3,3.2,5.4,2.6,5.4,2.6s8.9-.2,12.5.1,3.6,4.6,3.6,4.6-.7,11.7-.3,16.2,2.6,3.9,2.6,3.9h4.4a30.4,30.4,0,0,0-.5,3.8s-.5,111.8,0,115.9,3.9,3.6,3.9,3.6,14.1.3,18,0,2.7-3.8,2.7-3.8.3-104.5,0-115.7a20.9,20.9,0,0,0-.3-3.8H417.6a22.8,22.8,0,0,0-.6,3.8s-.5,111.8,0,115.9,3.9,3.6,3.9,3.6,14.2.3,18.1,0,2.6-3.8,2.6-3.8.3-104.5,0-115.7c0-1.5-.1-2.7-.2-3.8h2.5c6.8,0,5.5-4.2,5.5-4.2V258.7c0-4.5,3.6-3.6,3.6-3.6h8.7c5.6,0,5.6-2.2,5.6-2.2V241.5A5.5,5.5,0,0,0,463,236.6Z" fill="#3a2411"/>
  <path id="spoon" d="M367.7,217.5h0a31.8,31.8,0,0,0-13.4-9.7c-10.4-5.2-6.6,2.8-6.6,2.8,3.6,4.9,14.6,10.2,17.8,10.5a1.8,1.8,0,0,0,2.2-1.4h0l20.2,12.3a16.7,16.7,0,0,1,2.4-2.6Z" fill="#756c60"/>
  <path id="wave-l" d="M263.9,115.1s9.8,7,3.4,20.6" fill="none" stroke="#000" stroke-miterlimit="10"/>
  <path id="wave-r" d="M269.5,103.7s17.5,18.7,0,40.5" fill="none" stroke="#000" stroke-miterlimit="10"/>
</svg>
