<?xml version="1.0" encoding="utf-8"?>
<!-- Generator: Adobe Illustrator 24.3.0, SVG Export Plug-In . SVG Version: 6.00 Build 0)  -->
<svg version="1.1" xmlns="http://www.w3.org/2000/svg" xmlns:xlink="http://www.w3.org/1999/xlink" x="0px" y="0px"
	 viewBox="0 0 841.89 595.28" style="enable-background:new 0 0 841.89 595.28;" xml:space="preserve">
<style type="text/css">
	.st0{fill:#EECB9B;stroke:#EAC179;stroke-miterlimit:10;}
	.st1{fill:#D0ECEC;}
	.st2{fill:#ED1C24;}
	.st3{fill:#533814;stroke:#4B3014;stroke-miterlimit:10;}
	.st4{fill:#533814;}
	.st5{fill:#69C5B2;}
	.st6{fill:none;stroke:#69C5B2;stroke-miterlimit:10;}
	.st7{fill:#3A342A;}
	.st8{fill:none;stroke:#000000;stroke-miterlimit:10;}
</style>
<g id="face">
	<g>
		<path class="st0" d="M130.71,48.24c0.19-0.56,31.35-29.09,31.35-29.09l35.1,33.79c0,0-11.07,29.85-28.16,37.35
			c0,0-8.45,5.63-17.27-0.75c0,0-17.46-11.6-26.84-33.67L130.71,48.24z"/>
		<path class="st0" d="M133.9,112.43c0,0,13.51-4.13,14.64-9.95l3.19-12.95l2.45,1.48l1.81,0.76l1.93,0.52l1.87,0.25l3.23-0.13
			l2.29-0.51l1.91-0.69l1.79-0.93l1.88,10.7c0,0,4.36,12.15,25.34,11.45H133.9z"/>
	</g>
</g>
<g id="top">
	<path class="st1" d="M135.93,110.05c0,0-27.04-0.52-29.86,26.75l-2.42,26.88c0,0,0.7,35.07,0.87,35.9
		c0.18,0.83,55.82-11.26,55.82-11.26l55.25,13.23v-56.59c0,0-5.63-30.69-27.59-34.91C188,110.05,161.57,115.68,135.93,110.05z"/>
	<g>
		<rect x="119.82" y="135.15" class="st2" width="14.08" height="1.95"/>
		
			<rect x="119.82" y="135.15" transform="matrix(-1.836970e-16 1 -1 -1.836970e-16 262.9872 9.2704)" class="st2" width="14.08" height="1.95"/>
	</g>
</g>
<g id="hair">
	<path class="st3" d="M123.65,49.8c0,0,9.01-50.12,36.6-39.42c0,0,25.9-10.14,34.35,21.4c0,0,2.82,2.25,4.5,18.02
		c0,0,6.19,19.15,0,28.72c0,0-14.64,14.64-2.82,14.64c0,0-8.45,6.19-10.14-6.19c0,0,12.11-18.77,7.98-28.63
		c0,0-1.78-12.11-12.86-19.43c0,0-9.3-3-17.08-16.33c0,0-19.71,16.33-33.79,25.53c0,0-5.44,9.39-1.31,17.83
		c0,0,6.76,10.51,3.75,16.89c0,0-4.13-12.01-9.2-18.02C123.65,64.82,122.17,56.15,123.65,49.8z"/>
	<path class="st3" d="M173.02,86.97c0,0,4.5-1.13,7.51-5.82v16.52c0,0,15.02,12.2,18.02,19.15c0,0,5.82,12.76,0,23.28
		c0,0-8.26,21.21-29.85,3.19c0,0,17.08,2.82,8.45-12.2c0,0-5.82-5.69-8.45-15.24c0,0-2.44-4.29,0-14.61S173.21,92.04,173.02,86.97z"
		/>
	<path class="st4" d="M180.53,81.15c0,0-0.91,15.62,2.31,18.46s-10.19,4.25-10.19,4.25L180.53,81.15z"/>
</g>
<g id="eyebrows">
	<path d="M133.51,48c0,0,15.35-4.35,21.8,0.9L133.51,48z"/>
	<path d="M187.91,48.8c0,0-15.09-5.18-21.81-0.28L187.91,48.8z"/>
</g>
<g id="eyes">
	<path d="M136.57,56.27c0,0,10.98-1.03,15.39,0.47C151.96,56.74,146.43,51.02,136.57,56.27z"/>
	<path d="M141.59,58.88c0,0,2.91,3.1,6.57,0c0,0,1.02-2.03,0-3.75l-6.57-0.12C141.59,55.01,140.47,57,141.59,58.88z"/>
	<path d="M137.59,55.76c0,0-1.2-1.12-0.55-3.44c0,0-0.21,2.34,0.75,3.44"/>
	<path d="M139.59,55.69c0,0-1.2-1.12-0.55-3.44c0,0-0.21,2.34,0.75,3.44"/>
	<path d="M138.61,55.83c0,0-1.2-1.12-0.55-3.44c0,0-0.21,2.34,0.75,3.44"/>
	<path d="M140.61,55.4c0,0-1.2-1.12-0.55-3.44c0,0-0.21,2.34,0.75,3.44"/>
	<path d="M141.55,55.65c0,0-1.2-1.12-0.55-3.44c0,0-0.21,2.34,0.75,3.44"/>
	<path d="M143.49,55.4c0,0-1.2-1.12-0.55-3.44c0,0-0.21,2.34,0.75,3.44"/>
	<path d="M142.5,55.21c0,0-1.2-1.12-0.55-3.44c0,0-0.21,2.34,0.75,3.44"/>
	<path d="M144.64,55.4c0,0-1.2-1.12-0.55-3.44c0,0-0.21,2.34,0.75,3.44"/>
	<g>
		<path d="M185.28,57.89c0,0-10.98-1.03-15.39,0.47C169.88,58.36,175.42,52.64,185.28,57.89z"/>
		<path d="M180.25,60.5c0,0-2.91,3.1-6.57,0c0,0-1.02-2.03,0-3.75l6.57-0.12C180.25,56.63,181.38,58.62,180.25,60.5z"/>
		<path d="M184.26,57.38c0,0,1.2-1.12,0.55-3.44c0,0,0.21,2.34-0.75,3.44"/>
		<path d="M182.26,57.31c0,0,1.2-1.12,0.55-3.44c0,0,0.21,2.34-0.75,3.44"/>
		<path d="M183.24,57.45c0,0,1.2-1.12,0.55-3.44c0,0,0.21,2.34-0.75,3.44"/>
		<path d="M181.24,57.02c0,0,1.2-1.12,0.55-3.44c0,0,0.21,2.34-0.75,3.44"/>
		<path d="M180.29,57.27c0,0,1.2-1.12,0.55-3.44c0,0,0.21,2.34-0.75,3.44"/>
		<path d="M178.36,57.02c0,0,1.2-1.12,0.55-3.44c0,0,0.21,2.34-0.75,3.44"/>
		<path d="M179.34,56.83c0,0,1.2-1.12,0.55-3.44c0,0,0.21,2.34-0.75,3.44"/>
		<path d="M177.21,57.02c0,0,1.2-1.12,0.55-3.44c0,0,0.21,2.34-0.75,3.44"/>
	</g>
</g>
<g id="mask">
	<g>
		<path class="st5" d="M136.76,68.8c0,0,20.13-19.01,47.44-0.56c0,0,1.27,6.62,0,12.39c0,0-8.78,7.34-15.35,9.57
			c-7.46,2.53-17.02,0-17.02,0c-6.76-1.55-15.35-9.57-15.35-9.57c-1.27-5.77,0-12.39,0-12.39c27.31-18.44,47.44,0.56,47.44,0.56"/>
	</g>
	<g id="Layer_10">
		<line class="st6" x1="183.51" y1="68.8" x2="193.77" y2="59.81"/>
		<path class="st6" d="M183.51,80.63c0.15-0.76,10.26-20.81,10.26-20.81"/>
		<line class="st6" x1="128.59" y1="62.33" x2="137.79" y2="69.23"/>
		<line class="st6" x1="136.99" y1="80.49" x2="128.87" y2="62.53"/>
	</g>
</g>
<g id="skirt">
	<path class="st0" d="M186.49,231.08c0,0,5.29,41.86,0.51,67.01c0,0,7.84,86.68,1.92,108.41l-16.79,0.13l-9.27-173.14L186.49,231.08
		z"/>
	<path class="st0" d="M156.06,230.98c0,0,5.02,41.87,0.51,67.01c0,0,7.45,86.69,1.86,108.41l-15.87,0.12l-8.83-173.14L156.06,230.98
		z"/>
	<path class="st7" d="M111.42,270.54h95.73c0,0,0.28-21.96-4.22-32.1c-4.5-10.14-15.96-28.16-16.42-36.88l-15.96-8.73l-39.98,6.19
		c0,0,3.38,6.48-13.23,34.63C117.33,233.66,112.54,237.32,111.42,270.54z"/>
</g>
<g id="arms">
	<path class="st8" d="M50.41,155.1"/>
	<path class="st0" d="M123.06,184.38c0,0-45.42,22.15,1.13,20.84c0,0,36.6,0.38,51.43-5.26
		C175.61,199.96,135.82,196.96,123.06,184.38z"/>
	<path class="st0" d="M186.5,181.01c0,0,9.2-19.15,14.64-24.21c0,0,11.26-3.75,3.19,19.15c0,0-2.82,1.69-4.88,3.38
		c0,0,1.63,4.51-0.94,3.94C196.83,182.88,186.5,181.01,186.5,181.01z"/>
	<path class="st0" d="M111.61,150.97c0,0,14.27,17.27,24.78,26.09c0,0,2.47,4.44,12.95,3.57c2.25-0.19,37.17,0.38,37.17,0.38
		l12.01,2.25c0,0,41.86,25.53-6.38,20.27c0,0-0.75,0.19-16.52-3.57l-7.87-0.85l-8.97-1.35l-8.65-1.73l-7.36-1.9l-7.67-2.61
		l-7.84-3.88l-4.2-3.26c0,0,0.19-5.26-6.01-7.88c0,0-37.54-8.82-3-14.83C114.05,161.67,103.35,144.59,111.61,150.97z"/>
</g>
</svg>
