<svg id="_4-1" data-name="4-1" xmlns="http://www.w3.org/2000/svg" viewBox="0 0 186.9 375">
  <g id="husband">
    <path id="legs" d="M167.7,213s-1.1,151.5-6.8,151.5-17.3.8-17.3,0-6.8-126.1-6.8-126.1-4.6,126.4-6.4,126.5-24.6,2.2-25,0-3.5-151,0-151.9S167.7,213,167.7,213Z" fill="#312210"/>
    <path id="neck" d="M121.5,106.1s8.1,13.5-1.6,20.2l30.8,1.5s-8.3-6.8-3.9-24.4C146.8,103.4,128.7,113.6,121.5,106.1Z" fill="#eecb9b" stroke="#eac179" stroke-miterlimit="10"/>
    <path id="arm-l" d="M69.2,125.8s21.4-5.7,15.5,15.7L36.1,172.9a18.6,18.6,0,0,1-6.2,9.6l-8.6,6.3S5.1,200.1,8.2,180.5c0,0,1.2-4.4,17.8-10.8Z" fill="#eecb9b" stroke="#eac179" stroke-miterlimit="10"/>
    <g id="top">
      <g>
        <path d="M135.3,123.4s39.8-5.1,39.6,27.4-6.5,100.7-6.5,100.7,1.6,8.7-3.2,8.4-58.7,2.9-58.7,2.9-4.7,1-3.8-6.4c.6-5.6,1.1-63.9,1.2-90.8.1-8.2.1-13.4.1-13.4v-2.9a67.8,67.8,0,0,1,.6-8.5s-.2-12.1-.1-12.5,0-2.9,4.5-3.7S135.3,123.4,135.3,123.4Z" fill="#125d2f"/>
        <path d="M143.8,206.3s17.3-15.5-9.4-20.3L74.5,212.6a27.7,27.7,0,0,0-13.8.8l-11.4,4.3s-20.9,8.5,2.3,14.8c0,0,5.5,1,21.3-10Z" fill="#eecb9b" stroke="#eac179" stroke-miterlimit="10"/>
        <path d="M142.9,123.4s17.7,1.4,25.6,9.1a24.6,24.6,0,0,1,3.8,5.4c1,2.6-.6,6.9-.6,6.9s-7.4,65-10.4,66.6-31.2,1.1-33.7,1.6-1.3-26.5-1.4-28.1,5.2-1.9,14.8-.8,2.8-41.5,2.8-41.5" fill="#304c23"/>
        <path d="M104.2,125.3h-3.1c-7.8,0-28.2.4-28.1,1.5s-.9,26.8,1.3,26.4,35.8.8,35.8.8l1.3-29.7" fill="#125d2f"/>
      </g>
    </g>
    <g id="head">
      <path id="head-2" data-name="head" d="M106,49.1s8.9-12.2,42.9-7.4c0,0,3.2-1.7,3.7,4.4.2,2.3,1.6,17.2,1.6,17.2l7.7,25.9s-36.2,40.3-50.5,3.5C110.4,90.1,101,72.1,106,49.1Z" fill="#eecb9b" stroke="#eac179" stroke-miterlimit="10"/>
      <path id="lip" d="M125.8,86c.1-.5,2.4-7,9.4-1.8,0,0,2.3,3.5-.1,3.8s-4.1-2.4-7.7,1.5C127.4,89.5,125.3,90.4,125.8,86Z" fill="#e4273a" stroke="#c42127" stroke-miterlimit="10"/>
      <path id="brow-r" d="M134.6,56.6s13-2.2,16.9,5.3l-17.3-2.5A3.9,3.9,0,0,1,134.6,56.6Z"/>
      <path id="brow-l" d="M123,56.3s-13.2-.5-15.9,7.8l16.8-4.9A4.1,4.1,0,0,0,123,56.3Z"/>
      <path id="eye-r" d="M133.8,68h2.3s4.8,3.1,10.9-.4h2.2S142.1,75.2,133.8,68Z"/>
      <path id="eye-l" d="M126.1,68h-2.3a10.8,10.8,0,0,1-10.8-1h-2.3S117.4,74.7,126.1,68Z"/>
      <path id="hair" d="M126.3,9.4s24.7,2.9,39.6,16.3l1.6,38.6-5.3,24.6-7.8-25-2-20.3s-32.6-6.3-46.1,6.4c0,0-3.8,10.2-1.1,20.7a73.7,73.7,0,0,1-2.4-23.5S84.4,44.4,88.1,22.3c0,0,3.7,5.3,7.5,5,0,0-4.8-7-3.6-14a42.4,42.4,0,0,1,19.2,4.2,11.8,11.8,0,0,1-1.4-6.5s10.7-.4,19.8,3.9Z" fill="#1a100a"/>
    </g>
  </g>
  <g id="wife">
    <path id="leg-r" d="M82.8,250.1s3.4,27.3.3,43.7c0,0,5.1,56.5,1.3,70.7h-11l-6-112.8Z" fill="#eecb9b" stroke="#eac179" stroke-miterlimit="10"/>
    <path id="leg-l" d="M63,250s3.2,27.3.3,43.7c0,0,4.9,56.5,1.2,70.7H54.2L48.4,251.6Z" fill="#eecb9b" stroke="#eac179" stroke-miterlimit="10"/>
    <path id="skirt" d="M28.7,279.3s75,1.3,76.2,0,1.1-17.4-4.8-31.5-10.7-14.9-11.2-26.6l-44.2-1s2.3,8.3-11,27.6C33.7,247.8,29,254.3,28.7,279.3Z" fill="#3a342a"/>
    <path id="neck-2" data-name="neck" d="M90.4,158.6S79.2,154,78.6,149l-1.7-11.3-2.2,1.1-1.6.5-1.7.3H69.8l-2.7-.4-2-.6-1.5-.7-1.5-.9-2.4,9a30.6,30.6,0,0,1-8.9,9.1Z" fill="#eecb9b" stroke="#eac179" stroke-miterlimit="10"/>
    <path id="shirt" d="M45.1,220.2H88.8s1.8-12.5,5.5-17.7,4-18,4-18l-.9,16.9,13.2,12.2c3.5-34.4,0-39.8,0-39.8-2.3-18.5-26.1-20.8-27-21.3H50.5c-1,.5-23,.5-25.3,19,0,0-3.1,3.4-1.9,39.1l14-10-1.6-16.1s.3,12.7,4,18,5.5,17.7,5.5,17.7H88.9" fill="#d0ecec"/>
    <polygon id="cross" points="92.1 173.3 86.6 173.3 86.6 167.8 84.8 167.8 84.8 173.3 79.3 173.3 79.3 175.1 84.8 175.1 84.8 180.6 86.6 180.6 86.6 175.1 92.1 175.1 92.1 173.3" fill="#ed1c24"/>
    <path id="arm-l-2" data-name="arm-l" d="M24.7,213.4s-6.2-15,10.8-13.8l28.3,31.1a14.3,14.3,0,0,1,8,3.1l5.5,5.4s10.1,10.2-5.2,10.8c0,0-3.5-.2-9.9-11.4Z" fill="#eecb9b" stroke="#eac179" stroke-miterlimit="10"/>
    <path id="arm-r" d="M99.2,200.3s15.9-3.1,11.4,13.3L74.5,235.3a13,13,0,0,1-4.7,7.1l-6.3,4.4s-12,7.9-9.6-7.3c0,0,.9-3.4,13.2-7.4Z" fill="#eecb9b" stroke="#eac179" stroke-miterlimit="10"/>
    <g id="head-3" data-name="head">
      <path id="hair-back" d="M60.4,159.7s4-3.8,1.1-12.4-3.1-10.5-2.6-14.8c0,0,1-4.1-2.2-5.7H54a18.3,18.3,0,0,0-1.1,2.6h0l-.6,7.1c-.5,3.3-2.1,6-2.7,7.6a2.5,2.5,0,0,1-.4,1.1c-4,2.9-12,9.1-14.3,13.3,0,0-5.9,10.4-1.7,19.8,0,0,5.4,18.7,25.1,4.9,0,0-14.7,1.1-6.2-11A31.8,31.8,0,0,0,60.4,159.7Z" fill="#533814"/>
      <path id="head-4" data-name="head" d="M97.8,104.1C97.7,103.6,73.3,77,73.3,77L40.9,103.2s7.2,26.2,21.2,33.9a13.3,13.3,0,0,0,14.8.6A70.4,70.4,0,0,0,102.2,111Z" fill="#eecb9b" stroke="#eac179" stroke-miterlimit="10"/>
      <path id="hair-2" data-name="hair" d="M103.7,106S99.8,62.6,75.5,69.7c0,0-21.3-10.6-30.8,15.7,0,0-2.6,1.7-5.2,15,0,0-6.7,15.8-2.2,24.4,0,0,11.4,13.6,1.4,12.7,0,0,6.7,5.9,9-4.5,0,0-8.9-16.9-4.6-25A26.2,26.2,0,0,1,55.5,92.4s8.1-1.8,15.7-12.6c0,0,15.6,15.4,26.9,24.2,0,0,3.9,8.4-.2,15.3,0,0-6.6,8.5-4.5,14.1,0,0,4.5-9.9,9.2-14.6C102.6,118.8,104.5,111.5,103.7,106Z" fill="#533814" stroke="#4b3014" stroke-miterlimit="10"/>
      <path id="eye-r-2" data-name="eye-r" d="M78.4,110.8h2a9.3,9.3,0,0,0,9.3-.1h1.9S85.3,117.1,78.4,110.8Z"/>
      <path id="eye-l-2" data-name="eye-l" d="M64.3,109.5l-2-.2a9.1,9.1,0,0,1-9.2-1.1H51.2S56.7,115,64.3,109.5Z"/>
      <path id="brow-r-2" data-name="brow-r" d="M79.3,99.2s12.6,2.6,15.3,8.8l-16-7A1.9,1.9,0,0,1,79.3,99.2Z"/>
      <path id="brow-l-2" data-name="brow-l" d="M66.5,98.1s-12.9.3-16.6,6l17-4.2A1.7,1.7,0,0,0,66.5,98.1Z"/>
      <path id="lip-2" data-name="lip" d="M65.3,128.4c.5,0,4.1-13.1,9.1,0,0,0-4.3-8-8.6,0" fill="#e4273a" stroke="#c42127" stroke-miterlimit="10"/>
    </g>
  </g>
</svg>
