<?xml version="1.0" encoding="utf-8"?>
<!-- Generator: Adobe Illustrator 24.3.0, SVG Export Plug-In . SVG Version: 6.00 Build 0)  -->
<svg version="1.1" xmlns="http://www.w3.org/2000/svg" xmlns:xlink="http://www.w3.org/1999/xlink" x="0px" y="0px"
	 viewBox="0 0 174.76 396.44" style="enable-background:new 0 0 174.76 396.44;" xml:space="preserve">
<style type="text/css">
	.st0{fill:#EECB9B;stroke:#EAC179;stroke-miterlimit:10;}
	.st1{fill:#E4273A;stroke:#C42127;stroke-miterlimit:10;}
	.st2{fill:#D0ECEC;}
	.st3{fill:#3A342A;}
	.st4{fill:#ED1C24;}
	.st5{fill:#533814;stroke:#4B3014;stroke-miterlimit:10;}
	.st6{fill:#533814;}
	.st7{fill:none;stroke:#000000;stroke-miterlimit:10;}
</style>
<g id="head">
	<g>
		<path class="st0" d="M105.59,60.82c-0.16-0.56-29.37-29.55-29.37-29.55L40.73,62.77c0,0,9.61,29.48,25.94,37.46
			c0,0,8,5.81,16.84-0.05c0,0,17.45-10.6,27.45-31.72L105.59,60.82z"/>
		<path class="st0" d="M99.96,123.17c0,0-12.99-4.55-13.86-10.26l-2.6-12.73l-2.44,1.35l-1.79,0.66l-1.9,0.43l-1.83,0.17l-3.14-0.25
			l-2.21-0.58l-1.83-0.75l-1.7-0.97l-2.25,10.34c0,0-4.73,11.66-25.11,10.15L99.96,123.17z"/>
	</g>
	<g id="eyes">
		<path d="M50.88,56.87c0,0,15.87,1.63,19.92,8.9L50.88,56.87z"/>
		<path d="M99.31,58.11c0,0-15.95-0.37-20.88,6.33L99.31,58.11z"/>
		<path d="M53.31,69.24c0,0,10.98-1.03,15.39,0.47C68.71,69.71,63.17,63.98,53.31,69.24z"/>
		<path d="M58.34,71.85c0,0,2.91,3.1,6.57,0c0,0,1.02-2.03,0-3.75l-6.57-0.12C58.34,67.97,57.21,69.97,58.34,71.85z"/>
		<path d="M54.33,68.73c0,0-1.2-1.12-0.55-3.44c0,0-0.21,2.34,0.75,3.44"/>
		<path d="M56.33,68.65c0,0-1.2-1.12-0.55-3.44c0,0-0.21,2.34,0.75,3.44"/>
		<path d="M55.35,68.8c0,0-1.2-1.12-0.55-3.44c0,0-0.21,2.34,0.75,3.44"/>
		<path d="M57.35,68.37c0,0-1.2-1.12-0.55-3.44c0,0-0.21,2.34,0.75,3.44"/>
		<path d="M58.3,68.62c0,0-1.2-1.12-0.55-3.44c0,0-0.21,2.34,0.75,3.44"/>
		<path d="M60.23,68.37c0,0-1.2-1.12-0.55-3.44c0,0-0.21,2.34,0.75,3.44"/>
		<path d="M59.24,68.17c0,0-1.2-1.12-0.55-3.44c0,0-0.21,2.34,0.75,3.44"/>
		<path d="M61.38,68.37c0,0-1.2-1.12-0.55-3.44c0,0-0.21,2.34,0.75,3.44"/>
		<g>
			<path d="M96.88,70.56c0,0-10.98-1.03-15.39,0.47C81.49,71.03,87.03,65.31,96.88,70.56z"/>
			<path d="M91.86,73.17c0,0-2.91,3.1-6.57,0c0,0-1.02-2.03,0-3.75l6.57-0.12C91.86,69.3,92.99,71.29,91.86,73.17z"/>
			<path d="M95.87,70.05c0,0,1.2-1.12,0.55-3.44c0,0,0.21,2.34-0.75,3.44"/>
			<path d="M93.87,69.98c0,0,1.2-1.12,0.55-3.44c0,0,0.21,2.34-0.75,3.44"/>
			<path d="M94.85,70.12c0,0,1.2-1.12,0.55-3.44c0,0,0.21,2.34-0.75,3.44"/>
			<path d="M92.85,69.69c0,0,1.2-1.12,0.55-3.44c0,0,0.21,2.34-0.75,3.44"/>
			<path d="M91.9,69.94c0,0,1.2-1.12,0.55-3.44c0,0,0.21,2.34-0.75,3.44"/>
			<path d="M89.97,69.69c0,0,1.2-1.12,0.55-3.44c0,0,0.21,2.34-0.75,3.44"/>
			<path d="M90.95,69.5c0,0,1.2-1.12,0.55-3.44c0,0,0.21,2.34-0.75,3.44"/>
			<path d="M88.81,69.69c0,0,1.2-1.12,0.55-3.44c0,0,0.21,2.34-0.75,3.44"/>
		</g>
		<path class="st0" d="M76.91,61.32c0,0-1.83,1.77,0,4.92"/>
		<path class="st0" d="M72.13,61.32c0,0,2.82,2.75,0,4.92"/>
	</g>
	<path class="st1" d="M67.1,91.29c0.37,0.07,6.99-20.9,14.17,0H67.1z"/>
</g>
<g id="legs">
	<path class="st0" d="M100.53,211.63c0,0,5.29,41.86,0.51,67.01c0,0,7.84,86.68,1.92,108.41l-16.79,0.13L76.9,214.04L100.53,211.63z
		"/>
	<path class="st0" d="M70.1,211.54c0,0,5.02,41.87,0.51,67.01c0,0,7.45,86.69,1.86,108.41l-15.87,0.12l-8.83-173.14L70.1,211.54z"/>
</g>
<g id="body">
	<path class="st2" d="M49.22,191.62h53.68c-1.88-12.39,1.88-18.77,1.88-18.77s0,1.88,5.63-6.76c5.63-8.63,20.27-3.75,20.27-3.75
		c4.5-22.15-5.26-39.42-5.26-39.42c-6.01-18.4-31.53-11.26-32.66-11.26c0,0-18.84,9.01-33.86,0c-0.97-0.58-26.65-7.13-32.66,11.26
		c0,0-9.76,17.27-5.26,39.42c0,0,14.64-4.88,20.27,3.75c5.63,8.63,5.63,6.76,5.63,6.76s3.75,6.38,1.88,18.77h53.68"/>
	<path class="st3" d="M29.63,260.69h93.1c0,0,3.38-19.9-6.38-37.17s-11.26-13.51-13.14-31.91H49.15c0,0,1.5,9.01-13.51,34.54
		C35.63,226.16,29.63,236.29,29.63,260.69z"/>
	<g>
		<rect x="89.01" y="133.65" class="st4" width="12.78" height="1.77"/>
		
			<rect x="89.01" y="133.65" transform="matrix(-1.836970e-16 1 -1 -1.836970e-16 229.9329 39.1401)" class="st4" width="12.78" height="1.77"/>
	</g>
</g>
<g id="hair">
	<path class="st5" d="M112.39,62.62c0,0-6.8-49.13-34.08-39.8c0,0-24.81-10.88-34.27,19.48c0,0-2.83,2.08-5.09,17.36
		c0,0-6.78,18.39-1.13,27.95c0,0,13.67,14.83,2.16,14.36c0,0,7.98,6.36,10.11-5.63c0,0-11.05-18.75-6.64-28.17
		c0,0,2.21-11.71,13.28-18.4c0,0,9.17-2.55,17.27-15.22c0,0,18.54,16.67,31.88,26.17c0,0,4.93,9.35,0.58,17.41
		c0,0-6.99,9.97-4.32,16.29c0,0,4.49-11.53,9.66-17.18C111.8,77.23,113.58,68.86,112.39,62.62z"/>
	<path class="st5" d="M62.84,97.83c0,0-4.34-1.27-7.08-5.96l-0.65,16.08c0,0-15.1,11.28-18.29,17.93c0,0-6.17,12.19-0.92,22.65
		c0,0,7.2,20.97,28.92,4.28c0,0-16.74,2.07-7.74-12.21c0,0,5.89-5.31,8.82-14.5c0,0,2.54-4.08,0.57-14.22S62.46,102.75,62.84,97.83z
		"/>
	<path class="st6" d="M55.8,90.89c0,0,0.27,15.24-2.97,17.87c-3.24,2.63,9.75,4.54,9.75,4.54L55.8,90.89z"/>
</g>
<g id="arms">
	<path class="st0" d="M20.46,161.83c0,0,21.02-29.66,34.91-41.3c0,0,6.76-14.64,14.64-9.39c0,0,10.14,1.13,17.64-4.88
		c7.51-6.01,8.63,0,8.63,0s-1.88,7.13-11.26,14.27c0,0-1.5,3.28-11.26,6.52c0,0-4.5,1.26-9.76,0c0,0-17.64,39.28-25.9,45.29
		C38.1,172.34,11.45,199.74,20.46,161.83z"/>
	<path class="st0" d="M131.5,161.83c0,0-21.02-29.66-34.91-41.3c0,0-6.76-14.64-14.64-9.39c0,0-10.14,1.13-17.64-4.88
		s-8.63,0-8.63,0s1.88,7.13,11.26,14.27c0,0,1.5,3.28,11.26,6.52c0,0,4.5,1.26,9.76,0c0,0,17.64,39.28,25.9,45.29
		C113.85,172.34,140.51,199.74,131.5,161.83z"/>
</g>
<g id="Layer_7">
	<g>
		<path class="st7" d="M26.25,18.52c0.25,0.13,7.6,2.13,7.72-7.49"/>
		<path class="st7" d="M43.69,18.52c-0.25,0.13-7.6,2.13-7.72-7.49"/>
		<path class="st7" d="M26.25,20.68c0.25-0.13,7.6-2.13,7.72,7.49"/>
		<path class="st7" d="M43.69,20.68c-0.25-0.13-7.6-2.13-7.72,7.49"/>
	</g>
	<g>
		<path d="M118.01,103.76c0,0,7.81,6.26,5.27-3.8c0,0-4.55-5.44-8.61-8.69C114.67,91.28,115.39,99.47,118.01,103.76z"/>
		<path d="M126.21,98.73c0,0,9.83,1.6,2.68-5.93c0,0-6.61-2.5-11.73-3.32C117.16,89.48,121.82,96.28,126.21,98.73z"/>
		<path d="M130.5,90.23c0,0,9.46-2.98-0.26-6.53c0,0-7,0.73-11.92,2.29C118.32,85.98,125.51,89.99,130.5,90.23z"/>
	</g>
	<g>
		<path class="st7" d="M144.75,78.52c0.25,0.13,7.6,2.13,7.72-7.49"/>
		<path class="st7" d="M162.19,78.52c-0.25,0.13-7.6,2.13-7.72-7.49"/>
		<path class="st7" d="M144.75,80.68c0.25-0.13,7.6-2.13,7.72,7.49"/>
		<path class="st7" d="M162.19,80.68c-0.25-0.13-7.6-2.13-7.72,7.49"/>
	</g>
	<path class="st7" d="M10.61,172.67c0,0-4.42,4.34,0,9.5"/>
	<path class="st7" d="M5.81,170.49c0,0-6.39,7.99,0,14.26"/>
	<path class="st7" d="M139.2,135.97c0,0,4.42,4.34,0,9.5"/>
	<path class="st7" d="M143.99,133.8c0,0,6.39,7.99,0,14.26"/>
</g>
</svg>
