<svg id="_4-3" data-name="4-3" xmlns="http://www.w3.org/2000/svg" viewBox="0 0 546.2 288.3">
  <g id="bath">
    <path id="body" d="M40,101s98.5,48.5,242.1,40.1c0,0,135.7,3.7,217.4-40.1,0,0-24.3,57.6-63.1,102l-63.6,29.9H167.2L102.5,203C102.4,203,57.4,143.1,40,101Z" fill="#7ba7a8"/>
    <path id="leg-r" d="M422.3,272s1.7,5.7-4.8,5.9-14.9,0-14.9,0-12.7-.5-16.1-14.6V244.1s1.2-4.5-3.1-5.9a58.9,58.9,0,0,1-7-2.8s-5.9-.6,0-6.8,15.2-12.1,15.2-12.1,20-3.3,17.7-12.1c0,0,2-9.8,17.8-14.9,0,0,3.1,0,3.9,4.2a23.1,23.1,0,0,0,3.1,7.4,7.2,7.2,0,0,1,0,8.1c-2.8,4.5-27,25.9-27,25.9s-3.7,2-3.7,5.7.3,13.5,8.8,18.3C412.2,259.1,423.1,262.2,422.3,272Z" fill="#d5b26d"/>
    <path id="leg-l" d="M117.4,272s-1.7,5.7,4.8,5.9,14.9,0,14.9,0,12.7-.5,16-14.6V244.1s-1.1-4.5,3.1-5.9a56.8,56.8,0,0,0,7.1-2.8s5.9-.6,0-6.8-15.2-12.1-15.2-12.1-20-3.3-17.8-12.1c0,0-1.9-9.8-17.7-14.9,0,0-3.1,0-3.9,4.2a23.1,23.1,0,0,1-3.1,7.4,7,7,0,0,0,0,8.1c2.8,4.5,27,25.9,27,25.9s3.6,2,3.6,5.7-.2,13.5-8.7,18.3C127.5,259.1,116.5,262.2,117.4,272Z" fill="#d5b26d"/>
    <path id="rim-back" d="M9,69.1S21.4,51,51.8,53.3c0,0,.5-3.4,115.4,28.1,0,0,106.4,25.9,229.2-6.7,0,0,90.7-28,108.7-21.6s25.9,16,25.9,16,7.3,2.2,0,8.9-48.8,46.2-145.2,56.3-190.2,9.6-237.7-1.1c0,0-67.1-9.8-108.2-32.2C40,101-.6,77.6,9,69.1Z" fill="#f0ebd5"/>
  </g>
  <path id="neck" d="M139.6,89.7s-16.3,1.2-20.1-3.1c0,0-10.6-8.4-11.8-11.4-3.2-7.7-17.8.4-12.3,6.8,2.4,2.9,4.5,14.3,4.5,14.3s.5-1.8-5.6,5.8C93,103.8,139.6,89.7,139.6,89.7Z" fill="#eecb9b" stroke="#eac179" stroke-miterlimit="10"/>
  <g id="arm-r">
    <path d="M121.1,96.9l14.1-8.3s11.7-8.5,21.5.9S182,112,182,112s-24-.6-24.7,0-26.9-4.1-27.8-5.1-8.4-10-8.4-10" fill="#eecb9b" stroke="#eac179" stroke-miterlimit="10"/>
  </g>
  <g id="bubble">
    <circle id="circle-r" cx="311.5" cy="111" r="18.7" fill="#e1f2ef" stroke="#000" stroke-miterlimit="10"/>
    <circle id="circle-l" cx="259.4" cy="114.6" r="18.7" fill="#e1f2ef" stroke="#000" stroke-miterlimit="10"/>
    <path id="bubble-l" d="M138.7,103.6s4.1-8.5,9,0c0,0,1.5-7,6.4-2.6,0,0,5.4-11.2,11.6,0,0,0,5.4-18.7,13.5-1.2,0,0,9-6.8,10.9,3.8,0,0,4.1-5.7,7.3-1.4,0,0,5.8-9.3,10.7,0,0,0,7-3.9,4.5,6.2,0,0,4-4.7,5.7,0,0,0,4.3-10.5,13.1,0,0,0-6.6,4.2-5.1,9.6,0,0-3.9,1.3-3.4,5.1,0,0-65.3,3.5-136-27.4,0,0,2.6-5.5,6.7-1.2,0,0-.4-11.4,8.1-3.5,0,0,3-4.5,6,.2,0,0,3.6-7.9,6.8.7,0,0,4.5-8.6,6.3,1.1,0,0,3.4-6.5,4.9-.2,0,0,5.8-5.4,6.2,2.9,0,0,.4-8.7,5.4-2.3,0,0-.1-9.8,5.5-1.6,0,0,5.2-5.3,6.6,2.7,0,0,6.2-7.7,10.1,1.2" fill="#e1f2ef" stroke="#000" stroke-miterlimit="10"/>
  </g>
  <path id="rim-front" d="M531,69.1s-7.9-9.6-25.9-16c-10.9-3.9-48.2,4.8-76.1,12.2l20.9-.8c34.3-14.6,54.6-3.9,54.6-3.9-21.4,37.1-130.6,58-130.6,58-40,9-125,3.9-125,3.9C133.4,128.7,58.5,80.3,58.5,80.3l91.1-3.7C52.3,50.2,51.8,53.2,51.8,53.2,21.4,51,9,69.1,9,69.1-.6,77.6,40,101,39.9,101c41.1,22.4,108.2,32.2,108.2,32.2,47.5,10.7,141.3,11.3,237.7,1.1S523.7,84.8,531,78,531,69.1,531,69.1Z" fill="#f0ebd5"/>
  <path id="rim" d="M58.5,80.3s74.9,48.4,190.4,42.2c0,0,85,5.1,125-3.9,0,0,109.2-20.9,130.6-58,0,0-20.3-10.7-54.6,3.9" fill="none" stroke="#000" stroke-miterlimit="10"/>
  <path id="bubble-r" d="M227.1,115.9s-4.1-17.5,7.6-3.7c0,0-2.4-13.4,4.8-3.2,0,0,2.4-12.5,9-1.8,0,0,4.7-3.6,4.5,3.5,0,0,5.8-.9,5.2,3.2,0,0-2.4,0-3.8,5,0,0,6.4-12.5,11.6,2.1,0,0,.6-3.7-5.8-9,0,0-.2-2.6-5.2-3.5,0,0,.1-4.2-6.5-4.5,0,0-5.8-9.9,9.7-6.9,0,0-2.3-11.6,7.8-6.5,0,0,.2-10.9,8.4-6.1,0,0,5.3-18.6,12.7,0,0,0,10.4-9.4,11,5.3,0,0,7.1-5.8,7.1,4.1,0,0,5.4-3.5,7.4,2.8,0,0,8-10.8,12.3,2.9,0,0,7.4-5.5,7.4,5.2,0,0,3.8-6,7.4,1.1,0,0,4-8.3,8.5-1.1,0,0,4.4-6.4,9-1,0,0,.2-7.1,7.4-3.3,0,0,.8-9.6,8.9-1.9,0,0,5.6-15.5,13.8,0,0,0,4.3-5.2,10.1,1,0,0,1.2-5.3,6-2.3,0,0-2.6-11.2,9.5-7.3,0,0,.8-16.6,13.4-5.2,0,0,7.6-6,6.4,5.6,0,0,1.9-7.1,7.9-3.2,0,0,2.4-14.9,8.8-.7,0,0,3-4.9,6.7.4,0,0-2.9-5.1,0-4.1,0,0-4.1-18.7,12.8-7.5,0,0,3-3,6,2.2,0,0-2-12.4,8.3-5.8,0,0,3.6-6.4,9-1.9,0,0,.4-12.8,12.3-4.2,0,0-37.8,30-72.5,40.3,0,0-56.1,18.4-98.3,18.6,0,0-.6-9.5-7.8-5,0,0-3.4-7.5-7.9-.2,0,0,5.5-6.7,7.1,2.2,0,0,7.2-5.4,6.6,3,0,0-5,1.3-4,5.2,0,0,6.6-10.2,6.2,1.7,0,0,9.7,1.9-1.2,11,0,0,1.8,16.2-6.2,4.7,0,0-10.9,3.3-11.9-3.2,0,0-3.2,2.6-4.8,0a3.4,3.4,0,0,1-3,2.8s2,8.8-5,6.9c0,0,1,5.2-2.4,5.6,0,0-1,11.9-5.9,2.2,0,0-6.4,4.1-4.2-7.8,0,0-5.4,2.8-4.6-3,0,0-2.8,1.9-4.2-3,0,0-5.4,21.5-13.3-.7,0,0-1.6.2-2-3.7,0,0-4.6,12.3-7.8-.6,0,0,.8,3.9-5.2,3,0,0,2,5.2-3.7,2.4,0,0,2.2,3-2,3.9,0,0,7.1,7.5-2.8,6.9,0,0,1,15.9-5,3.2,0,0-2.8-2.6-1.2-7.3,0,0-6.6,3.4-6-3.9,0,0-5.5-.9-4.3-7.3,0,0-11.6-10-2-14.3,0,0-15.6-4.3-.6-10.1C224.6,119.1,218,107.5,227.1,115.9Z" fill="#e1f2ef" stroke="#000" stroke-miterlimit="10"/>
  <g id="head">
    <path id="hair-back" d="M89.3,82.9s-3.2,2-8-.5c0,0,9,12.6,9.4,16.6.5,6.4-6.7,17.7-5.8,25,0,0,1.4,13.6,11.4,19.6,0,0,17.4,13.8,26.7-12,0,0-13,10.8-13.1-6.1a35.7,35.7,0,0,0-.4-17s0-4.8-7.1-12.3S91.6,87.3,89.3,82.9Z" fill="#533814" stroke="#4b3014" stroke-miterlimit="10"/>
    <path id="head-2" data-name="head" d="M107.8,28.5c-.4-.4-18.8-13.7-41.2-7.4C56.1,24.1,47.5,55,53.3,65.4s24.9,23,43,20.9a15.1,15.1,0,0,0,14.1-9.1,80.3,80.3,0,0,0,6.1-41.5Z" fill="#eecb9b" stroke="#eac179" stroke-miterlimit="10"/>
    <path id="lip" d="M87.6,78.4c.6-.4,1.4-11.7,21-14.2" fill="none" stroke="#c42127" stroke-miterlimit="10"/>
    <g id="eye-l">
      <path id="pupil-l" d="M74,66.9s4.1,1,5.5-3.6a4.1,4.1,0,0,0-2-3.1l-5.6,3.4A4.1,4.1,0,0,0,74,66.9Z"/>
      <path id="lid-l" d="M81.6,59.5a10.9,10.9,0,0,0-8,1.9,11.2,11.2,0,0,1-1.2-1.7,3.4,3.4,0,0,0,1,1.8l-.7.6a7.9,7.9,0,0,1-1.3-1.8,4.8,4.8,0,0,0,1.1,1.9,1,1,0,0,1-.5.4,6.4,6.4,0,0,1-1.5-1.9,4.5,4.5,0,0,0,1.3,2.1l-.5.6a10.7,10.7,0,0,1-1.4-1.8,3.6,3.6,0,0,0,1.2,1.9l-.4.5A7.9,7.9,0,0,1,69,61.9a3.3,3.3,0,0,0,1.6,2.2l-.5.7a6,6,0,0,1-1.8-2.2A4.3,4.3,0,0,0,69.9,65l-.4.6a6.3,6.3,0,0,1-2-2.3,3.5,3.5,0,0,0,1.9,2.4l-.4.5c-1.3-.4-2.4-2.4-2.4-2.4a3.4,3.4,0,0,0,2.3,2.6h0l-.6,1S77,60.6,81.6,59.5Z"/>
    </g>
    <g id="eye-r">
      <path id="pupil-r" d="M103,49.9a4.7,4.7,0,0,1-5.6,3.6,4.5,4.5,0,0,1-2-3.2l5.5-3.6A4.2,4.2,0,0,1,103,49.9Z"/>
      <path id="lid-r" d="M104.6,45.2h.1a3.4,3.4,0,0,0-1.4-3.2s1.4,1.8,1.2,3.2h-.6a3.9,3.9,0,0,0-1.4-2.7,7.6,7.6,0,0,1,1.2,2.7l-.7.2a4,4,0,0,0-1.5-2.5,6.9,6.9,0,0,1,1.2,2.5l-.8.2a3.2,3.2,0,0,0-1.4-2.4,6,6,0,0,1,1.2,2.5l-.5.2a5.2,5.2,0,0,0-1.3-2,8.3,8.3,0,0,1,1,2l-.7.3a3.5,3.5,0,0,0-1.4-2.1,5.9,5.9,0,0,1,1.2,2.2l-.6.3a5,5,0,0,0-1.3-1.9,6.5,6.5,0,0,1,1,2l-.7.4a4.5,4.5,0,0,0-1.3-1.7,5.5,5.5,0,0,1,1,1.8,11,11,0,0,0-5,6.4C96,50.1,105.8,45,105.8,45Z"/>
    </g>
    <path id="brow-l" d="M60.7,64.2S70.9,52,79.2,52.6Z"/>
    <path id="brow-r" d="M108.7,36.6s-15.8,1.7-19.8,9Z"/>
    <path id="hair" d="M114.6,30S82.4-7.7,64.4,14.8c0,0-26.7,4.2-18.4,34.8,0,0-1.2,3.3,5.1,17.4,0,0,4.1,19.2,14.1,24.2,0,0,19.5,5.1,9.5,10.9,0,0,10.2,1.1,5.5-10.2,0,0-19.4-9.8-20.8-20.1a30.3,30.3,0,0,1,1.3-22.7S67.1,42,67.1,27c0,0,24.6,4.1,41,4.9,0,0,9.1,5.2,9.8,14.4,0,0-.5,12.1,5.1,16,0,0-2.4-12.1-1.1-19.7C121.9,42.7,118.9,34.6,114.6,30Z" fill="#533814" stroke="#4b3014" stroke-miterlimit="10"/>
  </g>
  <g id="arm-l">
    <path d="M79.9,112s-8-23.6,15.3-17.7l37.9,52.9a21.7,21.7,0,0,1,10.8,6.6l7.4,9.3s13.5,17.6-7.6,14.8c0,0-4.7-1.2-13.1-19.4Z" fill="#eecb9b" stroke="#eac179" stroke-miterlimit="10"/>
  </g>
</svg>
