<?xml version="1.0" encoding="utf-8"?>
<!-- Generator: Adobe Illustrator 24.3.0, SVG Export Plug-In . SVG Version: 6.00 Build 0)  -->
<svg version="1.1" xmlns="http://www.w3.org/2000/svg" xmlns:xlink="http://www.w3.org/1999/xlink" x="0px" y="0px"
	 viewBox="0 0 546.23 288.32" style="enable-background:new 0 0 546.23 288.32;" xml:space="preserve">
<style type="text/css">
	.st0{fill:#7BA7A8;}
	.st1{fill:#F0EBD5;}
	.st2{fill:#D5B26D;}
	.st3{fill:none;stroke:#000000;stroke-miterlimit:10;}
	.st4{fill:#EECB9B;stroke:#EAC179;stroke-miterlimit:10;}
	.st5{fill:none;stroke:#C42127;stroke-miterlimit:10;}
	.st6{fill:#E1F2EF;stroke:#000000;stroke-miterlimit:10;}
	.st7{fill:#533814;stroke:#4B3014;stroke-miterlimit:10;}
	.st8{fill:#533814;}
</style>
<g id="bath">
	<path class="st0" d="M39.95,101.01c0,0,98.55,48.53,242.14,40.08c0,0,135.71,3.74,217.36-40.08c0,0-24.21,57.54-63.07,102.03
		l-63.63,29.85H167.21l-64.76-29.85C102.45,203.03,57.4,143.14,39.95,101.01z"/>
	<path class="st1" d="M8.97,69.08c0,0,12.39-18.09,42.8-15.83c0,0,0.56-3.38,115.44,28.16c0,0,106.43,25.9,229.19-6.76
		c0,0,90.66-27.98,108.68-21.59s25.9,16.03,25.9,16.03s7.32,2.19,0,8.94s-48.83,46.16-145.21,56.3
		c-96.37,10.15-190.16,9.58-237.71-1.15c0,0-67.02-9.74-108.13-32.16C39.95,101.01-0.61,77.58,8.97,69.08z"/>
	<path class="st2" d="M117.37,272.02c0,0-1.69,5.63,4.79,5.91c6.48,0.28,14.92,0,14.92,0s12.67-0.56,16.05-14.64v-19.15
		c0,0-1.13-4.5,3.1-5.91c4.22-1.41,7.04-2.82,7.04-2.82s5.91-0.56,0-6.76c-5.91-6.19-15.2-12.11-15.2-12.11s-19.99-3.38-17.74-12.11
		c0,0-1.97-9.85-17.74-14.92c0,0-3.1,0-3.94,4.22c-0.84,4.22-3.1,7.32-3.1,7.32s-2.82,3.66,0,8.17c2.82,4.5,27.03,25.9,27.03,25.9
		s3.66,1.97,3.66,5.63s-0.28,13.51-8.73,18.3C127.51,259.06,116.53,262.16,117.37,272.02z"/>
	<path class="st2" d="M422.3,272.02c0,0,1.69,5.63-4.79,5.91c-6.48,0.28-14.92,0-14.92,0s-12.67-0.56-16.05-14.64v-19.15
		c0,0,1.13-4.5-3.1-5.91c-4.22-1.41-7.04-2.82-7.04-2.82s-5.91-0.56,0-6.76c5.91-6.19,15.2-12.11,15.2-12.11s19.99-3.38,17.74-12.11
		c0,0,1.97-9.85,17.74-14.92c0,0,3.1,0,3.94,4.22c0.84,4.22,3.1,7.32,3.1,7.32s2.82,3.66,0,8.17c-2.82,4.5-27.03,25.9-27.03,25.9
		s-3.66,1.97-3.66,5.63s0.28,13.51,8.73,18.3C412.17,259.06,423.15,262.16,422.3,272.02z"/>
	<g id="Layer_10">
		<path class="st3" d="M58.53,80.27c0,0,74.89,48.43,190.33,42.23c0,0,85.03,5.07,125.01-3.94c0,0,109.25-20.84,130.64-58
			c0,0-20.27-10.7-54.62,3.94"/>
	</g>
</g>
<g id="arm2">
	<path class="st4" d="M121.06,96.85l14.14-8.24c0,0,11.7-8.49,21.5,0.86c9.79,9.35,25.34,22.52,25.34,22.52s-24.03-0.56-24.78,0
		c-0.75,0.56-26.84-4.13-27.78-5.07C128.54,105.99,121.06,96.85,121.06,96.85"/>
</g>
<g id="head">
	<g>
		<path class="st4" d="M107.88,32.15c-0.43-0.38-40.65-9.12-40.65-9.12L54.26,68.69c0,0,23.96,19.69,42.01,17.63
			c0,0,9.87,0.6,14.17-9.1c0,0,9.01-18.32,6.08-41.5L107.88,32.15z"/>
		<path class="st4" d="M136.68,87.75c0,0-13.4,3.15-17.2-1.19l-9.04-9.34l-1.33,2.45l-1.15,1.52l-1.37,1.38l-1.45,1.13l-2.78,1.47
			l-2.18,0.7l-1.94,0.35l-1.96,0.1l3.67,9.93c0,0,2.29,12.37-15.71,22.06L136.68,87.75z"/>
	</g>
	<g id="eyes">
		<path d="M60.69,64.24c0,0,10.18-12.28,18.47-11.61L60.69,64.24z"/>
		<path d="M108.72,36.55c0,0-15.85,1.76-19.84,9.06L108.72,36.55z"/>
		<path d="M68.35,67.37c0,0,8.7-6.78,13.23-7.88C81.58,59.49,73.83,57.64,68.35,67.37z"/>
		<path d="M73.98,66.86c0,0,4.12,1.05,5.54-3.53c0,0-0.23-2.26-2.02-3.17l-5.6,3.44C71.9,63.6,72.02,65.89,73.98,66.86z"/>
		<path d="M68.93,66.39c0,0-1.62-0.3-2.31-2.61c0,0,1.08,2.09,2.48,2.5"/>
		<path d="M70.57,65.25c0,0-1.62-0.3-2.31-2.61c0,0,1.08,2.09,2.48,2.5"/>
		<path d="M69.83,65.9c0,0-1.62-0.3-2.31-2.61c0,0,1.08,2.09,2.48,2.5"/>
		<path d="M71.28,64.46c0,0-1.62-0.3-2.31-2.61c0,0,1.08,2.09,2.48,2.5"/>
		<path d="M72.22,64.17c0,0-1.62-0.3-2.31-2.61c0,0,1.08,2.09,2.48,2.5"/>
		<path d="M73.71,62.91c0,0-1.62-0.3-2.31-2.61c0,0,1.08,2.09,2.48,2.5"/>
		<path d="M72.77,63.28c0,0-1.62-0.3-2.31-2.61c0,0,1.08,2.09,2.48,2.5"/>
		<path d="M74.68,62.29c0,0-1.62-0.3-2.31-2.61c0,0,1.08,2.09,2.48,2.5"/>
		<g>
			<path d="M105.79,45.05c0,0-9.81,5.04-12.72,8.67C93.07,53.72,94.66,45.92,105.79,45.05z"/>
			<path d="M102.96,49.94c0,0-0.79,4.18-5.54,3.53c0,0-1.96-1.16-2.02-3.17l5.48-3.63C100.88,46.68,102.9,47.76,102.96,49.94z"/>
			<path d="M104.66,45.16c0,0,0.41-1.59-1.39-3.19c0,0,1.44,1.86,1.22,3.3"/>
			<path d="M102.93,46.17c0,0,0.41-1.59-1.39-3.19c0,0,1.44,1.86,1.22,3.3"/>
			<path d="M103.84,45.77c0,0,0.41-1.59-1.39-3.19c0,0,1.44,1.86,1.22,3.3"/>
			<path d="M101.92,46.48c0,0,0.41-1.59-1.39-3.19c0,0,1.44,1.86,1.22,3.3"/>
			<path d="M101.26,47.21c0,0,0.41-1.59-1.39-3.19c0,0,1.44,1.86,1.22,3.3"/>
			<path d="M99.49,48.03c0,0,0.41-1.59-1.39-3.19c0,0,1.44,1.86,1.22,3.3"/>
			<path d="M100.22,47.34c0,0,0.41-1.59-1.39-3.19c0,0,1.44,1.86,1.22,3.3"/>
			<path d="M98.52,48.65c0,0,0.41-1.59-1.39-3.19c0,0,1.44,1.86,1.22,3.3"/>
		</g>
		<path class="st4" d="M83.99,48c0,0-0.59,2.47,2.65,4.15"/>
		<path class="st4" d="M79.95,50.58c0,0,3.85,0.81,2.65,4.15"/>
	</g>
	<path class="st5" d="M87.62,78.43c0.57-0.45,1.37-11.76,20.96-14.28"/>
</g>
<g id="bubble">
	<circle class="st6" cx="259.43" cy="114.61" r="18.68"/>
	<circle class="st6" cx="311.48" cy="111.02" r="18.68"/>
	<path class="st6" d="M227.15,115.87c0,0-4.18-17.47,7.57-3.67c0,0-2.39-13.37,4.78-3.24c0,0,2.39-12.51,8.96-1.73
		c0,0,4.78-3.67,4.58,3.45c0,0,5.77-0.86,5.18,3.24c0,0-2.39,0-3.78,4.96c0,0,6.37-12.51,11.55,2.16c0,0,0.6-3.74-5.77-9.09
		c0,0-0.2-2.55-5.18-3.42c0,0,0.03-4.21-6.57-4.53c0,0-5.77-9.92,9.76-6.9c0,0-2.36-11.65,7.78-6.47c0,0,0.18-10.95,8.35-6.12
		c0,0,5.38-18.63,12.74,0c0,0,10.35-9.4,10.95,5.26c0,0,7.17-5.82,7.17,4.1c0,0,5.38-3.45,7.37,2.8c0,0,7.96-10.8,12.35,2.9
		c0,0,7.37-5.43,7.37,5.21c0,0,3.78-5.96,7.37,1.16c0,0,3.98-8.35,8.56-1.16c0,0,4.38-6.39,8.96-1c0,0,0.2-7.12,7.37-3.24
		c0,0,0.8-9.66,8.96-1.92c0,0,5.58-15.51,13.74,0c0,0,4.38-5.22,10.15,0.94c0,0,1.19-5.27,5.97-2.26c0,0-2.59-11.21,9.56-7.33
		c0,0,0.8-16.61,13.34-5.18c0,0,7.57-6.04,6.37,5.61c0,0,1.99-7.12,7.96-3.24c0,0,2.39-14.88,8.76-0.65c0,0,2.99-4.96,6.77,0.43
		c0,0-2.99-5.18,0-4.1c0,0-4.18-18.76,12.74-7.55c0,0,2.99-3.02,5.97,2.16c0,0-1.99-12.32,8.36-5.73c0,0,3.58-6.38,8.96-1.94
		c0,0,0.4-12.82,12.35-4.19c0,0-37.83,29.98-72.48,40.33c0,0-56.15,18.33-98.36,18.55c0,0-0.6-9.49-7.77-4.96
		c0,0-3.38-7.55-7.96-0.22c0,0,5.58-6.69,7.17,2.16c0,0,7.17-5.39,6.57,3.02c0,0-4.98,1.29-3.98,5.18c0,0,6.57-10.14,6.17,1.73
		c0,0,9.76,1.94-1.19,11c0,0,1.79,16.18-6.17,4.74c0,0-10.95,3.24-11.95-3.24c0,0-3.19,2.59-4.78,0c0,0-0.4,2.59-2.99,2.8
		c0,0,1.99,8.84-4.98,6.9c0,0,1,5.18-2.39,5.61c0,0-1,11.86-5.97,2.16c0,0-6.37,4.1-4.18-7.76c0,0-5.38,2.8-4.58-3.02
		c0,0-2.79,1.94-4.18-3.02c0,0-5.38,21.57-13.34-0.65c0,0-1.59,0.22-1.99-3.67c0,0-4.58,12.29-7.77-0.65c0,0,0.8,3.88-5.18,3.02
		c0,0,1.99,5.18-3.79,2.37c0,0,2.19,3.02-1.99,3.88c0,0,7.17,7.55-2.79,6.9c0,0,1,15.96-4.98,3.24c0,0-2.79-2.59-1.19-7.33
		c0,0-6.57,3.45-5.97-3.88c0,0-5.58-0.86-4.38-7.33c0,0-11.55-9.92-1.99-14.23c0,0-15.53-4.31-0.6-10.14
		C224.56,119.1,217.99,107.45,227.15,115.87z"/>
	<path class="st6" d="M138.68,103.55c0,0,4.13-8.45,9.01,0c0,0,1.5-6.96,6.38-2.54c0,0,5.44-11.18,11.64,0
		c0,0,5.44-18.67,13.51-1.21c0,0,9.01-6.76,10.89,3.75c0,0,4.13-5.63,7.32-1.31c0,0,5.82-9.39,10.7,0c0,0,6.95-3.94,4.5,6.19
		c0,0,3.94-4.69,5.63,0c0,0,4.32-10.51,13.14,0c0,0-6.57,4.13-5.07,9.57c0,0-3.94,1.31-3.38,5.07c0,0-65.32,3.57-136.09-27.41
		c0,0,2.63-5.44,6.76-1.13c0,0-0.38-11.45,8.07-3.57c0,0,3-4.5,6.01,0.19c0,0,3.57-7.84,6.76,0.77c0,0,4.5-8.66,6.38,1.1
		c0,0,3.38-6.57,4.88-0.19c0,0,5.82-5.44,6.19,2.82c0,0,0.38-8.63,5.44-2.25c0,0-0.19-9.83,5.44-1.63c0,0,5.26-5.31,6.57,2.76
		c0,0,6.19-7.7,10.14,1.13"/>
</g>
<g id="arm1">
	<path class="st4" d="M79.95,112.01c0,0-8-23.62,15.25-17.71l37.87,52.91c0,0,6.07,1.16,10.79,6.59l7.48,9.33
		c0,0,13.47,17.56-7.59,14.74c0,0-4.77-1.2-13.17-19.38L79.95,112.01z"/>
</g>
<g id="hair">
	<path class="st7" d="M114.59,30.01c0,0-32.16-37.76-50.14-15.23c0,0-26.77,4.17-18.42,34.85c0,0-1.27,3.28,5.04,17.38
		c0,0,4.18,19.15,14.08,24.17c0,0,19.5,5.14,9.55,10.94c0,0,10.15,1.07,5.49-10.18c0,0-19.39-9.86-20.75-20.18
		c0,0-4.44-11.06,1.3-22.66c0,0,6.36-7.08,6.37-22.12c0,0,24.6,4.08,40.96,4.92c0,0,9.18,5.23,9.85,14.36c0,0-0.53,12.16,5.12,16.06
		c0,0-2.42-12.14-1.1-19.68C121.95,42.65,118.95,34.63,114.59,30.01z"/>
	<path class="st7" d="M91.75,86.34c0,0-4.34,1.26-9.17-1.22l8.1,13.9c0,0-6.66,17.63-5.78,24.95c0,0,1.36,13.6,11.41,19.59
		c0,0,17.35,13.8,26.68-11.95c0,0-13,10.75-13.09-6.13c0,0,2.11-7.65-0.36-16.97c0,0-0.05-4.8-7.16-12.3
		C95.27,88.74,94.08,90.7,91.75,86.34z"/>
	<path class="st8" d="M82.09,84.29c0,0,8.42,12.7,7.11,16.67c-1.31,3.96,10.66-1.42,10.66-1.42L82.09,84.29z"/>
</g>
<g id="Layer_12">
</g>
</svg>
