<svg id="_4-5" data-name="4-5" xmlns="http://www.w3.org/2000/svg" viewBox="0 0 474.7 516.9">
  <path id="foot-l" d="M172.6,495.4s28.5-1.9,37.2-1.3,17.6,3.6,30.9,3.6c0,0,36.6,2.5,46.2-1.9,0,0,5.5-2.1,15-1.8s26.1-4,17.7-13.8c0,0-3.4-3-16.9-1.5,0,0-1.7.4-4.9-4.1,0,0,.2-3.6-29.7-2.4,0,0-10.6-.3-25.1-17,0,0-12.3-13.6-39,7.4,0,0-6.6,6-30.6,4.8S172.6,495.4,172.6,495.4Z" fill="#eecb9b" stroke="#eac179" stroke-miterlimit="10"/>
  <path id="foot-r" d="M280.5,452.4s-13.7,5.1-26.3-11.1c0,0-21-15.5-40.5,0,0,0-14.3,9.1-21.9,10a21.7,21.7,0,0,1-17.1-.4s-7.9-4.9-21.6,9.6c0,0,1.3,10.3,39,5.8,0,0,8.3.6,17.7-8.1s26.6-7.3,26.6-7.3,2.6,0,10,7.5,14.4,13.7,23.4,13.9l9,.2S307.9,466.5,280.5,452.4Z" fill="#eecb9b" stroke="#eac179" stroke-miterlimit="10"/>
  <g id="pants">
    <path d="M172.2,382.4l57.3-31.2,79.9,28.6s48.8,13.5,62.4,14.6c0,0,47.6,11.7,67.9,27.4s8.3,35.7,8.3,35.7-12.7,18.3-55.5,23.1c0,0-25.6,10.9-74.2,9.8,0,0,7.8-4.1,1.3-10.2,0,0-2.8-3.4-16.9-1.5l-2-.9-1.8-1.8-1.1-1.4-2.9-1.5-2.6-.6-4.1-.3-3.8-.2h-4.6s-1.8-11.3.7-19.5c0,0-14.5,4.2-26.2-11.1,0,0-19.3-15.7-39.1-1.1s-35.2,12.4-36.8,12-6.4-5.2-15,.1a31.7,31.7,0,0,0-10.3,8.2,34.9,34.9,0,0,0,21.3,3.5s6.5,13.5-.4,33.8c0,0-40.5-.5-56.1-3.1s-29.5-4-54.2-11.6-37.4-15.3-38.4-21.9S3.6,417.5,59.5,408.8c0,0,40.8-12.1,56.5-12.7S179.7,385.9,172.2,382.4Z" fill="#3a342a"/>
  </g>
  <g id="top">
    <path id="chest" d="M273.8,193.4c.2,3.2-.8,41.1-.8,41.1-1.5,9-12,15.2-12,15.2-14.4,10.1-34.5,4.3-34.5,4.3-21.9-3.7-23.3-21.2-23.3-21.2,1.9-31-2.3-46-2.3-46a4.4,4.4,0,0,0-3.4-3.4c6.9-3.2,22.2-9.1,30.5-10.8h23.7c9,3.1,19.1,8.3,27.6,9.8C277.4,185.1,273.7,191.6,273.8,193.4Z" fill="#eecb9b"/>
    <path id="shirt" d="M307.7,379.8s-54.4,25.3-135.5,2.6c0,0,16.5-47.5,17.7-52.2,0,0,4.8-17.4-3.4-30.6,0,0-17.1-6.9-18-32.3,0,0,3.2-3.4,6.5-13.4s7-29.1,6.6-58.6c0-2.8-.1-5.6-.2-8.5,0,0,10.4-5,16.1-3.4a4.4,4.4,0,0,1,3.4,3.4s4.2,15,2.3,46c0,0,1.4,17.5,23.3,21.2,0,0,20.1,5.8,34.5-4.3,0,0,10.5-6.2,12-15.2,0,0,1-37.9.8-41.1s.2-5.8,2.1-8.5,4.3-3.7,8.8-1.8c1.8.7,8.6,2.6,8.6,2.6s2.2.5,1.9,4.9c-.2,2.5-.2,11.6-.1,18.9,0,5.2.1,9.5.1,9.5s0,2,.2,5.1c.5,9.8,2.8,31.3,12.2,41.9a32.8,32.8,0,0,1-17.9,32.3,48.3,48.3,0,0,0-1.5,38.1S303,371,307.7,379.8Z" fill="#d0ecec"/>
    <polygon id="cross" points="292.3 264.5 282.7 264.5 282.7 254.9 279.7 254.9 279.7 264.5 270.1 264.5 270.1 267.6 279.7 267.6 279.7 277.1 282.7 277.1 282.7 267.6 292.3 267.6 292.3 264.5" fill="#ed1c24"/>
  </g>
  <path id="neck" d="M279.3,182.4c-10.1-3.3-17.3-4.8-18.9-14.6,0,0-4.9-16.3-4.8-21.9.3-19.3-30.8-21.7-29,.6.4,4.5-1.3,13.9-3.6,17.8-4.6,8.1-16.6,15.3-25.5,19.1" fill="#eecb9b" stroke="#eac179" stroke-miterlimit="10"/>
  <path id="arm-r" d="M433.7,388.3c-2.2-2.6-16.1-7.5-28.1-29.3,0,0-27.8-47.3-41.7-55.9,0,0-16.9-29.1-24.3-55.5,0,0-12.9-59-46.3-61.3v8.3l.5,24.8,1.7,15.4,2.8,13.5,5.4,14.5,8.1,20.8s16.4,26.6,21,40.1,82.5,77,82.5,77-4.1,57.8,34.2,60.1S433.7,388.3,433.7,388.3Z" fill="#eecb9b" stroke="#eac179" stroke-miterlimit="10"/>
  <path id="arm-l" d="M41,388.8c2.3-2.6,16.2-7.5,28.2-29.3,0,0,27.8-47.3,41.6-55.9,0,0,17-29.1,24.3-55.5,0,0,12.9-59,46.3-61.3v8.3l-.4,24.8-1.7,15.4-2.8,13.4-5.4,14.6L163,284.1s-16.5,26.6-21,40.1-82.6,77-82.6,77,4.2,57.8-34.1,60S41,388.8,41,388.8Z" fill="#eecb9b" stroke="#eac179" stroke-miterlimit="10"/>
  <path id="hair-back" d="M220.3,136.6s-3-20.7-13.3-11.9c0,0,3,29.2-.1,35.4-5,9.8-25.7,19.8-31,31.3,0,0-10.3,21.2-1,39,0,0,13,36,49.9,6.6,0,0-28.7,4-13.6-20.8A61.3,61.3,0,0,0,226,191s4.2-7.1.6-24.5S219.8,145.1,220.3,136.6Z" fill="#533814" stroke="#4b3014" stroke-miterlimit="10"/>
  <g id="head">
    <path id="head-2" data-name="head" d="M292.6,77.6c-.3-1-51.4-50.1-51.4-50.1L180.9,82.7s17.4,50.5,45.7,63.8c0,0,13.9,9.8,29-.6,0,0,29.8-18.7,46.4-55.3Z" fill="#eecb9b" stroke="#eac179" stroke-miterlimit="10"/>
    <path id="eye-r" d="M255.3,93h3.9s8.2,4.9,18.2-1.3h3.7S269.7,104.6,255.3,93Z"/>
    <path id="eye-l" d="M227.6,92.2h-3.9s-8.2,5-18.2-1h-3.8S213.3,103.9,227.6,92.2Z"/>
    <path id="brow-r" d="M255.7,70.2s24.9,3.5,30.9,15.4L254.4,73.7A3.5,3.5,0,0,1,255.7,70.2Z"/>
    <path id="brow-l" d="M230.3,69.5s-25,2.3-31.6,13.9l32.8-10.2A3.7,3.7,0,0,0,230.3,69.5Z"/>
  </g>
  <path id="hair" d="M301.3,66.4c-6.1-23.2-22.3-66-56.7-53.6,0,0-43.1-18-58.5,34.5,0,0-4.7,3.6-8.2,29.2-.2,24.3,8.3,8.5,20.1-8.2a50.4,50.4,0,0,1,10.1-8.5s15.7-4.6,29.4-26.7c0,0,28.5,24.9,51.2,41.2" fill="#533814" stroke="#4b3014" stroke-miterlimit="10"/>
  <path id="hair-r" d="M276.4,65.1c1.4,1,15.2,11.3,16.7,12.2s8.7,16,1.4,30c0,0-11.7,17.4-7,28.2,0,0,7.5-20,16.2-29.9,0,.1,2.8-14.4.6-25.1,0,0-3.4-14.5-5.5-22.7" fill="#533814" stroke="#4b3014" stroke-miterlimit="10"/>
  <path id="hair-l" d="M179.9,65.8c0,.3-1,3.7-2.1,11.5,0,0-11.2,31.9-1.2,48.2,0,0,23.9,25.2,4.1,24.7,0,0,13.9,10.7,17.3-10,0,0-19.6-32-12.2-48.3,0,0,6.1-19.2,17.6-29.2" fill="#533814" stroke="#4b3014" stroke-miterlimit="10"/>
</svg>
