<?xml version="1.0" encoding="utf-8"?>
<!-- Generator: Adobe Illustrator 24.3.0, SVG Export Plug-In . SVG Version: 6.00 Build 0)  -->
<svg version="1.1" xmlns="http://www.w3.org/2000/svg" xmlns:xlink="http://www.w3.org/1999/xlink" x="0px" y="0px"
	 viewBox="0 0 841.89 595.28" style="enable-background:new 0 0 841.89 595.28;" xml:space="preserve">
<style type="text/css">
	.st0{fill:#45413D;}
	.st1{fill:none;stroke:#45413D;stroke-width:13;stroke-miterlimit:10;}
	.st2{fill:#EECB9B;stroke:#EAC179;stroke-miterlimit:10;}
	.st3{fill:#D0ECEC;}
	.st4{fill:#ED1C24;}
	.st5{fill:#533814;stroke:#4B3014;stroke-miterlimit:10;}
	.st6{fill:none;stroke:#EAC179;stroke-miterlimit:10;}
	.st7{fill:none;stroke:#C42127;stroke-miterlimit:10;}
	.st8{fill:none;stroke:#C42228;stroke-miterlimit:10;}
	.st9{fill:#3A342A;}
</style>
<g id="car">
	<path class="st0" d="M530.87,381.98c-5.11-14.77-18.17-25.56-18.17-25.56c-15.33-19.31-57.36-27.64-57.36-27.64h-48.27
		c-11.93-1.51-23.28-5.87-23.28-5.87l-102.79-90.86c-8.52-8.52-14.77-5.68-14.77-5.68s-230-2.27-260.67-0.45
		s-51.68,28.28-51.68,28.28l-42.59,72.12c-18.74,26.69-23.85,76.1-23.85,76.1v44.86c6.25,21.58,23.28,17.61,23.28,17.61
		c-5.68-36.35,18.17-61.33,18.17-61.33c51.68-42.02,95.98-4.54,95.98-4.54c35.21,31.23,23.85,65.88,23.85,65.88h306.67
		c-8.52-41.46,21.01-65.88,21.01-65.88c57.93-36.35,93.7,2.84,93.7,2.84c29.53,26.12,22.15,63.04,22.15,63.04h34.07
		c11.36-1.14,13.06-18.17,13.06-18.17v-38.05C538.82,398.45,530.87,381.98,530.87,381.98z M84.88,315.91l-99.95-5.68
		c0,0-9.84,1.89-4.92-11.74l19.68-30.1c0,0,2.47-10.22,23.48-11.36h68.15c0,0,5.68-1.33,6.06,5.87v45.05
		C97.37,307.96,100.78,319.32,84.88,315.91z M305.6,328.79l-176.81-10.6c0,0-7.61,0.38-8.54-7.19l0.21-47.33
		c0,0-1.89-6.25,5.68-6.72c7.57-0.47,99.95,0,99.95,0s10.22-1.61,25.74,9.37c0,0,54.14,46.57,53.76,47.7
		C305.22,315.16,325.29,327.65,305.6,328.79z"/>
	<circle class="st0" cx="-21.37" cy="453.61" r="30.15"/>
	<circle class="st0" cx="423.54" cy="453.61" r="23.57"/>
	<circle class="st1" cx="423.54" cy="453.61" r="59.61"/>
	<circle class="st1" cx="-21.37" cy="453.61" r="59.61"/>
	<circle class="st0" cx="423.54" cy="453.61" r="30.15"/>
</g>
<g id="face">
	<g>
		<path class="st2" d="M593.83,216.66c0.19-0.56,31.35-29.09,31.35-29.09l35.1,33.79c0,0-11.07,29.85-28.16,37.35
			c0,0-8.45,5.63-17.27-0.75c0,0-17.46-11.6-26.84-33.67L593.83,216.66z"/>
		<path class="st2" d="M597.02,280.86c0,0,13.51-4.13,14.64-9.95l3.19-12.95l2.45,1.48l1.81,0.76l1.93,0.52l1.87,0.25l3.23-0.13
			l2.29-0.51l1.91-0.69l1.79-0.93l1.88,10.7c0,0,4.36,12.15,25.34,11.45H597.02z"/>
	</g>
</g>
<g id="top">
	<path class="st3" d="M598.79,353.48h56.88c0,0-1.13-10.98,1.13-18.86c0,0,12.12-6.36,9.01-27.31l26.33,15.43l-4.94-28.38
		c0,0-32.94-27.87-34.91-28.16c-1.97-0.28-59.8,5.71-59.8,5.71s-17.35,3.02-19.04,25.83c0,0-6.19,65.6-4.51,65.6
		c1.69,0,14.92,0,14.92,0l6.76-37.3c0,0-2.53-10.85-0.28-15.35c0,0-3.1,15.77,7.32,22.24C597.67,332.93,601.33,343.06,598.79,353.48
		z"/>
	<g>
		<rect x="642.97" y="290.21" class="st4" width="14.08" height="1.95"/>
		
			<rect x="642.97" y="290.21" transform="matrix(-1.836970e-16 1 -1 -1.836970e-16 941.2012 -358.8227)" class="st4" width="14.08" height="1.95"/>
	</g>
</g>
<g id="hair">
	<path class="st5" d="M623.85,183.21c0,0,17.74-10.7,33.51,16.61c0,0,5.07,10.14,5.63,25.06c0,0,0.9,10.32-4.22,18.86
		c-1.69,2.82-3.66,9.01-3.38,13.8c0,0-5.68-5.5,0.99-17.6c0,0,4.36-7.74,1.97-15.2c0,0-31.25-23.79-31.96-28.86
		c0,0-14.5,14.08-22.95,17.74c0,0-8.87,7.04-10.7,18.86c0,0-1.97,6.62-0.56,11.83c0,0,2.53,9.57,8.87,14.36
		c0,0,3.21,14.36-9.38,9.43c0,0,4.87-2.11,3.04-7.6c0,0-7.6-8.73-8.87-14.78c0,0-1.97-7.04,1.27-17.74
		C587.11,227.98,588.37,172.8,623.85,183.21z"/>
	<path class="st5" d="M605.55,250.32l8.87,8.59c0,0,4.5,25.48,0,34.91c0,0-18.24,25.34,2,22.38c0,0-0.17,4.93-6.65,8.02
		c0,0-5.49,2.11-9.85,0c0,0-11.71-0.9-13.37-15.91c-0.14-1.27-1.41-5.63,1.55-18.86c0,0,7.88-11.4,16.05-15.35
		C604.14,274.12,607.52,272.99,605.55,250.32z"/>
</g>
<g id="face_1_">
	<path d="M633.71,228.53h2.32c0,0,4.79,3.1,10.84-0.35h2.24C649.11,228.18,642.01,235.71,633.71,228.53z"/>
	<path d="M631.38,222.86c0,0-0.66,1.6,2.09,0.79c0,0,6.29-3.4,14.56-3.75c0,0,1.87-0.74-0.11-1.22
		C647.92,218.68,640.4,218.43,631.38,222.86z"/>
	<path d="M617.14,228.61l-2.32-0.14c0,0-4.96,2.81-10.8-1l-2.24-0.13C601.78,227.34,608.42,235.28,617.14,228.61z"/>
	<path d="M618.6,224c0,0,0.58,1.64-2.12,0.65c0,0-6.11-3.84-14.34-4.76c0,0-1.82-0.87,0.17-1.21
		C602.31,218.67,609.82,218.95,618.6,224z"/>
	<path class="st6" d="M628.4,219.87c0,0-0.99,2.33,0,3.91"/>
	<path class="st6" d="M621.29,219.87c0,0,0.99,2.33,0,3.91"/>
	<path class="st7" d="M616.42,247.67c0,0,6.69-6.21,14.89,0"/>
	<path class="st8" d="M615.32,242.34c0,0,2.96,3.82,0,8.7"/>
	<path class="st8" d="M632.48,242.34c0,0-2.96,3.82,0,8.7"/>
</g>
<g id="arms">
	<path class="st2" d="M637.65,252.03c0,0-25.51-12-7.31,7.61c0,0,5.06,3.47,8.44,2.72l6.38,7.07c0,0,30.89,43.89,31.3,44.12
		c0.4,0.24,37.27,35.32,10.75-19.19c0,0-20.65-20.93-34.91-28.16l-9.32-6.29C642.97,259.91,642.34,255.59,637.65,252.03z"/>
	<path class="st2" d="M524.01,368.98c0,0-17.39,21.07,8.57,16.78c0,0,4.93-0.66,6.81-8.1l44.48-14.32c0,0,1.62-6.64-14.86-11.52
		C569.01,351.82,532.29,363.61,524.01,368.98z"/>
</g>
<g id="legs">
	<path class="st2" d="M653.16,408.65c0,0,5.51,32.67,0.39,52.31c0,0,8.11,67.65,1.81,84.62l-17.74,0.13l-9.43-135.13L653.16,408.65z
		"/>
	<path class="st2" d="M619.65,408.65c0,0,5.51,32.67,0.39,52.31c0,0,8.11,67.65,1.81,84.62l-17.74,0.13l-9.43-135.13L619.65,408.65z
		"/>
</g>
<g id="skirt">
	<path class="st9" d="M598.79,353.48h56.88v8.45c0,0,14.92,28.16,16.05,38.29c0,0,4.22,18.58,2.82,28.72h-95.45
		c0,0-0.28-26.75,8.17-37.73c0,0,13.23-24.5,11.83-26.47L598.79,353.48z"/>
</g>
</svg>
