<svg id="_5-1" data-name="5-1" xmlns="http://www.w3.org/2000/svg" viewBox="0 0 575.5 424.6">
  <g id="bed">
    <path d="M555.3,215.4s-1.2,151.5-6.8,151.5-17.4.8-17.4,0-6.8-126.1-6.8-126.1-4.5,126.4-6.3,126.5-24.7,2.2-25.1,0-3.5-151,0-151.9S555.3,215.4,555.3,215.4Z" fill="#312210"/>
    <rect x="69.5" y="102.3" width="404.6" height="133.51" fill="#fcf7d3"/>
    <path d="M57.2,220.5V111.2S54,90.9,84.7,90.9c0,0,83.8-7.2,104.7-9.2s156.4-3.9,192.2,2.2L463.2,90c6.5.5,21.4-1.3,21.8,17.9s0,110.8,0,110.8-14.8-5.6-22.7-7L461,114S319,96.8,258.8,104c0,0-105.4-1.3-174.8,8.5l-1.3,96.2Z" fill="#483b15"/>
    <rect x="27.1" y="311.4" width="30" height="99.48" fill="#483b15"/>
    <line x1="42.1" y1="403.7" x2="42.1" y2="311.4" fill="none" stroke="#37160d" stroke-miterlimit="10"/>
    <path d="M474,214.9V120.3s.1-18.3-14.9-19.6L352.4,92.2s-91.6-6.5-140.1,0c0,0-107.3,5.2-126.3,7.2,0,0-15-2-15,14.4s-.6,105.3-1.6,101.1" fill="none" stroke="#37160d" stroke-miterlimit="10"/>
    <rect x="485.2" y="311.4" width="30" height="99.48" fill="#483b15"/>
    <line x1="500.2" y1="403.7" x2="500.2" y2="311.4" fill="none" stroke="#37160d" stroke-miterlimit="10"/>
    <path d="M57.1,311.4H485.2V369H57.1Z" fill="#483b15"/>
    <path d="M12.7,295.7V246.1s.6-14.5,29.4-8.6,54.4,8.6,54.4,8.6,8.5,6.6,32.7,0c0,0,36-4,46.5-7.3l28.1,7.3s5.3-9.5,9.2-10,31.4,0,31.4,0,11.8,4.8,36,10,94.9,9.7,113.8-3.4c0,0,26.9-5.9,45.2-1.9,0,0,28.1-2,39.3,1.9l6.5,3.4a54.7,54.7,0,0,1,22.3-3.4s21.9,15.2,22.9,20.3c1.3,7.2,0,32.7,0,32.7s-.2,15.7-15.2,15.7H27.1S12.7,312.1,12.7,295.7Z" fill="#fcf7d3"/>
  </g>
  <g id="husband">
    <path id="neck" d="M500.6,100.1c3.4,4.2,8.9,18.8.4,27l30.7-3.5a38,38,0,0,1-7.4-30.2S488,84.7,500.6,100.1Z" fill="#eecb9b" stroke="#eac179" stroke-miterlimit="10"/>
    <g id="head">
      <path id="head-2" data-name="head" d="M474.5,53.3s6.9-13.5,41.2-14.3c0,0,2.8-2.3,4.4,3.6l4.4,16.8,11.8,24.3s-29,45.7-49.2,11.7C485.7,93.1,473.4,76.8,474.5,53.3Z" fill="#eecb9b" stroke="#eac179" stroke-miterlimit="10"/>
      <path id="lip" d="M513.7,86.9s-9.5-2.7-16.6,4.3C497.1,91.2,509.6,107,513.7,86.9Z" fill="#e4273a" stroke="#c42127" stroke-miterlimit="10"/>
      <path id="eye-r" d="M508.2,65.1s-.6,3.8,2.2,4c0,0,2.2.5,3.2-1.1,0,0,1.8-3.1-1.2-4.5A3,3,0,0,0,508.2,65.1Z" fill="#1a100a"/>
      <path id="eye-l" d="M488.3,68.9s2.4,3.1.1,4.6c0,0-1.7,1.5-3.3.6,0,0-3.2-1.9-1.2-4.5A3,3,0,0,1,488.3,68.9Z" fill="#1a100a"/>
      <path id="brow-r" d="M504.4,55.8s11.3-5,16.7.2l-16.4,2.2A3,3,0,0,1,504.4,55.8Z"/>
      <path id="brow-l" d="M492.6,57.9s-12.9,1.3-15.6,8.2l16.3-6A2.1,2.1,0,0,0,492.6,57.9Z"/>
      <path id="hair" d="M488,10.8s24.9-1.2,41.8,9.5l8,37.8-1.2,25.2L524.8,60l-5.4-19.7s-33.1-.9-44.4,13.8c0,0-2.1,10.8,2.4,20.6A69,69,0,0,1,471.2,52s-18.7.3-18.7-22.1c0,0,4.5,4.6,8.2,3.7,0,0-5.8-6.2-5.8-13.3a42.5,42.5,0,0,1,19.6,1,11.6,11.6,0,0,1-2.5-6.2s10.5-2.1,20.2.6Z" fill="#1a100a"/>
    </g>
    <path id="arm-l" d="M478.5,158.3s18.5,12.3-1.4,22.1L421.3,165a19.1,19.1,0,0,1-11.3,1.8l-10.5-2.2s-19.1-4.6-2.5-15.3c0,0,4.1-2.1,20,6Z" fill="#eecb9b" stroke="#eac179" stroke-miterlimit="10"/>
    <path id="shoulder-l" d="M491.4,126.7a22.8,22.8,0,0,1-6.1,1.1s-3.7-.3-7.1,5.4l-16.6,28L481.7,172S494,144.8,491.4,126.7Z" fill="#304c23"/>
    <path id="shirt" d="M485.3,127.8s3.1,26-3.6,43.6c0,0-.9,14-3.5,55.4,0,0,34.5,11.5,76.7,0,0,0-1.8-32.8,8.8-90.8,0,0,.5-7.8-10.1-10.3,0,0-16.2-1.1-18.4-6.7l-35.7,3.3S490.9,128.7,485.3,127.8Z" fill="#125d2f"/>
    <path id="arm-r" d="M549.7,164.9s5.5-22.6-19.1-11.4l-34.3,55.9a28.4,28.4,0,0,0-10.9,8.5L478.5,228s-12.4,18.8,10.3,10.8c0,0,5.1-2.3,11.8-20.3Z" fill="#eecb9b" stroke="#eac179" stroke-miterlimit="10"/>
    <path id="shoulder-r" d="M542,123.6l-17.7,31.1s25.3,14.4,25.5,13.4,3.4-11.3,3.4-11.3l4.2-9.6,6.4-11.2-1.2-4.5s-3.9-4.6-4.2-4.4-4.8-1.4-4.8-1.4l-6.5-.9Z" fill="#304c23"/>
  </g>
  <g id="girl">
    <path id="neck-2" data-name="neck" d="M405.5,142.9s-3.5-2.4-4.9-8.2l-3.7-12.8-2.4,1.6-1.8.8-1.9.6-1.8.3h-3.2l-2.4-.4-1.9-.6-1.8-.8-1.5,10.7s1.3,4.8-9.3,7.3Z" fill="#eecb9b" stroke="#eac179" stroke-miterlimit="10"/>
    <path id="shirt-2" data-name="shirt" d="M360.3,206.3s12.5,3.1,18.9,8.7l23.6-24,16,4.6s7.8-5.8,6-20.6a22.5,22.5,0,0,1-.5,14.7l3.2,22.6s1.5,14.1,17.3,4c0,0,1.1-1.3.7-5.4s-5.1-55.5-5.1-55.5-3.1-18.3-20-20c0,0-38.8-5.5-52-1.3,0,0-11.8-1.2-18.4,3.3s-13.2,6.8-14.3,18.9-5.3,57-5.3,57-.9,2.2,2.3,3.8,13.9,7.1,15.9-4.3c.4-2.3,3.2-23.1,3.2-23.1s-3.3-9.1-.3-15.4c0,0-2.6,15.9,7.4,22.3C358.9,196.6,360.9,202.6,360.3,206.3Z" fill="#d0ecec"/>
    <polygon id="cross" points="415.9 160.3 409.8 160.3 409.8 154.2 407.9 154.2 407.9 160.3 401.8 160.3 401.8 162.2 407.9 162.2 407.9 168.3 409.8 168.3 409.8 162.2 415.9 162.2 415.9 160.3" fill="#ed1c24"/>
    <g id="head-3" data-name="head">
      <path id="hair-back" d="M375.6,121.2a13.6,13.6,0,0,1-7.8-5.5s2.3,12.7.7,16.5c-2.6,6-14.5,12.8-17.2,19.9,0,0-5.3,13,.9,23.2,0,0,9.1,20.9,30,2,0,0-17,3.5-9-11.9a36.8,36.8,0,0,0,7.9-15.5s2.2-4.4-.6-14.6S375.6,126.3,375.6,121.2Z" fill="#533814" stroke="#4b3014" stroke-miterlimit="10"/>
      <path id="head-4" data-name="head" d="M416.2,79.8C416,79.2,383.7,52,383.7,52L350,87.2s12.3,29.4,29.7,36.2a15.4,15.4,0,0,0,17.2-1.5,82.4,82.4,0,0,0,25.5-34.7Z" fill="#eecb9b" stroke="#eac179" stroke-miterlimit="10"/>
      <path id="brow-l-2" data-name="brow-l" d="M378.1,80s-14.8,2.3-18.3,9.5l19.1-7.4A2.1,2.1,0,0,0,378.1,80Z"/>
      <path id="brow-r-2" data-name="brow-r" d="M393.4,79.5s14.7-2.9,20.5,2.6l-20.5-.3A2.4,2.4,0,0,1,393.4,79.5Z"/>
      <path id="lip-2" data-name="lip" d="M379.2,109.4s7.5-6.5,16.9-3.1C396.1,106.3,391.4,125.9,379.2,109.4Z" fill="#e4273a" stroke="#c42127" stroke-miterlimit="10"/>
      <g id="eye-l-2" data-name="eye-l">
        <path id="pupil-l" d="M370.5,97a4.7,4.7,0,0,0,6.4-1.6,4.2,4.2,0,0,0-1-3.7l-6.4,1.6A4,4,0,0,0,370.5,97Z"/>
        <path id="lid-l" d="M371.9,91.7a9,9,0,0,1-.7-2,4.6,4.6,0,0,0,.4,2l-.8.3a7.5,7.5,0,0,1-.7-2,5.6,5.6,0,0,0,.4,2.1l-.6.3a7.5,7.5,0,0,1-.8-2.4,4,4,0,0,0,.6,2.5l-.7.3a7.6,7.6,0,0,1-.7-2.1,3.7,3.7,0,0,0,.5,2.3l-.5.2a7.8,7.8,0,0,1-1-2.5,4.1,4.1,0,0,0,.8,2.7l-.7.4a6,6,0,0,1-1-2.6,3.5,3.5,0,0,0,.8,2.7l-.6.5a7.3,7.3,0,0,1-1.1-2.8,3.3,3.3,0,0,0,1,2.9,1,1,0,0,0-.5.4,5.4,5.4,0,0,1-1.5-3.1,3.4,3.4,0,0,0,1.3,3.2l-.8.7s10.4-3.7,15-3.4A10.7,10.7,0,0,0,371.9,91.7Z"/>
      </g>
      <g id="eye-r-2" data-name="eye-r">
        <path id="pupil-r" d="M405.4,90.8s-2,3.8-6.4,1.7a4.3,4.3,0,0,1-.9-3.7l6.3-1.7A4,4,0,0,1,405.4,90.8Z"/>
        <path id="lid-r" d="M408.4,86.8h.1a3.4,3.4,0,0,0-.3-3.5s.7,2.2.1,3.5h-.6a3.6,3.6,0,0,0-.5-3,6,6,0,0,1,.3,2.9h-.7a4.1,4.1,0,0,0-.6-2.8,6.7,6.7,0,0,1,.3,2.7h-.8a4.1,4.1,0,0,0-.6-2.8,6.3,6.3,0,0,1,.4,2.8h-.6a4.6,4.6,0,0,0-.6-2.3,8.5,8.5,0,0,1,.4,2.3h-.8a4.5,4.5,0,0,0-.6-2.5,7.7,7.7,0,0,1,.3,2.5H403a4.8,4.8,0,0,0-.6-2.1,8.3,8.3,0,0,1,.3,2.1l-.8.2a3.5,3.5,0,0,0-.7-2,6.2,6.2,0,0,1,.4,2,11.3,11.3,0,0,0-6.8,4.6c3.9-2.6,14.8-4.4,14.8-4.4Z"/>
      </g>
      <path id="hair-2" data-name="hair" d="M423.4,81.1s-11.1-49.7-38.2-37.9c0,0-26.3-9.1-33.5,22.7,0,0-2.7,2.4-3.7,18.2,0,0-5.5,19.4,1.1,28.7,0,0,15.3,14.1,3.4,14.5,0,0,8.7,5.9,9.9-6.6,0,0-12.8-18.2-9.1-28.2a31,31,0,0,1,12-20s9.2-3.3,16.4-17c0,0,20.4,15.5,34.8,24.2,0,0,5.9,9.1,2.1,17.7,0,0-6.4,10.8-3.1,17,0,0,4.8-13.8,8.5-18.3C424,96,425.1,87.4,423.4,81.1Z" fill="#533814" stroke="#4b3014" stroke-miterlimit="10"/>
    </g>
    <g id="blanket">
      <path d="M220.8,210c9.8-5.9,30.8-6,30.8-6L268,215c10.4-2.2,32,5.5,32,5.5,9.2,5.2,27.5-10.5,27.5-10.5a66.8,66.8,0,0,1,12.2-4.5c7.9-2,12.7-1.4,12.7-1.4A92.5,92.5,0,0,1,379.2,215l23.6-24s21.6,4.8,59.5,20.7l45.8,14s41.3,9.8,22.3,37.3H12.7s-13.7-15,0-30.1c0,0,32.4-6.8,44.5-12.4s32.1-16.4,32.1-16.4,9.8-1.3,24.9,5.9c0,0,18.3,15.7,27.5,10.5,0,0,21.6-7.7,32-5.5l16.4-11s20.9.1,30.7,6" fill="#a0d9d5"/>
    </g>
    <path id="arm-r-2" data-name="arm-r" d="M444.6,200.7s-1.7-15.9-18.3-3.2l-12.2,43.7a19.7,19.7,0,0,0-6.4,7.9l-2.8,8.1s-4.8,14.8,11.1,4.7c0,0,3.5-2.6,4-15.7Z" fill="#eecb9b" stroke="#eac179" stroke-miterlimit="10"/>
    <path id="arm-l-2" data-name="arm-l" d="M330.2,207.5s1.7-15.9,18.4-3.2L360.8,248a19.7,19.7,0,0,1,6.4,7.9L370,264s4.8,14.8-11.2,4.7c0,0-3.4-2.6-3.9-15.7Z" fill="#eecb9b" stroke="#eac179" stroke-miterlimit="10"/>
  </g>
  <g id="vaseline">
    <g>
      <path d="M460.9,241.5s.7,7.7,3.4,7.7H477s2.6.1,3.6-5.9l.2-12.9H460.9Z" fill="#fcf6ac"/>
      <path d="M460.9,231.3s-.5,2.7,5.5,2.7h9.5s4.7-.6,4.9-2.3v-5.5H460.9Z" fill="#304c85"/>
      <path d="M460.9,224.7v1.5s-.3,1.9,5.8,2.1a87.6,87.6,0,0,0,9.5-.1s4.4-.6,4.6-2v-1.5s-.1-.7-1.2-1.1a24,24,0,0,0-3.4-1.1s-7.8-.2-10.4,0C465.8,222.5,460.9,223.1,460.9,224.7Z" fill="#3e5da0"/>
      <rect x="464.9" y="236.5" width="11.8" height="5.2" fill="#304c85"/>
    </g>
  </g>
</svg>
