<?xml version="1.0" encoding="utf-8"?>
<!-- Generator: Adobe Illustrator 24.3.0, SVG Export Plug-In . SVG Version: 6.00 Build 0)  -->
<svg version="1.1" xmlns="http://www.w3.org/2000/svg" xmlns:xlink="http://www.w3.org/1999/xlink" x="0px" y="0px"
	 viewBox="0 0 841.89 595.28" style="enable-background:new 0 0 841.89 595.28;" xml:space="preserve">
<style type="text/css">
	.st0{fill:#EECB9B;stroke:#EAC179;stroke-miterlimit:10;}
	.st1{fill:#533814;}
	.st2{fill:#3A342A;}
	.st3{fill:#ED1C24;}
	.st4{fill:#D0ECEC;}
	.st5{fill:#533814;stroke:#4B3014;stroke-miterlimit:10;}
	.st6{fill:#E4273A;stroke:#C42127;stroke-miterlimit:10;}
	.st7{fill:#D9D943;}
</style>
<g id="face">
	<g>
		<path class="st0" d="M275.41,177.3c0.19-0.56,31.35-29.09,31.35-29.09l35.1,33.79c0,0-11.07,29.85-28.16,37.35
			c0,0-8.45,5.63-17.27-0.75c0,0-17.46-11.6-26.84-33.67L275.41,177.3z"/>
		<path class="st0" d="M278.6,241.49c0,0,13.51-4.13,14.64-9.95l3.19-12.95l2.45,1.48l1.81,0.76l1.93,0.52l1.87,0.25l3.23-0.13
			l2.29-0.51l1.91-0.69l1.79-0.93l1.88,10.7c0,0,4.36,12.15,25.34,11.45H278.6z"/>
	</g>
</g>
<g id="chair">
	<g>
		<polygon class="st1" points="262.43,383.88 360.98,383.88 359.57,406.97 369.42,506.36 347.46,506.36 342.57,448.11 
			339.01,405.84 283.83,405.56 279.95,448.9 274.82,506.36 252.29,506.36 263.84,405.56 		"/>
		<polygon class="st1" points="311.7,447.98 316.96,448 342.57,448.11 343.43,458.43 279.15,457.93 280.04,447.98 308.89,447.98 		
			"/>
	</g>
</g>
<g id="legs">
	<path class="st0" d="M305.03,371.16c0,0,5.51,32.67,0.39,52.31c0,0,8.11,67.65,1.81,84.62l-17.74,0.13l-9.43-135.13L305.03,371.16z
		"/>
	<path class="st0" d="M338.54,371.16c0,0,5.51,32.67,0.39,52.31c0,0,8.11,67.65,1.81,84.62L323,508.22l-9.43-135.13L338.54,371.16z"
		/>
</g>
<g id="skirt">
	<path class="st2" d="M263.53,384.16h94.66c0,0,0.28-22.36-4.18-32.68c-4.45-10.32-15.78-28.67-16.24-37.55l-15.78-8.89l-39.53,6.31
		c0,0,3.34,6.59-13.09,35.26C269.37,346.61,264.64,350.33,263.53,384.16z"/>
</g>
<g id="top">
	<g>
		<rect x="279.59" y="258.94" class="st3" width="14.08" height="1.95"/>
		
			<rect x="279.59" y="258.94" transform="matrix(-1.836970e-16 1 -1 -1.836970e-16 546.5514 -26.7113)" class="st3" width="14.08" height="1.95"/>
	</g>
	<path class="st4" d="M339.12,316.8h-56.88c1.4-10.26-1.13-20.55-1.13-20.55c-9.86-5.47-7.32-22.24-7.32-22.24
		c-2.54,7.76,0.28,15.35,0.28,15.35s-2.53,13.97-2.61,17.43c-0.54,22.76-19,8.35-19,8.35l5.71-61.6
		c1.67-11.9,17.77-18.31,17.77-18.31l27.26-2.77h14.24l27.26,2.77c0,0,16.1,6.41,17.77,18.31l5.71,61.6c0,0-18.47,14.41-19-8.35
		c-0.08-3.46-2.61-17.43-2.61-17.43s2.82-7.59,0.28-15.35c0,0,2.54,16.77-7.32,22.24c0,0-2.53,10.3-1.13,20.55h-56.88"/>
	<g>
		<rect x="280.57" y="264.03" class="st3" width="14.08" height="1.95"/>
		
			<rect x="280.57" y="264.03" transform="matrix(-1.836970e-16 1 -1 -1.836970e-16 552.6142 -22.6009)" class="st3" width="14.08" height="1.95"/>
	</g>
</g>
<g id="hair">
	<path class="st5" d="M268.35,178.86c0,0,9.01-50.12,36.6-39.42c0,0,25.9-10.14,34.35,21.4c0,0,2.82,2.25,4.5,18.02
		c0,0,6.19,19.15,0,28.72c0,0-14.64,14.64-2.82,14.64c0,0-8.45,6.19-10.14-6.19c0,0,12.11-18.77,7.98-28.63
		c0,0-1.78-12.11-12.86-19.43c0,0-9.3-3-17.08-16.33c0,0-19.71,16.33-33.79,25.53c0,0-5.44,9.39-1.31,17.83
		c0,0,6.76,10.51,3.75,16.89c0,0-4.13-12.01-9.2-18.02C268.35,193.88,266.87,185.21,268.35,178.86z"/>
	<path class="st5" d="M317.72,217.03c0,0,4.5-1.13,7.51-5.82v16.52c0,0,15.02,12.2,18.02,19.15c0,0,5.82,12.76,0,23.28
		c0,0-8.26,21.21-29.85,3.19c0,0,17.08,2.82,8.45-12.2c0,0-5.82-5.69-8.45-15.24c0,0-2.44-4.29,0-14.61
		C315.84,220.97,317.91,222.1,317.72,217.03z"/>
	<path class="st1" d="M325.23,210.21c0,0-0.91,15.62,2.31,18.46s-10.19,4.25-10.19,4.25L325.23,210.21z"/>
</g>
<g id="face_1_">
	<g id="eyes">
		<path d="M313.93,186.98h2.32c0,0,4.79,3.1,10.84-0.35h2.24C329.34,186.63,322.24,194.16,313.93,186.98z"/>
		<path d="M297.37,187.06l-2.32-0.14c0,0-4.96,2.81-10.8-1l-2.24-0.13C282.01,185.79,288.65,193.73,297.37,187.06z"/>
		<path class="st6" d="M297.37,206.83c0,0,6.81-6.95,18.26,0C315.62,206.83,306.52,211.15,297.37,206.83z"/>
		<line class="st6" x1="297.37" y1="206.83" x2="315.62" y2="206.83"/>
	</g>
	<g id="eyebrows">
		<path d="M312.19,174.66c0,0,14.98-0.2,19.6,6.3l-20.05-4.09C311.74,176.87,311.23,175.61,312.19,174.66z"/>
		<path d="M297.87,174.58c0,0-14.98-0.09-19.55,6.45l20.02-4.24C298.34,176.79,298.84,175.53,297.87,174.58z"/>
	</g>
</g>
<g id="arms">
	<path class="st0" d="M252.46,315.13c0,0,1.7-13.21,18.35-2.64l12.23,36.4c0,0,4.48,2.59,6.4,6.61l2.8,6.69
		c0,0,4.79,12.39-11.17,3.94c0,0-3.42-2.16-3.92-13.09L252.46,315.13z"/>
	<path class="st0" d="M368.19,315.13c0,0-1.7-13.21-18.35-2.64l-12.23,36.4c0,0-4.48,2.59-6.4,6.61l-2.8,6.69
		c0,0-4.79,12.39,11.17,3.94c0,0,3.42-2.16,3.92-13.09L368.19,315.13z"/>
</g>
<g id="doctor2">
	<g id="Layer_13">
		<path class="st0" d="M472.52,170.5c0,0-1.69,15.96,14.27,22.71l-48.32,1.31c0,0,16.22-7.45,13.97-23.16
			c0,0-21.35-7.85-24.28-24.99s0-29.38,0-29.38l31.51-18.76l27.12,18.11l7.51,12.66l-2.53,20.14
			C491.76,149.14,485.47,166.57,472.52,170.5z"/>
		<path d="M463.49,124.91c0,0,14.64-3.19,20.46,2.25h-20.46C463.49,127.16,462.74,126.04,463.49,124.91z"/>
		<path class="st6" d="M453.02,159.59c1.74-0.18,8.17-9.29,19.15-1.97L453.02,159.59z"/>
		<path d="M452.88,124.58c0,0-14.98-0.09-19.55,6.45l20.02-4.24C453.35,126.78,453.85,125.52,452.88,124.58z"/>
		<g>
			<path d="M482.42,135.22c0,0-10.98-1.03-15.39,0.47C467.03,135.69,472.57,129.97,482.42,135.22z"/>
			<path d="M477.4,137.83c0,0-2.91,3.1-6.57,0c0,0-1.02-2.03,0-3.75l6.57-0.12C477.4,133.96,478.53,135.95,477.4,137.83z"/>
			<path d="M481.41,134.71c0,0,1.2-1.12,0.55-3.44c0,0,0.21,2.34-0.75,3.44"/>
			<path d="M479.41,134.63c0,0,1.2-1.12,0.55-3.44c0,0,0.21,2.34-0.75,3.44"/>
			<path d="M480.38,134.78c0,0,1.2-1.12,0.55-3.44c0,0,0.21,2.34-0.75,3.44"/>
			<path d="M478.38,134.35c0,0,1.2-1.12,0.55-3.44c0,0,0.21,2.34-0.75,3.44"/>
			<path d="M477.44,134.6c0,0,1.2-1.12,0.55-3.44c0,0,0.21,2.34-0.75,3.44"/>
			<path d="M475.5,134.35c0,0,1.2-1.12,0.55-3.44c0,0,0.21,2.34-0.75,3.44"/>
			<path d="M476.49,134.16c0,0,1.2-1.12,0.55-3.44c0,0,0.21,2.34-0.75,3.44"/>
			<path d="M474.35,134.35c0,0,1.2-1.12,0.55-3.44c0,0,0.21,2.34-0.75,3.44"/>
		</g>
		<g>
			<path d="M437.68,135.95c0,0,10.98-1.03,15.39,0.47C453.07,136.42,447.54,130.7,437.68,135.95z"/>
			<path d="M442.7,138.56c0,0,2.91,3.1,6.57,0c0,0,1.02-2.03,0-3.75l-6.57-0.12C442.7,134.69,441.58,136.68,442.7,138.56z"/>
			<path d="M438.7,135.44c0,0-1.2-1.12-0.55-3.44c0,0-0.21,2.34,0.75,3.44"/>
			<path d="M440.7,135.37c0,0-1.2-1.12-0.55-3.44c0,0-0.21,2.34,0.75,3.44"/>
			<path d="M439.72,135.51c0,0-1.2-1.12-0.55-3.44c0,0-0.21,2.34,0.75,3.44"/>
			<path d="M441.72,135.08c0,0-1.2-1.12-0.55-3.44c0,0-0.21,2.34,0.75,3.44"/>
			<path d="M442.67,135.33c0,0-1.2-1.12-0.55-3.44c0,0-0.21,2.34,0.75,3.44"/>
			<path d="M444.6,135.08c0,0-1.2-1.12-0.55-3.44c0,0-0.21,2.34,0.75,3.44"/>
			<path d="M443.61,134.89c0,0-1.2-1.12-0.55-3.44c0,0-0.21,2.34,0.75,3.44"/>
			<path d="M445.75,135.08c0,0-1.2-1.12-0.55-3.44c0,0-0.21,2.34,0.75,3.44"/>
		</g>
		<path class="st7" d="M452.6,95.24c0,0,26.76-18.99,40.76,31.57c0,0,11.02,11.83-0.87,25.75c0,0-3.32,5.59-1.75,13.08
			c0,0-4.55-4.97-0.96-21.9c0,0,5.23-11.16-1.89-13.97c0,0-3.2-0.68-10.93-7.89c0,0-9.48,0.11-18.4-16.25l-4.32-5.31l-2.84,7.35
			c-4.06,18.9-12.83,21.48-12.83,21.48c-5.29,9.42-8.07,11-8.07,11c-5.85,4.83,1.82,14.51,1.82,14.51
			c7.62,15.92,4.69,22.18,4.69,22.18c-0.46-7.94-4.95-12.59-4.95-12.59c-14.52-10.55-7.37-25.51-7.37-25.51
			c0.02-54.55,29.55-43.16,29.55-43.16"/>
		<path class="st7" d="M445.97,98.23c0,0-10.93-8.88,0-13.95c10.93-5.07,18.81-2.25,18.81-2.25s9.62,8.02,2.25,12.11
			C459.66,98.23,445.97,98.23,445.97,98.23z"/>
		<path class="st0" d="M490.1,325.65c0,0,5.29,41.86,0.51,67.01c0,0,7.84,86.68,1.92,108.41l-16.79,0.13l-9.27-173.14L490.1,325.65z
			"/>
		<path class="st0" d="M459.67,325.56c0,0,5.02,41.87,0.51,67.01c0,0,7.45,86.69,1.86,108.41l-15.87,0.12l-8.83-173.14
			L459.67,325.56z"/>
	</g>
	<g id="Layer_12">
		<path class="st2" d="M420.2,350.51h96.67v-12.58c0,0-0.68-11.33-3.25-16.36l-8.95-22.68c0,0-7.51-8.45-7.7-14.64l-1.31-9.9h-55.37
			l-0.38,11.97c0,0-12.76,19.71-17.08,40.36C422.82,326.67,419.63,341.88,420.2,350.51z"/>
		<path class="st4" d="M404.26,180.78c0,0,19.37,17.19,31.06,10.25l29.37,2.55l28.34-1.31c0,0,15.89-4.22,27.7,11.54
			c0,0,31.27,37.84,35.34,58.06v9.94c0,0-1.59-20.55-18.75-4.64c0,0-3.78-11.26-28.98-34.91c0,0-8.46,11.33-9.85,21.12
			c-0.28,1.97-2.82,20.98-2.82,20.98h-54.48c0,0,1.27-12.81-3.94-22.1c0,0-9.43-4.08-6.34-21.4c0,0-0.14-4.26-7.04-8.68
			l-43.36-29.54h4.22l8.41-3.52L404.26,180.78z"/>
		<path class="st0" d="M537.89,266.42c0,0,15.02-12.95,18.02,4.88c0,0,1.88,2.25-7.51,16.52c0,0-23.46,30.03-24.03,30.41
			c-0.56,0.38-5.07,10.7-15.96-0.94l-14.45,0.38c0,0-25.15-8.45,10.7-18.77c0,0,6.76,5.63,9.39,11.26c0,0,3.38,3.38,5.44-1.5
			C519.49,308.65,533.76,270.93,537.89,266.42z"/>
		<g>
			<rect x="483.92" y="216.64" class="st3" width="14.08" height="1.95"/>
			
				<rect x="483.92" y="216.64" transform="matrix(-1.836970e-16 1 -1 -1.836970e-16 708.5778 -273.3445)" class="st3" width="14.08" height="1.95"/>
		</g>
		<path class="st0" d="M380.5,192.63c0,0,29.78-3.44,23.76-11.85c-1.51-2.1-2.26-3.15-2.54-3.55c-0.85-1.18,2.54,3.55,2.54,3.55l0,0
			l-4.9-6.91l-67.58-32.66l-9.1,0.94c0,0-23.94,4.5-2.91,11.07c0,0,4.44,1.37,9.3-1.69l2.71-2.06l9.13,6.19
			C340.92,155.67,355.08,175.32,380.5,192.63"/>
	</g>
</g>
</svg>
