<?xml version="1.0" encoding="utf-8"?>
<!-- Generator: Adobe Illustrator 24.3.0, SVG Export Plug-In . SVG Version: 6.00 Build 0)  -->
<svg version="1.1" xmlns="http://www.w3.org/2000/svg" xmlns:xlink="http://www.w3.org/1999/xlink" x="0px" y="0px"
	 viewBox="0 0 327.74 443.34" style="enable-background:new 0 0 327.74 443.34;" xml:space="preserve">
<style type="text/css">
	.st0{fill:#EECB9B;stroke:#EAC179;stroke-miterlimit:10;}
	.st1{fill:#533814;}
	.st2{fill:#3A342A;}
	.st3{fill:#ED1C24;}
	.st4{fill:#D0ECEC;}
	.st5{fill:#533814;stroke:#4B3014;stroke-miterlimit:10;}
	.st6{fill:#E4273A;stroke:#C42127;stroke-miterlimit:10;}
	.st7{fill:#D9D943;}
</style>
<g id="face">
	<g>
		<path class="st0" d="M37.48,104.09C37.67,103.53,68.83,75,68.83,75l35.1,33.79c0,0-11.07,29.85-28.16,37.35
			c0,0-8.45,5.63-17.27-0.75c0,0-17.46-11.6-26.84-33.67L37.48,104.09z"/>
		<path class="st0" d="M40.67,168.29c0,0,13.51-4.13,14.64-9.95l3.19-12.95l2.45,1.48l1.81,0.76l1.93,0.52l1.87,0.25l3.23-0.13
			l2.29-0.51l1.91-0.69l1.79-0.93l1.88,10.7c0,0,4.36,12.15,25.34,11.45H40.67z"/>
	</g>
</g>
<g id="chair">
	<g>
		<polygon class="st1" points="24.5,310.67 123.05,310.67 121.64,333.76 131.49,433.15 109.53,433.15 104.64,374.9 101.09,332.64 
			45.9,332.35 42.03,375.7 36.89,433.15 14.37,433.15 25.91,332.35 		"/>
		<polygon class="st1" points="73.77,374.78 79.03,374.8 104.64,374.9 105.51,385.22 41.22,384.73 42.11,374.78 70.96,374.78 		"/>
	</g>
</g>
<g id="legs">
	<path class="st0" d="M67.1,297.95c0,0,5.51,32.67,0.39,52.31c0,0,8.11,67.65,1.81,84.62l-17.74,0.13l-9.43-135.13L67.1,297.95z"/>
	<path class="st0" d="M100.61,297.95c0,0,5.51,32.67,0.39,52.31c0,0,8.11,67.65,1.81,84.62l-17.74,0.13l-9.43-135.13L100.61,297.95z
		"/>
</g>
<g id="skirt">
	<path class="st2" d="M25.6,310.95h94.66c0,0,0.28-22.36-4.18-32.68s-15.78-28.67-16.24-37.55l-15.78-8.89l-39.53,6.31
		c0,0,3.34,6.59-13.09,35.26C31.45,273.4,26.71,277.13,25.6,310.95z"/>
</g>
<g id="top">
	<g>
		<rect x="41.66" y="185.74" class="st3" width="14.08" height="1.95"/>
		
			<rect x="41.66" y="185.74" transform="matrix(-1.836970e-16 1 -1 -1.836970e-16 235.4174 138.0117)" class="st3" width="14.08" height="1.95"/>
	</g>
	<path class="st4" d="M101.19,243.59H44.31c1.4-10.26-1.13-20.55-1.13-20.55c-9.86-5.47-7.32-22.24-7.32-22.24
		c-2.54,7.76,0.28,15.35,0.28,15.35s-2.53,13.97-2.61,17.43c-0.54,22.76-19,8.35-19,8.35l5.71-61.6
		c1.67-11.9,17.77-18.31,17.77-18.31l27.26-2.77h14.24l27.26,2.77c0,0,16.1,6.41,17.77,18.31l5.71,61.6c0,0-18.47,14.41-19-8.35
		c-0.08-3.46-2.61-17.43-2.61-17.43s2.82-7.59,0.28-15.35c0,0,2.54,16.77-7.32,22.24c0,0-2.53,10.3-1.13,20.55H43.6"/>
	<g>
		<rect x="42.64" y="190.82" class="st3" width="14.08" height="1.95"/>
		
			<rect x="42.64" y="190.82" transform="matrix(-1.836970e-16 1 -1 -1.836970e-16 241.4802 142.1221)" class="st3" width="14.08" height="1.95"/>
	</g>
</g>
<g id="hair">
	<path class="st5" d="M30.42,105.66c0,0,9.01-50.12,36.6-39.42c0,0,25.9-10.14,34.35,21.4c0,0,2.82,2.25,4.5,18.02
		c0,0,6.19,19.15,0,28.72c0,0-14.64,14.64-2.82,14.64c0,0-8.45,6.19-10.14-6.19c0,0,12.11-18.77,7.98-28.63
		c0,0-1.78-12.11-12.86-19.43c0,0-9.3-3-17.08-16.33c0,0-19.71,16.33-33.79,25.53c0,0-5.44,9.39-1.31,17.83
		c0,0,6.76,10.51,3.75,16.89c0,0-4.13-12.01-9.2-18.02C30.42,120.67,28.94,112.01,30.42,105.66z"/>
	<path class="st5" d="M79.79,143.83c0,0,4.5-1.13,7.51-5.82v16.52c0,0,15.02,12.2,18.02,19.15c0,0,5.82,12.76,0,23.28
		c0,0-8.26,21.21-29.85,3.19c0,0,17.08,2.82,8.45-12.2c0,0-5.82-5.69-8.45-15.24c0,0-2.44-4.29,0-14.61
		C77.91,147.77,79.98,148.89,79.79,143.83z"/>
	<path class="st1" d="M87.3,137.01c0,0-0.91,15.62,2.31,18.46c3.21,2.84-10.19,4.25-10.19,4.25L87.3,137.01z"/>
</g>
<g id="face_1_">
	<g id="eyes">
		<path d="M76,113.77h2.32c0,0,4.79,3.1,10.84-0.35h2.24C91.41,113.42,84.31,120.95,76,113.77z"/>
		<path d="M59.44,113.85l-2.32-0.14c0,0-4.96,2.81-10.8-1l-2.24-0.13C44.08,112.58,50.72,120.52,59.44,113.85z"/>
		<path class="st6" d="M59.44,133.63c0,0,6.81-6.95,18.26,0C77.69,133.63,68.59,137.94,59.44,133.63z"/>
		<line class="st6" x1="59.44" y1="133.63" x2="77.69" y2="133.63"/>
	</g>
	<g id="eyebrows">
		<path d="M74.26,101.45c0,0,14.98-0.2,19.6,6.3l-20.05-4.09C73.81,103.66,73.3,102.41,74.26,101.45z"/>
		<path d="M59.94,101.38c0,0-14.98-0.09-19.55,6.45l20.02-4.24C60.41,103.58,60.91,102.32,59.94,101.38z"/>
	</g>
</g>
<g id="arms">
	<path class="st0" d="M14.53,241.93c0,0,1.7-13.21,18.35-2.64l12.23,36.4c0,0,4.48,2.59,6.4,6.61l2.8,6.69
		c0,0,4.79,12.39-11.17,3.94c0,0-3.42-2.16-3.92-13.09L14.53,241.93z"/>
	<path class="st0" d="M130.26,241.93c0,0-1.7-13.21-18.35-2.64l-12.23,36.4c0,0-4.48,2.59-6.4,6.61l-2.8,6.69
		c0,0-4.79,12.39,11.17,3.94c0,0,3.42-2.16,3.92-13.09L130.26,241.93z"/>
</g>
<g id="doctor2">
	<g id="Layer_13">
		<path class="st0" d="M234.59,97.3c0,0-1.69,15.96,14.27,22.71l-48.32,1.31c0,0,16.22-7.45,13.97-23.16c0,0-21.35-7.85-24.28-24.99
			s0-29.38,0-29.38l31.51-18.76l27.12,18.11l7.51,12.66l-2.53,20.14C253.83,75.94,247.54,93.36,234.59,97.3z"/>
		<path d="M225.56,51.71c0,0,14.64-3.19,20.46,2.25h-20.46C225.56,53.96,224.81,52.83,225.56,51.71z"/>
		<path class="st6" d="M215.1,86.38c1.74-0.18,8.17-9.29,19.15-1.97L215.1,86.38z"/>
		<path d="M214.95,51.37c0,0-14.98-0.09-19.55,6.45l20.02-4.24C215.42,53.58,215.92,52.32,214.95,51.37z"/>
		<g>
			<path d="M244.49,62.02c0,0-10.98-1.03-15.39,0.47C229.1,62.49,234.64,56.76,244.49,62.02z"/>
			<path d="M239.47,64.62c0,0-2.91,3.1-6.57,0c0,0-1.02-2.03,0-3.75l6.57-0.12C239.47,60.75,240.6,62.74,239.47,64.62z"/>
			<path d="M243.48,61.51c0,0,1.2-1.12,0.55-3.44c0,0,0.21,2.34-0.75,3.44"/>
			<path d="M241.48,61.43c0,0,1.2-1.12,0.55-3.44c0,0,0.21,2.34-0.75,3.44"/>
			<path d="M242.46,61.57c0,0,1.2-1.12,0.55-3.44c0,0,0.21,2.34-0.75,3.44"/>
			<path d="M240.46,61.14c0,0,1.2-1.12,0.55-3.44c0,0,0.21,2.34-0.75,3.44"/>
			<path d="M239.51,61.4c0,0,1.2-1.12,0.55-3.44c0,0,0.21,2.34-0.75,3.44"/>
			<path d="M237.58,61.14c0,0,1.2-1.12,0.55-3.44c0,0,0.21,2.34-0.75,3.44"/>
			<path d="M238.56,60.95c0,0,1.2-1.12,0.55-3.44c0,0,0.21,2.34-0.75,3.44"/>
			<path d="M236.42,61.14c0,0,1.2-1.12,0.55-3.44c0,0,0.21,2.34-0.75,3.44"/>
		</g>
		<g>
			<path d="M199.75,62.75c0,0,10.98-1.03,15.39,0.47C215.15,63.22,209.61,57.49,199.75,62.75z"/>
			<path d="M204.78,65.35c0,0,2.91,3.1,6.57,0c0,0,1.02-2.03,0-3.75l-6.57-0.12C204.78,61.48,203.65,63.48,204.78,65.35z"/>
			<path d="M200.77,62.24c0,0-1.2-1.12-0.55-3.44c0,0-0.21,2.34,0.75,3.44"/>
			<path d="M202.77,62.16c0,0-1.2-1.12-0.55-3.44c0,0-0.21,2.34,0.75,3.44"/>
			<path d="M201.79,62.31c0,0-1.2-1.12-0.55-3.44c0,0-0.21,2.34,0.75,3.44"/>
			<path d="M203.79,61.87c0,0-1.2-1.12-0.55-3.44c0,0-0.21,2.34,0.75,3.44"/>
			<path d="M204.74,62.13c0,0-1.2-1.12-0.55-3.44c0,0-0.21,2.34,0.75,3.44"/>
			<path d="M206.67,61.87c0,0-1.2-1.12-0.55-3.44c0,0-0.21,2.34,0.75,3.44"/>
			<path d="M205.68,61.68c0,0-1.2-1.12-0.55-3.44c0,0-0.21,2.34,0.75,3.44"/>
			<path d="M207.82,61.87c0,0-1.2-1.12-0.55-3.44c0,0-0.21,2.34,0.75,3.44"/>
		</g>
		<path class="st7" d="M214.67,22.03c0,0,26.76-18.99,40.76,31.57c0,0,11.02,11.83-0.87,25.75c0,0-3.32,5.59-1.75,13.08
			c0,0-4.55-4.97-0.96-21.9c0,0,5.23-11.16-1.89-13.97c0,0-3.2-0.68-10.93-7.89c0,0-9.48,0.11-18.4-16.25l-4.32-5.31l-2.84,7.35
			c-4.06,18.9-12.83,21.48-12.83,21.48c-5.29,9.42-8.07,11-8.07,11c-5.85,4.83,1.82,14.51,1.82,14.51
			c7.62,15.92,4.69,22.18,4.69,22.18c-0.46-7.94-4.95-12.59-4.95-12.59c-14.52-10.55-7.37-25.51-7.37-25.51
			c0.02-54.55,29.55-43.16,29.55-43.16"/>
		<path class="st7" d="M208.04,25.03c0,0-10.93-8.88,0-13.95c10.93-5.07,18.81-2.25,18.81-2.25s9.62,8.02,2.25,12.11
			C221.74,25.03,208.04,25.03,208.04,25.03z"/>
		<path class="st0" d="M252.17,252.45c0,0,5.29,41.86,0.51,67.01c0,0,7.84,86.68,1.92,108.41L237.81,428l-9.27-173.14L252.17,252.45
			z"/>
		<path class="st0" d="M221.74,252.35c0,0,5.02,41.87,0.51,67.01c0,0,7.45,86.69,1.86,108.41l-15.87,0.12l-8.83-173.14
			L221.74,252.35z"/>
	</g>
	<g id="Layer_12">
		<path class="st2" d="M182.27,277.31h96.67v-12.58c0,0-0.68-11.33-3.25-16.36l-8.95-22.68c0,0-7.51-8.45-7.7-14.64l-1.31-9.9
			h-55.37l-0.38,11.97c0,0-12.76,19.71-17.08,40.36C184.9,253.47,181.7,268.67,182.27,277.31z"/>
		<path class="st4" d="M166.33,107.58c0,0,19.37,17.19,31.06,10.25l29.37,2.55l28.34-1.31c0,0,15.89-4.22,27.7,11.54
			c0,0,31.27,37.84,35.34,58.06v9.94c0,0-1.59-20.55-18.75-4.64c0,0-3.78-11.26-28.98-34.91c0,0-8.46,11.33-9.85,21.12
			c-0.28,1.97-2.82,20.98-2.82,20.98h-54.48c0,0,1.27-12.81-3.94-22.1c0,0-9.43-4.08-6.34-21.4c0,0-0.14-4.26-7.04-8.68
			l-43.36-29.54h4.22l8.41-3.52L166.33,107.58z"/>
		<path class="st0" d="M299.96,193.21c0,0,15.02-12.95,18.02,4.88c0,0,1.88,2.25-7.51,16.52c0,0-23.46,30.03-24.03,30.41
			c-0.56,0.38-5.07,10.7-15.96-0.94l-14.45,0.38c0,0-25.15-8.45,10.7-18.77c0,0,6.76,5.63,9.39,11.26c0,0,3.38,3.38,5.44-1.5
			C281.56,235.45,295.83,197.72,299.96,193.21z"/>
		<g>
			<rect x="245.99" y="143.43" class="st3" width="14.08" height="1.95"/>
			
				<rect x="245.99" y="143.43" transform="matrix(-1.836970e-16 1 -1 -1.836970e-16 397.4437 -108.6215)" class="st3" width="14.08" height="1.95"/>
		</g>
		<path class="st0" d="M142.57,119.43c0,0,29.78-3.44,23.76-11.85c-1.51-2.1-2.26-3.15-2.54-3.55c-0.85-1.18,2.54,3.55,2.54,3.55
			l0,0l-4.9-6.91L93.85,68.01l-9.1,0.94c0,0-23.94,4.5-2.91,11.07c0,0,4.44,1.37,9.3-1.69l2.71-2.06l9.13,6.19
			C102.99,82.46,117.15,102.11,142.57,119.43"/>
	</g>
</g>
</svg>
