<?xml version="1.0" encoding="utf-8"?>
<!-- Generator: Adobe Illustrator 24.3.0, SVG Export Plug-In . SVG Version: 6.00 Build 0)  -->
<svg version="1.1" xmlns="http://www.w3.org/2000/svg" xmlns:xlink="http://www.w3.org/1999/xlink" x="0px" y="0px"
	 viewBox="0 0 841.89 595.28" style="enable-background:new 0 0 841.89 595.28;" xml:space="preserve">
<style type="text/css">
	.st0{fill:#EECB9B;stroke:#EAC179;stroke-miterlimit:10;}
	.st1{fill:#3A342A;}
	.st2{fill:#D0ECEC;}
	.st3{fill:#ED1C24;}
	.st4{fill:#533814;stroke:#4B3014;stroke-miterlimit:10;}
	.st5{fill:#533814;}
	.st6{fill:none;stroke:#000000;stroke-width:2;stroke-miterlimit:10;}
	.st7{fill:#E4273A;stroke:#C42127;stroke-miterlimit:10;}
	.st8{fill:#EECB9B;}
</style>
<g id="face">
	<g>
		<path class="st0" d="M417.72,183.64c0.19-0.56,31.35-29.09,31.35-29.09l35.1,33.79c0,0-11.07,29.85-28.16,37.35
			c0,0-8.45,5.63-17.27-0.75c0,0-17.46-11.6-26.84-33.67L417.72,183.64z"/>
		<path class="st0" d="M420.91,247.84c0,0,13.51-4.13,14.64-9.95l3.19-12.95l2.45,1.48l1.81,0.76l1.93,0.52l1.87,0.25l3.23-0.13
			l2.29-0.51l1.91-0.69l1.79-0.93l1.88,10.7c0,0,4.36,12.15,25.34,11.45H420.91z"/>
	</g>
</g>
<g id="skirt">
	<path class="st0" d="M466.1,362c0,0,5.29,41.86,0.51,67.01c0,0,7.84,86.68,1.92,108.41l-16.79,0.13l-9.27-173.14L466.1,362z"/>
	<path class="st0" d="M435.66,361.9c0,0,5.02,41.87,0.51,67.01c0,0,7.45,86.69,1.86,108.41l-15.87,0.12l-8.83-173.14L435.66,361.9z"
		/>
	<path class="st1" d="M393.16,394.4h95.73c0,0,0.28-21.96-4.22-32.1c-4.5-10.14-15.96-28.16-16.42-36.88l-15.96-8.73l-39.98,6.19
		c0,0,3.38,6.48-13.23,34.63C399.08,357.52,394.29,361.18,393.16,394.4z"/>
</g>
<g id="top_1_">
	<path class="st2" d="M432.26,243.51l27.87-1.41c0,0,21.68-1.13,32.94,16.33c0,0,3.66,26.19,3.66,69.83c0,0,0.84,5.91,0,6.19
		s-14.92,0-14.92,0s-6.48-37.45-3.94-47.3c0,0-1.13,15.49-6.76,16.89c0,0-3.94,9.57-3.1,21.12h-56.03c0,0,2.82-16.61-1.69-21.12
		c0,0-8.17-1.41-8.17-17.74v-7.04c0,0-7.6,12.11-22.52,16.33c0,0-7.04,1.97-12.11-0.56c0,0-5.07-3.94-4.5-12.67
		c0,0,5.35,20.55,24.5,0.56c0,0,10.14-14.64,24.21-32.94L432.26,243.51z"/>
	<g>
		<rect x="413.87" y="270.11" class="st3" width="14.08" height="1.95"/>
		
			<rect x="413.87" y="270.11" transform="matrix(-1.836970e-16 1 -1 -1.836970e-16 691.9929 -149.8296)" class="st3" width="14.08" height="1.95"/>
	</g>
</g>
<g id="hair">
	<path class="st4" d="M410.67,185.21c0,0,9.01-50.12,36.6-39.42c0,0,25.9-10.14,34.35,21.4c0,0,2.82,2.25,4.5,18.02
		c0,0,6.19,19.15,0,28.72c0,0-14.64,14.64-2.82,14.64c0,0-8.45,6.19-10.14-6.19c0,0,12.11-18.77,7.98-28.63
		c0,0-1.78-12.11-12.86-19.43c0,0-9.3-3-17.08-16.33c0,0-19.71,16.33-33.79,25.53c0,0-5.44,9.39-1.31,17.83
		c0,0,6.76,10.51,3.75,16.89c0,0-4.13-12.01-9.2-18.02C410.67,200.22,409.19,191.56,410.67,185.21z"/>
	<path class="st4" d="M460.03,222.38c0,0,4.5-1.13,7.51-5.82v16.52c0,0,15.02,12.2,18.02,19.15c0,0,5.82,12.76,0,23.28
		c0,0-8.26,21.21-29.85,3.19c0,0,17.08,2.82,8.45-12.2c0,0-5.82-5.69-8.45-15.24c0,0-2.44-4.29,0-14.61
		C458.16,226.32,460.22,227.44,460.03,222.38z"/>
	<path class="st5" d="M467.54,216.56c0,0-0.91,15.62,2.31,18.46s-10.19,4.25-10.19,4.25L467.54,216.56z"/>
</g>
<g id="eyebrows">
	<path d="M420.83,185.62c0,0,14.15-7.36,21.53-3.52L420.83,185.62z"/>
	<path d="M474.52,186.31c0,0-13.8-8-21.35-4.5L474.52,186.31z"/>
	<path class="st6" d="M346.79,142.64c0,0,16.72-38.8,48.17-22.17c0,0,27.07,36.28,0,36.28c-27.07,0-18.07-20.21-18.07-20.21
		s24.44-15.06,14.09,14.67c-10.35,29.73-37.82-3.96-37.82-3.96s29.15-43.89,23.73-18.46c-5.42,25.44-27.87,5.39-22.54,34.67
		c0.8,4.37,27.07,28.55,37.02,8.4c0,0-46.97-1.51,5.97-27.71c0,0-3.18-35.27-31.85-5.04c0,0-50.73,12.6-18.71,21.67
		c0,0-3.98,32.75,39.01,6.55c0,0,23.09-40.81,11.15,3.02l-35.03-4.53c0,0-5.18,20.66-13.14-11.08c-7.96-31.74,22.81-2.52,22.81-2.52
		"/>
	<path class="st6" d="M355.62,267.83c0,0-8.11,14.91,0,23.01"/>
	<path class="st6" d="M350.87,264.04c0,0-14.01,19.86,0,30.65"/>
	<path class="st6" d="M516.81,310.77c0,0,8.11,14.91,0,23.01"/>
	<path class="st6" d="M521.56,306.99c0,0,14.01,19.86,0,30.65"/>
</g>
<g id="arms">
	<path class="st0" d="M428.88,226.9c0.08-1.12,1.15-12.39,1.15-12.39s-3.4-11.54-12.98-17.46c0,0-21.12-26.75-14.36,10.7
		c0,0,0,7.6,9.01,11.83c0,0,2.53,0.84,0.84,4.79c0,0-1.97,3.38-4.5,4.79c-2.53,1.41-52.09,46.18-45.05,53.21
		c0,0,4.64,14.42,17.38,6.65c0,0,4.98-3.44,13.4-14.95C393.78,274.07,428.69,229.47,428.88,226.9z"/>
	<path class="st0" d="M497.11,396.96c-1.31,0.56-5.16,6.48-4.88,7.32c0.28,0.84-1.43,0.84-0.01,2.82c1.42,1.97,15.33,27.41,13.81,0
		c-0.28-5.07,0.12-13.51,0.12-13.51s-4.62-50.12-9.41-59.13h-14.92c0,0,9.2,37.73,15.3,57.72
		C497.11,392.17,499.74,395.84,497.11,396.96z"/>
</g>
<g id="face_1_">
	<path class="st7" d="M437.54,212.94c1.13,0.01,9.68,5.13,19.16-1.85L437.54,212.94z"/>
	<path class="st7" d="M437.54,212.94c1.74-0.17,8.23-9.24,19.16-1.85L437.54,212.94z"/>
	<path class="st8" d="M456.79,210.57c0.02,0.05,0.26,0.39,0.26,0.39l-0.27,0.67c0,0,1.36,1.22,1.42,1.17
		c0.05-0.05,3.14-3.29,3.14-3.29l-0.96-1.23l-3.13-0.49L456.79,210.57z"/>
	<g id="eyes">
		<path d="M423.59,191.68c0,0,10.98-1.03,15.39,0.47C438.98,192.15,433.44,186.43,423.59,191.68z"/>
		<path d="M428.61,194.29c0,0,2.91,3.1,6.57,0c0,0,1.02-2.03,0-3.75l-6.57-0.12C428.61,190.42,427.48,192.41,428.61,194.29z"/>
		<path d="M424.6,191.17c0,0-1.2-1.12-0.55-3.44c0,0-0.21,2.34,0.75,3.44"/>
		<path d="M426.6,191.09c0,0-1.2-1.12-0.55-3.44c0,0-0.21,2.34,0.75,3.44"/>
		<path d="M425.62,191.24c0,0-1.2-1.12-0.55-3.44c0,0-0.21,2.34,0.75,3.44"/>
		<path d="M427.62,190.81c0,0-1.2-1.12-0.55-3.44c0,0-0.21,2.34,0.75,3.44"/>
		<path d="M428.57,191.06c0,0-1.2-1.12-0.55-3.44c0,0-0.21,2.34,0.75,3.44"/>
		<path d="M430.5,190.81c0,0-1.2-1.12-0.55-3.44c0,0-0.21,2.34,0.75,3.44"/>
		<path d="M429.52,190.61c0,0-1.2-1.12-0.55-3.44c0,0-0.21,2.34,0.75,3.44"/>
		<path d="M431.66,190.81c0,0-1.2-1.12-0.55-3.44c0,0-0.21,2.34,0.75,3.44"/>
		<g>
			<path d="M472.29,193.3c0,0-10.98-1.03-15.39,0.47C456.9,193.77,462.43,188.05,472.29,193.3z"/>
			<path d="M467.27,195.91c0,0-2.91,3.1-6.57,0c0,0-1.02-2.03,0-3.75l6.57-0.12C467.27,192.04,468.39,194.03,467.27,195.91z"/>
			<path d="M471.27,192.79c0,0,1.2-1.12,0.55-3.44c0,0,0.21,2.34-0.75,3.44"/>
			<path d="M469.27,192.71c0,0,1.2-1.12,0.55-3.44c0,0,0.21,2.34-0.75,3.44"/>
			<path d="M470.25,192.86c0,0,1.2-1.12,0.55-3.44c0,0,0.21,2.34-0.75,3.44"/>
			<path d="M468.25,192.43c0,0,1.2-1.12,0.55-3.44c0,0,0.21,2.34-0.75,3.44"/>
			<path d="M467.31,192.68c0,0,1.2-1.12,0.55-3.44c0,0,0.21,2.34-0.75,3.44"/>
			<path d="M465.37,192.43c0,0,1.2-1.12,0.55-3.44c0,0,0.21,2.34-0.75,3.44"/>
			<path d="M466.36,192.23c0,0,1.2-1.12,0.55-3.44c0,0,0.21,2.34-0.75,3.44"/>
			<path d="M464.22,192.43c0,0,1.2-1.12,0.55-3.44c0,0,0.21,2.34-0.75,3.44"/>
		</g>
	</g>
</g>
<g id="Layer_9">
</g>
</svg>
