<?xml version="1.0" encoding="utf-8"?>
<!-- Generator: Adobe Illustrator 24.3.0, SVG Export Plug-In . SVG Version: 6.00 Build 0)  -->
<svg version="1.1" xmlns="http://www.w3.org/2000/svg" xmlns:xlink="http://www.w3.org/1999/xlink" x="0px" y="0px"
	 viewBox="0 0 841.89 595.28" style="enable-background:new 0 0 841.89 595.28;" xml:space="preserve">
<style type="text/css">
	.st0{fill:#EECB9B;stroke:#EAC179;stroke-miterlimit:10;}
	.st1{fill:#3A342A;}
	.st2{fill:#ED1C24;}
	.st3{fill:#D0ECEC;}
	.st4{fill:#533814;stroke:#4B3014;stroke-miterlimit:10;}
	.st5{fill:#533814;}
	.st6{fill:#E4273A;stroke:#C42127;stroke-miterlimit:10;}
	.st7{stroke:#000000;stroke-miterlimit:10;}
	.st8{fill:none;stroke:#000000;stroke-width:8;stroke-miterlimit:10;}
	.st9{fill:#EECDE2;}
	.st10{fill:#211C5A;}
	.st11{fill:#B9E4EF;}
	.st12{fill:#99258F;}
	.st13{fill:#E4273A;stroke:#C42127;stroke-width:0.25;stroke-miterlimit:10;}
	.st14{fill:#FFFFFF;stroke:#000000;stroke-miterlimit:10;}
	.st15{fill:#F69DAC;}
</style>
<g id="face">
	<g>
		<path class="st0" d="M145.41,207.3c0.19-0.56,31.35-29.09,31.35-29.09l35.1,33.79c0,0-11.07,29.85-28.16,37.35
			c0,0-8.45,5.63-17.27-0.75c0,0-17.46-11.6-26.84-33.67L145.41,207.3z"/>
		<path class="st0" d="M148.6,271.49c0,0,13.51-4.13,14.64-9.95l3.19-12.95l2.45,1.48l1.81,0.76l1.93,0.52l1.87,0.25l3.23-0.13
			l2.29-0.51l1.91-0.69l1.79-0.93l1.88,10.7c0,0,4.36,12.15,25.34,11.45H148.6z"/>
	</g>
</g>
<g id="skirt">
	<path class="st0" d="M158.25,378.29c0,0-5.29,41.86-0.51,67.01c0,0-7.84,86.68-1.92,108.41l16.79,0.13l9.27-173.14L158.25,378.29z"
		/>
	<path class="st0" d="M188.68,378.2c0,0-5.02,41.87-0.51,67.01c0,0-7.45,86.69-1.86,108.41l15.87,0.12l8.83-173.14L188.68,378.2z"/>
	<path class="st1" d="M133.53,414.16h94.66c0,0,0.28-22.36-4.18-32.68c-4.45-10.32-15.78-28.67-16.24-37.55l-15.78-8.89l-39.53,6.31
		c0,0,3.34,6.59-13.09,35.26C139.37,376.61,134.64,380.33,133.53,414.16z"/>
</g>
<g id="top">
	<g>
		<rect x="149.59" y="288.94" class="st2" width="14.08" height="1.95"/>
		
			<rect x="149.59" y="288.94" transform="matrix(-1.836970e-16 1 -1 -1.836970e-16 446.5514 133.2887)" class="st2" width="14.08" height="1.95"/>
	</g>
	<path class="st3" d="M209.12,346.8h-56.88c1.4-10.26-1.13-20.55-1.13-20.55c-9.86-5.47-7.32-22.24-7.32-22.24
		c-2.54,7.76,0.28,15.35,0.28,15.35s-2.53,13.97-2.61,17.43c-0.54,22.76-19,8.35-19,8.35l5.71-61.6
		c1.67-11.9,17.77-18.31,17.77-18.31l27.26-2.77h14.24l27.26,2.77c0,0,16.1,6.41,17.77,18.31l5.71,61.6c0,0-18.47,14.41-19-8.35
		c-0.08-3.46-2.61-17.43-2.61-17.43s2.82-7.59,0.28-15.35c0,0,2.54,16.77-7.32,22.24c0,0-2.53,10.3-1.13,20.55h-56.88"/>
	<g>
		<rect x="150.57" y="294.03" class="st2" width="14.08" height="1.95"/>
		
			<rect x="150.57" y="294.03" transform="matrix(-1.836970e-16 1 -1 -1.836970e-16 452.6142 137.3991)" class="st2" width="14.08" height="1.95"/>
	</g>
</g>
<g id="hair">
	<path class="st4" d="M138.35,208.86c0,0,9.01-50.12,36.6-39.42c0,0,25.9-10.14,34.35,21.4c0,0,2.82,2.25,4.5,18.02
		c0,0,6.19,19.15,0,28.72c0,0-14.64,14.64-2.82,14.64c0,0-8.45,6.19-10.14-6.19c0,0,12.11-18.77,7.98-28.63
		c0,0-1.78-12.11-12.86-19.43c0,0-9.3-3-17.08-16.33c0,0-19.71,16.33-33.79,25.53c0,0-5.44,9.39-1.31,17.83
		c0,0,6.76,10.51,3.75,16.89c0,0-4.13-12.01-9.2-18.02C138.35,223.88,136.87,215.21,138.35,208.86z"/>
	<path class="st4" d="M187.72,247.03c0,0,4.5-1.13,7.51-5.82v16.52c0,0,15.02,12.2,18.02,19.15c0,0,5.82,12.76,0,23.28
		c0,0-8.26,21.21-29.85,3.19c0,0,17.08,2.82,8.45-12.2c0,0-5.82-5.69-8.45-15.24c0,0-2.44-4.29,0-14.61
		C185.84,250.97,187.91,252.1,187.72,247.03z"/>
	<path class="st5" d="M195.23,240.21c0,0-0.91,15.62,2.31,18.46c3.21,2.84-10.19,4.25-10.19,4.25L195.23,240.21z"/>
</g>
<g id="face_1_">
	<g id="eyes">
		<path d="M183.93,216.98h2.32c0,0,4.79,3.1,10.84-0.35h2.24C199.34,216.63,192.24,224.16,183.93,216.98z"/>
		<path d="M167.37,217.06l-2.32-0.14c0,0-4.96,2.81-10.8-1l-2.24-0.13C152.01,215.79,158.65,223.73,167.37,217.06z"/>
		<path class="st6" d="M171.12,237.83c0,0,4.45-20.03,9.2,0.37L171.12,237.83z"/>
	</g>
	<g id="eyebrows">
		<path d="M182.06,209.47c0,0,13.19-7.12,20.28-3.5l-19.66,5.66C182.69,211.63,181.65,210.76,182.06,209.47z"/>
		<path d="M168.06,209.24c0,0-13.35-6.81-20.36-3.03l19.79,5.2C167.49,211.42,168.5,210.52,168.06,209.24z"/>
	</g>
	<path class="st0" d="M178.64,208.77c0,0-1.87,1.94,0,4.13"/>
	<path class="st0" d="M171.31,208.77c0,0,1.87,1.94,0,4.13"/>
</g>
<g id="arms">
	<path class="st0" d="M237.47,339.62c0,0,1.14,23.39-20.7,7.5l-22.8-61.83c0,0-5.82-3.84-9-10.57l-4.84-11.28
		c0,0-8.49-20.95,12.05-8.65c0,0,4.49,3.25,7.64,22.32L237.47,339.62z"/>
	<path class="st0" d="M123.3,340.15c0,0-4.28,17.99,22.53,12.44l33.76-41.28c0,0,7.09-1.17,11.56-5.44l6.93-7.32
		c0,0,12.3-13.74-12.57-10.61c0,0-5.5,1.13-11.52,15.09L123.3,340.15z"/>
	<g>
		<ellipse class="st7" cx="146.22" cy="245.97" rx="1.05" ry="1.45"/>
		<ellipse class="st7" cx="150.96" cy="251.5" rx="1.05" ry="1.45"/>
		<ellipse class="st7" cx="148.37" cy="257.88" rx="1.05" ry="1.45"/>
		<line class="st7" x1="131.06" y1="241.07" x2="141.91" y2="244.51"/>
		<line class="st7" x1="132.45" y1="252.95" x2="144.55" y2="252.95"/>
		<path class="st7" d="M133.38,266.06c0.47-0.72,11.79-5.44,11.79-5.44"/>
	</g>
</g>
<g id="door">
	<polygon class="st8" points="373.25,41.92 509.54,81.45 509.54,527.36 373.25,566.9 	"/>
	<rect x="283.81" y="74.86" width="65.31" height="456.89"/>
	<ellipse cx="403.78" cy="311" rx="7.81" ry="27.46"/>
</g>
<g id="kids">
	<path class="st0" d="M715.85,415.9l6.22,0.58l-3.11,50.83c0,0-4.21,0.56-4.21,0C714.75,466.75,715.85,415.9,715.85,415.9z"/>
	<polygon class="st0" points="738.82,415.9 745.16,415.9 743.75,467.56 738.82,467.56 	"/>
	<path class="st9" d="M720.86,343.59c0,0-8.5-2.12-27.15,25.49l5.67,5.9l10.15-9.68c0,0,5.6,3.51,6.13,14.65
		c0.41,8.66-2.24,21.94-12.98,41.77c0,0-4.72,5.43,2.12,2.36c0,0,7.08-5.67,19.36,0.94c0,0,3.05,3.41,6.85,0
		c2.36-2.12,5.43-10.85,19.12-3.54c0,0,9.44,1.37,6.61-3.68c0,0-18.41-24.41-18.65-39.04c0,0-1.18-19.83,13.93-27.38
		c0,0,10.15-5.9,10.39-8.97l-4.01-6.37c0,0-12.04,10.39-19.83,8.03C738.56,344.06,730.07,341.22,720.86,343.59z"/>
	<path class="st0" d="M607.08,427.06l6.22,0.58l-3.11,50.83c0,0-4.21,0.56-4.21,0S607.08,427.06,607.08,427.06z"/>
	<polygon class="st0" points="630.05,427.06 636.39,427.06 634.98,478.72 630.05,478.72 	"/>
	<path class="st10" d="M603.54,426.73l14.64,1.36c0,0,5.67-41.02,6.61-0.68l14.87-0.68l-2.6-26.44l-15.46-12.8L604.5,404
		L603.54,426.73z"/>
	<path class="st11" d="M585.13,343.82c0,0,13.93,9.21,25.73,2.12c0,0,19.83-7.32,36.59,21.48l-5.67,4.96l-6.37-6.61l3.78,34.76
		c0,0-18.65-1.48-20.77,2.06c-2.12,3.54-15.34,1.18-15.34,1.18l-0.24-38.24c0,0-19.83-12.75-19.36-13.46
		S585.13,343.82,585.13,343.82z"/>
	<path class="st0" d="M544.53,323.76c0,0-7.55-0.47-10.39-5.67c0,0-3.07-9.44,6.61-4.96l4.96,4.71l-3.74-7.29
		c0,0-0.75-5.19,6.57,6.6c0,0,3.78,5.66,11.09,10.85l25.49,15.82l-1.65,8.26C583.48,352.08,550.01,325.17,544.53,323.76z"/>
	<path class="st0" d="M676.95,393.51l16.76-24.43l5.67,5.9c0,0-19.12,18.06-19.95,23.25c0,0-2.48,4.84-8.38,4.96
		c0,0-11.67-0.82-1.06-7.91C669.99,395.28,672.23,393,676.95,393.51z"/>
	<path class="st0" d="M644.97,376.4l15.82,16.41c0,0,3.3,1.18,2.36,5.9c0,0,1.84,5.25,8.38,3.3l2.48-3.54l-4.01-3.19
		c0,0-2.83-0.24-5.9-5.19l-16.64-22.66l-5.67,4.96L644.97,376.4z"/>
	<path class="st0" d="M610.27,337.57c0,0,4.25,0.71,7.08-0.44v8l4.24,0.47c0,0-5.84,9.85-13.05,1.53c0,0,2.38-0.41,2.32-1.18
		S610.27,337.57,610.27,337.57z"/>
	<path class="st0" d="M719.57,343.62c0,0,7.2,5.81,10.38-0.95l-1.89-0.5l-0.94-8.85c0,0-2.24,2.12-5.9,0l0.69,10.02L719.57,343.62z"
		/>
	<path class="st0" d="M790.14,317.38c0,0,5.79-0.45,7.96-5.41c0,0,2.35-9.02-5.06-4.73l-3.8,4.49l2.86-6.96c0,0,0.57-4.96-5.03,6.3
		c0,0-2.89,5.4-8.5,10.36l-19.53,15.1l1.27,7.89C760.3,344.43,785.94,318.73,790.14,317.38z"/>
	<path class="st12" d="M715.66,379.95c0,0,14.5,2.52,22.43-1.19l0.1,1.67l0.26,1.88l0.44,2.08l0.72,2.53c0,0-15.5,2.78-24.24,0
		C715.37,386.92,715.75,381.24,715.66,379.95z"/>
	<path class="st0" d="M635.66,305.36c-0.13-0.4-22.54-20.92-22.54-20.92l-25.23,24.29c0,0,7.96,21.46,20.24,26.85
		c0,0,6.07,4.05,12.41-0.54c0,0,12.55-8.34,19.3-24.21L635.66,305.36z"/>
	<path d="M609.46,304.82c0,0-10.55-2.18-14.69,1.78l14.71-0.16C609.47,306.44,610.01,305.63,609.46,304.82z"/>
	<path d="M619.25,305.04c0,0,10.48-2.5,14.74,1.33l-14.71,0.29C619.28,306.66,618.73,305.86,619.25,305.04z"/>
	<g>
		<path class="st13" d="M622.13,324.66c0,0-4.66-5.36-9.51-0.91c0,0-0.12,0.19-0.32-0.02c0,0-2.92-3.49-6.7,0.93H622.13z"/>
		<path class="st13" d="M622.13,324.66c0,0-13.73,13.33-16.53,0H622.13z"/>
	</g>
	<path d="M587.89,308.73c0,0,2.32-27.26,25.23-24.29c0,0,25.47-0.79,26.72,26.4l-14.44-15.11l-9,5.46l-7.69-6.68l-7.88,6.68
		l-3.43-1.6L587.89,308.73z"/>
	<g id="Layer_11">
		<circle class="st14" cx="625.4" cy="313.31" r="4.28"/>
		<path d="M621.74,313.31c0,1.71,1.38,3.09,3.09,3.09s3.09-1.38,3.09-3.09s-1.38-3.09-3.09-3.09S621.74,311.61,621.74,313.31z
			 M622.92,312.41c0-0.5,0.4-0.9,0.9-0.9s0.9,0.4,0.9,0.9s-0.4,0.9-0.9,0.9S622.92,312.91,622.92,312.41z"/>
		<circle class="st14" cx="603.31" cy="313.31" r="4.28"/>
		<path d="M599.64,313.31c0,1.71,1.38,3.09,3.09,3.09s3.09-1.38,3.09-3.09s-1.38-3.09-3.09-3.09S599.64,311.61,599.64,313.31z
			 M600.83,312.41c0-0.5,0.4-0.9,0.9-0.9s0.9,0.4,0.9,0.9s-0.4,0.9-0.9,0.9S600.83,312.91,600.83,312.41z"/>
		<path class="st0" d="M745.68,305.47c-0.13-0.4-22.54-20.92-22.54-20.92l-25.23,24.29c0,0,7.96,21.46,20.24,26.85
			c0,0,6.07,4.05,12.41-0.54c0,0,12.55-8.34,19.3-24.21L745.68,305.47z"/>
		<path d="M719.48,304.93c0,0-10.55-2.18-14.69,1.78l14.71-0.16C719.49,306.55,720.02,305.73,719.48,304.93z"/>
		<path d="M729.27,305.15c0,0,10.48-2.5,14.74,1.33l-14.71,0.29C729.3,306.77,728.75,305.97,729.27,305.15z"/>
		<path class="st6" d="M730.76,324.65c0,0-3.7-3.96-7.57-0.67c0,0-0.09,0.14-0.26-0.01c0,0-2.32-2.58-5.33,0.69H730.76z"/>
		<path d="M697.91,308.84c0,0,2.32-27.26,25.23-24.29c0,0,25.47-0.79,26.72,26.4l-14.44-15.11l-9,5.46l-7.69-6.68l-7.88,6.68
			l-3.43-1.6L697.91,308.84z"/>
		<circle class="st14" cx="735.42" cy="313.42" r="4.28"/>
		<path d="M731.76,313.42c0,1.71,1.38,3.09,3.09,3.09s3.09-1.38,3.09-3.09c0-1.71-1.38-3.09-3.09-3.09S731.76,311.71,731.76,313.42z
			 M732.94,312.52c0-0.5,0.4-0.9,0.9-0.9s0.9,0.4,0.9,0.9c0,0.5-0.4,0.9-0.9,0.9S732.94,313.02,732.94,312.52z"/>
		<circle class="st14" cx="713.33" cy="313.42" r="4.28"/>
		<path d="M709.66,313.42c0,1.71,1.38,3.09,3.09,3.09c1.71,0,3.09-1.38,3.09-3.09c0-1.71-1.38-3.09-3.09-3.09
			C711.05,310.33,709.66,311.71,709.66,313.42z M710.85,312.52c0-0.5,0.4-0.9,0.9-0.9s0.9,0.4,0.9,0.9c0,0.5-0.4,0.9-0.9,0.9
			S710.85,313.02,710.85,312.52z"/>
		<ellipse transform="matrix(0.3673 -0.9301 0.9301 0.3673 172.2231 835.3743)" cx="700.14" cy="291.1" rx="10.01" ry="6.46"/>
		<ellipse transform="matrix(0.9168 -0.3994 0.3994 0.9168 -54.9023 323.4621)" cx="748.63" cy="293.46" rx="7.06" ry="10.89"/>
		<path d="M697.91,308.84c0,0,9.4-10.62,12.93-7.55c0,0,7.14-9.04,15.58,0c0,0,8.36-6.12,15.9,1.77l6.3-7.14l-21.14-4.82h-17.82
			l-6.47,7.04L697.91,308.84z"/>
		<path class="st15" d="M717.61,324.65h13.15C730.76,324.65,721.97,337.26,717.61,324.65z"/>
		<path class="st13" d="M717.61,324.65c0,0,1.56,7.87,5.43,6.78c0,0,5.1,0.13,7.72-6.78C730.76,324.65,721.75,337.37,717.61,324.65z
			"/>
	</g>
</g>
</svg>
