<svg id="_8-1" data-name="8-1" xmlns="http://www.w3.org/2000/svg" viewBox="0 0 164.4 421.2">
  <path id="leg-r" d="M101.6,233.9s5.3,41.8.5,67c0,0,7.8,86.7,1.9,108.4H87.2L77.9,236.3Z" fill="#eecb9b" stroke="#eac179" stroke-miterlimit="10"/>
  <path id="leg-l" d="M71.2,233.8s5,41.8.5,67c0,0,7.4,86.7,1.8,108.4H57.7L48.8,236.2Z" fill="#eecb9b" stroke="#eac179" stroke-miterlimit="10"/>
  <path id="skirt" d="M45.9,192.1h56.9v8.5s14.9,28.1,16,38.3c0,0,4.3,18.5,2.9,28.7H26.2s-.3-26.8,8.2-37.7c0,0,13.2-24.5,11.8-26.5Z" fill="#3a342a"/>
  <path id="neck" d="M44.1,112.5s13.6-4.1,14.7-10L62,89.6l2.4,1.5,1.8.7,2,.6,1.8.2h3.3l2.3-.5,1.9-.7,1.8-1L81.1,101s4.4,12.2,25.4,11.5Z" fill="#eecb9b" stroke="#eac179" stroke-miterlimit="10"/>
  <g id="top">
    <path id="shirt" d="M45.9,192.1h56.9s-1.1-11,1.1-18.8c0,0,12.1-6.4,9-27.3l26.4,15.4-5-28.4s-32.9-27.9-34.9-28.2-59.8,5.8-59.8,5.8-17.3,3-19,25.8c0,0-6.2,65.6-4.5,65.6H31l6.7-37.3s-2.5-10.9-.2-15.4c0,0-3.1,15.8,7.3,22.3C44.8,171.6,48.4,181.7,45.9,192.1Z" fill="#d0ecec"/>
    <polygon id="cross" points="104.2 128.8 98.1 128.8 98.1 122.8 96.2 122.8 96.2 128.8 90.1 128.8 90.1 130.8 96.2 130.8 96.2 136.9 98.1 136.9 98.1 130.8 104.2 130.8 104.2 128.8" fill="#ed1c24"/>
  </g>
  <g id="head">
    <path id="hair-back" d="M52.7,82l8.8,8.6s4.5,25.4,0,34.9c0,0-18.2,25.3,2,22.3,0,0-.1,5-6.6,8.1,0,0-5.5,2.1-9.9,0,0,0-11.7-.9-13.3-15.9-.2-1.3-1.4-5.7,1.5-18.9,0,0,7.9-11.4,16.1-15.4C51.3,105.8,54.6,104.6,52.7,82Z" fill="#533814" stroke="#4b3014" stroke-miterlimit="10"/>
    <path id="head-2" data-name="head" d="M41,48.3c.1-.6,31.3-29.1,31.3-29.1L107.4,53S96.3,82.8,79.2,90.3A15.3,15.3,0,0,1,62,89.6,82.3,82.3,0,0,1,35.1,55.9Z" fill="#eecb9b" stroke="#eac179" stroke-miterlimit="10"/>
    <g id="lip">
      <path id="lip-bottom" d="M63.4,79.5c1.1,0,9.7,5.1,19.2-1.9Z" fill="#e4273a" stroke="#c42127" stroke-linejoin="bevel"/>
      <path id="lip-top" d="M63.4,79.5c1.8-.2,8.2-9.3,19.2-1.9Z" fill="#e4273a" stroke="#c42127" stroke-linejoin="round"/>
    </g>
    <path id="eye-r" d="M80.8,58.2h2.3s4.8,3.1,10.9-.4h2.2S89.1,65.4,80.8,58.2Z"/>
    <path id="brow-r" d="M76.7,53.3s-.7,1.6,2.5.8a49.2,49.2,0,0,1,17-3.8s2.2-.7-.1-1.2A52.8,52.8,0,0,0,76.7,53.3Z"/>
    <path id="eye-l" d="M64.3,58.3l-2.4-.2s-4.9,2.8-10.8-1H48.9S55.5,64.9,64.3,58.3Z"/>
    <path id="brow-l" d="M68.6,53.6s.7,1.7-2.5.7a50,50,0,0,0-16.7-4.8s-2.2-.8.2-1.2A51.8,51.8,0,0,1,68.6,53.6Z"/>
    <path id="hair" d="M71,11.9C38.4,2.3,34.7,48,34.3,55.6s4.9,5.8,8.7-3.9a33.6,33.6,0,0,1,7.6-9.4C59,38.6,73.5,24.5,73.5,24.5c.7,5.1,32,28.9,32,28.9v.2c2.4,4.2,4.5,5.5,4.3-4.9a63.5,63.5,0,0,0-5.3-20.2C88.7,1.1,71,11.9,71,11.9Z" fill="#533814" stroke="#4b3014" stroke-miterlimit="10"/>
    <path id="hair-r" d="M103.7,51.7c2.6,6.8-.2,16.9-.2,16.9-6.7,12.1-1,17.6-1,17.6a28.1,28.1,0,0,1,3.4-13.8c5.1-8.6,4.2-18.9,4.2-18.9-.1-1.7-.7-7.2-.9-8.8" fill="#533814" stroke="#4b3014" stroke-miterlimit="10"/>
    <path id="hair-l" d="M34.7,50.5C31.4,61.2,33,74.4,33,74.4c1.2,6,8.8,14.7,8.8,14.7a5.9,5.9,0,0,1-3,7.6c12.6,5,9.4-9.4,9.4-9.4C41.8,82.5,39.3,73,39.3,73c-1.4-5.3.6-11.9.6-11.9.5-3.6,4.5-11.3,5.9-14" fill="#533814" stroke="#4b3014" stroke-miterlimit="10"/>
  </g>
  <path id="tissue" d="M63.4,92.2l23.5.6-1.3,21.6s-.4,19.1-6,0c0,0,9.7,25.5-7.2,10,0,0-8.3,7.4-1.1-8.7,0,0-6.4,12.4-7-4.9Z" fill="#c5dfea" stroke="#9cbed3" stroke-miterlimit="10"/>
  <path id="arm-l" d="M15.1,201.1s7.9-20.4,15.6.3l-8.6,60.5a28.4,28.4,0,0,1,1.7,12l-1.1,11.3s-2.5,20.7-10.7,3.5c0,0-1.6-4.3,3.5-21.7Z" fill="#eecb9b" stroke="#eac179" stroke-miterlimit="10"/>
  <path id="arm-r" d="M84.5,100.3s7.3,8.8,14.6,9.9l33.5,46.4s25.9,22.9,24.5-8.4c0,0-7.3-16.3-29.8-30.1l-21.1-17.8L88.7,80.9S22.8,92.7,84.5,100.3Z" fill="#eecb9b" stroke="#eac179" stroke-miterlimit="10"/>
</svg>
