<?xml version="1.0" encoding="utf-8"?>
<!-- Generator: Adobe Illustrator 24.3.0, SVG Export Plug-In . SVG Version: 6.00 Build 0)  -->
<svg version="1.1" xmlns="http://www.w3.org/2000/svg" xmlns:xlink="http://www.w3.org/1999/xlink" x="0px" y="0px"
	 viewBox="0 0 841.89 595.28" style="enable-background:new 0 0 841.89 595.28;" xml:space="preserve">
<style type="text/css">
	.st0{fill:#EECB9B;stroke:#EAC179;stroke-miterlimit:10;}
	.st1{fill:#1A100A;}
	.st2{fill:#FFFFFF;stroke:#1A100A;stroke-miterlimit:10;}
	.st3{fill:#E4273A;stroke:#C42127;stroke-miterlimit:10;}
	.st4{fill:#304C23;}
	.st5{fill:#125D2F;}
	.st6{fill:#FDF7BA;}
	.st7{fill:#533814;stroke:#4B3014;stroke-miterlimit:10;}
	.st8{fill:#533814;}
	.st9{fill:none;stroke:#000000;stroke-miterlimit:10;}
	.st10{fill:#483B15;}
	.st11{fill:#A0D9D5;}
</style>
<g id="Layer_5">
	<path class="st0" d="M408.63,195.05c0,0,5.75,16.43,0,20.54c-5.75,4.11-17.25,9.86-17.25,9.86l47.64-7.39l-14.79-7.8
		c0,0-2.29-11.99-1.14-22.63"/>
	<path class="st0" d="M377.06,140.86c0,0,6.85-13.52,41.14-14.35c0,0,2.84-2.25,4.38,3.63c0.59,2.25,4.39,16.79,4.39,16.79
		l11.88,24.28c0,0-29.06,45.67-49.25,11.7C388.23,180.59,375.95,164.31,377.06,140.86z"/>
	<g>
		<path class="st1" d="M407.48,157.15c-0.64-1.28,0-4.27,0-4.27s4.11-3.63,10.59-3.32c0,0,3.16,0.47,4.42,1.9l0.71,0.95
			c0,0-3.32-2.45-5.22-1.9c0,0-5.69-0.02-9.01,2.83C408.98,153.35,407.87,157.94,407.48,157.15z"/>
		<path class="st2" d="M407.48,157.15c0,0-0.63,1.19,0,1.03c0,0,6.01-0.32,16.51-4.78l-0.79-0.98l-2.84-1.58l-2.37-0.31l-2.79,0.26
			l-3.76,1.07l-2.46,1.5L407.48,157.15z"/>
		<path class="st1" d="M410.75,152.58c0,0-0.6,3.84,2.14,4.03c0,0,2.21,0.47,3.18-1.13c0,0,1.82-3.11-1.2-4.44
			S410.75,152.58,410.75,152.58z"/>
	</g>
	<path class="st1" d="M398.33,157.72c-0.07-1.43-2.1-3.72-2.1-3.72s-5.36-1.15-10.85,2.31c0,0-2.52,1.97-2.92,3.83l-0.15,1.18
		c0,0,1.69-3.76,3.61-4.21c0,0,4.94-2.81,9.24-1.96C395.15,155.14,398.37,158.6,398.33,157.72z"/>
	<path class="st2" d="M398.33,157.72c0,0,1.13,0.72,0.5,0.89c0,0-5.39,2.67-16.73,3.95l0.2-1.25l1.7-2.78l1.91-1.44l2.56-1.14
		l3.8-0.91l2.88,0.1L398.33,157.72z"/>
	<path class="st1" d="M390.77,156.43c0,0,2.41,3.05,0.12,4.56c0,0-1.69,1.5-3.33,0.58c0,0-3.12-1.82-1.14-4.45
		C388.4,154.48,390.77,156.43,390.77,156.43z"/>
	<path class="st3" d="M397.59,177.79c0.14-0.64,4.59-8.6,17.68-6.66c0,0,4.1,2.6-0.4,4.03c-2.94,0.94-7.56-0.38-14.31,5.41
		C400.56,180.57,396.52,182.59,397.59,177.79z"/>
	<path d="M405.85,146.96c0,0,5.56-9.09,12.43-7.06l-10.87,8.95C407.41,148.85,406.23,148.23,405.85,146.96z"/>
	<path d="M397.64,147.74c0,0-11.53-6.42-17.72-0.18l17.18,3.13C397.1,150.69,398,149.33,397.64,147.74z"/>
	<path class="st1" d="M390.54,98.31c0,0,24.87-1.23,41.75,9.53l7.99,37.79l-1.18,25.2l-11.84-23.35l-5.33-19.67
		c0,0-33.16-0.92-44.42,13.83c0,0-2.08,10.77,2.37,20.59c0,0-4.74-9.22-6.22-22.74c0,0-18.66,0.31-18.66-22.12
		c0,0,4.54,4.61,8.19,3.69c0,0-5.82-6.15-5.82-13.21c0,0,9.1-2.15,19.65,0.92c0,0-2.18-2.46-2.48-6.15c0,0,10.48-2.15,20.2,0.61
		L390.54,98.31z"/>
	<path class="st0" d="M401.77,194.48c0,0,10.25,11.94,1.76,20.16l30.67-3.56c0,0-9.31-5.3-7.94-23.46
		C426.26,187.62,410.15,200.71,401.77,194.48z"/>
	<path class="st4" d="M402.05,209.86c0,0-5.78,5.15-14.27,5.45c0,0-3.68-0.3-7.1,5.45l-16.53,27.95l18.95,8.33l-2.42,57.25
		c0,0,29.53,11.81,76.75,0c0,0-1.36-60.24,8.83-90.81c0,0,0-9.08-10.19-10.29c0,0-17.33-3.03-18.34-6.66L402.05,209.86z"/>
	<path class="st5" d="M387.78,215.31c0,0,3.1,25.96-3.58,43.58c0,0-0.92,14.05-3.53,55.4c0,0,34.52,11.49,76.75,0
		c0,0-22.09-43.09,8.83-90.81c0,0,0.41-7.81-10.19-10.29c0,0-16.2-1.08-18.34-6.66l-35.67,3.33
		C402.05,209.86,393.38,216.25,387.78,215.31z"/>
	<path class="st4" d="M444.49,211.1l-17.68,31.13c0,0,25.26,14.38,25.52,13.35s3.43-11.3,3.43-11.3l4.11-9.57l6.39-11.23l-1.11-4.46
		c0,0-3.93-4.58-4.27-4.38c-0.34,0.2-4.81-1.45-4.81-1.45l-6.46-0.85L444.49,211.1z"/>
</g>
<g id="bed">
	<g id="pillow">
		<path class="st6" d="M233.35,361.98c0,0-1.13-7.51,7.88-8.26l31.16-1.5c0,0-0.81,16.48,11.61,20.82l-13.11,4.33l-6.42,3.51
			l-5.04,4.51c0,0,4.7,1.74-19.71,1.74c0,0-5.35-1.13-6.43-6.01L233.35,361.98z"/>
	</g>
	<g id="Layer_3">
		<g>
			<path class="st0" d="M269.41,368.04c-0.46-0.37-16.25-39.56-16.25-39.56l43.95-21.02c0,0,24.06,20.84,25.1,39.47
				c0,0,2.31,9.89-6.76,15.91c0,0-16.98,12.28-40.95,13.33L269.41,368.04z"/>
			<path class="st0" d="M330.65,387.57c0,0,0.87-14.1-4.18-17.2l-11.01-7.53l2.25-1.77l1.34-1.43l1.16-1.62l0.89-1.66l1.01-3.07
				l0.33-2.32l0.02-2.03l-0.24-2l10.68,1.99c0,0,12.91,0.18,19.61-19.71L330.65,387.57z"/>
		</g>
		<path class="st7" d="M268.4,375.2c0,0-43.77-26.02-24.08-48.1c0,0-0.41-27.81,32.09-24.66c0,0,3.1-1.85,18.46,2.1
			c0,0,20.1,0.91,26.89,10.07c0,0,8.58,18.85,12.72,7.77c0,0,2.84,10.08-9.36,7.32c0,0-13.33-17.92-24.01-17.51
			c0,0-11.96-2.58-22.7,5.23c0,0-6.07,7.66-21.28,10.27c0,0,8.38,24.18,12.06,40.59c0,0,6.88,8.39,16.24,7.49
			c0,0,12.21-2.64,17.14,2.41c0,0-12.7-0.35-20.1,2.29C282.46,380.47,273.83,378.81,268.4,375.2z"/>
		<path class="st7" d="M321.46,342.36c0,0,0.53-4.61-2.82-9.07l15.47,5.79c0,0,16.69-9.78,24.25-10.16c0,0,13.99-0.97,21.8,8.16
			c0,0,16.97,15.17-7.48,29.07c0,0,8.63-15.01-8.46-12.19c0,0-7.37,3.45-17.23,2.57c0,0-4.87,0.78-13.68-5.12
			C324.49,345.5,326.27,343.96,321.46,342.36z"/>
		<path class="st8" d="M317.71,332.93c0,0,14.31,6.33,18.09,4.31s0.41,11.03,0.41,11.03L317.71,332.93z"/>
		<path d="M291.99,335.36l0.81-2.18c0,0,4.58-3.4,3.47-10.27l0.79-2.1C297.06,320.81,301.62,330.1,291.99,335.36z"/>
		<path d="M286.25,350.9l-0.94,2.12c0,0,0.89,5.63-4.72,9.76l-0.91,2.05C279.68,364.84,289.44,361.41,286.25,350.9z"/>
		<path class="st3" d="M304.03,358.39c0,0-1.51-7.83,6.4-17.1C310.43,341.29,309.66,350.72,304.03,358.39z"/>
		<path d="M278.85,331.86c0,0,6.82-13.34,14.72-14.38l-12.98,15.81C280.59,333.28,279.24,333.15,278.85,331.86z"/>
		<path d="M273.52,346.03c0,0-3.6,14.55,1.68,20.52l0.57-20.45C275.78,346.09,274.67,345.31,273.52,346.03z"/>
		<path class="st9" d="M268.1,266.01c0,0-2.88,3.61,0,9.33c2.88,5.72,0.56,9.03,0.56,9.03s-2.31,5.12,0,7.83"/>
		<path class="st9" d="M272.27,266.01c0,0-2.88,3.61,0,9.33c2.88,5.72,0.56,9.03,0.56,9.03s-2.31,5.12,0,7.83"/>
		<path class="st9" d="M276.38,266.01c0,0-2.88,3.61,0,9.33c2.88,5.72,0.56,9.03,0.56,9.03s-2.31,5.12,0,7.83"/>
	</g>
	<path class="st10" d="M175.48,264.38c0,0-1.27-9.29,9.71-10.14c10.98-0.84,32.1,0,32.1,0s6.76,1.69,6.76,10.14v128.39
		c0,0-0.84,5.07,7.6,5.91h409.67c0,0,5.35,1.41,5.35-6.48v-25.34c0,0-1.69-5.07,4.5-5.63l29.85-0.56c0,0,6.47-1.13,6.47,6.76v108.68
		c0,0,1.42,9.1-5.9,9.1h-36.6c0,0-6.76,2.16-7.88-5.72l-0.56-7.32c0,0,0.56-3.38-4.22-2.82c-4.79,0.56-404.6,0-404.6,0
		s-1.97-0.99-1.97,2.53l-0.14,7.46c0,0,0.14,5.86-5.77,5.86s-39.14,0-39.14,0s-5.29-0.65-5.25-5.02
		C175.48,475.83,175.48,264.38,175.48,264.38z"/>
	<path class="st11" d="M265.34,407.38c-2.51-1.69-27.03-8.63,0-21.4c0,0,59.32-14.51,147.16-88.34c0,0,55.19-45.3,106.62,5.75
		s125.39,46.55,125.39,46.55s28.53-5.26,18.4,23.65c0,0-17.64,48.43-63.44,57.44c0,0-21.4,12.76-76.96-9.01c0,0-73.21-22.9-116.38,0
		c0,0-21.4,11.26-63.07,5.26C343.05,427.28,287.11,422.02,265.34,407.38z"/>
	<path class="st9" d="M516.11,281.99c0,0,7.13-0.75,10.51,8.26"/>
	<path class="st9" d="M514.24,271.86c0.75,1.13,16.14-0.75,19.15,18.4"/>
	<path class="st9" d="M646.06,341.18c0,0,5.63-4.44,13.3,1.38"/>
	<path class="st9" d="M639.07,333.61c1.24,0.55,13.26-9.24,26,5.36"/>
</g>
<g id="arms">
	<path class="st0" d="M450.07,254.18c0,0,5.51-22.61-19.16-11.37l-34.23,55.88c0,0-6.5,2.61-10.92,8.56l-6.92,10.07
		c0,0-12.35,18.78,10.35,10.8c0,0,5.06-2.29,11.77-20.28L450.07,254.18z"/>
	<path class="st0" d="M364.17,249.48c0,0,18.22-12.7,20.03,9.41l-34.83,46.23c0,0,0.8,5.69-2.52,11.17l-5.9,8.87
		c0,0-11.29,16.15-15.14-3.28c0,0-0.39-4.53,12.97-16.31L364.17,249.48z"/>
</g>
</svg>
