<?xml version="1.0" encoding="utf-8"?>
<!-- Generator: Adobe Illustrator 24.3.0, SVG Export Plug-In . SVG Version: 6.00 Build 0)  -->
<svg version="1.1" xmlns="http://www.w3.org/2000/svg" xmlns:xlink="http://www.w3.org/1999/xlink" x="0px" y="0px"
	 viewBox="0 0 156.55 423.47" style="enable-background:new 0 0 156.55 423.47;" xml:space="preserve">
<style type="text/css">
	.st0{fill:#EECB9B;stroke:#EAC179;stroke-miterlimit:10;}
	.st1{fill:#D0ECEC;}
	.st2{fill:#3A342A;}
	.st3{fill:#ED1C24;}
	.st4{fill:#533814;stroke:#4B3014;stroke-miterlimit:10;}
	.st5{fill:#533814;}
	.st6{fill:#E4273A;stroke:#C42127;stroke-miterlimit:10;}
	.st7{fill:none;stroke:#000000;stroke-miterlimit:10;}
</style>
<g id="lrgs">
	<path class="st0" d="M111.35,232.28c0,0,5.29,41.86,0.51,67.01c0,0,7.84,86.68,1.92,108.41L97,407.83l-9.27-173.14L111.35,232.28z"
		/>
	<path class="st0" d="M80.92,232.18c0,0,5.02,41.87,0.51,67.01c0,0,7.45,86.69,1.86,108.41l-15.87,0.12l-8.83-173.14L80.92,232.18z"
		/>
</g>
<g id="clothes">
	<path class="st1" d="M109.43,110.37l15.58,1.4c0,0,10.98,1.7,12.95,16.62s5.77,71.23,5.77,71.23l-15.91,0.7
		c0,0-5.07-29.27-3.66-46.94c0,0-0.47,14.7-4.6,17.24c0,0-3.85,0.84-4.41,4.79c0,0-2.82,7.32-2.25,18.86l-54.06,0.56
		c0,0,1.13-13.23-4.79-23.93c0,0-6.29-3.8-6.19-14.08l0-5.35c0,0-16.33,10.42-22.81,11.54c0,0-5.63,1.69-9.57,0.28
		c0,0-7.06-2.19-6.13-11.31c0.07-0.69,0.19-1.43,0.36-2.2l0.68,4.22l2.12,2.94l5.08,1.76l4.03-0.19l3.72-0.86l3.5-2.76l6.74-7.51
		l7.76-9.72l26.4-33.82l9.04,7.91L109.43,110.37z"/>
	<path class="st2" d="M37.73,270.01c0,0,96.29,0.19,96.29,0s0.94-21.96-6.19-35.29c0,0-10.12-20.18-13.7-30.03
		c-0.75-2.06-1.22-10.42-1.22-10.42l-54.06,0.56l-0.09,9.67c0,0-10.32,16.89-14.64,29.28C44.11,233.78,39.23,243.92,37.73,270.01z"
		/>
	<g>
		<rect x="102.39" y="138.68" class="st3" width="14.08" height="1.95"/>
		
			<rect x="102.39" y="138.68" transform="matrix(-1.836970e-16 1 -1 -1.836970e-16 249.0911 30.2254)" class="st3" width="14.08" height="1.95"/>
	</g>
</g>
<g id="face">
	<path class="st0" d="M63.71,111.77l44.03-1.87c0,0-16.61-6.66-9.95-22.52c6.66-15.86,0,0,0,0s14.86-7.78,13.86-25.76
		c-1-17.98-2.22-31.21-2.22-31.21L76.5,19.01L50.96,41.38l1.41,13.51c0,0-0.05,22.57,13.35,31.84l5.8,3.45
		C71.52,90.19,77.58,100.5,63.71,111.77"/>
</g>
<g id="hair">
	<path class="st4" d="M42.26,53.21c0.02-0.84-0.58-48.43,31.18-42.23c0,0,29.15-20.55,44.74,31.53c0,0,7.22,9.57,0,22.52
		c0,0-3.46,3.38-2.31,12.39c0,0-7.22-4.5,0.29-16.89c0,0,2.02-5.07-0.58-8.45s-9.53-12.95-38.1-27.03c0,0-8.37,10.92-20.78,17.15
		c0,0-4.91,7.07-6.06,12.7c0,0-4.62,3.66-5.48,3.66s0.58,16.05,0.58,16.05s0.87,7.32,10.1,12.39c0,0,2.31,0.84,2.31,2.82
		s-2.6,4.22-2.6,4.22s-1.44-0.84-1.44-1.27s-0.14-1.97-0.14-1.97s0.87-0.99-1.15-2.53c-2.02-1.55-9.24-6.76-10.54-13.37
		C40.96,68.27,42.21,55.74,42.26,53.21z"/>
	<path class="st5" d="M99.3,33.5c0.19,0.75,12.65,21.28,13.74,35.7s3.34-5.85,3.34-5.85l3.19-7.18l-2.82-10.47l-11.64-18.02
		L99.3,33.5z"/>
	<g id="Layer_7">
		<path class="st4" d="M40.08,137.21c-0.4-1.36,25.35-30.83,28.45-36.32c3.1-5.49,2.25-9.85,2.25-9.85s0.42-1.69,1.55,0
			c1.13,1.69,2.39,9.85,2.39,9.85s1.69,12.67-1.41,19.15c0,0-3.24,8.02-11.12,13.8c0,0-5.07,6.9,0.42,10.56c0,0,1.69,2.39,8.31,0.7
			c6.62-1.69-5.07,7.32-5.07,7.32s-5.35,2.39-11.54,0C48.11,150.02,43.73,149.6,40.08,137.21z"/>
	</g>
	<path class="st5" d="M52.49,49.59c0,0-1.76,12.99,2.82,22.15c0,0,1.99,7.41,6.2,11.21c0,0,2.22,11.56-6.55,14.94l-3.99,2.82
		c0,0,5.16-13.51,0-12.95l-5.91-11.26l-1.88-20.27L52.49,49.59z"/>
</g>
<g id="Layer_6">
	<path class="st6" d="M75.61,83.33c0.14-0.16,3.11-10.7,6.48-12.72c3.38-2.03,6.08,0,6.08,0s3.11,3.89-0.54,12.28
		S75.61,83.33,75.61,83.33z"/>
	<polyline class="st7" points="103.31,56.99 91.68,61.52 106.92,63.66 	"/>
	<polyline class="st7" points="61.24,56.99 72.87,61.52 57.63,63.66 	"/>
	<path d="M108.64,52.59c0,0-13.8-8-21.35-4.5L108.64,52.59z"/>
	<path d="M54.95,51.9c0,0,14.15-7.36,21.53-3.52L54.95,51.9z"/>
</g>
<g id="arms">
	<path class="st0" d="M89.46,201.76c0,0,14.51-5,19.65-6.17c5.13-1.17,22.45-4.95,22.45-4.95s24.64,7.5,2.84,10.59l-18.68,2.61
		l-16.69,2.77l-9.84,1.55c0,0-7.25,0.76-11.09-1.26c0,0-8.39-5.58-1.55-6.44c0,0,5.23,2.11,7.15,1
		C85.63,200.35,89.46,201.76,89.46,201.76z"/>
	<path class="st0" d="M86.87,107.65c10.27-3.32,9.72-22.66,9.72-22.66s-0.11-5.2,0.67-11.21c0.78-6.02-9.62,3.22-9.62,3.22
		s0,0-5.88,4.53C75.88,86.04,75.3,99.6,75.3,99.6s2.66,2.11-4.42,6.25S29.8,129.97,29.8,129.97l-14.08,8.65
		c0,0-17.93,22.32,9.72,18.9l56.15-40.78l4.14-8.29C85.73,108.45,85.34,108.14,86.87,107.65z"/>
</g>
<g id="Layer_8">
	<g>
		<path class="st7" d="M9.27,38.23c0.42,0.18,12.58,3,12.79-10.55"/>
		<path class="st7" d="M37.25,38.23c-0.42,0.18-12.58,3-12.79-10.55"/>
		<path class="st7" d="M9.27,43.25c0.42-0.18,12.58-3,12.79,10.55"/>
		<path class="st7" d="M37.25,43.25c-0.42-0.18-12.58-3-12.79,10.55"/>
	</g>
	<g>
		<path d="M124.59,100.71c0,0,7.81,6.26,5.27-3.8c0,0-4.55-5.44-8.61-8.69C121.24,88.23,121.97,96.42,124.59,100.71z"/>
		<path d="M132.78,95.68c0,0,9.83,1.6,2.68-5.93c0,0-6.61-2.5-11.73-3.32C123.73,86.43,128.4,93.23,132.78,95.68z"/>
		<path d="M137.07,87.18c0,0,9.46-2.98-0.26-6.53c0,0-7,0.73-11.92,2.29C124.89,82.93,132.08,86.95,137.07,87.18z"/>
	</g>
</g>
</svg>
